<?xml version="1.0" encoding="UTF-8" standalone="no"?>
<!DOCTYPE svg PUBLIC "-//W3C//DTD SVG 1.1//EN"
 "http://www.w3.org/Graphics/SVG/1.1/DTD/svg11.dtd">
<!-- Generated by graphviz version 2.46.0 (20210119.1425)
 -->
<!-- Title: dependencies Pages: 1 -->
<svg width="504pt" height="284pt"
 viewBox="0.00 0.00 504.00 284.00" xmlns="http://www.w3.org/2000/svg" xmlns:xlink="http://www.w3.org/1999/xlink">
<g id="graph0" class="graph" transform="scale(1 1) rotate(0) translate(4 280)">
<title>dependencies</title>
<polygon fill="white" stroke="transparent" points="-4,4 -4,-280 500,-280 500,4 -4,4"/>
<text text-anchor="start" x="227.01" y="-42.4" font-family="sans-serif" font-weight="bold" font-size="14.00">Legend</text>
<polygon fill="#ffffb3" stroke="transparent" points="14,-10 14,-30 34,-30 34,-10 14,-10"/>
<text text-anchor="start" x="37.63" y="-15.4" font-family="sans-serif" font-size="14.00"> &#160;Declarations</text>
<polygon fill="#8dd3c7" stroke="transparent" points="127,-10 127,-30 147,-30 147,-10 127,-10"/>
<text text-anchor="start" x="150.73" y="-15.4" font-family="sans-serif" font-size="14.00"> &#160;Module</text>
<polygon fill="#80b1d3" stroke="transparent" points="213,-10 213,-30 233,-30 233,-10 213,-10"/>
<text text-anchor="start" x="236.78" y="-15.4" font-family="sans-serif" font-size="14.00"> &#160;Bootstrap</text>
<polygon fill="#fdb462" stroke="transparent" points="310,-10 310,-30 330,-30 330,-10 310,-10"/>
<text text-anchor="start" x="333.67" y="-15.4" font-family="sans-serif" font-size="14.00"> &#160;Providers</text>
<polygon fill="#fb8072" stroke="transparent" points="406,-10 406,-30 426,-30 426,-10 406,-10"/>
<text text-anchor="start" x="429.73" y="-15.4" font-family="sans-serif" font-size="14.00"> &#160;Exports</text>
<g id="clust1" class="cluster">
<title>cluster_ManageRolesModule</title>
<polygon fill="none" stroke="black" stroke-dasharray="1,5" points="92,-70 92,-268 404,-268 404,-70 92,-70"/>
</g>
<g id="clust6" class="cluster">
<title>cluster_ManageRolesModule_bootstrap</title>
<polygon fill="none" stroke="black" points="159,-208 159,-260 337,-260 337,-208 159,-208"/>
</g>
<g id="clust4" class="cluster">
<title>cluster_ManageRolesModule_imports</title>
<polygon fill="none" stroke="black" points="282,-78 282,-130 396,-130 396,-78 282,-78"/>
</g>
<g id="clust2" class="cluster">
<title>cluster_ManageRolesModule_declarations</title>
<polygon fill="none" stroke="black" points="100,-78 100,-130 274,-130 274,-78 100,-78"/>
</g>
<!-- ManageRolesComponent -->
<g id="node1" class="node">
<title>ManageRolesComponent</title>
<polygon fill="#ffffb3" stroke="black" points="266.31,-122 107.69,-122 107.69,-86 266.31,-86 266.31,-122"/>
<text text-anchor="middle" x="187" y="-99.8" font-family="Times,serif" font-size="14.00">ManageRolesComponent</text>
</g>
<!-- ManageRolesModule -->
<g id="node2" class="node">
<title>ManageRolesModule</title>
<polygon fill="#8dd3c7" stroke="black" points="316.03,-187 313.03,-191 292.03,-191 289.03,-187 179.97,-187 179.97,-151 316.03,-151 316.03,-187"/>
<text text-anchor="middle" x="248" y="-164.8" font-family="Times,serif" font-size="14.00">ManageRolesModule</text>
</g>
<!-- ManageRolesComponent&#45;&gt;ManageRolesModule -->
<g id="edge1" class="edge">
<title>ManageRolesComponent&#45;&gt;ManageRolesModule</title>
<path fill="none" stroke="black" d="M222.95,-122.11C222.95,-122.11 222.95,-140.99 222.95,-140.99"/>
<polygon fill="black" stroke="black" points="219.45,-140.99 222.95,-150.99 226.45,-140.99 219.45,-140.99"/>
</g>
<!-- ManageRolesComponent  -->
<g id="node4" class="node">
<title>ManageRolesComponent </title>
<polygon fill="#80b1d3" stroke="black" points="328.81,-252 167.19,-252 167.19,-216 328.81,-216 328.81,-252"/>
<text text-anchor="middle" x="248" y="-229.8" font-family="Times,serif" font-size="14.00">ManageRolesComponent </text>
</g>
<!-- ManageRolesModule&#45;&gt;ManageRolesComponent  -->
<g id="edge3" class="edge">
<title>ManageRolesModule&#45;&gt;ManageRolesComponent </title>
<path fill="none" stroke="black" stroke-dasharray="1,5" d="M248,-187.11C248,-187.11 248,-205.99 248,-205.99"/>
<polygon fill="black" stroke="black" points="244.5,-205.99 248,-215.99 251.5,-205.99 244.5,-205.99"/>
</g>
<!-- SharedModule -->
<g id="node3" class="node">
<title>SharedModule</title>
<polygon fill="#8dd3c7" stroke="black" points="388.42,-122 385.42,-126 364.42,-126 361.42,-122 289.58,-122 289.58,-86 388.42,-86 388.42,-122"/>
<text text-anchor="middle" x="339" y="-99.8" font-family="Times,serif" font-size="14.00">SharedModule</text>
</g>
<!-- SharedModule&#45;&gt;ManageRolesModule -->
<g id="edge2" class="edge">
<title>SharedModule&#45;&gt;ManageRolesModule</title>
<path fill="none" stroke="black" d="M303.03,-122.11C303.03,-122.11 303.03,-140.99 303.03,-140.99"/>
<polygon fill="black" stroke="black" points="299.53,-140.99 303.03,-150.99 306.53,-140.99 299.53,-140.99"/>
</g>
</g>
</svg>
