<?xml version="1.0" encoding="UTF-8" standalone="no"?>
<!DOCTYPE svg PUBLIC "-//W3C//DTD SVG 1.1//EN"
 "http://www.w3.org/Graphics/SVG/1.1/DTD/svg11.dtd">
<!-- Generated by graphviz version 2.47.0 (20210316.0004)
 -->
<!-- Title: dependencies Pages: 1 -->
<svg width="504pt" height="284pt"
 viewBox="0.00 0.00 504.00 284.00" xmlns="http://www.w3.org/2000/svg" xmlns:xlink="http://www.w3.org/1999/xlink">
<g id="graph0" class="graph" transform="scale(1 1) rotate(0) translate(4 280)">
<title>dependencies</title>
<polygon fill="white" stroke="transparent" points="-4,4 -4,-280 500,-280 500,4 -4,4"/>
<text text-anchor="start" x="227.01" y="-42.4" font-family="Times-12" font-weight="bold" font-size="14.00">Legend</text>
<polygon fill="#ffffb3" stroke="transparent" points="14,-10 14,-30 34,-30 34,-10 14,-10"/>
<text text-anchor="start" x="37.63" y="-15.4" font-family="Times-12" font-size="14.00"> &#160;Declarations</text>
<polygon fill="#8dd3c7" stroke="transparent" points="127,-10 127,-30 147,-30 147,-10 127,-10"/>
<text text-anchor="start" x="150.73" y="-15.4" font-family="Times-12" font-size="14.00"> &#160;Module</text>
<polygon fill="#80b1d3" stroke="transparent" points="213,-10 213,-30 233,-30 233,-10 213,-10"/>
<text text-anchor="start" x="236.78" y="-15.4" font-family="Times-12" font-size="14.00"> &#160;Bootstrap</text>
<polygon fill="#fdb462" stroke="transparent" points="310,-10 310,-30 330,-30 330,-10 310,-10"/>
<text text-anchor="start" x="333.67" y="-15.4" font-family="Times-12" font-size="14.00"> &#160;Providers</text>
<polygon fill="#fb8072" stroke="transparent" points="406,-10 406,-30 426,-30 426,-10 406,-10"/>
<text text-anchor="start" x="429.73" y="-15.4" font-family="Times-12" font-size="14.00"> &#160;Exports</text>
<g id="clust1" class="cluster">
<title>cluster_ManageRolesModule</title>
<polygon fill="none" stroke="black" stroke-dasharray="1,5" points="59,-70 59,-268 437,-268 437,-70 59,-70"/>
</g>
<g id="clust6" class="cluster">
<title>cluster_ManageRolesModule_bootstrap</title>
<polygon fill="none" stroke="black" points="158,-208 158,-260 336,-260 336,-208 158,-208"/>
</g>
<g id="clust4" class="cluster">
<title>cluster_ManageRolesModule_imports</title>
<polygon fill="none" stroke="black" points="249,-78 249,-130 429,-130 429,-78 249,-78"/>
</g>
<g id="clust2" class="cluster">
<title>cluster_ManageRolesModule_declarations</title>
<polygon fill="none" stroke="black" points="67,-78 67,-130 241,-130 241,-78 67,-78"/>
</g>
<!-- ManageRolesComponent -->
<g id="node1" class="node">
<title>ManageRolesComponent</title>
<polygon fill="#ffffb3" stroke="black" points="233.31,-122 74.69,-122 74.69,-86 233.31,-86 233.31,-122"/>
<text text-anchor="middle" x="154" y="-99.8" font-family="Times,serif" font-size="14.00">ManageRolesComponent</text>
</g>
<!-- ManageRolesModule -->
<g id="node2" class="node">
<title>ManageRolesModule</title>
<polygon fill="#8dd3c7" stroke="black" points="315.03,-187 312.03,-191 291.03,-191 288.03,-187 178.97,-187 178.97,-151 315.03,-151 315.03,-187"/>
<text text-anchor="middle" x="247" y="-164.8" font-family="Times,serif" font-size="14.00">ManageRolesModule</text>
</g>
<!-- ManageRolesComponent&#45;&gt;ManageRolesModule -->
<g id="edge1" class="edge">
<title>ManageRolesComponent&#45;&gt;ManageRolesModule</title>
<path fill="none" stroke="black" d="M205.95,-122.11C205.95,-122.11 205.95,-140.99 205.95,-140.99"/>
<polygon fill="black" stroke="black" points="202.45,-140.99 205.95,-150.99 209.45,-140.99 202.45,-140.99"/>
</g>
<!-- ManageRolesComponent  -->
<g id="node4" class="node">
<title>ManageRolesComponent </title>
<polygon fill="#80b1d3" stroke="black" points="327.81,-252 166.19,-252 166.19,-216 327.81,-216 327.81,-252"/>
<text text-anchor="middle" x="247" y="-229.8" font-family="Times,serif" font-size="14.00">ManageRolesComponent </text>
</g>
<!-- ManageRolesModule&#45;&gt;ManageRolesComponent  -->
<g id="edge3" class="edge">
<title>ManageRolesModule&#45;&gt;ManageRolesComponent </title>
<path fill="none" stroke="black" stroke-dasharray="1,5" d="M247,-187.11C247,-187.11 247,-205.99 247,-205.99"/>
<polygon fill="black" stroke="black" points="243.5,-205.99 247,-215.99 250.5,-205.99 243.5,-205.99"/>
</g>
<!-- RedboxPortalCoreModule -->
<g id="node3" class="node">
<title>RedboxPortalCoreModule</title>
<polygon fill="#8dd3c7" stroke="black" points="420.75,-122 417.75,-126 396.75,-126 393.75,-122 257.25,-122 257.25,-86 420.75,-86 420.75,-122"/>
<text text-anchor="middle" x="339" y="-99.8" font-family="Times,serif" font-size="14.00">RedboxPortalCoreModule</text>
</g>
<!-- RedboxPortalCoreModule&#45;&gt;ManageRolesModule -->
<g id="edge2" class="edge">
<title>RedboxPortalCoreModule&#45;&gt;ManageRolesModule</title>
<path fill="none" stroke="black" d="M286.19,-122.11C286.19,-122.11 286.19,-140.99 286.19,-140.99"/>
<polygon fill="black" stroke="black" points="282.69,-140.99 286.19,-150.99 289.69,-140.99 282.69,-140.99"/>
</g>
</g>
</svg>
