<?xml version="1.0" encoding="UTF-8" standalone="no"?>
<!DOCTYPE svg PUBLIC "-//W3C//DTD SVG 1.1//EN"
 "http://www.w3.org/Graphics/SVG/1.1/DTD/svg11.dtd">
<!-- Generated by graphviz version 2.47.0 (20210316.0004)
 -->
<!-- Title: dependencies Pages: 1 -->
<svg width="867pt" height="284pt"
 viewBox="0.00 0.00 867.00 284.00" xmlns="http://www.w3.org/2000/svg" xmlns:xlink="http://www.w3.org/1999/xlink">
<g id="graph0" class="graph" transform="scale(1 1) rotate(0) translate(4 280)">
<title>dependencies</title>
<polygon fill="white" stroke="transparent" points="-4,4 -4,-280 863,-280 863,4 -4,4"/>
<text text-anchor="start" x="408.51" y="-42.4" font-family="Times-12" font-weight="bold" font-size="14.00">Legend</text>
<polygon fill="#ffffb3" stroke="transparent" points="195.5,-10 195.5,-30 215.5,-30 215.5,-10 195.5,-10"/>
<text text-anchor="start" x="219.13" y="-15.4" font-family="Times-12" font-size="14.00"> &#160;Declarations</text>
<polygon fill="#8dd3c7" stroke="transparent" points="308.5,-10 308.5,-30 328.5,-30 328.5,-10 308.5,-10"/>
<text text-anchor="start" x="332.23" y="-15.4" font-family="Times-12" font-size="14.00"> &#160;Module</text>
<polygon fill="#80b1d3" stroke="transparent" points="394.5,-10 394.5,-30 414.5,-30 414.5,-10 394.5,-10"/>
<text text-anchor="start" x="418.28" y="-15.4" font-family="Times-12" font-size="14.00"> &#160;Bootstrap</text>
<polygon fill="#fdb462" stroke="transparent" points="491.5,-10 491.5,-30 511.5,-30 511.5,-10 491.5,-10"/>
<text text-anchor="start" x="515.17" y="-15.4" font-family="Times-12" font-size="14.00"> &#160;Providers</text>
<polygon fill="#fb8072" stroke="transparent" points="587.5,-10 587.5,-30 607.5,-30 607.5,-10 587.5,-10"/>
<text text-anchor="start" x="611.23" y="-15.4" font-family="Times-12" font-size="14.00"> &#160;Exports</text>
<g id="clust1" class="cluster">
<title>cluster_AppConfigModule</title>
<polygon fill="none" stroke="black" stroke-dasharray="1,5" points="8,-70 8,-268 851,-268 851,-70 8,-70"/>
</g>
<g id="clust2" class="cluster">
<title>cluster_AppConfigModule_declarations</title>
<polygon fill="none" stroke="black" points="204,-78 204,-130 843,-130 843,-78 204,-78"/>
</g>
<g id="clust9" class="cluster">
<title>cluster_AppConfigModule_bootstrap</title>
<polygon fill="none" stroke="black" points="356,-208 356,-260 520,-260 520,-208 356,-208"/>
</g>
<g id="clust7" class="cluster">
<title>cluster_AppConfigModule_imports</title>
<polygon fill="none" stroke="black" points="16,-78 16,-130 196,-130 196,-78 16,-78"/>
</g>
<!-- AppConfigComponent -->
<g id="node1" class="node">
<title>AppConfigComponent</title>
<polygon fill="#ffffb3" stroke="black" points="835.33,-122 690.67,-122 690.67,-86 835.33,-86 835.33,-122"/>
<text text-anchor="middle" x="763" y="-99.8" font-family="Times,serif" font-size="14.00">AppConfigComponent</text>
</g>
<!-- AppConfigModule -->
<g id="node5" class="node">
<title>AppConfigModule</title>
<polygon fill="#8dd3c7" stroke="black" points="499.05,-187 496.05,-191 475.05,-191 472.05,-187 376.95,-187 376.95,-151 499.05,-151 499.05,-187"/>
<text text-anchor="middle" x="438" y="-164.8" font-family="Times,serif" font-size="14.00">AppConfigModule</text>
</g>
<!-- AppConfigComponent&#45;&gt;AppConfigModule -->
<g id="edge1" class="edge">
<title>AppConfigComponent&#45;&gt;AppConfigModule</title>
<path fill="none" stroke="black" d="M763,-122.28C763,-143.32 763,-175 763,-175 763,-175 509.13,-175 509.13,-175"/>
<polygon fill="black" stroke="black" points="509.13,-171.5 499.13,-175 509.13,-178.5 509.13,-171.5"/>
</g>
<!-- ArrayTypeComponent -->
<g id="node2" class="node">
<title>ArrayTypeComponent</title>
<polygon fill="#ffffb3" stroke="black" points="672.24,-122 529.76,-122 529.76,-86 672.24,-86 672.24,-122"/>
<text text-anchor="middle" x="601" y="-99.8" font-family="Times,serif" font-size="14.00">ArrayTypeComponent</text>
</g>
<!-- ArrayTypeComponent&#45;&gt;AppConfigModule -->
<g id="edge2" class="edge">
<title>ArrayTypeComponent&#45;&gt;AppConfigModule</title>
<path fill="none" stroke="black" d="M601,-122.02C601,-139.37 601,-163 601,-163 601,-163 509.16,-163 509.16,-163"/>
<polygon fill="black" stroke="black" points="509.16,-159.5 499.16,-163 509.16,-166.5 509.16,-159.5"/>
</g>
<!-- ObjectTypeComponent -->
<g id="node3" class="node">
<title>ObjectTypeComponent</title>
<polygon fill="#ffffb3" stroke="black" points="511.92,-122 364.08,-122 364.08,-86 511.92,-86 511.92,-122"/>
<text text-anchor="middle" x="438" y="-99.8" font-family="Times,serif" font-size="14.00">ObjectTypeComponent</text>
</g>
<!-- ObjectTypeComponent&#45;&gt;AppConfigModule -->
<g id="edge3" class="edge">
<title>ObjectTypeComponent&#45;&gt;AppConfigModule</title>
<path fill="none" stroke="black" d="M438,-122.11C438,-122.11 438,-140.99 438,-140.99"/>
<polygon fill="black" stroke="black" points="434.5,-140.99 438,-150.99 441.5,-140.99 434.5,-140.99"/>
</g>
<!-- TextAreaComponent -->
<g id="node4" class="node">
<title>TextAreaComponent</title>
<polygon fill="#ffffb3" stroke="black" points="346.19,-122 211.81,-122 211.81,-86 346.19,-86 346.19,-122"/>
<text text-anchor="middle" x="279" y="-99.8" font-family="Times,serif" font-size="14.00">TextAreaComponent</text>
</g>
<!-- TextAreaComponent&#45;&gt;AppConfigModule -->
<g id="edge4" class="edge">
<title>TextAreaComponent&#45;&gt;AppConfigModule</title>
<path fill="none" stroke="black" d="M279,-122.02C279,-139.37 279,-163 279,-163 279,-163 366.53,-163 366.53,-163"/>
<polygon fill="black" stroke="black" points="366.53,-166.5 376.53,-163 366.53,-159.5 366.53,-166.5"/>
</g>
<!-- AppConfigComponent  -->
<g id="node7" class="node">
<title>AppConfigComponent </title>
<polygon fill="#80b1d3" stroke="black" points="511.83,-252 364.17,-252 364.17,-216 511.83,-216 511.83,-252"/>
<text text-anchor="middle" x="438" y="-229.8" font-family="Times,serif" font-size="14.00">AppConfigComponent </text>
</g>
<!-- AppConfigModule&#45;&gt;AppConfigComponent  -->
<g id="edge6" class="edge">
<title>AppConfigModule&#45;&gt;AppConfigComponent </title>
<path fill="none" stroke="black" stroke-dasharray="1,5" d="M438,-187.11C438,-187.11 438,-205.99 438,-205.99"/>
<polygon fill="black" stroke="black" points="434.5,-205.99 438,-215.99 441.5,-205.99 434.5,-205.99"/>
</g>
<!-- RedboxPortalCoreModule -->
<g id="node6" class="node">
<title>RedboxPortalCoreModule</title>
<polygon fill="#8dd3c7" stroke="black" points="187.75,-122 184.75,-126 163.75,-126 160.75,-122 24.25,-122 24.25,-86 187.75,-86 187.75,-122"/>
<text text-anchor="middle" x="106" y="-99.8" font-family="Times,serif" font-size="14.00">RedboxPortalCoreModule</text>
</g>
<!-- RedboxPortalCoreModule&#45;&gt;AppConfigModule -->
<g id="edge5" class="edge">
<title>RedboxPortalCoreModule&#45;&gt;AppConfigModule</title>
<path fill="none" stroke="black" d="M106,-122.28C106,-143.32 106,-175 106,-175 106,-175 366.72,-175 366.72,-175"/>
<polygon fill="black" stroke="black" points="366.72,-178.5 376.72,-175 366.72,-171.5 366.72,-178.5"/>
</g>
</g>
</svg>
