<?xml version="1.0" encoding="UTF-8" standalone="no"?>
<!DOCTYPE svg PUBLIC "-//W3C//DTD SVG 1.1//EN"
 "http://www.w3.org/Graphics/SVG/1.1/DTD/svg11.dtd">
<!-- Generated by graphviz version 3.0.0 (20220226.1711)
 -->
<!-- Title: dependencies Pages: 1 -->
<svg width="603pt" height="247pt"
 viewBox="0.00 0.00 603.00 246.80" xmlns="http://www.w3.org/2000/svg" xmlns:xlink="http://www.w3.org/1999/xlink">
<g id="graph0" class="graph" transform="scale(1 1) rotate(0) translate(4 242.8)">
<title>dependencies</title>
<polygon fill="white" stroke="transparent" points="-4,4 -4,-242.8 599,-242.8 599,4 -4,4"/>
<text text-anchor="middle" x="297.5" y="-8.2" font-family="sans-serif" font-size="14.00">dependencies</text>
<g id="clust1" class="cluster">
<title>cluster_ReportModule</title>
<polygon fill="none" stroke="black" stroke-dasharray="1,5" points="8,-32.8 8,-230.8 587,-230.8 587,-32.8 8,-32.8"/>
</g>
<g id="clust8" class="cluster">
<title>cluster_ReportModule_providers</title>
<polygon fill="none" stroke="black" points="431,-40.8 431,-92.8 579,-92.8 579,-40.8 431,-40.8"/>
</g>
<g id="clust7" class="cluster">
<title>cluster_ReportModule_bootstrap</title>
<polygon fill="none" stroke="black" points="227,-170.8 227,-222.8 365,-222.8 365,-170.8 227,-170.8"/>
</g>
<g id="clust5" class="cluster">
<title>cluster_ReportModule_imports</title>
<polygon fill="none" stroke="black" points="309,-40.8 309,-92.8 423,-92.8 423,-40.8 309,-40.8"/>
</g>
<g id="clust2" class="cluster">
<title>cluster_ReportModule_declarations</title>
<polygon fill="none" stroke="black" points="16,-40.8 16,-92.8 301,-92.8 301,-40.8 16,-40.8"/>
</g>
<!-- MultivalueFieldPipe -->
<g id="node1" class="node">
<title>MultivalueFieldPipe</title>
<polygon fill="#ffffb3" stroke="black" points="292.6,-84.8 161.4,-84.8 161.4,-48.8 292.6,-48.8 292.6,-84.8"/>
<text text-anchor="middle" x="227" y="-62.6" font-family="Times,serif" font-size="14.00">MultivalueFieldPipe</text>
</g>
<!-- ReportModule -->
<g id="node3" class="node">
<title>ReportModule</title>
<polygon fill="#8dd3c7" stroke="black" points="344.66,-149.8 341.66,-153.8 320.66,-153.8 317.66,-149.8 247.34,-149.8 247.34,-113.8 344.66,-113.8 344.66,-149.8"/>
<text text-anchor="middle" x="296" y="-127.6" font-family="Times,serif" font-size="14.00">ReportModule</text>
</g>
<!-- MultivalueFieldPipe&#45;&gt;ReportModule -->
<g id="edge1" class="edge">
<title>MultivalueFieldPipe&#45;&gt;ReportModule</title>
<path fill="none" stroke="black" d="M269.86,-84.91C269.86,-84.91 269.86,-103.79 269.86,-103.79"/>
<polygon fill="black" stroke="black" points="266.36,-103.79 269.86,-113.79 273.36,-103.79 266.36,-103.79"/>
</g>
<!-- ReportComponent -->
<g id="node2" class="node">
<title>ReportComponent</title>
<polygon fill="#ffffb3" stroke="black" points="143.94,-84.8 24.06,-84.8 24.06,-48.8 143.94,-48.8 143.94,-84.8"/>
<text text-anchor="middle" x="84" y="-62.6" font-family="Times,serif" font-size="14.00">ReportComponent</text>
</g>
<!-- ReportComponent&#45;&gt;ReportModule -->
<g id="edge2" class="edge">
<title>ReportComponent&#45;&gt;ReportModule</title>
<path fill="none" stroke="black" d="M84,-84.91C84,-104.14 84,-131.8 84,-131.8 84,-131.8 237.1,-131.8 237.1,-131.8"/>
<polygon fill="black" stroke="black" points="237.1,-135.3 247.1,-131.8 237.1,-128.3 237.1,-135.3"/>
</g>
<!-- ReportComponent  -->
<g id="node5" class="node">
<title>ReportComponent </title>
<polygon fill="#80b1d3" stroke="black" points="357.43,-214.8 234.57,-214.8 234.57,-178.8 357.43,-178.8 357.43,-214.8"/>
<text text-anchor="middle" x="296" y="-192.6" font-family="Times,serif" font-size="14.00">ReportComponent </text>
</g>
<!-- ReportModule&#45;&gt;ReportComponent  -->
<g id="edge4" class="edge">
<title>ReportModule&#45;&gt;ReportComponent </title>
<path fill="none" stroke="black" stroke-dasharray="1,5" d="M296,-149.91C296,-149.91 296,-168.79 296,-168.79"/>
<polygon fill="black" stroke="black" points="292.5,-168.79 296,-178.79 299.5,-168.79 292.5,-168.79"/>
</g>
<!-- SharedModule -->
<g id="node4" class="node">
<title>SharedModule</title>
<polygon fill="#8dd3c7" stroke="black" points="415.43,-84.8 412.43,-88.8 391.43,-88.8 388.43,-84.8 316.57,-84.8 316.57,-48.8 415.43,-48.8 415.43,-84.8"/>
<text text-anchor="middle" x="366" y="-62.6" font-family="Times,serif" font-size="14.00">SharedModule</text>
</g>
<!-- SharedModule&#45;&gt;ReportModule -->
<g id="edge3" class="edge">
<title>SharedModule&#45;&gt;ReportModule</title>
<path fill="none" stroke="black" d="M330.81,-84.91C330.81,-84.91 330.81,-103.79 330.81,-103.79"/>
<polygon fill="black" stroke="black" points="327.31,-103.79 330.81,-113.79 334.31,-103.79 327.31,-103.79"/>
</g>
<!-- ReportService -->
<g id="node6" class="node">
<title>ReportService</title>
<ellipse fill="#fdb462" stroke="black" cx="505" cy="-66.8" rx="66.05" ry="18"/>
<text text-anchor="middle" x="505" y="-62.6" font-family="Times,serif" font-size="14.00">ReportService</text>
</g>
<!-- ReportService&#45;&gt;ReportModule -->
<g id="edge5" class="edge">
<title>ReportService&#45;&gt;ReportModule</title>
<path fill="none" stroke="black" d="M505,-84.91C505,-104.14 505,-131.8 505,-131.8 505,-131.8 354.74,-131.8 354.74,-131.8"/>
<polygon fill="black" stroke="black" points="354.74,-128.3 344.74,-131.8 354.74,-135.3 354.74,-128.3"/>
</g>
</g>
</svg>
