<?xml version="1.0" encoding="UTF-8" standalone="no"?>
<!DOCTYPE svg PUBLIC "-//W3C//DTD SVG 1.1//EN"
 "http://www.w3.org/Graphics/SVG/1.1/DTD/svg11.dtd">
<!-- Generated by graphviz version 2.46.0 (20210119.1425)
 -->
<!-- Title: dependencies Pages: 1 -->
<svg width="603pt" height="284pt"
 viewBox="0.00 0.00 603.00 284.00" xmlns="http://www.w3.org/2000/svg" xmlns:xlink="http://www.w3.org/1999/xlink">
<g id="graph0" class="graph" transform="scale(1 1) rotate(0) translate(4 280)">
<title>dependencies</title>
<polygon fill="white" stroke="transparent" points="-4,4 -4,-280 599,-280 599,4 -4,4"/>
<text text-anchor="start" x="276.51" y="-42.4" font-family="sans-serif" font-weight="bold" font-size="14.00">Legend</text>
<polygon fill="#ffffb3" stroke="transparent" points="63.5,-10 63.5,-30 83.5,-30 83.5,-10 63.5,-10"/>
<text text-anchor="start" x="87.13" y="-15.4" font-family="sans-serif" font-size="14.00"> &#160;Declarations</text>
<polygon fill="#8dd3c7" stroke="transparent" points="176.5,-10 176.5,-30 196.5,-30 196.5,-10 176.5,-10"/>
<text text-anchor="start" x="200.23" y="-15.4" font-family="sans-serif" font-size="14.00"> &#160;Module</text>
<polygon fill="#80b1d3" stroke="transparent" points="262.5,-10 262.5,-30 282.5,-30 282.5,-10 262.5,-10"/>
<text text-anchor="start" x="286.28" y="-15.4" font-family="sans-serif" font-size="14.00"> &#160;Bootstrap</text>
<polygon fill="#fdb462" stroke="transparent" points="359.5,-10 359.5,-30 379.5,-30 379.5,-10 359.5,-10"/>
<text text-anchor="start" x="383.17" y="-15.4" font-family="sans-serif" font-size="14.00"> &#160;Providers</text>
<polygon fill="#fb8072" stroke="transparent" points="455.5,-10 455.5,-30 475.5,-30 475.5,-10 455.5,-10"/>
<text text-anchor="start" x="479.23" y="-15.4" font-family="sans-serif" font-size="14.00"> &#160;Exports</text>
<g id="clust1" class="cluster">
<title>cluster_ReportModule</title>
<polygon fill="none" stroke="black" stroke-dasharray="1,5" points="8,-70 8,-268 587,-268 587,-70 8,-70"/>
</g>
<g id="clust5" class="cluster">
<title>cluster_ReportModule_imports</title>
<polygon fill="none" stroke="black" points="465,-78 465,-130 579,-130 579,-78 465,-78"/>
</g>
<g id="clust8" class="cluster">
<title>cluster_ReportModule_providers</title>
<polygon fill="none" stroke="black" points="309,-78 309,-130 457,-130 457,-78 309,-78"/>
</g>
<g id="clust2" class="cluster">
<title>cluster_ReportModule_declarations</title>
<polygon fill="none" stroke="black" points="16,-78 16,-130 301,-130 301,-78 16,-78"/>
</g>
<g id="clust7" class="cluster">
<title>cluster_ReportModule_bootstrap</title>
<polygon fill="none" stroke="black" points="236,-208 236,-260 374,-260 374,-208 236,-208"/>
</g>
<!-- MultivalueFieldPipe -->
<g id="node1" class="node">
<title>MultivalueFieldPipe</title>
<polygon fill="#ffffb3" stroke="black" points="292.6,-122 161.4,-122 161.4,-86 292.6,-86 292.6,-122"/>
<text text-anchor="middle" x="227" y="-99.8" font-family="Times,serif" font-size="14.00">MultivalueFieldPipe</text>
</g>
<!-- ReportModule -->
<g id="node3" class="node">
<title>ReportModule</title>
<polygon fill="#8dd3c7" stroke="black" points="353.65,-187 350.65,-191 329.65,-191 326.65,-187 256.35,-187 256.35,-151 353.65,-151 353.65,-187"/>
<text text-anchor="middle" x="305" y="-164.8" font-family="Times,serif" font-size="14.00">ReportModule</text>
</g>
<!-- MultivalueFieldPipe&#45;&gt;ReportModule -->
<g id="edge1" class="edge">
<title>MultivalueFieldPipe&#45;&gt;ReportModule</title>
<path fill="none" stroke="black" d="M274.36,-122.11C274.36,-122.11 274.36,-140.99 274.36,-140.99"/>
<polygon fill="black" stroke="black" points="270.86,-140.99 274.36,-150.99 277.86,-140.99 270.86,-140.99"/>
</g>
<!-- ReportComponent -->
<g id="node2" class="node">
<title>ReportComponent</title>
<polygon fill="#ffffb3" stroke="black" points="143.94,-122 24.06,-122 24.06,-86 143.94,-86 143.94,-122"/>
<text text-anchor="middle" x="84" y="-99.8" font-family="Times,serif" font-size="14.00">ReportComponent</text>
</g>
<!-- ReportComponent&#45;&gt;ReportModule -->
<g id="edge2" class="edge">
<title>ReportComponent&#45;&gt;ReportModule</title>
<path fill="none" stroke="black" d="M84,-122.11C84,-141.34 84,-169 84,-169 84,-169 246.23,-169 246.23,-169"/>
<polygon fill="black" stroke="black" points="246.23,-172.5 256.23,-169 246.23,-165.5 246.23,-172.5"/>
</g>
<!-- ReportComponent  -->
<g id="node5" class="node">
<title>ReportComponent </title>
<polygon fill="#80b1d3" stroke="black" points="366.43,-252 243.57,-252 243.57,-216 366.43,-216 366.43,-252"/>
<text text-anchor="middle" x="305" y="-229.8" font-family="Times,serif" font-size="14.00">ReportComponent </text>
</g>
<!-- ReportModule&#45;&gt;ReportComponent  -->
<g id="edge4" class="edge">
<title>ReportModule&#45;&gt;ReportComponent </title>
<path fill="none" stroke="black" stroke-dasharray="1,5" d="M305,-187.11C305,-187.11 305,-205.99 305,-205.99"/>
<polygon fill="black" stroke="black" points="301.5,-205.99 305,-215.99 308.5,-205.99 301.5,-205.99"/>
</g>
<!-- SharedModule -->
<g id="node4" class="node">
<title>SharedModule</title>
<polygon fill="#8dd3c7" stroke="black" points="571.42,-122 568.42,-126 547.42,-126 544.42,-122 472.58,-122 472.58,-86 571.42,-86 571.42,-122"/>
<text text-anchor="middle" x="522" y="-99.8" font-family="Times,serif" font-size="14.00">SharedModule</text>
</g>
<!-- SharedModule&#45;&gt;ReportModule -->
<g id="edge3" class="edge">
<title>SharedModule&#45;&gt;ReportModule</title>
<path fill="none" stroke="black" d="M522,-122.11C522,-141.34 522,-169 522,-169 522,-169 363.7,-169 363.7,-169"/>
<polygon fill="black" stroke="black" points="363.7,-165.5 353.7,-169 363.7,-172.5 363.7,-165.5"/>
</g>
<!-- ReportService -->
<g id="node6" class="node">
<title>ReportService</title>
<ellipse fill="#fdb462" stroke="black" cx="383" cy="-104" rx="66.05" ry="18"/>
<text text-anchor="middle" x="383" y="-99.8" font-family="Times,serif" font-size="14.00">ReportService</text>
</g>
<!-- ReportService&#45;&gt;ReportModule -->
<g id="edge5" class="edge">
<title>ReportService&#45;&gt;ReportModule</title>
<path fill="none" stroke="black" d="M335.28,-116.53C335.28,-116.53 335.28,-140.85 335.28,-140.85"/>
<polygon fill="black" stroke="black" points="331.78,-140.85 335.28,-150.85 338.78,-140.85 331.78,-140.85"/>
</g>
</g>
</svg>
