<?xml version="1.0" encoding="UTF-8" standalone="no"?>
<!DOCTYPE svg PUBLIC "-//W3C//DTD SVG 1.1//EN"
 "http://www.w3.org/Graphics/SVG/1.1/DTD/svg11.dtd">
<!-- Generated by graphviz version 2.47.0 (20210316.0004)
 -->
<!-- Title: dependencies Pages: 1 -->
<svg width="603pt" height="284pt"
 viewBox="0.00 0.00 603.00 284.00" xmlns="http://www.w3.org/2000/svg" xmlns:xlink="http://www.w3.org/1999/xlink">
<g id="graph0" class="graph" transform="scale(1 1) rotate(0) translate(4 280)">
<title>dependencies</title>
<polygon fill="white" stroke="transparent" points="-4,4 -4,-280 599,-280 599,4 -4,4"/>
<text text-anchor="start" x="276.51" y="-42.4" font-family="Times-12" font-weight="bold" font-size="14.00">Legend</text>
<polygon fill="#ffffb3" stroke="transparent" points="63.5,-10 63.5,-30 83.5,-30 83.5,-10 63.5,-10"/>
<text text-anchor="start" x="87.13" y="-15.4" font-family="Times-12" font-size="14.00"> &#160;Declarations</text>
<polygon fill="#8dd3c7" stroke="transparent" points="176.5,-10 176.5,-30 196.5,-30 196.5,-10 176.5,-10"/>
<text text-anchor="start" x="200.23" y="-15.4" font-family="Times-12" font-size="14.00"> &#160;Module</text>
<polygon fill="#80b1d3" stroke="transparent" points="262.5,-10 262.5,-30 282.5,-30 282.5,-10 262.5,-10"/>
<text text-anchor="start" x="286.28" y="-15.4" font-family="Times-12" font-size="14.00"> &#160;Bootstrap</text>
<polygon fill="#fdb462" stroke="transparent" points="359.5,-10 359.5,-30 379.5,-30 379.5,-10 359.5,-10"/>
<text text-anchor="start" x="383.17" y="-15.4" font-family="Times-12" font-size="14.00"> &#160;Providers</text>
<polygon fill="#fb8072" stroke="transparent" points="455.5,-10 455.5,-30 475.5,-30 475.5,-10 455.5,-10"/>
<text text-anchor="start" x="479.23" y="-15.4" font-family="Times-12" font-size="14.00"> &#160;Exports</text>
<g id="clust1" class="cluster">
<title>cluster_ReportModule</title>
<polygon fill="none" stroke="black" stroke-dasharray="1,5" points="8,-70 8,-268 587,-268 587,-70 8,-70"/>
</g>
<g id="clust2" class="cluster">
<title>cluster_ReportModule_declarations</title>
<polygon fill="none" stroke="black" points="294,-78 294,-130 579,-130 579,-78 294,-78"/>
</g>
<g id="clust5" class="cluster">
<title>cluster_ReportModule_imports</title>
<polygon fill="none" stroke="black" points="172,-78 172,-130 286,-130 286,-78 172,-78"/>
</g>
<g id="clust7" class="cluster">
<title>cluster_ReportModule_bootstrap</title>
<polygon fill="none" stroke="black" points="226,-208 226,-260 364,-260 364,-208 226,-208"/>
</g>
<g id="clust8" class="cluster">
<title>cluster_ReportModule_providers</title>
<polygon fill="none" stroke="black" points="16,-78 16,-130 164,-130 164,-78 16,-78"/>
</g>
<!-- MultivalueFieldPipe -->
<g id="node1" class="node">
<title>MultivalueFieldPipe</title>
<polygon fill="#ffffb3" stroke="black" points="570.6,-122 439.4,-122 439.4,-86 570.6,-86 570.6,-122"/>
<text text-anchor="middle" x="505" y="-99.8" font-family="Times,serif" font-size="14.00">MultivalueFieldPipe</text>
</g>
<!-- ReportModule -->
<g id="node3" class="node">
<title>ReportModule</title>
<polygon fill="#8dd3c7" stroke="black" points="343.65,-187 340.65,-191 319.65,-191 316.65,-187 246.35,-187 246.35,-151 343.65,-151 343.65,-187"/>
<text text-anchor="middle" x="295" y="-164.8" font-family="Times,serif" font-size="14.00">ReportModule</text>
</g>
<!-- MultivalueFieldPipe&#45;&gt;ReportModule -->
<g id="edge1" class="edge">
<title>MultivalueFieldPipe&#45;&gt;ReportModule</title>
<path fill="none" stroke="black" d="M505,-122.11C505,-141.34 505,-169 505,-169 505,-169 353.71,-169 353.71,-169"/>
<polygon fill="black" stroke="black" points="353.71,-165.5 343.71,-169 353.71,-172.5 353.71,-165.5"/>
</g>
<!-- ReportComponent -->
<g id="node2" class="node">
<title>ReportComponent</title>
<polygon fill="#ffffb3" stroke="black" points="421.94,-122 302.06,-122 302.06,-86 421.94,-86 421.94,-122"/>
<text text-anchor="middle" x="362" y="-99.8" font-family="Times,serif" font-size="14.00">ReportComponent</text>
</g>
<!-- ReportComponent&#45;&gt;ReportModule -->
<g id="edge2" class="edge">
<title>ReportComponent&#45;&gt;ReportModule</title>
<path fill="none" stroke="black" d="M323.05,-122.11C323.05,-122.11 323.05,-140.99 323.05,-140.99"/>
<polygon fill="black" stroke="black" points="319.55,-140.99 323.05,-150.99 326.55,-140.99 319.55,-140.99"/>
</g>
<!-- ReportComponent  -->
<g id="node5" class="node">
<title>ReportComponent </title>
<polygon fill="#80b1d3" stroke="black" points="356.43,-252 233.57,-252 233.57,-216 356.43,-216 356.43,-252"/>
<text text-anchor="middle" x="295" y="-229.8" font-family="Times,serif" font-size="14.00">ReportComponent </text>
</g>
<!-- ReportModule&#45;&gt;ReportComponent  -->
<g id="edge4" class="edge">
<title>ReportModule&#45;&gt;ReportComponent </title>
<path fill="none" stroke="black" stroke-dasharray="1,5" d="M295,-187.11C295,-187.11 295,-205.99 295,-205.99"/>
<polygon fill="black" stroke="black" points="291.5,-205.99 295,-215.99 298.5,-205.99 291.5,-205.99"/>
</g>
<!-- SharedModule -->
<g id="node4" class="node">
<title>SharedModule</title>
<polygon fill="#8dd3c7" stroke="black" points="278.42,-122 275.42,-126 254.42,-126 251.42,-122 179.58,-122 179.58,-86 278.42,-86 278.42,-122"/>
<text text-anchor="middle" x="229" y="-99.8" font-family="Times,serif" font-size="14.00">SharedModule</text>
</g>
<!-- SharedModule&#45;&gt;ReportModule -->
<g id="edge3" class="edge">
<title>SharedModule&#45;&gt;ReportModule</title>
<path fill="none" stroke="black" d="M262.19,-122.11C262.19,-122.11 262.19,-140.99 262.19,-140.99"/>
<polygon fill="black" stroke="black" points="258.69,-140.99 262.19,-150.99 265.69,-140.99 258.69,-140.99"/>
</g>
<!-- ReportService -->
<g id="node6" class="node">
<title>ReportService</title>
<ellipse fill="#fdb462" stroke="black" cx="90" cy="-104" rx="66.05" ry="18"/>
<text text-anchor="middle" x="90" y="-99.8" font-family="Times,serif" font-size="14.00">ReportService</text>
</g>
<!-- ReportService&#45;&gt;ReportModule -->
<g id="edge5" class="edge">
<title>ReportService&#45;&gt;ReportModule</title>
<path fill="none" stroke="black" d="M90,-122.11C90,-141.34 90,-169 90,-169 90,-169 236.16,-169 236.16,-169"/>
<polygon fill="black" stroke="black" points="236.16,-172.5 246.16,-169 236.16,-165.5 236.16,-172.5"/>
</g>
</g>
</svg>
