<?xml version="1.0" encoding="UTF-8" standalone="no"?>
<!DOCTYPE svg PUBLIC "-//W3C//DTD SVG 1.1//EN"
 "http://www.w3.org/Graphics/SVG/1.1/DTD/svg11.dtd">
<!-- Generated by graphviz version 2.46.0 (20210119.1425)
 -->
<!-- Title: dependencies Pages: 1 -->
<svg width="603pt" height="284pt"
 viewBox="0.00 0.00 603.00 284.00" xmlns="http://www.w3.org/2000/svg" xmlns:xlink="http://www.w3.org/1999/xlink">
<g id="graph0" class="graph" transform="scale(1 1) rotate(0) translate(4 280)">
<title>dependencies</title>
<polygon fill="white" stroke="transparent" points="-4,4 -4,-280 599,-280 599,4 -4,4"/>
<text text-anchor="start" x="276.51" y="-42.4" font-family="sans-serif" font-weight="bold" font-size="14.00">Legend</text>
<polygon fill="#ffffb3" stroke="transparent" points="63.5,-10 63.5,-30 83.5,-30 83.5,-10 63.5,-10"/>
<text text-anchor="start" x="87.13" y="-15.4" font-family="sans-serif" font-size="14.00"> &#160;Declarations</text>
<polygon fill="#8dd3c7" stroke="transparent" points="176.5,-10 176.5,-30 196.5,-30 196.5,-10 176.5,-10"/>
<text text-anchor="start" x="200.23" y="-15.4" font-family="sans-serif" font-size="14.00"> &#160;Module</text>
<polygon fill="#80b1d3" stroke="transparent" points="262.5,-10 262.5,-30 282.5,-30 282.5,-10 262.5,-10"/>
<text text-anchor="start" x="286.28" y="-15.4" font-family="sans-serif" font-size="14.00"> &#160;Bootstrap</text>
<polygon fill="#fdb462" stroke="transparent" points="359.5,-10 359.5,-30 379.5,-30 379.5,-10 359.5,-10"/>
<text text-anchor="start" x="383.17" y="-15.4" font-family="sans-serif" font-size="14.00"> &#160;Providers</text>
<polygon fill="#fb8072" stroke="transparent" points="455.5,-10 455.5,-30 475.5,-30 475.5,-10 455.5,-10"/>
<text text-anchor="start" x="479.23" y="-15.4" font-family="sans-serif" font-size="14.00"> &#160;Exports</text>
<g id="clust1" class="cluster">
<title>cluster_ReportModule</title>
<polygon fill="none" stroke="black" stroke-dasharray="1,5" points="8,-70 8,-268 587,-268 587,-70 8,-70"/>
</g>
<g id="clust7" class="cluster">
<title>cluster_ReportModule_bootstrap</title>
<polygon fill="none" stroke="black" points="218,-208 218,-260 356,-260 356,-208 218,-208"/>
</g>
<g id="clust2" class="cluster">
<title>cluster_ReportModule_declarations</title>
<polygon fill="none" stroke="black" points="294,-78 294,-130 579,-130 579,-78 294,-78"/>
</g>
<g id="clust8" class="cluster">
<title>cluster_ReportModule_providers</title>
<polygon fill="none" stroke="black" points="138,-78 138,-130 286,-130 286,-78 138,-78"/>
</g>
<g id="clust5" class="cluster">
<title>cluster_ReportModule_imports</title>
<polygon fill="none" stroke="black" points="16,-78 16,-130 130,-130 130,-78 16,-78"/>
</g>
<!-- MultivalueFieldPipe -->
<g id="node1" class="node">
<title>MultivalueFieldPipe</title>
<polygon fill="#ffffb3" stroke="black" points="570.6,-122 439.4,-122 439.4,-86 570.6,-86 570.6,-122"/>
<text text-anchor="middle" x="505" y="-99.8" font-family="Times,serif" font-size="14.00">MultivalueFieldPipe</text>
</g>
<!-- ReportModule -->
<g id="node3" class="node">
<title>ReportModule</title>
<polygon fill="#8dd3c7" stroke="black" points="335.65,-187 332.65,-191 311.65,-191 308.65,-187 238.35,-187 238.35,-151 335.65,-151 335.65,-187"/>
<text text-anchor="middle" x="287" y="-164.8" font-family="Times,serif" font-size="14.00">ReportModule</text>
</g>
<!-- MultivalueFieldPipe&#45;&gt;ReportModule -->
<g id="edge1" class="edge">
<title>MultivalueFieldPipe&#45;&gt;ReportModule</title>
<path fill="none" stroke="black" d="M505,-122.11C505,-141.34 505,-169 505,-169 505,-169 345.92,-169 345.92,-169"/>
<polygon fill="black" stroke="black" points="345.92,-165.5 335.92,-169 345.92,-172.5 345.92,-165.5"/>
</g>
<!-- ReportComponent -->
<g id="node2" class="node">
<title>ReportComponent</title>
<polygon fill="#ffffb3" stroke="black" points="421.94,-122 302.06,-122 302.06,-86 421.94,-86 421.94,-122"/>
<text text-anchor="middle" x="362" y="-99.8" font-family="Times,serif" font-size="14.00">ReportComponent</text>
</g>
<!-- ReportComponent&#45;&gt;ReportModule -->
<g id="edge2" class="edge">
<title>ReportComponent&#45;&gt;ReportModule</title>
<path fill="none" stroke="black" d="M319.05,-122.11C319.05,-122.11 319.05,-140.99 319.05,-140.99"/>
<polygon fill="black" stroke="black" points="315.55,-140.99 319.05,-150.99 322.55,-140.99 315.55,-140.99"/>
</g>
<!-- ReportComponent  -->
<g id="node5" class="node">
<title>ReportComponent </title>
<polygon fill="#80b1d3" stroke="black" points="348.43,-252 225.57,-252 225.57,-216 348.43,-216 348.43,-252"/>
<text text-anchor="middle" x="287" y="-229.8" font-family="Times,serif" font-size="14.00">ReportComponent </text>
</g>
<!-- ReportModule&#45;&gt;ReportComponent  -->
<g id="edge4" class="edge">
<title>ReportModule&#45;&gt;ReportComponent </title>
<path fill="none" stroke="black" stroke-dasharray="1,5" d="M287,-187.11C287,-187.11 287,-205.99 287,-205.99"/>
<polygon fill="black" stroke="black" points="283.5,-205.99 287,-215.99 290.5,-205.99 283.5,-205.99"/>
</g>
<!-- SharedModule -->
<g id="node4" class="node">
<title>SharedModule</title>
<polygon fill="#8dd3c7" stroke="black" points="122.42,-122 119.42,-126 98.42,-126 95.42,-122 23.58,-122 23.58,-86 122.42,-86 122.42,-122"/>
<text text-anchor="middle" x="73" y="-99.8" font-family="Times,serif" font-size="14.00">SharedModule</text>
</g>
<!-- SharedModule&#45;&gt;ReportModule -->
<g id="edge3" class="edge">
<title>SharedModule&#45;&gt;ReportModule</title>
<path fill="none" stroke="black" d="M73,-122.11C73,-141.34 73,-169 73,-169 73,-169 228.17,-169 228.17,-169"/>
<polygon fill="black" stroke="black" points="228.17,-172.5 238.17,-169 228.17,-165.5 228.17,-172.5"/>
</g>
<!-- ReportService -->
<g id="node6" class="node">
<title>ReportService</title>
<ellipse fill="#fdb462" stroke="black" cx="212" cy="-104" rx="66.05" ry="18"/>
<text text-anchor="middle" x="212" y="-99.8" font-family="Times,serif" font-size="14.00">ReportService</text>
</g>
<!-- ReportService&#45;&gt;ReportModule -->
<g id="edge5" class="edge">
<title>ReportService&#45;&gt;ReportModule</title>
<path fill="none" stroke="black" d="M258.22,-117.15C258.22,-117.15 258.22,-140.69 258.22,-140.69"/>
<polygon fill="black" stroke="black" points="254.72,-140.69 258.22,-150.69 261.72,-140.69 254.72,-140.69"/>
</g>
</g>
</svg>
