<?xml version="1.0" encoding="UTF-8" standalone="no"?>
<!DOCTYPE svg PUBLIC "-//W3C//DTD SVG 1.1//EN"
 "http://www.w3.org/Graphics/SVG/1.1/DTD/svg11.dtd">
<!-- Generated by graphviz version 2.47.0 (20210316.0004)
 -->
<!-- Title: dependencies Pages: 1 -->
<svg width="504pt" height="284pt"
 viewBox="0.00 0.00 504.00 284.00" xmlns="http://www.w3.org/2000/svg" xmlns:xlink="http://www.w3.org/1999/xlink">
<g id="graph0" class="graph" transform="scale(1 1) rotate(0) translate(4 280)">
<title>dependencies</title>
<polygon fill="white" stroke="transparent" points="-4,4 -4,-280 500,-280 500,4 -4,4"/>
<text text-anchor="start" x="227.01" y="-42.4" font-family="Times-12" font-weight="bold" font-size="14.00">Legend</text>
<polygon fill="#ffffb3" stroke="transparent" points="14,-10 14,-30 34,-30 34,-10 14,-10"/>
<text text-anchor="start" x="37.63" y="-15.4" font-family="Times-12" font-size="14.00"> &#160;Declarations</text>
<polygon fill="#8dd3c7" stroke="transparent" points="127,-10 127,-30 147,-30 147,-10 127,-10"/>
<text text-anchor="start" x="150.73" y="-15.4" font-family="Times-12" font-size="14.00"> &#160;Module</text>
<polygon fill="#80b1d3" stroke="transparent" points="213,-10 213,-30 233,-30 233,-10 213,-10"/>
<text text-anchor="start" x="236.78" y="-15.4" font-family="Times-12" font-size="14.00"> &#160;Bootstrap</text>
<polygon fill="#fdb462" stroke="transparent" points="310,-10 310,-30 330,-30 330,-10 310,-10"/>
<text text-anchor="start" x="333.67" y="-15.4" font-family="Times-12" font-size="14.00"> &#160;Providers</text>
<polygon fill="#fb8072" stroke="transparent" points="406,-10 406,-30 426,-30 426,-10 406,-10"/>
<text text-anchor="start" x="429.73" y="-15.4" font-family="Times-12" font-size="14.00"> &#160;Exports</text>
<g id="clust1" class="cluster">
<title>cluster_ReportModule</title>
<polygon fill="none" stroke="black" stroke-dasharray="1,5" points="78,-70 78,-268 418,-268 418,-70 78,-70"/>
</g>
<g id="clust4" class="cluster">
<title>cluster_ReportModule_imports</title>
<polygon fill="none" stroke="black" points="230,-78 230,-130 410,-130 410,-78 230,-78"/>
</g>
<g id="clust6" class="cluster">
<title>cluster_ReportModule_bootstrap</title>
<polygon fill="none" stroke="black" points="168,-208 168,-260 306,-260 306,-208 168,-208"/>
</g>
<g id="clust2" class="cluster">
<title>cluster_ReportModule_declarations</title>
<polygon fill="none" stroke="black" points="86,-78 86,-130 222,-130 222,-78 86,-78"/>
</g>
<!-- ReportComponent -->
<g id="node1" class="node">
<title>ReportComponent</title>
<polygon fill="#ffffb3" stroke="black" points="213.94,-122 94.06,-122 94.06,-86 213.94,-86 213.94,-122"/>
<text text-anchor="middle" x="154" y="-99.8" font-family="Times,serif" font-size="14.00">ReportComponent</text>
</g>
<!-- ReportModule -->
<g id="node2" class="node">
<title>ReportModule</title>
<polygon fill="#8dd3c7" stroke="black" points="285.65,-187 282.65,-191 261.65,-191 258.65,-187 188.35,-187 188.35,-151 285.65,-151 285.65,-187"/>
<text text-anchor="middle" x="237" y="-164.8" font-family="Times,serif" font-size="14.00">ReportModule</text>
</g>
<!-- ReportComponent&#45;&gt;ReportModule -->
<g id="edge1" class="edge">
<title>ReportComponent&#45;&gt;ReportModule</title>
<path fill="none" stroke="black" d="M200.95,-122.11C200.95,-122.11 200.95,-140.99 200.95,-140.99"/>
<polygon fill="black" stroke="black" points="197.45,-140.99 200.95,-150.99 204.45,-140.99 197.45,-140.99"/>
</g>
<!-- ReportComponent  -->
<g id="node4" class="node">
<title>ReportComponent </title>
<polygon fill="#80b1d3" stroke="black" points="298.43,-252 175.57,-252 175.57,-216 298.43,-216 298.43,-252"/>
<text text-anchor="middle" x="237" y="-229.8" font-family="Times,serif" font-size="14.00">ReportComponent </text>
</g>
<!-- ReportModule&#45;&gt;ReportComponent  -->
<g id="edge3" class="edge">
<title>ReportModule&#45;&gt;ReportComponent </title>
<path fill="none" stroke="black" stroke-dasharray="1,5" d="M237,-187.11C237,-187.11 237,-205.99 237,-205.99"/>
<polygon fill="black" stroke="black" points="233.5,-205.99 237,-215.99 240.5,-205.99 233.5,-205.99"/>
</g>
<!-- RedboxPortalCoreModule -->
<g id="node3" class="node">
<title>RedboxPortalCoreModule</title>
<polygon fill="#8dd3c7" stroke="black" points="401.75,-122 398.75,-126 377.75,-126 374.75,-122 238.25,-122 238.25,-86 401.75,-86 401.75,-122"/>
<text text-anchor="middle" x="320" y="-99.8" font-family="Times,serif" font-size="14.00">RedboxPortalCoreModule</text>
</g>
<!-- RedboxPortalCoreModule&#45;&gt;ReportModule -->
<g id="edge2" class="edge">
<title>RedboxPortalCoreModule&#45;&gt;ReportModule</title>
<path fill="none" stroke="black" d="M261.98,-122.11C261.98,-122.11 261.98,-140.99 261.98,-140.99"/>
<polygon fill="black" stroke="black" points="258.48,-140.99 261.98,-150.99 265.48,-140.99 258.48,-140.99"/>
</g>
</g>
</svg>
