<?xml version="1.0" encoding="UTF-8" standalone="no"?>
<!DOCTYPE svg PUBLIC "-//W3C//DTD SVG 1.1//EN"
 "http://www.w3.org/Graphics/SVG/1.1/DTD/svg11.dtd">
<!-- Generated by graphviz version 2.40.1 (20161225.0304)
 -->
<!-- Title: dependencies Pages: 1 -->
<svg width="750pt" height="284pt"
 viewBox="0.00 0.00 750.00 284.00" xmlns="http://www.w3.org/2000/svg" xmlns:xlink="http://www.w3.org/1999/xlink">
<g id="graph0" class="graph" transform="scale(1 1) rotate(0) translate(4 280)">
<title>dependencies</title>
<polygon fill="#ffffff" stroke="transparent" points="-4,4 -4,-280 746,-280 746,4 -4,4"/>
<text text-anchor="start" x="350.0091" y="-42.4" font-family="sans-serif" font-weight="bold" font-size="14.00" fill="#000000">Legend</text>
<polygon fill="#ffffb3" stroke="transparent" points="137,-10 137,-30 157,-30 157,-10 137,-10"/>
<text text-anchor="start" x="160.629" y="-15.4" font-family="sans-serif" font-size="14.00" fill="#000000"> &#160;Declarations</text>
<polygon fill="#8dd3c7" stroke="transparent" points="250,-10 250,-30 270,-30 270,-10 250,-10"/>
<text text-anchor="start" x="273.7251" y="-15.4" font-family="sans-serif" font-size="14.00" fill="#000000"> &#160;Module</text>
<polygon fill="#80b1d3" stroke="transparent" points="336,-10 336,-30 356,-30 356,-10 336,-10"/>
<text text-anchor="start" x="359.7812" y="-15.4" font-family="sans-serif" font-size="14.00" fill="#000000"> &#160;Bootstrap</text>
<polygon fill="#fdb462" stroke="transparent" points="433,-10 433,-30 453,-30 453,-10 433,-10"/>
<text text-anchor="start" x="456.6732" y="-15.4" font-family="sans-serif" font-size="14.00" fill="#000000"> &#160;Providers</text>
<polygon fill="#fb8072" stroke="transparent" points="529,-10 529,-30 549,-30 549,-10 529,-10"/>
<text text-anchor="start" x="552.7258" y="-15.4" font-family="sans-serif" font-size="14.00" fill="#000000"> &#160;Exports</text>
<g id="clust1" class="cluster">
<title>cluster_ReportModule</title>
<polygon fill="none" stroke="#000000" stroke-dasharray="1,5" points="8,-70 8,-268 734,-268 734,-70 8,-70"/>
</g>
<g id="clust2" class="cluster">
<title>cluster_ReportModule_declarations</title>
<polygon fill="none" stroke="#000000" points="294,-78 294,-130 726,-130 726,-78 294,-78"/>
</g>
<g id="clust6" class="cluster">
<title>cluster_ReportModule_imports</title>
<polygon fill="none" stroke="#000000" points="172,-78 172,-130 286,-130 286,-78 172,-78"/>
</g>
<g id="clust8" class="cluster">
<title>cluster_ReportModule_bootstrap</title>
<polygon fill="none" stroke="#000000" points="299,-208 299,-260 437,-260 437,-208 299,-208"/>
</g>
<g id="clust9" class="cluster">
<title>cluster_ReportModule_providers</title>
<polygon fill="none" stroke="#000000" points="16,-78 16,-130 164,-130 164,-78 16,-78"/>
</g>
<!-- ReportComponent -->
<g id="node1" class="node">
<title>ReportComponent</title>
<polygon fill="#ffffb3" stroke="#000000" points="717.9356,-122 598.0644,-122 598.0644,-86 717.9356,-86 717.9356,-122"/>
<text text-anchor="middle" x="658" y="-99.8" font-family="Times,serif" font-size="14.00" fill="#000000">ReportComponent</text>
</g>
<!-- ReportModule -->
<g id="node4" class="node">
<title>ReportModule</title>
<polygon fill="#8dd3c7" stroke="#000000" points="416.6528,-187 413.6528,-191 392.6528,-191 389.6528,-187 319.3472,-187 319.3472,-151 416.6528,-151 416.6528,-187"/>
<text text-anchor="middle" x="368" y="-164.8" font-family="Times,serif" font-size="14.00" fill="#000000">ReportModule</text>
</g>
<!-- ReportComponent&#45;&gt;ReportModule -->
<g id="edge1" class="edge">
<title>ReportComponent&#45;&gt;ReportModule</title>
<path fill="none" stroke="#000000" d="M658,-122.2843C658,-143.3211 658,-175 658,-175 658,-175 426.8666,-175 426.8666,-175"/>
<polygon fill="#000000" stroke="#000000" points="426.8667,-171.5001 416.8666,-175 426.8666,-178.5001 426.8667,-171.5001"/>
</g>
<!-- StringTemplatePipe -->
<g id="node2" class="node">
<title>StringTemplatePipe</title>
<polygon fill="#ffffb3" stroke="#000000" points="579.9804,-122 452.0196,-122 452.0196,-86 579.9804,-86 579.9804,-122"/>
<text text-anchor="middle" x="516" y="-99.8" font-family="Times,serif" font-size="14.00" fill="#000000">StringTemplatePipe</text>
</g>
<!-- StringTemplatePipe&#45;&gt;ReportModule -->
<g id="edge2" class="edge">
<title>StringTemplatePipe&#45;&gt;ReportModule</title>
<path fill="none" stroke="#000000" d="M516,-122.0225C516,-139.3734 516,-163 516,-163 516,-163 426.8709,-163 426.8709,-163"/>
<polygon fill="#000000" stroke="#000000" points="426.8709,-159.5001 416.8709,-163 426.8709,-166.5001 426.8709,-159.5001"/>
</g>
<!-- MultivalueFieldPipe -->
<g id="node3" class="node">
<title>MultivalueFieldPipe</title>
<polygon fill="#ffffb3" stroke="#000000" points="433.6024,-122 302.3976,-122 302.3976,-86 433.6024,-86 433.6024,-122"/>
<text text-anchor="middle" x="368" y="-99.8" font-family="Times,serif" font-size="14.00" fill="#000000">MultivalueFieldPipe</text>
</g>
<!-- MultivalueFieldPipe&#45;&gt;ReportModule -->
<g id="edge3" class="edge">
<title>MultivalueFieldPipe&#45;&gt;ReportModule</title>
<path fill="none" stroke="#000000" d="M368,-122.1061C368,-122.1061 368,-140.991 368,-140.991"/>
<polygon fill="#000000" stroke="#000000" points="364.5001,-140.9909 368,-150.991 371.5001,-140.991 364.5001,-140.9909"/>
</g>
<!-- ReportComponent  -->
<g id="node6" class="node">
<title>ReportComponent </title>
<polygon fill="#80b1d3" stroke="#000000" points="429.4348,-252 306.5652,-252 306.5652,-216 429.4348,-216 429.4348,-252"/>
<text text-anchor="middle" x="368" y="-229.8" font-family="Times,serif" font-size="14.00" fill="#000000">ReportComponent </text>
</g>
<!-- ReportModule&#45;&gt;ReportComponent  -->
<g id="edge5" class="edge">
<title>ReportModule&#45;&gt;ReportComponent </title>
<path fill="none" stroke="#000000" stroke-dasharray="1,5" d="M368,-187.1061C368,-187.1061 368,-205.991 368,-205.991"/>
<polygon fill="#000000" stroke="#000000" points="364.5001,-205.9909 368,-215.991 371.5001,-205.991 364.5001,-205.9909"/>
</g>
<!-- SharedModule -->
<g id="node5" class="node">
<title>SharedModule</title>
<polygon fill="#8dd3c7" stroke="#000000" points="278.4231,-122 275.4231,-126 254.4231,-126 251.4231,-122 179.5769,-122 179.5769,-86 278.4231,-86 278.4231,-122"/>
<text text-anchor="middle" x="229" y="-99.8" font-family="Times,serif" font-size="14.00" fill="#000000">SharedModule</text>
</g>
<!-- SharedModule&#45;&gt;ReportModule -->
<g id="edge4" class="edge">
<title>SharedModule&#45;&gt;ReportModule</title>
<path fill="none" stroke="#000000" d="M229,-122.0225C229,-139.3734 229,-163 229,-163 229,-163 308.9938,-163 308.9938,-163"/>
<polygon fill="#000000" stroke="#000000" points="308.9938,-166.5001 318.9938,-163 308.9938,-159.5001 308.9938,-166.5001"/>
</g>
<!-- ReportService -->
<g id="node7" class="node">
<title>ReportService</title>
<ellipse fill="#fdb462" stroke="#000000" cx="90" cy="-104" rx="66.0492" ry="18"/>
<text text-anchor="middle" x="90" y="-99.8" font-family="Times,serif" font-size="14.00" fill="#000000">ReportService</text>
</g>
<!-- ReportService&#45;&gt;ReportModule -->
<g id="edge6" class="edge">
<title>ReportService&#45;&gt;ReportModule</title>
<path fill="none" stroke="#000000" d="M90,-122.2843C90,-143.3211 90,-175 90,-175 90,-175 309.258,-175 309.258,-175"/>
<polygon fill="#000000" stroke="#000000" points="309.258,-178.5001 319.258,-175 309.2579,-171.5001 309.258,-178.5001"/>
</g>
</g>
</svg>
