<?xml version="1.0" encoding="UTF-8" standalone="no"?>
<!DOCTYPE svg PUBLIC "-//W3C//DTD SVG 1.1//EN"
 "http://www.w3.org/Graphics/SVG/1.1/DTD/svg11.dtd">
<!-- Generated by graphviz version 2.40.1 (20161225.0304)
 -->
<!-- Title: dependencies Pages: 1 -->
<svg width="5501pt" height="284pt"
 viewBox="0.00 0.00 5501.00 284.00" xmlns="http://www.w3.org/2000/svg" xmlns:xlink="http://www.w3.org/1999/xlink">
<g id="graph0" class="graph" transform="scale(1 1) rotate(0) translate(4 280)">
<title>dependencies</title>
<polygon fill="#ffffff" stroke="transparent" points="-4,4 -4,-280 5497,-280 5497,4 -4,4"/>
<text text-anchor="start" x="2725.5091" y="-42.4" font-family="sans-serif" font-weight="bold" font-size="14.00" fill="#000000">Legend</text>
<polygon fill="#ffffb3" stroke="transparent" points="2512.5,-10 2512.5,-30 2532.5,-30 2532.5,-10 2512.5,-10"/>
<text text-anchor="start" x="2536.129" y="-15.4" font-family="sans-serif" font-size="14.00" fill="#000000"> &#160;Declarations</text>
<polygon fill="#8dd3c7" stroke="transparent" points="2625.5,-10 2625.5,-30 2645.5,-30 2645.5,-10 2625.5,-10"/>
<text text-anchor="start" x="2649.2251" y="-15.4" font-family="sans-serif" font-size="14.00" fill="#000000"> &#160;Module</text>
<polygon fill="#80b1d3" stroke="transparent" points="2711.5,-10 2711.5,-30 2731.5,-30 2731.5,-10 2711.5,-10"/>
<text text-anchor="start" x="2735.2812" y="-15.4" font-family="sans-serif" font-size="14.00" fill="#000000"> &#160;Bootstrap</text>
<polygon fill="#fdb462" stroke="transparent" points="2808.5,-10 2808.5,-30 2828.5,-30 2828.5,-10 2808.5,-10"/>
<text text-anchor="start" x="2832.1732" y="-15.4" font-family="sans-serif" font-size="14.00" fill="#000000"> &#160;Providers</text>
<polygon fill="#fb8072" stroke="transparent" points="2904.5,-10 2904.5,-30 2924.5,-30 2924.5,-10 2904.5,-10"/>
<text text-anchor="start" x="2928.2258" y="-15.4" font-family="sans-serif" font-size="14.00" fill="#000000"> &#160;Exports</text>
<g id="clust1" class="cluster">
<title>cluster_SharedModule</title>
<polygon fill="none" stroke="#000000" stroke-dasharray="1,5" points="8,-70 8,-268 5485,-268 5485,-70 8,-70"/>
</g>
<g id="clust2" class="cluster">
<title>cluster_SharedModule_declarations</title>
<polygon fill="none" stroke="#000000" points="1865,-78 1865,-130 5477,-130 5477,-78 1865,-78"/>
</g>
<g id="clust24" class="cluster">
<title>cluster_SharedModule_exports</title>
<polygon fill="none" stroke="#000000" points="1074,-208 1074,-260 4396,-260 4396,-208 1074,-208"/>
</g>
<g id="clust26" class="cluster">
<title>cluster_SharedModule_providers</title>
<polygon fill="none" stroke="#000000" points="16,-78 16,-130 1857,-130 1857,-78 16,-78"/>
</g>
<!-- DmpFieldComponent -->
<g id="node1" class="node">
<title>DmpFieldComponent</title>
<polygon fill="#ffffb3" stroke="#000000" points="5469.108,-122 5330.892,-122 5330.892,-86 5469.108,-86 5469.108,-122"/>
<text text-anchor="middle" x="5400" y="-99.8" font-family="Times,serif" font-size="14.00" fill="#000000">DmpFieldComponent</text>
</g>
<!-- SharedModule -->
<g id="node21" class="node">
<title>SharedModule</title>
<polygon fill="#8dd3c7" stroke="#000000" points="2833.4231,-187 2830.4231,-191 2809.4231,-191 2806.4231,-187 2734.5769,-187 2734.5769,-151 2833.4231,-151 2833.4231,-187"/>
<text text-anchor="middle" x="2784" y="-164.8" font-family="Times,serif" font-size="14.00" fill="#000000">SharedModule</text>
</g>
<!-- DmpFieldComponent&#45;&gt;SharedModule -->
<g id="edge1" class="edge">
<title>DmpFieldComponent&#45;&gt;SharedModule</title>
<path fill="none" stroke="#000000" d="M5400,-122.1289C5400,-142.5724 5400,-173 5400,-173 5400,-173 2843.3466,-173 2843.3466,-173"/>
<polygon fill="#000000" stroke="#000000" points="2843.3466,-169.5001 2833.3466,-173 2843.3465,-176.5001 2843.3466,-169.5001"/>
</g>
<!-- TextFieldComponent -->
<g id="node2" class="node">
<title>TextFieldComponent</title>
<polygon fill="#ffffb3" stroke="#000000" points="5312.7688,-122 5177.2312,-122 5177.2312,-86 5312.7688,-86 5312.7688,-122"/>
<text text-anchor="middle" x="5245" y="-99.8" font-family="Times,serif" font-size="14.00" fill="#000000">TextFieldComponent</text>
</g>
<!-- TextFieldComponent&#45;&gt;SharedModule -->
<g id="edge2" class="edge">
<title>TextFieldComponent&#45;&gt;SharedModule</title>
<path fill="none" stroke="#000000" d="M5245,-122.2228C5245,-142.3652 5245,-172 5245,-172 5245,-172 2843.4371,-172 2843.4371,-172"/>
<polygon fill="#000000" stroke="#000000" points="2843.4371,-168.5001 2833.4371,-172 2843.4371,-175.5001 2843.4371,-168.5001"/>
</g>
<!-- DropdownFieldComponent -->
<g id="node3" class="node">
<title>DropdownFieldComponent</title>
<polygon fill="#ffffb3" stroke="#000000" points="5158.9846,-122 4989.0154,-122 4989.0154,-86 5158.9846,-86 5158.9846,-122"/>
<text text-anchor="middle" x="5074" y="-99.8" font-family="Times,serif" font-size="14.00" fill="#000000">DropdownFieldComponent</text>
</g>
<!-- DropdownFieldComponent&#45;&gt;SharedModule -->
<g id="edge3" class="edge">
<title>DropdownFieldComponent&#45;&gt;SharedModule</title>
<path fill="none" stroke="#000000" d="M5074,-122.0348C5074,-141.5762 5074,-170 5074,-170 5074,-170 2843.4231,-170 2843.4231,-170"/>
<polygon fill="#000000" stroke="#000000" points="2843.4232,-166.5001 2833.4231,-170 2843.4231,-173.5001 2843.4232,-166.5001"/>
</g>
<!-- TabOrAccordionContainerComponent -->
<g id="node4" class="node">
<title>TabOrAccordionContainerComponent</title>
<polygon fill="#ffffb3" stroke="#000000" points="4971.1615,-122 4738.8385,-122 4738.8385,-86 4971.1615,-86 4971.1615,-122"/>
<text text-anchor="middle" x="4855" y="-99.8" font-family="Times,serif" font-size="14.00" fill="#000000">TabOrAccordionContainerComponent</text>
</g>
<!-- TabOrAccordionContainerComponent&#45;&gt;SharedModule -->
<g id="edge4" class="edge">
<title>TabOrAccordionContainerComponent&#45;&gt;SharedModule</title>
<path fill="none" stroke="#000000" d="M4855,-122.1061C4855,-141.3391 4855,-169 4855,-169 4855,-169 2843.4041,-169 2843.4041,-169"/>
<polygon fill="#000000" stroke="#000000" points="2843.4041,-165.5001 2833.4041,-169 2843.4041,-172.5001 2843.4041,-165.5001"/>
</g>
<!-- TextBlockComponent -->
<g id="node5" class="node">
<title>TextBlockComponent</title>
<polygon fill="#ffffb3" stroke="#000000" points="4721.4327,-122 4580.5673,-122 4580.5673,-86 4721.4327,-86 4721.4327,-122"/>
<text text-anchor="middle" x="4651" y="-99.8" font-family="Times,serif" font-size="14.00" fill="#000000">TextBlockComponent</text>
</g>
<!-- TextBlockComponent&#45;&gt;SharedModule -->
<g id="edge5" class="edge">
<title>TextBlockComponent&#45;&gt;SharedModule</title>
<path fill="none" stroke="#000000" d="M4651,-122.2222C4651,-140.8285 4651,-167 4651,-167 4651,-167 2843.4568,-167 2843.4568,-167"/>
<polygon fill="#000000" stroke="#000000" points="2843.4569,-163.5001 2833.4568,-167 2843.4568,-170.5001 2843.4569,-163.5001"/>
</g>
<!-- TextAreaComponent -->
<g id="node6" class="node">
<title>TextAreaComponent</title>
<polygon fill="#ffffb3" stroke="#000000" points="4563.1867,-122 4428.8133,-122 4428.8133,-86 4563.1867,-86 4563.1867,-122"/>
<text text-anchor="middle" x="4496" y="-99.8" font-family="Times,serif" font-size="14.00" fill="#000000">TextAreaComponent</text>
</g>
<!-- TextAreaComponent&#45;&gt;SharedModule -->
<g id="edge6" class="edge">
<title>TextAreaComponent&#45;&gt;SharedModule</title>
<path fill="none" stroke="#000000" d="M4496,-122.2667C4496,-140.5552 4496,-166 4496,-166 4496,-166 2843.3905,-166 2843.3905,-166"/>
<polygon fill="#000000" stroke="#000000" points="2843.3906,-162.5001 2833.3905,-166 2843.3905,-169.5001 2843.3906,-162.5001"/>
</g>
<!-- DateTimeComponent -->
<g id="node7" class="node">
<title>DateTimeComponent</title>
<polygon fill="#ffffb3" stroke="#000000" points="4410.8075,-122 4273.1925,-122 4273.1925,-86 4410.8075,-86 4410.8075,-122"/>
<text text-anchor="middle" x="4342" y="-99.8" font-family="Times,serif" font-size="14.00" fill="#000000">DateTimeComponent</text>
</g>
<!-- DateTimeComponent&#45;&gt;SharedModule -->
<g id="edge7" class="edge">
<title>DateTimeComponent&#45;&gt;SharedModule</title>
<path fill="none" stroke="#000000" d="M4330.5752,-122.002C4330.5752,-139.6754 4330.5752,-164 4330.5752,-164 4330.5752,-164 2843.2721,-164 2843.2721,-164"/>
<polygon fill="#000000" stroke="#000000" points="2843.2721,-160.5001 2833.2721,-164 2843.2721,-167.5001 2843.2721,-160.5001"/>
</g>
<!-- AnchorOrButtonComponent -->
<g id="node8" class="node">
<title>AnchorOrButtonComponent</title>
<polygon fill="#ffffb3" stroke="#000000" points="4255.1993,-122 4078.8007,-122 4078.8007,-86 4255.1993,-86 4255.1993,-122"/>
<text text-anchor="middle" x="4167" y="-99.8" font-family="Times,serif" font-size="14.00" fill="#000000">AnchorOrButtonComponent</text>
</g>
<!-- AnchorOrButtonComponent&#45;&gt;SharedModule -->
<g id="edge8" class="edge">
<title>AnchorOrButtonComponent&#45;&gt;SharedModule</title>
<path fill="none" stroke="#000000" d="M4084.1331,-122.0336C4084.1331,-139.0597 4084.1331,-162 4084.1331,-162 4084.1331,-162 2843.3792,-162 2843.3792,-162"/>
<polygon fill="#000000" stroke="#000000" points="2843.3792,-158.5001 2833.3792,-162 2843.3791,-165.5001 2843.3792,-158.5001"/>
</g>
<!-- VocabFieldComponent -->
<g id="node9" class="node">
<title>VocabFieldComponent</title>
<polygon fill="#ffffb3" stroke="#000000" points="4061.147,-122 3914.853,-122 3914.853,-86 4061.147,-86 4061.147,-122"/>
<text text-anchor="middle" x="3988" y="-99.8" font-family="Times,serif" font-size="14.00" fill="#000000">VocabFieldComponent</text>
</g>
<!-- VocabFieldComponent&#45;&gt;SharedModule -->
<g id="edge9" class="edge">
<title>VocabFieldComponent&#45;&gt;SharedModule</title>
<path fill="none" stroke="#000000" d="M3988,-122.0352C3988,-138.7344 3988,-161 3988,-161 3988,-161 2843.4429,-161 2843.4429,-161"/>
<polygon fill="#000000" stroke="#000000" points="2843.4429,-157.5001 2833.4429,-161 2843.4428,-164.5001 2843.4429,-157.5001"/>
</g>
<!-- RepeatableVocabComponent -->
<g id="node10" class="node">
<title>RepeatableVocabComponent</title>
<polygon fill="#ffffb3" stroke="#000000" points="3897.059,-122 3716.941,-122 3716.941,-86 3897.059,-86 3897.059,-122"/>
<text text-anchor="middle" x="3807" y="-99.8" font-family="Times,serif" font-size="14.00" fill="#000000">RepeatableVocabComponent</text>
</g>
<!-- RepeatableVocabComponent&#45;&gt;SharedModule -->
<g id="edge10" class="edge">
<title>RepeatableVocabComponent&#45;&gt;SharedModule</title>
<path fill="none" stroke="#000000" d="M3798.4006,-122.0091C3798.4006,-138.0494 3798.4006,-159 3798.4006,-159 3798.4006,-159 2843.2695,-159 2843.2695,-159"/>
<polygon fill="#000000" stroke="#000000" points="2843.2695,-155.5001 2833.2695,-159 2843.2694,-162.5001 2843.2695,-155.5001"/>
</g>
<!-- ContributorComponent -->
<g id="node11" class="node">
<title>ContributorComponent</title>
<polygon fill="#ffffb3" stroke="#000000" points="3699.1624,-122 3552.8376,-122 3552.8376,-86 3699.1624,-86 3699.1624,-122"/>
<text text-anchor="middle" x="3626" y="-99.8" font-family="Times,serif" font-size="14.00" fill="#000000">ContributorComponent</text>
</g>
<!-- ContributorComponent&#45;&gt;SharedModule -->
<g id="edge11" class="edge">
<title>ContributorComponent&#45;&gt;SharedModule</title>
<path fill="none" stroke="#000000" d="M3589.3175,-122.2819C3589.3175,-137.9478 3589.3175,-158 3589.3175,-158 3589.3175,-158 2843.4658,-158 2843.4658,-158"/>
<polygon fill="#000000" stroke="#000000" points="2843.4658,-154.5001 2833.4658,-158 2843.4658,-161.5001 2843.4658,-154.5001"/>
</g>
<!-- RepeatableContributorComponent -->
<g id="node12" class="node">
<title>RepeatableContributorComponent</title>
<polygon fill="#ffffb3" stroke="#000000" points="3534.3529,-122 3325.6471,-122 3325.6471,-86 3534.3529,-86 3534.3529,-122"/>
<text text-anchor="middle" x="3430" y="-99.8" font-family="Times,serif" font-size="14.00" fill="#000000">RepeatableContributorComponent</text>
</g>
<!-- RepeatableContributorComponent&#45;&gt;SharedModule -->
<g id="edge12" class="edge">
<title>RepeatableContributorComponent&#45;&gt;SharedModule</title>
<path fill="none" stroke="#000000" d="M3372.0522,-122.1871C3372.0522,-137.1824 3372.0522,-156 3372.0522,-156 3372.0522,-156 2843.3776,-156 2843.3776,-156"/>
<polygon fill="#000000" stroke="#000000" points="2843.3776,-152.5001 2833.3776,-156 2843.3776,-159.5001 2843.3776,-152.5001"/>
</g>
<!-- HtmlRawComponent -->
<g id="node13" class="node">
<title>HtmlRawComponent</title>
<polygon fill="#ffffb3" stroke="#000000" points="3307.7688,-122 3172.2312,-122 3172.2312,-86 3307.7688,-86 3307.7688,-122"/>
<text text-anchor="middle" x="3240" y="-99.8" font-family="Times,serif" font-size="14.00" fill="#000000">HtmlRawComponent</text>
</g>
<!-- HtmlRawComponent&#45;&gt;SharedModule -->
<g id="edge13" class="edge">
<title>HtmlRawComponent&#45;&gt;SharedModule</title>
<path fill="none" stroke="#000000" d="M3217.3719,-122.1243C3217.3719,-136.7832 3217.3719,-155 3217.3719,-155 3217.3719,-155 2843.2913,-155 2843.2913,-155"/>
<polygon fill="#000000" stroke="#000000" points="2843.2914,-151.5001 2833.2913,-155 2843.2913,-158.5001 2843.2914,-151.5001"/>
</g>
<!-- HiddenValueComponent -->
<g id="node14" class="node">
<title>HiddenValueComponent</title>
<polygon fill="#ffffb3" stroke="#000000" points="3153.9706,-122 2998.0294,-122 2998.0294,-86 3153.9706,-86 3153.9706,-122"/>
<text text-anchor="middle" x="3076" y="-99.8" font-family="Times,serif" font-size="14.00" fill="#000000">HiddenValueComponent</text>
</g>
<!-- HiddenValueComponent&#45;&gt;SharedModule -->
<g id="edge14" class="edge">
<title>HiddenValueComponent&#45;&gt;SharedModule</title>
<path fill="none" stroke="#000000" d="M3073.9322,-122.2458C3073.9322,-136.1772 3073.9322,-153 3073.9322,-153 3073.9322,-153 2843.5117,-153 2843.5117,-153"/>
<polygon fill="#000000" stroke="#000000" points="2843.5117,-149.5001 2833.5117,-153 2843.5116,-156.5001 2843.5117,-149.5001"/>
</g>
<!-- WorkflowStepButtonComponent -->
<g id="node15" class="node">
<title>WorkflowStepButtonComponent</title>
<polygon fill="#ffffb3" stroke="#000000" points="2979.871,-122 2778.129,-122 2778.129,-86 2979.871,-86 2979.871,-122"/>
<text text-anchor="middle" x="2879" y="-99.8" font-family="Times,serif" font-size="14.00" fill="#000000">WorkflowStepButtonComponent</text>
</g>
<!-- WorkflowStepButtonComponent&#45;&gt;SharedModule -->
<g id="edge15" class="edge">
<title>WorkflowStepButtonComponent&#45;&gt;SharedModule</title>
<path fill="none" stroke="#000000" d="M2805.6378,-122.1061C2805.6378,-122.1061 2805.6378,-140.991 2805.6378,-140.991"/>
<polygon fill="#000000" stroke="#000000" points="2802.1379,-140.9909 2805.6378,-150.991 2809.1379,-140.991 2802.1379,-140.9909"/>
</g>
<!-- LinkValueComponent -->
<g id="node16" class="node">
<title>LinkValueComponent</title>
<polygon fill="#ffffb3" stroke="#000000" points="2759.7021,-122 2618.2979,-122 2618.2979,-86 2759.7021,-86 2759.7021,-122"/>
<text text-anchor="middle" x="2689" y="-99.8" font-family="Times,serif" font-size="14.00" fill="#000000">LinkValueComponent</text>
</g>
<!-- LinkValueComponent&#45;&gt;SharedModule -->
<g id="edge16" class="edge">
<title>LinkValueComponent&#45;&gt;SharedModule</title>
<path fill="none" stroke="#000000" d="M2747.195,-122.1061C2747.195,-122.1061 2747.195,-140.991 2747.195,-140.991"/>
<polygon fill="#000000" stroke="#000000" points="2743.695,-140.9909 2747.195,-150.991 2750.695,-140.991 2743.695,-140.9909"/>
</g>
<!-- SelectionFieldComponent -->
<g id="node17" class="node">
<title>SelectionFieldComponent</title>
<polygon fill="#ffffb3" stroke="#000000" points="2600.2091,-122 2437.7909,-122 2437.7909,-86 2600.2091,-86 2600.2091,-122"/>
<text text-anchor="middle" x="2519" y="-99.8" font-family="Times,serif" font-size="14.00" fill="#000000">SelectionFieldComponent</text>
</g>
<!-- SelectionFieldComponent&#45;&gt;SharedModule -->
<g id="edge17" class="edge">
<title>SelectionFieldComponent&#45;&gt;SharedModule</title>
<path fill="none" stroke="#000000" d="M2591.0927,-122.2458C2591.0927,-136.1772 2591.0927,-153 2591.0927,-153 2591.0927,-153 2724.5721,-153 2724.5721,-153"/>
<polygon fill="#000000" stroke="#000000" points="2724.5721,-156.5001 2734.5721,-153 2724.5721,-149.5001 2724.5721,-156.5001"/>
</g>
<!-- RepeatableTextfieldComponent -->
<g id="node18" class="node">
<title>RepeatableTextfieldComponent</title>
<polygon fill="#ffffb3" stroke="#000000" points="2419.3375,-122 2224.6625,-122 2224.6625,-86 2419.3375,-86 2419.3375,-122"/>
<text text-anchor="middle" x="2322" y="-99.8" font-family="Times,serif" font-size="14.00" fill="#000000">RepeatableTextfieldComponent</text>
</g>
<!-- RepeatableTextfieldComponent&#45;&gt;SharedModule -->
<g id="edge18" class="edge">
<title>RepeatableTextfieldComponent&#45;&gt;SharedModule</title>
<path fill="none" stroke="#000000" d="M2350.978,-122.1243C2350.978,-136.7832 2350.978,-155 2350.978,-155 2350.978,-155 2724.7485,-155 2724.7485,-155"/>
<polygon fill="#000000" stroke="#000000" points="2724.7485,-158.5001 2734.7485,-155 2724.7484,-151.5001 2724.7485,-158.5001"/>
</g>
<!-- RelatedObjectDataComponent -->
<g id="node19" class="node">
<title>RelatedObjectDataComponent</title>
<polygon fill="#ffffb3" stroke="#000000" points="2206.8375,-122 2019.1625,-122 2019.1625,-86 2206.8375,-86 2206.8375,-122"/>
<text text-anchor="middle" x="2113" y="-99.8" font-family="Times,serif" font-size="14.00" fill="#000000">RelatedObjectDataComponent</text>
</g>
<!-- RelatedObjectDataComponent&#45;&gt;SharedModule -->
<g id="edge19" class="edge">
<title>RelatedObjectDataComponent&#45;&gt;SharedModule</title>
<path fill="none" stroke="#000000" d="M2192.729,-122.1871C2192.729,-137.1824 2192.729,-156 2192.729,-156 2192.729,-156 2724.6055,-156 2724.6055,-156"/>
<polygon fill="#000000" stroke="#000000" points="2724.6056,-159.5001 2734.6055,-156 2724.6055,-152.5001 2724.6056,-159.5001"/>
</g>
<!-- StringTemplatePipe -->
<g id="node20" class="node">
<title>StringTemplatePipe</title>
<polygon fill="#ffffb3" stroke="#000000" points="2000.9804,-122 1873.0196,-122 1873.0196,-86 2000.9804,-86 2000.9804,-122"/>
<text text-anchor="middle" x="1937" y="-99.8" font-family="Times,serif" font-size="14.00" fill="#000000">StringTemplatePipe</text>
</g>
<!-- StringTemplatePipe&#45;&gt;SharedModule -->
<g id="edge20" class="edge">
<title>StringTemplatePipe&#45;&gt;SharedModule</title>
<path fill="none" stroke="#000000" d="M1937,-122.2819C1937,-137.9478 1937,-158 1937,-158 1937,-158 2724.49,-158 2724.49,-158"/>
<polygon fill="#000000" stroke="#000000" points="2724.49,-161.5001 2734.49,-158 2724.4899,-154.5001 2724.49,-161.5001"/>
</g>
<!-- DmpFieldComponent  -->
<g id="node22" class="node">
<title>DmpFieldComponent </title>
<polygon fill="#fb8072" stroke="#000000" points="4387.6085,-252 4246.3915,-252 4246.3915,-216 4387.6085,-216 4387.6085,-252"/>
<text text-anchor="middle" x="4317" y="-229.8" font-family="Times,serif" font-size="14.00" fill="#000000">DmpFieldComponent </text>
</g>
<!-- SharedModule&#45;&gt;DmpFieldComponent  -->
<g id="edge21" class="edge">
<title>SharedModule&#45;&gt;DmpFieldComponent </title>
<path fill="none" stroke="#000000" stroke-dasharray="5,2" d="M2833.2174,-175C3088.5591,-175 4250.6478,-175 4250.6478,-175 4250.6478,-175 4250.6478,-205.9775 4250.6478,-205.9775"/>
<polygon fill="#000000" stroke="#000000" points="4247.1479,-205.9774 4250.6478,-215.9775 4254.1479,-205.9775 4247.1479,-205.9774"/>
</g>
<!-- TextFieldComponent  -->
<g id="node23" class="node">
<title>TextFieldComponent </title>
<polygon fill="#fb8072" stroke="#000000" points="4228.7689,-252 4089.2311,-252 4089.2311,-216 4228.7689,-216 4228.7689,-252"/>
<text text-anchor="middle" x="4159" y="-229.8" font-family="Times,serif" font-size="14.00" fill="#000000">TextFieldComponent </text>
</g>
<!-- SharedModule&#45;&gt;TextFieldComponent  -->
<g id="edge22" class="edge">
<title>SharedModule&#45;&gt;TextFieldComponent </title>
<path fill="none" stroke="#000000" stroke-dasharray="5,2" d="M2833.3424,-177C3079.0689,-177 4159,-177 4159,-177 4159,-177 4159,-205.9648 4159,-205.9648"/>
<polygon fill="#000000" stroke="#000000" points="4155.5001,-205.9648 4159,-215.9648 4162.5001,-205.9649 4155.5001,-205.9648"/>
</g>
<!-- DropdownFieldComponent  -->
<g id="node24" class="node">
<title>DropdownFieldComponent </title>
<polygon fill="#fb8072" stroke="#000000" points="4071.9853,-252 3898.0147,-252 3898.0147,-216 4071.9853,-216 4071.9853,-252"/>
<text text-anchor="middle" x="3985" y="-229.8" font-family="Times,serif" font-size="14.00" fill="#000000">DropdownFieldComponent </text>
</g>
<!-- SharedModule&#45;&gt;DropdownFieldComponent  -->
<g id="edge23" class="edge">
<title>SharedModule&#45;&gt;DropdownFieldComponent </title>
<path fill="none" stroke="#000000" stroke-dasharray="5,2" d="M2833.3155,-178C3049.9533,-178 3906.4672,-178 3906.4672,-178 3906.4672,-178 3906.4672,-205.973 3906.4672,-205.973"/>
<polygon fill="#000000" stroke="#000000" points="3902.9673,-205.973 3906.4672,-215.973 3909.9673,-205.973 3902.9673,-205.973"/>
</g>
<!-- TabOrAccordionContainerComponent  -->
<g id="node25" class="node">
<title>TabOrAccordionContainerComponent </title>
<polygon fill="#fb8072" stroke="#000000" points="3879.6616,-252 3644.3384,-252 3644.3384,-216 3879.6616,-216 3879.6616,-252"/>
<text text-anchor="middle" x="3762" y="-229.8" font-family="Times,serif" font-size="14.00" fill="#000000">TabOrAccordionContainerComponent </text>
</g>
<!-- SharedModule&#45;&gt;TabOrAccordionContainerComponent  -->
<g id="edge24" class="edge">
<title>SharedModule&#45;&gt;TabOrAccordionContainerComponent </title>
<path fill="none" stroke="#000000" stroke-dasharray="5,2" d="M2833.3122,-180C3019.844,-180 3671.7502,-180 3671.7502,-180 3671.7502,-180 3671.7502,-205.7181 3671.7502,-205.7181"/>
<polygon fill="#000000" stroke="#000000" points="3668.2502,-205.718 3671.7502,-215.7181 3675.2502,-205.7181 3668.2502,-205.718"/>
</g>
<!-- TextBlockComponent  -->
<g id="node26" class="node">
<title>TextBlockComponent </title>
<polygon fill="#fb8072" stroke="#000000" points="3625.932,-252 3482.068,-252 3482.068,-216 3625.932,-216 3625.932,-252"/>
<text text-anchor="middle" x="3554" y="-229.8" font-family="Times,serif" font-size="14.00" fill="#000000">TextBlockComponent </text>
</g>
<!-- SharedModule&#45;&gt;TextBlockComponent  -->
<g id="edge25" class="edge">
<title>SharedModule&#45;&gt;TextBlockComponent </title>
<path fill="none" stroke="#000000" stroke-dasharray="5,2" d="M2833.4942,-181C2996.8093,-181 3508.2302,-181 3508.2302,-181 3508.2302,-181 3508.2302,-205.7604 3508.2302,-205.7604"/>
<polygon fill="#000000" stroke="#000000" points="3504.7303,-205.7604 3508.2302,-215.7604 3511.7303,-205.7604 3504.7303,-205.7604"/>
</g>
<!-- TextAreaComponent  -->
<g id="node27" class="node">
<title>TextAreaComponent </title>
<polygon fill="#fb8072" stroke="#000000" points="3463.687,-252 3326.313,-252 3326.313,-216 3463.687,-216 3463.687,-252"/>
<text text-anchor="middle" x="3395" y="-229.8" font-family="Times,serif" font-size="14.00" fill="#000000">TextAreaComponent </text>
</g>
<!-- SharedModule&#45;&gt;TextAreaComponent  -->
<g id="edge26" class="edge">
<title>SharedModule&#45;&gt;TextAreaComponent </title>
<path fill="none" stroke="#000000" stroke-dasharray="5,2" d="M2833.2173,-183C2982.1661,-183 3417.9478,-183 3417.9478,-183 3417.9478,-183 3417.9478,-205.8757 3417.9478,-205.8757"/>
<polygon fill="#000000" stroke="#000000" points="3414.4479,-205.8757 3417.9478,-215.8757 3421.4479,-205.8757 3414.4479,-205.8757"/>
</g>
<!-- DateTimeComponent  -->
<g id="node28" class="node">
<title>DateTimeComponent </title>
<polygon fill="#fb8072" stroke="#000000" points="3308.3073,-252 3167.6927,-252 3167.6927,-216 3308.3073,-216 3308.3073,-252"/>
<text text-anchor="middle" x="3238" y="-229.8" font-family="Times,serif" font-size="14.00" fill="#000000">DateTimeComponent </text>
</g>
<!-- SharedModule&#45;&gt;DateTimeComponent  -->
<g id="edge27" class="edge">
<title>SharedModule&#45;&gt;DateTimeComponent </title>
<path fill="none" stroke="#000000" stroke-dasharray="5,2" d="M2833.4189,-184C2955.7075,-184 3262.6281,-184 3262.6281,-184 3262.6281,-184 3262.6281,-205.9489 3262.6281,-205.9489"/>
<polygon fill="#000000" stroke="#000000" points="3259.1282,-205.9488 3262.6281,-215.9489 3266.1282,-205.9489 3259.1282,-205.9488"/>
</g>
<!-- AnchorOrButtonComponent  -->
<g id="node29" class="node">
<title>AnchorOrButtonComponent </title>
<polygon fill="#fb8072" stroke="#000000" points="3149.6995,-252 2970.3005,-252 2970.3005,-216 3149.6995,-216 3149.6995,-252"/>
<text text-anchor="middle" x="3060" y="-229.8" font-family="Times,serif" font-size="14.00" fill="#000000">AnchorOrButtonComponent </text>
</g>
<!-- SharedModule&#45;&gt;AnchorOrButtonComponent  -->
<g id="edge28" class="edge">
<title>SharedModule&#45;&gt;AnchorOrButtonComponent </title>
<path fill="none" stroke="#000000" stroke-dasharray="5,2" d="M2833.6956,-186C2890.3007,-186 2975.043,-186 2975.043,-186 2975.043,-186 2975.043,-205.8533 2975.043,-205.8533"/>
<polygon fill="#000000" stroke="#000000" points="2971.543,-205.8532 2975.043,-215.8533 2978.543,-205.8533 2971.543,-205.8532"/>
</g>
<!-- VocabFieldComponent  -->
<g id="node30" class="node">
<title>VocabFieldComponent </title>
<polygon fill="#fb8072" stroke="#000000" points="2952.1467,-252 2801.8533,-252 2801.8533,-216 2952.1467,-216 2952.1467,-252"/>
<text text-anchor="middle" x="2877" y="-229.8" font-family="Times,serif" font-size="14.00" fill="#000000">VocabFieldComponent </text>
</g>
<!-- SharedModule&#45;&gt;VocabFieldComponent  -->
<g id="edge29" class="edge">
<title>SharedModule&#45;&gt;VocabFieldComponent </title>
<path fill="none" stroke="#000000" stroke-dasharray="5,2" d="M2817.5689,-187.1061C2817.5689,-187.1061 2817.5689,-205.991 2817.5689,-205.991"/>
<polygon fill="#000000" stroke="#000000" points="2814.069,-205.9909 2817.5689,-215.991 2821.069,-205.991 2814.069,-205.9909"/>
</g>
<!-- RepeatableVocabComponent  -->
<g id="node31" class="node">
<title>RepeatableVocabComponent </title>
<polygon fill="#fb8072" stroke="#000000" points="2783.5595,-252 2600.4405,-252 2600.4405,-216 2783.5595,-216 2783.5595,-252"/>
<text text-anchor="middle" x="2692" y="-229.8" font-family="Times,serif" font-size="14.00" fill="#000000">RepeatableVocabComponent </text>
</g>
<!-- SharedModule&#45;&gt;RepeatableVocabComponent  -->
<g id="edge30" class="edge">
<title>SharedModule&#45;&gt;RepeatableVocabComponent </title>
<path fill="none" stroke="#000000" stroke-dasharray="5,2" d="M2759.2842,-187.1061C2759.2842,-187.1061 2759.2842,-205.991 2759.2842,-205.991"/>
<polygon fill="#000000" stroke="#000000" points="2755.7843,-205.9909 2759.2842,-215.991 2762.7843,-205.991 2755.7843,-205.9909"/>
</g>
<!-- ContributorComponent  -->
<g id="node32" class="node">
<title>ContributorComponent </title>
<polygon fill="#fb8072" stroke="#000000" points="2582.1621,-252 2431.8379,-252 2431.8379,-216 2582.1621,-216 2582.1621,-252"/>
<text text-anchor="middle" x="2507" y="-229.8" font-family="Times,serif" font-size="14.00" fill="#000000">ContributorComponent </text>
</g>
<!-- SharedModule&#45;&gt;ContributorComponent  -->
<g id="edge31" class="edge">
<title>SharedModule&#45;&gt;ContributorComponent </title>
<path fill="none" stroke="#000000" stroke-dasharray="5,2" d="M2734.6957,-186C2655.806,-186 2509.9883,-186 2509.9883,-186 2509.9883,-186 2509.9883,-205.8533 2509.9883,-205.8533"/>
<polygon fill="#000000" stroke="#000000" points="2506.4883,-205.8532 2509.9883,-215.8533 2513.4883,-205.8533 2506.4883,-205.8532"/>
</g>
<!-- RepeatableContributorComponent  -->
<g id="node33" class="node">
<title>RepeatableContributorComponent </title>
<polygon fill="#fb8072" stroke="#000000" points="2414.3531,-252 2201.6469,-252 2201.6469,-216 2414.3531,-216 2414.3531,-252"/>
<text text-anchor="middle" x="2308" y="-229.8" font-family="Times,serif" font-size="14.00" fill="#000000">RepeatableContributorComponent </text>
</g>
<!-- SharedModule&#45;&gt;RepeatableContributorComponent  -->
<g id="edge32" class="edge">
<title>SharedModule&#45;&gt;RepeatableContributorComponent </title>
<path fill="none" stroke="#000000" stroke-dasharray="5,2" d="M2734.6063,-184C2609.0932,-184 2287.7797,-184 2287.7797,-184 2287.7797,-184 2287.7797,-205.9489 2287.7797,-205.9489"/>
<polygon fill="#000000" stroke="#000000" points="2284.2798,-205.9488 2287.7797,-215.9489 2291.2798,-205.9489 2284.2798,-205.9488"/>
</g>
<!-- HtmlRawComponent  -->
<g id="node34" class="node">
<title>HtmlRawComponent </title>
<polygon fill="#fb8072" stroke="#000000" points="2183.7689,-252 2044.2311,-252 2044.2311,-216 2183.7689,-216 2183.7689,-252"/>
<text text-anchor="middle" x="2114" y="-229.8" font-family="Times,serif" font-size="14.00" fill="#000000">HtmlRawComponent </text>
</g>
<!-- SharedModule&#45;&gt;HtmlRawComponent  -->
<g id="edge33" class="edge">
<title>SharedModule&#45;&gt;HtmlRawComponent </title>
<path fill="none" stroke="#000000" stroke-dasharray="5,2" d="M2734.7333,-183C2580.0051,-183 2114,-183 2114,-183 2114,-183 2114,-205.8757 2114,-205.8757"/>
<polygon fill="#000000" stroke="#000000" points="2110.5001,-205.8757 2114,-215.8757 2117.5001,-205.8757 2110.5001,-205.8757"/>
</g>
<!-- HiddenValueComponent  -->
<g id="node35" class="node">
<title>HiddenValueComponent </title>
<polygon fill="#fb8072" stroke="#000000" points="2026.9713,-252 1867.0287,-252 1867.0287,-216 2026.9713,-216 2026.9713,-252"/>
<text text-anchor="middle" x="1947" y="-229.8" font-family="Times,serif" font-size="14.00" fill="#000000">HiddenValueComponent </text>
</g>
<!-- SharedModule&#45;&gt;HiddenValueComponent  -->
<g id="edge34" class="edge">
<title>SharedModule&#45;&gt;HiddenValueComponent </title>
<path fill="none" stroke="#000000" stroke-dasharray="5,2" d="M2734.6491,-181C2565.9952,-181 2022.9083,-181 2022.9083,-181 2022.9083,-181 2022.9083,-205.7604 2022.9083,-205.7604"/>
<polygon fill="#000000" stroke="#000000" points="2019.4084,-205.7604 2022.9083,-215.7604 2026.4084,-205.7604 2019.4084,-205.7604"/>
</g>
<!-- WorkflowStepButtonComponent  -->
<g id="node36" class="node">
<title>WorkflowStepButtonComponent </title>
<polygon fill="#fb8072" stroke="#000000" points="1849.8713,-252 1644.1287,-252 1644.1287,-216 1849.8713,-216 1849.8713,-252"/>
<text text-anchor="middle" x="1747" y="-229.8" font-family="Times,serif" font-size="14.00" fill="#000000">WorkflowStepButtonComponent </text>
</g>
<!-- SharedModule&#45;&gt;WorkflowStepButtonComponent  -->
<g id="edge35" class="edge">
<title>SharedModule&#45;&gt;WorkflowStepButtonComponent </title>
<path fill="none" stroke="#000000" stroke-dasharray="5,2" d="M2734.5872,-180C2526.2503,-180 1730.2165,-180 1730.2165,-180 1730.2165,-180 1730.2165,-205.7181 1730.2165,-205.7181"/>
<polygon fill="#000000" stroke="#000000" points="1726.7166,-205.718 1730.2165,-215.7181 1733.7166,-205.7181 1726.7166,-205.718"/>
</g>
<!-- LinkValueComponent  -->
<g id="node37" class="node">
<title>LinkValueComponent </title>
<polygon fill="#fb8072" stroke="#000000" points="1626.2023,-252 1481.7977,-252 1481.7977,-216 1626.2023,-216 1626.2023,-252"/>
<text text-anchor="middle" x="1554" y="-229.8" font-family="Times,serif" font-size="14.00" fill="#000000">LinkValueComponent </text>
</g>
<!-- SharedModule&#45;&gt;LinkValueComponent  -->
<g id="edge36" class="edge">
<title>SharedModule&#45;&gt;LinkValueComponent </title>
<path fill="none" stroke="#000000" stroke-dasharray="5,2" d="M2734.4397,-178C2506.2555,-178 1567.8591,-178 1567.8591,-178 1567.8591,-178 1567.8591,-205.973 1567.8591,-205.973"/>
<polygon fill="#000000" stroke="#000000" points="1564.3592,-205.973 1567.8591,-215.973 1571.3592,-205.973 1564.3592,-205.973"/>
</g>
<!-- SelectionFieldComponent  -->
<g id="node38" class="node">
<title>SelectionFieldComponent </title>
<polygon fill="#fb8072" stroke="#000000" points="1463.7093,-252 1298.2907,-252 1298.2907,-216 1463.7093,-216 1463.7093,-252"/>
<text text-anchor="middle" x="1381" y="-229.8" font-family="Times,serif" font-size="14.00" fill="#000000">SelectionFieldComponent </text>
</g>
<!-- SharedModule&#45;&gt;SelectionFieldComponent  -->
<g id="edge37" class="edge">
<title>SharedModule&#45;&gt;SelectionFieldComponent </title>
<path fill="none" stroke="#000000" stroke-dasharray="5,2" d="M2734.4786,-177C2485.3523,-177 1381,-177 1381,-177 1381,-177 1381,-205.9648 1381,-205.9648"/>
<polygon fill="#000000" stroke="#000000" points="1377.5001,-205.9648 1381,-215.9648 1384.5001,-205.9649 1377.5001,-205.9648"/>
</g>
<!-- RepeatableTextfieldComponent  -->
<g id="node39" class="node">
<title>RepeatableTextfieldComponent </title>
<polygon fill="#fb8072" stroke="#000000" points="1280.3377,-252 1081.6623,-252 1081.6623,-216 1280.3377,-216 1280.3377,-252"/>
<text text-anchor="middle" x="1181" y="-229.8" font-family="Times,serif" font-size="14.00" fill="#000000">RepeatableTextfieldComponent </text>
</g>
<!-- SharedModule&#45;&gt;RepeatableTextfieldComponent  -->
<g id="edge38" class="edge">
<title>SharedModule&#45;&gt;RepeatableTextfieldComponent </title>
<path fill="none" stroke="#000000" stroke-dasharray="5,2" d="M2734.505,-175C2473.6703,-175 1270.5412,-175 1270.5412,-175 1270.5412,-175 1270.5412,-205.9775 1270.5412,-205.9775"/>
<polygon fill="#000000" stroke="#000000" points="1267.0413,-205.9774 1270.5412,-215.9775 1274.0413,-205.9775 1267.0413,-205.9774"/>
</g>
<!-- FieldControlService -->
<g id="node40" class="node">
<title>FieldControlService</title>
<ellipse fill="#fdb462" stroke="#000000" cx="1760" cy="-104" rx="89.2012" ry="18"/>
<text text-anchor="middle" x="1760" y="-99.8" font-family="Times,serif" font-size="14.00" fill="#000000">FieldControlService</text>
</g>
<!-- FieldControlService&#45;&gt;SharedModule -->
<g id="edge39" class="edge">
<title>FieldControlService&#45;&gt;SharedModule</title>
<path fill="none" stroke="#000000" d="M1789.7835,-121.1009C1789.7835,-137.2462 1789.7835,-159 1789.7835,-159 1789.7835,-159 2724.6966,-159 2724.6966,-159"/>
<polygon fill="#000000" stroke="#000000" points="2724.6967,-162.5001 2734.6966,-159 2724.6966,-155.5001 2724.6967,-162.5001"/>
</g>
<!-- RecordsService -->
<g id="node41" class="node">
<title>RecordsService</title>
<ellipse fill="#fdb462" stroke="#000000" cx="1581" cy="-104" rx="71.766" ry="18"/>
<text text-anchor="middle" x="1581" y="-99.8" font-family="Times,serif" font-size="14.00" fill="#000000">RecordsService</text>
</g>
<!-- RecordsService&#45;&gt;SharedModule -->
<g id="edge40" class="edge">
<title>RecordsService&#45;&gt;SharedModule</title>
<path fill="none" stroke="#000000" d="M1648.4737,-110.1C1648.4737,-124.8044 1648.4737,-161 1648.4737,-161 1648.4737,-161 2724.4777,-161 2724.4777,-161"/>
<polygon fill="#000000" stroke="#000000" points="2724.4777,-164.5001 2734.4777,-161 2724.4777,-157.5001 2724.4777,-164.5001"/>
</g>
<!-- VocabFieldLookupService -->
<g id="node42" class="node">
<title>VocabFieldLookupService</title>
<ellipse fill="#fdb462" stroke="#000000" cx="1376" cy="-104" rx="115.1725" ry="18"/>
<text text-anchor="middle" x="1376" y="-99.8" font-family="Times,serif" font-size="14.00" fill="#000000">VocabFieldLookupService</text>
</g>
<!-- VocabFieldLookupService&#45;&gt;SharedModule -->
<g id="edge41" class="edge">
<title>VocabFieldLookupService&#45;&gt;SharedModule</title>
<path fill="none" stroke="#000000" d="M1486.3676,-109.3525C1486.3676,-123.7109 1486.3676,-162 1486.3676,-162 1486.3676,-162 2724.7158,-162 2724.7158,-162"/>
<polygon fill="#000000" stroke="#000000" points="2724.7159,-165.5001 2734.7158,-162 2724.7158,-158.5001 2724.7159,-165.5001"/>
</g>
<!-- ConfigService -->
<g id="node43" class="node">
<title>ConfigService</title>
<ellipse fill="#fdb462" stroke="#000000" cx="1176" cy="-104" rx="66.6325" ry="18"/>
<text text-anchor="middle" x="1176" y="-99.8" font-family="Times,serif" font-size="14.00" fill="#000000">ConfigService</text>
</g>
<!-- ConfigService&#45;&gt;SharedModule -->
<g id="edge42" class="edge">
<title>ConfigService&#45;&gt;SharedModule</title>
<path fill="none" stroke="#000000" d="M1176,-122.002C1176,-139.6754 1176,-164 1176,-164 1176,-164 2724.556,-164 2724.556,-164"/>
<polygon fill="#000000" stroke="#000000" points="2724.5561,-167.5001 2734.556,-164 2724.556,-160.5001 2724.5561,-167.5001"/>
</g>
<!-- TranslationService -->
<g id="node44" class="node">
<title>TranslationService</title>
<ellipse fill="#fdb462" stroke="#000000" cx="1007" cy="-104" rx="83.9431" ry="18"/>
<text text-anchor="middle" x="1007" y="-99.8" font-family="Times,serif" font-size="14.00" fill="#000000">TranslationService</text>
</g>
<!-- TranslationService&#45;&gt;SharedModule -->
<g id="edge43" class="edge">
<title>TranslationService&#45;&gt;SharedModule</title>
<path fill="none" stroke="#000000" d="M1086.4014,-110.1715C1086.4014,-125.8536 1086.4014,-166 1086.4014,-166 1086.4014,-166 2724.5702,-166 2724.5702,-166"/>
<polygon fill="#000000" stroke="#000000" points="2724.5702,-169.5001 2734.5702,-166 2724.5701,-162.5001 2724.5702,-169.5001"/>
</g>
<!-- UserSimpleService -->
<g id="node45" class="node">
<title>UserSimpleService</title>
<ellipse fill="#fdb462" stroke="#000000" cx="819" cy="-104" rx="85.6667" ry="18"/>
<text text-anchor="middle" x="819" y="-99.8" font-family="Times,serif" font-size="14.00" fill="#000000">UserSimpleService</text>
</g>
<!-- UserSimpleService&#45;&gt;SharedModule -->
<g id="edge44" class="edge">
<title>UserSimpleService&#45;&gt;SharedModule</title>
<path fill="none" stroke="#000000" d="M819,-122.2222C819,-140.8285 819,-167 819,-167 819,-167 2724.4439,-167 2724.4439,-167"/>
<polygon fill="#000000" stroke="#000000" points="2724.444,-170.5001 2734.4439,-167 2724.4439,-163.5001 2724.444,-170.5001"/>
</g>
<!-- DashboardService -->
<g id="node46" class="node">
<title>DashboardService</title>
<ellipse fill="#fdb462" stroke="#000000" cx="634" cy="-104" rx="81.6423" ry="18"/>
<text text-anchor="middle" x="634" y="-99.8" font-family="Times,serif" font-size="14.00" fill="#000000">DashboardService</text>
</g>
<!-- DashboardService&#45;&gt;SharedModule -->
<g id="edge45" class="edge">
<title>DashboardService&#45;&gt;SharedModule</title>
<path fill="none" stroke="#000000" d="M634,-122.1061C634,-141.3391 634,-169 634,-169 634,-169 2724.5383,-169 2724.5383,-169"/>
<polygon fill="#000000" stroke="#000000" points="2724.5384,-172.5001 2734.5383,-169 2724.5383,-165.5001 2724.5384,-172.5001"/>
</g>
<!-- RolesService -->
<g id="node47" class="node">
<title>RolesService</title>
<ellipse fill="#fdb462" stroke="#000000" cx="472" cy="-104" rx="61.9731" ry="18"/>
<text text-anchor="middle" x="472" y="-99.8" font-family="Times,serif" font-size="14.00" fill="#000000">RolesService</text>
</g>
<!-- RolesService&#45;&gt;SharedModule -->
<g id="edge46" class="edge">
<title>RolesService&#45;&gt;SharedModule</title>
<path fill="none" stroke="#000000" d="M472,-122.0348C472,-141.5762 472,-170 472,-170 472,-170 2724.641,-170 2724.641,-170"/>
<polygon fill="#000000" stroke="#000000" points="2724.641,-173.5001 2734.641,-170 2724.6409,-166.5001 2724.641,-173.5001"/>
</g>
<!-- EmailNotificationService -->
<g id="node48" class="node">
<title>EmailNotificationService</title>
<ellipse fill="#fdb462" stroke="#000000" cx="282" cy="-104" rx="109.9421" ry="18"/>
<text text-anchor="middle" x="282" y="-99.8" font-family="Times,serif" font-size="14.00" fill="#000000">EmailNotificationService</text>
</g>
<!-- EmailNotificationService&#45;&gt;SharedModule -->
<g id="edge47" class="edge">
<title>EmailNotificationService&#45;&gt;SharedModule</title>
<path fill="none" stroke="#000000" d="M282,-122.2228C282,-142.3652 282,-172 282,-172 282,-172 2724.584,-172 2724.584,-172"/>
<polygon fill="#000000" stroke="#000000" points="2724.5841,-175.5001 2734.584,-172 2724.584,-168.5001 2724.5841,-175.5001"/>
</g>
<!-- UtilityService -->
<g id="node49" class="node">
<title>UtilityService</title>
<ellipse fill="#fdb462" stroke="#000000" cx="89" cy="-104" rx="65.4208" ry="18"/>
<text text-anchor="middle" x="89" y="-99.8" font-family="Times,serif" font-size="14.00" fill="#000000">UtilityService</text>
</g>
<!-- UtilityService&#45;&gt;SharedModule -->
<g id="edge48" class="edge">
<title>UtilityService&#45;&gt;SharedModule</title>
<path fill="none" stroke="#000000" d="M89,-122.1289C89,-142.5724 89,-173 89,-173 89,-173 2724.6314,-173 2724.6314,-173"/>
<polygon fill="#000000" stroke="#000000" points="2724.6315,-176.5001 2734.6314,-173 2724.6314,-169.5001 2724.6315,-176.5001"/>
</g>
</g>
</svg>
