<?xml version="1.0" encoding="UTF-8" standalone="no"?>
<!DOCTYPE svg PUBLIC "-//W3C//DTD SVG 1.1//EN"
 "http://www.w3.org/Graphics/SVG/1.1/DTD/svg11.dtd">
<!-- Generated by graphviz version 2.47.0 (20210316.0004)
 -->
<!-- Title: dependencies Pages: 1 -->
<svg width="504pt" height="284pt"
 viewBox="0.00 0.00 504.00 284.00" xmlns="http://www.w3.org/2000/svg" xmlns:xlink="http://www.w3.org/1999/xlink">
<g id="graph0" class="graph" transform="scale(1 1) rotate(0) translate(4 280)">
<title>dependencies</title>
<polygon fill="white" stroke="transparent" points="-4,4 -4,-280 500,-280 500,4 -4,4"/>
<text text-anchor="start" x="227.01" y="-42.4" font-family="Times-12" font-weight="bold" font-size="14.00">Legend</text>
<polygon fill="#ffffb3" stroke="transparent" points="14,-10 14,-30 34,-30 34,-10 14,-10"/>
<text text-anchor="start" x="37.63" y="-15.4" font-family="Times-12" font-size="14.00"> &#160;Declarations</text>
<polygon fill="#8dd3c7" stroke="transparent" points="127,-10 127,-30 147,-30 147,-10 127,-10"/>
<text text-anchor="start" x="150.73" y="-15.4" font-family="Times-12" font-size="14.00"> &#160;Module</text>
<polygon fill="#80b1d3" stroke="transparent" points="213,-10 213,-30 233,-30 233,-10 213,-10"/>
<text text-anchor="start" x="236.78" y="-15.4" font-family="Times-12" font-size="14.00"> &#160;Bootstrap</text>
<polygon fill="#fdb462" stroke="transparent" points="310,-10 310,-30 330,-30 330,-10 310,-10"/>
<text text-anchor="start" x="333.67" y="-15.4" font-family="Times-12" font-size="14.00"> &#160;Providers</text>
<polygon fill="#fb8072" stroke="transparent" points="406,-10 406,-30 426,-30 426,-10 406,-10"/>
<text text-anchor="start" x="429.73" y="-15.4" font-family="Times-12" font-size="14.00"> &#160;Exports</text>
<g id="clust1" class="cluster">
<title>cluster_DashboardModule</title>
<polygon fill="none" stroke="black" stroke-dasharray="1,5" points="39,-70 39,-268 457,-268 457,-70 39,-70"/>
</g>
<g id="clust2" class="cluster">
<title>cluster_DashboardModule_declarations</title>
<polygon fill="none" stroke="black" points="169,-78 169,-130 449,-130 449,-78 169,-78"/>
</g>
<g id="clust7" class="cluster">
<title>cluster_DashboardModule_bootstrap</title>
<polygon fill="none" stroke="black" points="148,-208 148,-260 310,-260 310,-208 148,-208"/>
</g>
<g id="clust5" class="cluster">
<title>cluster_DashboardModule_imports</title>
<polygon fill="none" stroke="black" points="47,-78 47,-130 161,-130 161,-78 47,-78"/>
</g>
<!-- DashboardComponent -->
<g id="node1" class="node">
<title>DashboardComponent</title>
<polygon fill="#ffffb3" stroke="black" points="440.97,-122 299.03,-122 299.03,-86 440.97,-86 440.97,-122"/>
<text text-anchor="middle" x="370" y="-99.8" font-family="Times,serif" font-size="14.00">DashboardComponent</text>
</g>
<!-- DashboardModule -->
<g id="node3" class="node">
<title>DashboardModule</title>
<polygon fill="#8dd3c7" stroke="black" points="289.19,-187 286.19,-191 265.19,-191 262.19,-187 168.81,-187 168.81,-151 289.19,-151 289.19,-187"/>
<text text-anchor="middle" x="229" y="-164.8" font-family="Times,serif" font-size="14.00">DashboardModule</text>
</g>
<!-- DashboardComponent&#45;&gt;DashboardModule -->
<g id="edge1" class="edge">
<title>DashboardComponent&#45;&gt;DashboardModule</title>
<path fill="none" stroke="black" d="M298.84,-104C290.68,-104 285.21,-104 285.21,-104 285.21,-104 285.21,-140.89 285.21,-140.89"/>
<polygon fill="black" stroke="black" points="281.71,-140.89 285.21,-150.89 288.71,-140.89 281.71,-140.89"/>
</g>
<!-- SortComponent -->
<g id="node2" class="node">
<title>SortComponent</title>
<polygon fill="#ffffb3" stroke="black" points="281.17,-122 176.83,-122 176.83,-86 281.17,-86 281.17,-122"/>
<text text-anchor="middle" x="229" y="-99.8" font-family="Times,serif" font-size="14.00">SortComponent</text>
</g>
<!-- SortComponent&#45;&gt;DashboardModule -->
<g id="edge2" class="edge">
<title>SortComponent&#45;&gt;DashboardModule</title>
<path fill="none" stroke="black" d="M229,-122.11C229,-122.11 229,-140.99 229,-140.99"/>
<polygon fill="black" stroke="black" points="225.5,-140.99 229,-150.99 232.5,-140.99 225.5,-140.99"/>
</g>
<!-- DashboardComponent  -->
<g id="node5" class="node">
<title>DashboardComponent </title>
<polygon fill="#80b1d3" stroke="black" points="301.97,-252 156.03,-252 156.03,-216 301.97,-216 301.97,-252"/>
<text text-anchor="middle" x="229" y="-229.8" font-family="Times,serif" font-size="14.00">DashboardComponent </text>
</g>
<!-- DashboardModule&#45;&gt;DashboardComponent  -->
<g id="edge4" class="edge">
<title>DashboardModule&#45;&gt;DashboardComponent </title>
<path fill="none" stroke="black" stroke-dasharray="1,5" d="M229,-187.11C229,-187.11 229,-205.99 229,-205.99"/>
<polygon fill="black" stroke="black" points="225.5,-205.99 229,-215.99 232.5,-205.99 225.5,-205.99"/>
</g>
<!-- SharedModule -->
<g id="node4" class="node">
<title>SharedModule</title>
<polygon fill="#8dd3c7" stroke="black" points="153.42,-122 150.42,-126 129.42,-126 126.42,-122 54.58,-122 54.58,-86 153.42,-86 153.42,-122"/>
<text text-anchor="middle" x="104" y="-99.8" font-family="Times,serif" font-size="14.00">SharedModule</text>
</g>
<!-- SharedModule&#45;&gt;DashboardModule -->
<g id="edge3" class="edge">
<title>SharedModule&#45;&gt;DashboardModule</title>
<path fill="none" stroke="black" d="M153.26,-104C164.28,-104 172.79,-104 172.79,-104 172.79,-104 172.79,-140.89 172.79,-140.89"/>
<polygon fill="black" stroke="black" points="169.29,-140.89 172.79,-150.89 176.29,-140.89 169.29,-140.89"/>
</g>
</g>
</svg>
