<?xml version="1.0" encoding="UTF-8" standalone="no"?>
<!DOCTYPE svg PUBLIC "-//W3C//DTD SVG 1.1//EN"
 "http://www.w3.org/Graphics/SVG/1.1/DTD/svg11.dtd">
<!-- Generated by graphviz version 2.47.0 (20210316.0004)
 -->
<!-- Title: dependencies Pages: 1 -->
<svg width="508pt" height="284pt"
 viewBox="0.00 0.00 508.00 284.00" xmlns="http://www.w3.org/2000/svg" xmlns:xlink="http://www.w3.org/1999/xlink">
<g id="graph0" class="graph" transform="scale(1 1) rotate(0) translate(4 280)">
<title>dependencies</title>
<polygon fill="white" stroke="transparent" points="-4,4 -4,-280 504,-280 504,4 -4,4"/>
<text text-anchor="start" x="229.01" y="-42.4" font-family="Times-12" font-weight="bold" font-size="14.00">Legend</text>
<polygon fill="#ffffb3" stroke="transparent" points="16,-10 16,-30 36,-30 36,-10 16,-10"/>
<text text-anchor="start" x="39.63" y="-15.4" font-family="Times-12" font-size="14.00"> &#160;Declarations</text>
<polygon fill="#8dd3c7" stroke="transparent" points="129,-10 129,-30 149,-30 149,-10 129,-10"/>
<text text-anchor="start" x="152.73" y="-15.4" font-family="Times-12" font-size="14.00"> &#160;Module</text>
<polygon fill="#80b1d3" stroke="transparent" points="215,-10 215,-30 235,-30 235,-10 215,-10"/>
<text text-anchor="start" x="238.78" y="-15.4" font-family="Times-12" font-size="14.00"> &#160;Bootstrap</text>
<polygon fill="#fdb462" stroke="transparent" points="312,-10 312,-30 332,-30 332,-10 312,-10"/>
<text text-anchor="start" x="335.67" y="-15.4" font-family="Times-12" font-size="14.00"> &#160;Providers</text>
<polygon fill="#fb8072" stroke="transparent" points="408,-10 408,-30 428,-30 428,-10 408,-10"/>
<text text-anchor="start" x="431.73" y="-15.4" font-family="Times-12" font-size="14.00"> &#160;Exports</text>
<g id="clust1" class="cluster">
<title>cluster_DashboardModule</title>
<polygon fill="none" stroke="black" stroke-dasharray="1,5" points="8,-70 8,-268 492,-268 492,-70 8,-70"/>
</g>
<g id="clust2" class="cluster">
<title>cluster_DashboardModule_declarations</title>
<polygon fill="none" stroke="black" points="204,-78 204,-130 484,-130 484,-78 204,-78"/>
</g>
<g id="clust7" class="cluster">
<title>cluster_DashboardModule_bootstrap</title>
<polygon fill="none" stroke="black" points="183,-208 183,-260 345,-260 345,-208 183,-208"/>
</g>
<g id="clust5" class="cluster">
<title>cluster_DashboardModule_imports</title>
<polygon fill="none" stroke="black" points="16,-78 16,-130 196,-130 196,-78 16,-78"/>
</g>
<!-- DashboardComponent -->
<g id="node1" class="node">
<title>DashboardComponent</title>
<polygon fill="#ffffb3" stroke="black" points="475.97,-122 334.03,-122 334.03,-86 475.97,-86 475.97,-122"/>
<text text-anchor="middle" x="405" y="-99.8" font-family="Times,serif" font-size="14.00">DashboardComponent</text>
</g>
<!-- DashboardModule -->
<g id="node3" class="node">
<title>DashboardModule</title>
<polygon fill="#8dd3c7" stroke="black" points="324.19,-187 321.19,-191 300.19,-191 297.19,-187 203.81,-187 203.81,-151 324.19,-151 324.19,-187"/>
<text text-anchor="middle" x="264" y="-164.8" font-family="Times,serif" font-size="14.00">DashboardModule</text>
</g>
<!-- DashboardComponent&#45;&gt;DashboardModule -->
<g id="edge1" class="edge">
<title>DashboardComponent&#45;&gt;DashboardModule</title>
<path fill="none" stroke="black" d="M333.84,-104C325.68,-104 320.21,-104 320.21,-104 320.21,-104 320.21,-140.89 320.21,-140.89"/>
<polygon fill="black" stroke="black" points="316.71,-140.89 320.21,-150.89 323.71,-140.89 316.71,-140.89"/>
</g>
<!-- SortComponent -->
<g id="node2" class="node">
<title>SortComponent</title>
<polygon fill="#ffffb3" stroke="black" points="316.17,-122 211.83,-122 211.83,-86 316.17,-86 316.17,-122"/>
<text text-anchor="middle" x="264" y="-99.8" font-family="Times,serif" font-size="14.00">SortComponent</text>
</g>
<!-- SortComponent&#45;&gt;DashboardModule -->
<g id="edge2" class="edge">
<title>SortComponent&#45;&gt;DashboardModule</title>
<path fill="none" stroke="black" d="M264,-122.11C264,-122.11 264,-140.99 264,-140.99"/>
<polygon fill="black" stroke="black" points="260.5,-140.99 264,-150.99 267.5,-140.99 260.5,-140.99"/>
</g>
<!-- DashboardComponent  -->
<g id="node5" class="node">
<title>DashboardComponent </title>
<polygon fill="#80b1d3" stroke="black" points="336.97,-252 191.03,-252 191.03,-216 336.97,-216 336.97,-252"/>
<text text-anchor="middle" x="264" y="-229.8" font-family="Times,serif" font-size="14.00">DashboardComponent </text>
</g>
<!-- DashboardModule&#45;&gt;DashboardComponent  -->
<g id="edge4" class="edge">
<title>DashboardModule&#45;&gt;DashboardComponent </title>
<path fill="none" stroke="black" stroke-dasharray="1,5" d="M264,-187.11C264,-187.11 264,-205.99 264,-205.99"/>
<polygon fill="black" stroke="black" points="260.5,-205.99 264,-215.99 267.5,-205.99 260.5,-205.99"/>
</g>
<!-- RedboxPortalCoreModule -->
<g id="node4" class="node">
<title>RedboxPortalCoreModule</title>
<polygon fill="#8dd3c7" stroke="black" points="187.75,-122 184.75,-126 163.75,-126 160.75,-122 24.25,-122 24.25,-86 187.75,-86 187.75,-122"/>
<text text-anchor="middle" x="106" y="-99.8" font-family="Times,serif" font-size="14.00">RedboxPortalCoreModule</text>
</g>
<!-- RedboxPortalCoreModule&#45;&gt;DashboardModule -->
<g id="edge3" class="edge">
<title>RedboxPortalCoreModule&#45;&gt;DashboardModule</title>
<path fill="none" stroke="black" d="M188.16,-104C199.73,-104 207.79,-104 207.79,-104 207.79,-104 207.79,-140.89 207.79,-140.89"/>
<polygon fill="black" stroke="black" points="204.29,-140.89 207.79,-150.89 211.29,-140.89 204.29,-140.89"/>
</g>
</g>
</svg>
