<?xml version="1.0" encoding="UTF-8" standalone="no"?>
<!DOCTYPE svg PUBLIC "-//W3C//DTD SVG 1.1//EN"
 "http://www.w3.org/Graphics/SVG/1.1/DTD/svg11.dtd">
<!-- Generated by graphviz version 5.0.0 (20220707.1540)
 -->
<!-- Title: dependencies Pages: 1 -->
<svg width="442pt" height="247pt"
 viewBox="0.00 0.00 442.00 246.80" xmlns="http://www.w3.org/2000/svg" xmlns:xlink="http://www.w3.org/1999/xlink">
<g id="graph0" class="graph" transform="scale(1 1) rotate(0) translate(4 242.8)">
<title>dependencies</title>
<polygon fill="white" stroke="transparent" points="-4,4 -4,-242.8 438,-242.8 438,4 -4,4"/>
<text text-anchor="middle" x="217" y="-8.2" font-family="sans-serif" font-size="14.00">dependencies</text>
<g id="clust1" class="cluster">
<title>cluster_DashboardModule</title>
<polygon fill="none" stroke="black" stroke-dasharray="1,5" points="8,-32.8 8,-230.8 426,-230.8 426,-32.8 8,-32.8"/>
</g>
<g id="clust5" class="cluster">
<title>cluster_DashboardModule_imports</title>
<polygon fill="none" stroke="black" points="304,-40.8 304,-92.8 418,-92.8 418,-40.8 304,-40.8"/>
</g>
<g id="clust2" class="cluster">
<title>cluster_DashboardModule_declarations</title>
<polygon fill="none" stroke="black" points="16,-40.8 16,-92.8 296,-92.8 296,-40.8 16,-40.8"/>
</g>
<g id="clust7" class="cluster">
<title>cluster_DashboardModule_bootstrap</title>
<polygon fill="none" stroke="black" points="136,-170.8 136,-222.8 298,-222.8 298,-170.8 136,-170.8"/>
</g>
<!-- DashboardComponent -->
<g id="node1" class="node">
<title>DashboardComponent</title>
<polygon fill="#ffffb3" stroke="black" points="287.98,-84.8 146.02,-84.8 146.02,-48.8 287.98,-48.8 287.98,-84.8"/>
<text text-anchor="middle" x="217" y="-62.6" font-family="Times,serif" font-size="14.00">DashboardComponent</text>
</g>
<!-- DashboardModule -->
<g id="node3" class="node">
<title>DashboardModule</title>
<polygon fill="#8dd3c7" stroke="black" points="277.2,-149.8 274.2,-153.8 253.2,-153.8 250.2,-149.8 156.8,-149.8 156.8,-113.8 277.2,-113.8 277.2,-149.8"/>
<text text-anchor="middle" x="217" y="-127.6" font-family="Times,serif" font-size="14.00">DashboardModule</text>
</g>
<!-- DashboardComponent&#45;&gt;DashboardModule -->
<g id="edge1" class="edge">
<title>DashboardComponent&#45;&gt;DashboardModule</title>
<path fill="none" stroke="black" d="M217,-84.91C217,-84.91 217,-103.79 217,-103.79"/>
<polygon fill="black" stroke="black" points="213.5,-103.79 217,-113.79 220.5,-103.79 213.5,-103.79"/>
</g>
<!-- SortComponent -->
<g id="node2" class="node">
<title>SortComponent</title>
<polygon fill="#ffffb3" stroke="black" points="128.17,-84.8 23.83,-84.8 23.83,-48.8 128.17,-48.8 128.17,-84.8"/>
<text text-anchor="middle" x="76" y="-62.6" font-family="Times,serif" font-size="14.00">SortComponent</text>
</g>
<!-- SortComponent&#45;&gt;DashboardModule -->
<g id="edge2" class="edge">
<title>SortComponent&#45;&gt;DashboardModule</title>
<path fill="none" stroke="black" d="M76,-84.91C76,-104.14 76,-131.8 76,-131.8 76,-131.8 146.79,-131.8 146.79,-131.8"/>
<polygon fill="black" stroke="black" points="146.79,-135.3 156.79,-131.8 146.79,-128.3 146.79,-135.3"/>
</g>
<!-- DashboardComponent  -->
<g id="node5" class="node">
<title>DashboardComponent </title>
<polygon fill="#80b1d3" stroke="black" points="289.98,-214.8 144.02,-214.8 144.02,-178.8 289.98,-178.8 289.98,-214.8"/>
<text text-anchor="middle" x="217" y="-192.6" font-family="Times,serif" font-size="14.00">DashboardComponent </text>
</g>
<!-- DashboardModule&#45;&gt;DashboardComponent  -->
<g id="edge4" class="edge">
<title>DashboardModule&#45;&gt;DashboardComponent </title>
<path fill="none" stroke="black" stroke-dasharray="1,5" d="M217,-149.91C217,-149.91 217,-168.79 217,-168.79"/>
<polygon fill="black" stroke="black" points="213.5,-168.79 217,-178.79 220.5,-168.79 213.5,-168.79"/>
</g>
<!-- SharedModule -->
<g id="node4" class="node">
<title>SharedModule</title>
<polygon fill="#8dd3c7" stroke="black" points="410.43,-84.8 407.43,-88.8 386.43,-88.8 383.43,-84.8 311.57,-84.8 311.57,-48.8 410.43,-48.8 410.43,-84.8"/>
<text text-anchor="middle" x="361" y="-62.6" font-family="Times,serif" font-size="14.00">SharedModule</text>
</g>
<!-- SharedModule&#45;&gt;DashboardModule -->
<g id="edge3" class="edge">
<title>SharedModule&#45;&gt;DashboardModule</title>
<path fill="none" stroke="black" d="M361,-84.91C361,-104.14 361,-131.8 361,-131.8 361,-131.8 287.23,-131.8 287.23,-131.8"/>
<polygon fill="black" stroke="black" points="287.23,-128.3 277.23,-131.8 287.23,-135.3 287.23,-128.3"/>
</g>
</g>
</svg>
