<?xml version="1.0" encoding="UTF-8" standalone="no"?>
<!DOCTYPE svg PUBLIC "-//W3C//DTD SVG 1.1//EN"
 "http://www.w3.org/Graphics/SVG/1.1/DTD/svg11.dtd">
<!-- Generated by graphviz version 2.47.3 (20210619.1520)
 -->
<!-- Title: dependencies Pages: 1 -->
<svg width="336pt" height="247pt"
 viewBox="0.00 0.00 336.00 246.80" xmlns="http://www.w3.org/2000/svg" xmlns:xlink="http://www.w3.org/1999/xlink">
<g id="graph0" class="graph" transform="scale(1 1) rotate(0) translate(4 242.8)">
<title>dependencies</title>
<polygon fill="white" stroke="transparent" points="-4,4 -4,-242.8 332,-242.8 332,4 -4,4"/>
<text text-anchor="middle" x="164" y="-8.2" font-family="sans-serif" font-size="14.00">dependencies</text>
<g id="clust1" class="cluster">
<title>cluster_ManageUsersModule</title>
<polygon fill="none" stroke="black" stroke-dasharray="1,5" points="8,-32.8 8,-230.8 320,-230.8 320,-32.8 8,-32.8"/>
</g>
<g id="clust4" class="cluster">
<title>cluster_ManageUsersModule_imports</title>
<polygon fill="none" stroke="black" points="198,-40.8 198,-92.8 312,-92.8 312,-40.8 198,-40.8"/>
</g>
<g id="clust2" class="cluster">
<title>cluster_ManageUsersModule_declarations</title>
<polygon fill="none" stroke="black" points="16,-40.8 16,-92.8 190,-92.8 190,-40.8 16,-40.8"/>
</g>
<g id="clust6" class="cluster">
<title>cluster_ManageUsersModule_bootstrap</title>
<polygon fill="none" stroke="black" points="75,-170.8 75,-222.8 253,-222.8 253,-170.8 75,-170.8"/>
</g>
<!-- ManageUsersComponent -->
<g id="node1" class="node">
<title>ManageUsersComponent</title>
<polygon fill="#ffffb3" stroke="black" points="182.29,-84.8 23.71,-84.8 23.71,-48.8 182.29,-48.8 182.29,-84.8"/>
<text text-anchor="middle" x="103" y="-62.6" font-family="Times,serif" font-size="14.00">ManageUsersComponent</text>
</g>
<!-- ManageUsersModule -->
<g id="node2" class="node">
<title>ManageUsersModule</title>
<polygon fill="#8dd3c7" stroke="black" points="232.01,-149.8 229.01,-153.8 208.01,-153.8 205.01,-149.8 95.99,-149.8 95.99,-113.8 232.01,-113.8 232.01,-149.8"/>
<text text-anchor="middle" x="164" y="-127.6" font-family="Times,serif" font-size="14.00">ManageUsersModule</text>
</g>
<!-- ManageUsersComponent&#45;&gt;ManageUsersModule -->
<g id="edge1" class="edge">
<title>ManageUsersComponent&#45;&gt;ManageUsersModule</title>
<path fill="none" stroke="black" d="M138.95,-84.91C138.95,-84.91 138.95,-103.79 138.95,-103.79"/>
<polygon fill="black" stroke="black" points="135.45,-103.79 138.95,-113.79 142.45,-103.79 135.45,-103.79"/>
</g>
<!-- ManageUsersComponent  -->
<g id="node4" class="node">
<title>ManageUsersComponent </title>
<polygon fill="#80b1d3" stroke="black" points="244.79,-214.8 83.21,-214.8 83.21,-178.8 244.79,-178.8 244.79,-214.8"/>
<text text-anchor="middle" x="164" y="-192.6" font-family="Times,serif" font-size="14.00">ManageUsersComponent </text>
</g>
<!-- ManageUsersModule&#45;&gt;ManageUsersComponent  -->
<g id="edge3" class="edge">
<title>ManageUsersModule&#45;&gt;ManageUsersComponent </title>
<path fill="none" stroke="black" stroke-dasharray="1,5" d="M164,-149.91C164,-149.91 164,-168.79 164,-168.79"/>
<polygon fill="black" stroke="black" points="160.5,-168.79 164,-178.79 167.5,-168.79 160.5,-168.79"/>
</g>
<!-- SharedModule -->
<g id="node3" class="node">
<title>SharedModule</title>
<polygon fill="#8dd3c7" stroke="black" points="304.42,-84.8 301.42,-88.8 280.42,-88.8 277.42,-84.8 205.58,-84.8 205.58,-48.8 304.42,-48.8 304.42,-84.8"/>
<text text-anchor="middle" x="255" y="-62.6" font-family="Times,serif" font-size="14.00">SharedModule</text>
</g>
<!-- SharedModule&#45;&gt;ManageUsersModule -->
<g id="edge2" class="edge">
<title>SharedModule&#45;&gt;ManageUsersModule</title>
<path fill="none" stroke="black" d="M219.02,-84.91C219.02,-84.91 219.02,-103.79 219.02,-103.79"/>
<polygon fill="black" stroke="black" points="215.52,-103.79 219.02,-113.79 222.52,-103.79 215.52,-103.79"/>
</g>
</g>
</svg>
