<?xml version="1.0" encoding="UTF-8" standalone="no"?>
<!DOCTYPE svg PUBLIC "-//W3C//DTD SVG 1.1//EN"
 "http://www.w3.org/Graphics/SVG/1.1/DTD/svg11.dtd">
<!-- Generated by graphviz version 2.47.0 (20210316.0004)
 -->
<!-- Title: dependencies Pages: 1 -->
<svg width="504pt" height="284pt"
 viewBox="0.00 0.00 504.00 284.00" xmlns="http://www.w3.org/2000/svg" xmlns:xlink="http://www.w3.org/1999/xlink">
<g id="graph0" class="graph" transform="scale(1 1) rotate(0) translate(4 280)">
<title>dependencies</title>
<polygon fill="white" stroke="transparent" points="-4,4 -4,-280 500,-280 500,4 -4,4"/>
<text text-anchor="start" x="227.01" y="-42.4" font-family="Times-12" font-weight="bold" font-size="14.00">Legend</text>
<polygon fill="#ffffb3" stroke="transparent" points="14,-10 14,-30 34,-30 34,-10 14,-10"/>
<text text-anchor="start" x="37.63" y="-15.4" font-family="Times-12" font-size="14.00"> &#160;Declarations</text>
<polygon fill="#8dd3c7" stroke="transparent" points="127,-10 127,-30 147,-30 147,-10 127,-10"/>
<text text-anchor="start" x="150.73" y="-15.4" font-family="Times-12" font-size="14.00"> &#160;Module</text>
<polygon fill="#80b1d3" stroke="transparent" points="213,-10 213,-30 233,-30 233,-10 213,-10"/>
<text text-anchor="start" x="236.78" y="-15.4" font-family="Times-12" font-size="14.00"> &#160;Bootstrap</text>
<polygon fill="#fdb462" stroke="transparent" points="310,-10 310,-30 330,-30 330,-10 310,-10"/>
<text text-anchor="start" x="333.67" y="-15.4" font-family="Times-12" font-size="14.00"> &#160;Providers</text>
<polygon fill="#fb8072" stroke="transparent" points="406,-10 406,-30 426,-30 426,-10 406,-10"/>
<text text-anchor="start" x="429.73" y="-15.4" font-family="Times-12" font-size="14.00"> &#160;Exports</text>
<g id="clust1" class="cluster">
<title>cluster_ManageUsersModule</title>
<polygon fill="none" stroke="black" stroke-dasharray="1,5" points="92,-70 92,-268 404,-268 404,-70 92,-70"/>
</g>
<g id="clust6" class="cluster">
<title>cluster_ManageUsersModule_bootstrap</title>
<polygon fill="none" stroke="black" points="159,-208 159,-260 337,-260 337,-208 159,-208"/>
</g>
<g id="clust2" class="cluster">
<title>cluster_ManageUsersModule_declarations</title>
<polygon fill="none" stroke="black" points="222,-78 222,-130 396,-130 396,-78 222,-78"/>
</g>
<g id="clust4" class="cluster">
<title>cluster_ManageUsersModule_imports</title>
<polygon fill="none" stroke="black" points="100,-78 100,-130 214,-130 214,-78 100,-78"/>
</g>
<!-- ManageUsersComponent -->
<g id="node1" class="node">
<title>ManageUsersComponent</title>
<polygon fill="#ffffb3" stroke="black" points="388.29,-122 229.71,-122 229.71,-86 388.29,-86 388.29,-122"/>
<text text-anchor="middle" x="309" y="-99.8" font-family="Times,serif" font-size="14.00">ManageUsersComponent</text>
</g>
<!-- ManageUsersModule -->
<g id="node2" class="node">
<title>ManageUsersModule</title>
<polygon fill="#8dd3c7" stroke="black" points="316.01,-187 313.01,-191 292.01,-191 289.01,-187 179.99,-187 179.99,-151 316.01,-151 316.01,-187"/>
<text text-anchor="middle" x="248" y="-164.8" font-family="Times,serif" font-size="14.00">ManageUsersModule</text>
</g>
<!-- ManageUsersComponent&#45;&gt;ManageUsersModule -->
<g id="edge1" class="edge">
<title>ManageUsersComponent&#45;&gt;ManageUsersModule</title>
<path fill="none" stroke="black" d="M273.05,-122.11C273.05,-122.11 273.05,-140.99 273.05,-140.99"/>
<polygon fill="black" stroke="black" points="269.55,-140.99 273.05,-150.99 276.55,-140.99 269.55,-140.99"/>
</g>
<!-- ManageUsersComponent  -->
<g id="node4" class="node">
<title>ManageUsersComponent </title>
<polygon fill="#80b1d3" stroke="black" points="328.79,-252 167.21,-252 167.21,-216 328.79,-216 328.79,-252"/>
<text text-anchor="middle" x="248" y="-229.8" font-family="Times,serif" font-size="14.00">ManageUsersComponent </text>
</g>
<!-- ManageUsersModule&#45;&gt;ManageUsersComponent  -->
<g id="edge3" class="edge">
<title>ManageUsersModule&#45;&gt;ManageUsersComponent </title>
<path fill="none" stroke="black" stroke-dasharray="1,5" d="M248,-187.11C248,-187.11 248,-205.99 248,-205.99"/>
<polygon fill="black" stroke="black" points="244.5,-205.99 248,-215.99 251.5,-205.99 244.5,-205.99"/>
</g>
<!-- SharedModule -->
<g id="node3" class="node">
<title>SharedModule</title>
<polygon fill="#8dd3c7" stroke="black" points="206.42,-122 203.42,-126 182.42,-126 179.42,-122 107.58,-122 107.58,-86 206.42,-86 206.42,-122"/>
<text text-anchor="middle" x="157" y="-99.8" font-family="Times,serif" font-size="14.00">SharedModule</text>
</g>
<!-- SharedModule&#45;&gt;ManageUsersModule -->
<g id="edge2" class="edge">
<title>SharedModule&#45;&gt;ManageUsersModule</title>
<path fill="none" stroke="black" d="M192.98,-122.11C192.98,-122.11 192.98,-140.99 192.98,-140.99"/>
<polygon fill="black" stroke="black" points="189.48,-140.99 192.98,-150.99 196.48,-140.99 189.48,-140.99"/>
</g>
</g>
</svg>
