<?xml version="1.0" encoding="UTF-8" standalone="no"?>
<!DOCTYPE svg PUBLIC "-//W3C//DTD SVG 1.1//EN"
 "http://www.w3.org/Graphics/SVG/1.1/DTD/svg11.dtd">
<!-- Generated by graphviz version 2.47.0 (20210316.0004)
 -->
<!-- Title: dependencies Pages: 1 -->
<svg width="3752pt" height="360pt"
 viewBox="0.00 0.00 3752.00 360.00" xmlns="http://www.w3.org/2000/svg" xmlns:xlink="http://www.w3.org/1999/xlink">
<g id="graph0" class="graph" transform="scale(1 1) rotate(0) translate(4 356)">
<title>dependencies</title>
<polygon fill="white" stroke="transparent" points="-4,4 -4,-356 3748,-356 3748,4 -4,4"/>
<text text-anchor="start" x="1851.01" y="-42.4" font-family="Times-12" font-weight="bold" font-size="14.00">Legend</text>
<polygon fill="#ffffb3" stroke="transparent" points="1638,-10 1638,-30 1658,-30 1658,-10 1638,-10"/>
<text text-anchor="start" x="1661.63" y="-15.4" font-family="Times-12" font-size="14.00"> &#160;Declarations</text>
<polygon fill="#8dd3c7" stroke="transparent" points="1751,-10 1751,-30 1771,-30 1771,-10 1751,-10"/>
<text text-anchor="start" x="1774.73" y="-15.4" font-family="Times-12" font-size="14.00"> &#160;Module</text>
<polygon fill="#80b1d3" stroke="transparent" points="1837,-10 1837,-30 1857,-30 1857,-10 1837,-10"/>
<text text-anchor="start" x="1860.78" y="-15.4" font-family="Times-12" font-size="14.00"> &#160;Bootstrap</text>
<polygon fill="#fdb462" stroke="transparent" points="1934,-10 1934,-30 1954,-30 1954,-10 1934,-10"/>
<text text-anchor="start" x="1957.67" y="-15.4" font-family="Times-12" font-size="14.00"> &#160;Providers</text>
<polygon fill="#fb8072" stroke="transparent" points="2030,-10 2030,-30 2050,-30 2050,-10 2030,-10"/>
<text text-anchor="start" x="2053.73" y="-15.4" font-family="Times-12" font-size="14.00"> &#160;Exports</text>
<g id="clust1" class="cluster">
<title>cluster_AppConfigModule</title>
<polygon fill="none" stroke="black" stroke-dasharray="1,5" points="691,-146 691,-344 1534,-344 1534,-146 691,-146"/>
</g>
<g id="clust2" class="cluster">
<title>cluster_AppConfigModule_declarations</title>
<polygon fill="none" stroke="black" points="699,-154 699,-206 1338,-206 1338,-154 699,-154"/>
</g>
<g id="clust7" class="cluster">
<title>cluster_AppConfigModule_imports</title>
<polygon fill="none" stroke="black" points="1346,-154 1346,-206 1526,-206 1526,-154 1346,-154"/>
</g>
<g id="clust9" class="cluster">
<title>cluster_AppConfigModule_bootstrap</title>
<polygon fill="none" stroke="black" points="1014,-284 1014,-336 1178,-336 1178,-284 1014,-284"/>
</g>
<g id="clust11" class="cluster">
<title>cluster_DashboardModule</title>
<polygon fill="none" stroke="black" stroke-dasharray="1,5" points="173,-146 173,-344 469,-344 469,-146 173,-146"/>
</g>
<g id="clust12" class="cluster">
<title>cluster_DashboardModule_declarations</title>
<polygon fill="none" stroke="black" points="181,-154 181,-206 461,-206 461,-154 181,-154"/>
</g>
<g id="clust17" class="cluster">
<title>cluster_DashboardModule_bootstrap</title>
<polygon fill="none" stroke="black" points="299,-284 299,-336 461,-336 461,-284 299,-284"/>
</g>
<g id="clust19" class="cluster">
<title>cluster_DeletedRecordsModule</title>
<polygon fill="none" stroke="black" stroke-dasharray="1,5" points="477,-146 477,-344 683,-344 683,-146 477,-146"/>
</g>
<g id="clust20" class="cluster">
<title>cluster_DeletedRecordsModule_declarations</title>
<polygon fill="none" stroke="black" points="488,-154 488,-206 674,-206 674,-154 488,-154"/>
</g>
<g id="clust24" class="cluster">
<title>cluster_DeletedRecordsModule_bootstrap</title>
<polygon fill="none" stroke="black" points="485,-284 485,-336 675,-336 675,-284 485,-284"/>
</g>
<g id="clust26" class="cluster">
<title>cluster_ExportModule</title>
<polygon fill="none" stroke="black" stroke-dasharray="1,5" points="1542,-146 1542,-344 1696,-344 1696,-146 1542,-146"/>
</g>
<g id="clust27" class="cluster">
<title>cluster_ExportModule_declarations</title>
<polygon fill="none" stroke="black" points="1550,-154 1550,-206 1686,-206 1686,-154 1550,-154"/>
</g>
<g id="clust31" class="cluster">
<title>cluster_ExportModule_bootstrap</title>
<polygon fill="none" stroke="black" points="1550,-284 1550,-336 1688,-336 1688,-284 1550,-284"/>
</g>
<g id="clust33" class="cluster">
<title>cluster_FormModule</title>
<polygon fill="none" stroke="black" stroke-dasharray="1,5" points="2140,-70 2140,-344 2986,-344 2986,-70 2140,-70"/>
</g>
<g id="clust34" class="cluster">
<title>cluster_FormModule_declarations</title>
<polygon fill="none" stroke="black" points="2294,-154 2294,-206 2978,-206 2978,-154 2294,-154"/>
</g>
<g id="clust35" class="cluster">
<title>cluster_FormModule_FormComponent_providers</title>
<polygon fill="none" stroke="black" points="2340,-78 2340,-130 2972,-130 2972,-78 2340,-78"/>
</g>
<g id="clust41" class="cluster">
<title>cluster_FormModule_bootstrap</title>
<polygon fill="none" stroke="black" points="2391,-284 2391,-336 2523,-336 2523,-284 2391,-284"/>
</g>
<g id="clust42" class="cluster">
<title>cluster_FormModule_providers</title>
<polygon fill="none" stroke="black" points="2148,-154 2148,-206 2286,-206 2286,-154 2148,-154"/>
</g>
<g id="clust43" class="cluster">
<title>cluster_LocalAuthModule</title>
<polygon fill="none" stroke="black" stroke-dasharray="1,5" points="2994,-146 2994,-344 3170,-344 3170,-146 2994,-146"/>
</g>
<g id="clust44" class="cluster">
<title>cluster_LocalAuthModule_declarations</title>
<polygon fill="none" stroke="black" points="3002,-154 3002,-206 3160,-206 3160,-154 3002,-154"/>
</g>
<g id="clust48" class="cluster">
<title>cluster_LocalAuthModule_bootstrap</title>
<polygon fill="none" stroke="black" points="3002,-284 3002,-336 3162,-336 3162,-284 3002,-284"/>
</g>
<g id="clust50" class="cluster">
<title>cluster_ManageRolesModule</title>
<polygon fill="none" stroke="black" stroke-dasharray="1,5" points="3178,-146 3178,-344 3372,-344 3372,-146 3178,-146"/>
</g>
<g id="clust51" class="cluster">
<title>cluster_ManageRolesModule_declarations</title>
<polygon fill="none" stroke="black" points="3187,-154 3187,-206 3361,-206 3361,-154 3187,-154"/>
</g>
<g id="clust55" class="cluster">
<title>cluster_ManageRolesModule_bootstrap</title>
<polygon fill="none" stroke="black" points="3186,-284 3186,-336 3364,-336 3364,-284 3186,-284"/>
</g>
<g id="clust57" class="cluster">
<title>cluster_ManageUsersModule</title>
<polygon fill="none" stroke="black" stroke-dasharray="1,5" points="3380,-146 3380,-344 3574,-344 3574,-146 3380,-146"/>
</g>
<g id="clust58" class="cluster">
<title>cluster_ManageUsersModule_declarations</title>
<polygon fill="none" stroke="black" points="3389,-154 3389,-206 3563,-206 3563,-154 3389,-154"/>
</g>
<g id="clust62" class="cluster">
<title>cluster_ManageUsersModule_bootstrap</title>
<polygon fill="none" stroke="black" points="3388,-284 3388,-336 3566,-336 3566,-284 3388,-284"/>
</g>
<g id="clust64" class="cluster">
<title>cluster_RedboxPortalCoreModule</title>
<polygon fill="none" stroke="black" stroke-dasharray="1,5" points="8,-70 8,-138 2132,-138 2132,-70 8,-70"/>
</g>
<g id="clust65" class="cluster">
<title>cluster_RedboxPortalCoreModule_declarations</title>
<polygon fill="none" stroke="black" points="1791,-78 1791,-130 2124,-130 2124,-78 1791,-78"/>
</g>
<g id="clust69" class="cluster">
<title>cluster_RedboxPortalCoreModule_exports</title>
<polygon fill="none" stroke="black" points="1443,-78 1443,-130 1783,-130 1783,-78 1443,-78"/>
</g>
<g id="clust71" class="cluster">
<title>cluster_RedboxPortalCoreModule_providers</title>
<polygon fill="none" stroke="black" points="16,-78 16,-130 1435,-130 1435,-78 16,-78"/>
</g>
<g id="clust72" class="cluster">
<title>cluster_ReportModule</title>
<polygon fill="none" stroke="black" stroke-dasharray="1,5" points="3582,-146 3582,-344 3736,-344 3736,-146 3582,-146"/>
</g>
<g id="clust73" class="cluster">
<title>cluster_ReportModule_declarations</title>
<polygon fill="none" stroke="black" points="3590,-154 3590,-206 3726,-206 3726,-154 3590,-154"/>
</g>
<g id="clust77" class="cluster">
<title>cluster_ReportModule_bootstrap</title>
<polygon fill="none" stroke="black" points="3590,-284 3590,-336 3728,-336 3728,-284 3590,-284"/>
</g>
<!-- AppConfigComponent -->
<g id="node1" class="node">
<title>AppConfigComponent</title>
<polygon fill="#ffffb3" stroke="black" points="1330.33,-198 1185.67,-198 1185.67,-162 1330.33,-162 1330.33,-198"/>
<text text-anchor="middle" x="1258" y="-175.8" font-family="Times,serif" font-size="14.00">AppConfigComponent</text>
</g>
<!-- AppConfigModule -->
<g id="node5" class="node">
<title>AppConfigModule</title>
<polygon fill="#8dd3c7" stroke="black" points="1157.05,-263 1154.05,-267 1133.05,-267 1130.05,-263 1034.95,-263 1034.95,-227 1157.05,-227 1157.05,-263"/>
<text text-anchor="middle" x="1096" y="-240.8" font-family="Times,serif" font-size="14.00">AppConfigModule</text>
</g>
<!-- AppConfigComponent&#45;&gt;AppConfigModule -->
<g id="edge1" class="edge">
<title>AppConfigComponent&#45;&gt;AppConfigModule</title>
<path fill="none" stroke="black" d="M1258,-198.11C1258,-217.34 1258,-245 1258,-245 1258,-245 1167.25,-245 1167.25,-245"/>
<polygon fill="black" stroke="black" points="1167.25,-241.5 1157.25,-245 1167.25,-248.5 1167.25,-241.5"/>
</g>
<!-- ArrayTypeComponent -->
<g id="node2" class="node">
<title>ArrayTypeComponent</title>
<polygon fill="#ffffb3" stroke="black" points="1167.24,-198 1024.76,-198 1024.76,-162 1167.24,-162 1167.24,-198"/>
<text text-anchor="middle" x="1096" y="-175.8" font-family="Times,serif" font-size="14.00">ArrayTypeComponent</text>
</g>
<!-- ArrayTypeComponent&#45;&gt;AppConfigModule -->
<g id="edge2" class="edge">
<title>ArrayTypeComponent&#45;&gt;AppConfigModule</title>
<path fill="none" stroke="black" d="M1096,-198.11C1096,-198.11 1096,-216.99 1096,-216.99"/>
<polygon fill="black" stroke="black" points="1092.5,-216.99 1096,-226.99 1099.5,-216.99 1092.5,-216.99"/>
</g>
<!-- ObjectTypeComponent -->
<g id="node3" class="node">
<title>ObjectTypeComponent</title>
<polygon fill="#ffffb3" stroke="black" points="1006.92,-198 859.08,-198 859.08,-162 1006.92,-162 1006.92,-198"/>
<text text-anchor="middle" x="933" y="-175.8" font-family="Times,serif" font-size="14.00">ObjectTypeComponent</text>
</g>
<!-- ObjectTypeComponent&#45;&gt;AppConfigModule -->
<g id="edge3" class="edge">
<title>ObjectTypeComponent&#45;&gt;AppConfigModule</title>
<path fill="none" stroke="black" d="M933,-198.02C933,-215.37 933,-239 933,-239 933,-239 1024.84,-239 1024.84,-239"/>
<polygon fill="black" stroke="black" points="1024.84,-242.5 1034.84,-239 1024.84,-235.5 1024.84,-242.5"/>
</g>
<!-- TextAreaComponent -->
<g id="node4" class="node">
<title>TextAreaComponent</title>
<polygon fill="#ffffb3" stroke="black" points="841.19,-198 706.81,-198 706.81,-162 841.19,-162 841.19,-198"/>
<text text-anchor="middle" x="774" y="-175.8" font-family="Times,serif" font-size="14.00">TextAreaComponent</text>
</g>
<!-- TextAreaComponent&#45;&gt;AppConfigModule -->
<g id="edge4" class="edge">
<title>TextAreaComponent&#45;&gt;AppConfigModule</title>
<path fill="none" stroke="black" d="M774,-198.28C774,-219.32 774,-251 774,-251 774,-251 1024.68,-251 1024.68,-251"/>
<polygon fill="black" stroke="black" points="1024.68,-254.5 1034.68,-251 1024.68,-247.5 1024.68,-254.5"/>
</g>
<!-- AppConfigComponent  -->
<g id="node7" class="node">
<title>AppConfigComponent </title>
<polygon fill="#80b1d3" stroke="black" points="1169.83,-328 1022.17,-328 1022.17,-292 1169.83,-292 1169.83,-328"/>
<text text-anchor="middle" x="1096" y="-305.8" font-family="Times,serif" font-size="14.00">AppConfigComponent </text>
</g>
<!-- AppConfigModule&#45;&gt;AppConfigComponent  -->
<g id="edge6" class="edge">
<title>AppConfigModule&#45;&gt;AppConfigComponent </title>
<path fill="none" stroke="black" stroke-dasharray="1,5" d="M1096,-263.11C1096,-263.11 1096,-281.99 1096,-281.99"/>
<polygon fill="black" stroke="black" points="1092.5,-281.99 1096,-291.99 1099.5,-281.99 1092.5,-281.99"/>
</g>
<!-- RedboxPortalCoreModule -->
<g id="node6" class="node">
<title>RedboxPortalCoreModule</title>
<polygon fill="#8dd3c7" stroke="black" points="1517.75,-198 1514.75,-202 1493.75,-202 1490.75,-198 1354.25,-198 1354.25,-162 1517.75,-162 1517.75,-198"/>
<text text-anchor="middle" x="1436" y="-175.8" font-family="Times,serif" font-size="14.00">RedboxPortalCoreModule</text>
</g>
<!-- RedboxPortalCoreModule&#45;&gt;AppConfigModule -->
<g id="edge5" class="edge">
<title>RedboxPortalCoreModule&#45;&gt;AppConfigModule</title>
<path fill="none" stroke="black" d="M1485.13,-198.29C1485.13,-220.21 1485.13,-254 1485.13,-254 1485.13,-254 1167.23,-254 1167.23,-254"/>
<polygon fill="black" stroke="black" points="1167.23,-250.5 1157.23,-254 1167.23,-257.5 1167.23,-250.5"/>
</g>
<!-- DashboardModule -->
<g id="node10" class="node">
<title>DashboardModule</title>
<polygon fill="#8dd3c7" stroke="black" points="441.19,-263 438.19,-267 417.19,-267 414.19,-263 320.81,-263 320.81,-227 441.19,-227 441.19,-263"/>
<text text-anchor="middle" x="381" y="-240.8" font-family="Times,serif" font-size="14.00">DashboardModule</text>
</g>
<!-- RedboxPortalCoreModule&#45;&gt;DashboardModule -->
<g id="edge9" class="edge">
<title>RedboxPortalCoreModule&#45;&gt;DashboardModule</title>
<path fill="none" stroke="black" d="M1370.5,-198.07C1370.5,-207.46 1370.5,-217 1370.5,-217 1370.5,-217 401.03,-217 401.03,-217 401.03,-217 401.03,-217.98 401.03,-217.98"/>
<polygon fill="black" stroke="black" points="397.53,-216.79 401.03,-226.79 404.53,-216.79 397.53,-216.79"/>
</g>
<!-- DeletedRecordsModule -->
<g id="node13" class="node">
<title>DeletedRecordsModule</title>
<polygon fill="#8dd3c7" stroke="black" points="655.45,-263 652.45,-267 631.45,-267 628.45,-263 506.55,-263 506.55,-227 655.45,-227 655.45,-263"/>
<text text-anchor="middle" x="581" y="-240.8" font-family="Times,serif" font-size="14.00">DeletedRecordsModule</text>
</g>
<!-- RedboxPortalCoreModule&#45;&gt;DeletedRecordsModule -->
<g id="edge12" class="edge">
<title>RedboxPortalCoreModule&#45;&gt;DeletedRecordsModule</title>
<path fill="none" stroke="black" d="M1386.87,-198.15C1386.87,-210.27 1386.87,-224 1386.87,-224 1386.87,-224 605.83,-224 605.83,-224 605.83,-224 605.83,-224.29 605.83,-224.29"/>
<polygon fill="black" stroke="black" points="602.33,-216.92 605.83,-226.92 609.33,-216.92 602.33,-216.92"/>
</g>
<!-- ExportModule -->
<g id="node16" class="node">
<title>ExportModule</title>
<polygon fill="#8dd3c7" stroke="black" points="1666.65,-263 1663.65,-267 1642.65,-267 1639.65,-263 1569.35,-263 1569.35,-227 1666.65,-227 1666.65,-263"/>
<text text-anchor="middle" x="1618" y="-240.8" font-family="Times,serif" font-size="14.00">ExportModule</text>
</g>
<!-- RedboxPortalCoreModule&#45;&gt;ExportModule -->
<g id="edge15" class="edge">
<title>RedboxPortalCoreModule&#45;&gt;ExportModule</title>
<path fill="none" stroke="black" d="M1501.5,-198.03C1501.5,-214.4 1501.5,-236 1501.5,-236 1501.5,-236 1559.27,-236 1559.27,-236"/>
<polygon fill="black" stroke="black" points="1559.27,-239.5 1569.27,-236 1559.27,-232.5 1559.27,-239.5"/>
</g>
<!-- FormModule -->
<g id="node22" class="node">
<title>FormModule</title>
<polygon fill="#8dd3c7" stroke="black" points="2501.88,-263 2498.88,-267 2477.88,-267 2474.88,-263 2412.12,-263 2412.12,-227 2501.88,-227 2501.88,-263"/>
<text text-anchor="middle" x="2457" y="-240.8" font-family="Times,serif" font-size="14.00">FormModule</text>
</g>
<!-- RedboxPortalCoreModule&#45;&gt;FormModule -->
<g id="edge23" class="edge">
<title>RedboxPortalCoreModule&#45;&gt;FormModule</title>
<path fill="none" stroke="black" d="M1403.25,-198.13C1403.25,-208.71 1403.25,-220 1403.25,-220 1403.25,-220 2420.67,-220 2420.67,-220 2420.67,-220 2420.67,-220.68 2420.67,-220.68"/>
<polygon fill="black" stroke="black" points="2417.17,-216.83 2420.67,-226.83 2424.17,-216.83 2417.17,-216.83"/>
</g>
<!-- LocalAuthModule -->
<g id="node28" class="node">
<title>LocalAuthModule</title>
<polygon fill="#8dd3c7" stroke="black" points="3140.92,-263 3137.92,-267 3116.92,-267 3113.92,-263 3021.08,-263 3021.08,-227 3140.92,-227 3140.92,-263"/>
<text text-anchor="middle" x="3081" y="-240.8" font-family="Times,serif" font-size="14.00">LocalAuthModule</text>
</g>
<!-- RedboxPortalCoreModule&#45;&gt;LocalAuthModule -->
<g id="edge27" class="edge">
<title>RedboxPortalCoreModule&#45;&gt;LocalAuthModule</title>
<path fill="none" stroke="black" d="M1419.62,-198.04C1419.62,-205.75 1419.62,-213 1419.62,-213 1419.62,-213 3061.1,-213 3061.1,-213 3061.1,-213 3061.1,-216.76 3061.1,-216.76"/>
<polygon fill="black" stroke="black" points="3057.6,-216.76 3061.1,-226.76 3064.6,-216.76 3057.6,-216.76"/>
</g>
<!-- ManageRolesModule -->
<g id="node31" class="node">
<title>ManageRolesModule</title>
<polygon fill="#8dd3c7" stroke="black" points="3342.03,-263 3339.03,-267 3318.03,-267 3315.03,-263 3205.97,-263 3205.97,-227 3342.03,-227 3342.03,-263"/>
<text text-anchor="middle" x="3274" y="-240.8" font-family="Times,serif" font-size="14.00">ManageRolesModule</text>
</g>
<!-- RedboxPortalCoreModule&#45;&gt;ManageRolesModule -->
<g id="edge30" class="edge">
<title>RedboxPortalCoreModule&#45;&gt;ManageRolesModule</title>
<path fill="none" stroke="black" d="M1436,-198.2C1436,-204.03 1436,-209 1436,-209 1436,-209 3251.25,-209 3251.25,-209 3251.25,-209 3251.25,-216.58 3251.25,-216.58"/>
<polygon fill="black" stroke="black" points="3247.75,-216.58 3251.25,-226.58 3254.75,-216.58 3247.75,-216.58"/>
</g>
<!-- ManageUsersModule -->
<g id="node34" class="node">
<title>ManageUsersModule</title>
<polygon fill="#8dd3c7" stroke="black" points="3544.01,-263 3541.01,-267 3520.01,-267 3517.01,-263 3407.99,-263 3407.99,-227 3544.01,-227 3544.01,-263"/>
<text text-anchor="middle" x="3476" y="-240.8" font-family="Times,serif" font-size="14.00">ManageUsersModule</text>
</g>
<!-- RedboxPortalCoreModule&#45;&gt;ManageUsersModule -->
<g id="edge33" class="edge">
<title>RedboxPortalCoreModule&#45;&gt;ManageUsersModule</title>
<path fill="none" stroke="black" d="M1452.38,-198.06C1452.38,-202.49 1452.38,-206 1452.38,-206 1452.38,-206 3453.25,-206 3453.25,-206 3453.25,-206 3453.25,-216.87 3453.25,-216.87"/>
<polygon fill="black" stroke="black" points="3449.75,-216.87 3453.25,-226.87 3456.75,-216.87 3449.75,-216.87"/>
</g>
<!-- HeaderSortComponent  -->
<g id="node38" class="node">
<title>HeaderSortComponent </title>
<polygon fill="#fb8072" stroke="black" points="1775.08,-122 1626.92,-122 1626.92,-86 1775.08,-86 1775.08,-122"/>
<text text-anchor="middle" x="1701" y="-99.8" font-family="Times,serif" font-size="14.00">HeaderSortComponent </text>
</g>
<!-- RedboxPortalCoreModule&#45;&gt;HeaderSortComponent  -->
<g id="edge37" class="edge">
<title>RedboxPortalCoreModule&#45;&gt;HeaderSortComponent </title>
<path fill="none" stroke="black" stroke-dasharray="5,2" d="M1504.59,-161.72C1504.59,-146.05 1504.59,-126 1504.59,-126 1504.59,-126 1652.21,-126 1652.21,-126 1652.21,-126 1652.21,-125.62 1652.21,-125.62"/>
<polygon fill="black" stroke="black" points="1655.72,-132.17 1652.21,-122.17 1648.72,-132.17 1655.72,-132.17"/>
</g>
<!-- RecordTableComponent  -->
<g id="node39" class="node">
<title>RecordTableComponent </title>
<polygon fill="#fb8072" stroke="black" points="1608.63,-122 1451.37,-122 1451.37,-86 1608.63,-86 1608.63,-122"/>
<text text-anchor="middle" x="1530" y="-99.8" font-family="Times,serif" font-size="14.00">RecordTableComponent </text>
</g>
<!-- RedboxPortalCoreModule&#45;&gt;RecordTableComponent  -->
<g id="edge38" class="edge">
<title>RedboxPortalCoreModule&#45;&gt;RecordTableComponent </title>
<path fill="none" stroke="black" stroke-dasharray="5,2" d="M1464.72,-161.99C1464.72,-161.99 1464.72,-132.15 1464.72,-132.15"/>
<polygon fill="black" stroke="black" points="1468.22,-132.15 1464.72,-122.15 1461.22,-132.15 1468.22,-132.15"/>
</g>
<!-- ReportModule -->
<g id="node50" class="node">
<title>ReportModule</title>
<polygon fill="#8dd3c7" stroke="black" points="3706.65,-263 3703.65,-267 3682.65,-267 3679.65,-263 3609.35,-263 3609.35,-227 3706.65,-227 3706.65,-263"/>
<text text-anchor="middle" x="3658" y="-240.8" font-family="Times,serif" font-size="14.00">ReportModule</text>
</g>
<!-- RedboxPortalCoreModule&#45;&gt;ReportModule -->
<g id="edge49" class="edge">
<title>RedboxPortalCoreModule&#45;&gt;ReportModule</title>
<path fill="none" stroke="black" d="M1468.75,-198.17C1468.75,-200.45 1468.75,-202 1468.75,-202 1468.75,-202 3641.72,-202 3641.72,-202 3641.72,-202 3641.72,-216.51 3641.72,-216.51"/>
<polygon fill="black" stroke="black" points="3638.22,-216.51 3641.72,-226.51 3645.22,-216.51 3638.22,-216.51"/>
</g>
<!-- DashboardComponent -->
<g id="node8" class="node">
<title>DashboardComponent</title>
<polygon fill="#ffffb3" stroke="black" points="452.97,-198 311.03,-198 311.03,-162 452.97,-162 452.97,-198"/>
<text text-anchor="middle" x="382" y="-175.8" font-family="Times,serif" font-size="14.00">DashboardComponent</text>
</g>
<!-- DashboardComponent&#45;&gt;DashboardModule -->
<g id="edge7" class="edge">
<title>DashboardComponent&#45;&gt;DashboardModule</title>
<path fill="none" stroke="black" d="M360.97,-198.11C360.97,-198.11 360.97,-216.99 360.97,-216.99"/>
<polygon fill="black" stroke="black" points="357.47,-216.99 360.97,-226.99 364.47,-216.99 357.47,-216.99"/>
</g>
<!-- SortComponent -->
<g id="node9" class="node">
<title>SortComponent</title>
<polygon fill="#ffffb3" stroke="black" points="293.17,-198 188.83,-198 188.83,-162 293.17,-162 293.17,-198"/>
<text text-anchor="middle" x="241" y="-175.8" font-family="Times,serif" font-size="14.00">SortComponent</text>
</g>
<!-- SortComponent&#45;&gt;DashboardModule -->
<g id="edge8" class="edge">
<title>SortComponent&#45;&gt;DashboardModule</title>
<path fill="none" stroke="black" d="M241,-198.11C241,-217.34 241,-245 241,-245 241,-245 310.81,-245 310.81,-245"/>
<polygon fill="black" stroke="black" points="310.81,-248.5 320.81,-245 310.81,-241.5 310.81,-248.5"/>
</g>
<!-- DashboardComponent  -->
<g id="node11" class="node">
<title>DashboardComponent </title>
<polygon fill="#80b1d3" stroke="black" points="452.97,-328 307.03,-328 307.03,-292 452.97,-292 452.97,-328"/>
<text text-anchor="middle" x="380" y="-305.8" font-family="Times,serif" font-size="14.00">DashboardComponent </text>
</g>
<!-- DashboardModule&#45;&gt;DashboardComponent  -->
<g id="edge10" class="edge">
<title>DashboardModule&#45;&gt;DashboardComponent </title>
<path fill="none" stroke="black" stroke-dasharray="1,5" d="M381,-263.11C381,-263.11 381,-281.99 381,-281.99"/>
<polygon fill="black" stroke="black" points="377.5,-281.99 381,-291.99 384.5,-281.99 377.5,-281.99"/>
</g>
<!-- DeletedRecordsComponent -->
<g id="node12" class="node">
<title>DeletedRecordsComponent</title>
<polygon fill="#ffffb3" stroke="black" points="666.24,-198 495.76,-198 495.76,-162 666.24,-162 666.24,-198"/>
<text text-anchor="middle" x="581" y="-175.8" font-family="Times,serif" font-size="14.00">DeletedRecordsComponent</text>
</g>
<!-- DeletedRecordsComponent&#45;&gt;DeletedRecordsModule -->
<g id="edge11" class="edge">
<title>DeletedRecordsComponent&#45;&gt;DeletedRecordsModule</title>
<path fill="none" stroke="black" d="M556.17,-198.11C556.17,-198.11 556.17,-216.99 556.17,-216.99"/>
<polygon fill="black" stroke="black" points="552.67,-216.99 556.17,-226.99 559.67,-216.99 552.67,-216.99"/>
</g>
<!-- DeletedRecordsComponent  -->
<g id="node14" class="node">
<title>DeletedRecordsComponent </title>
<polygon fill="#80b1d3" stroke="black" points="667.24,-328 492.76,-328 492.76,-292 667.24,-292 667.24,-328"/>
<text text-anchor="middle" x="580" y="-305.8" font-family="Times,serif" font-size="14.00">DeletedRecordsComponent </text>
</g>
<!-- DeletedRecordsModule&#45;&gt;DeletedRecordsComponent  -->
<g id="edge13" class="edge">
<title>DeletedRecordsModule&#45;&gt;DeletedRecordsComponent </title>
<path fill="none" stroke="black" stroke-dasharray="1,5" d="M581,-263.11C581,-263.11 581,-281.99 581,-281.99"/>
<polygon fill="black" stroke="black" points="577.5,-281.99 581,-291.99 584.5,-281.99 577.5,-281.99"/>
</g>
<!-- ExportComponent -->
<g id="node15" class="node">
<title>ExportComponent</title>
<polygon fill="#ffffb3" stroke="black" points="1677.94,-198 1558.06,-198 1558.06,-162 1677.94,-162 1677.94,-198"/>
<text text-anchor="middle" x="1618" y="-175.8" font-family="Times,serif" font-size="14.00">ExportComponent</text>
</g>
<!-- ExportComponent&#45;&gt;ExportModule -->
<g id="edge14" class="edge">
<title>ExportComponent&#45;&gt;ExportModule</title>
<path fill="none" stroke="black" d="M1618,-198.11C1618,-198.11 1618,-216.99 1618,-216.99"/>
<polygon fill="black" stroke="black" points="1614.5,-216.99 1618,-226.99 1621.5,-216.99 1614.5,-216.99"/>
</g>
<!-- ExportComponent  -->
<g id="node17" class="node">
<title>ExportComponent </title>
<polygon fill="#80b1d3" stroke="black" points="1680.44,-328 1557.56,-328 1557.56,-292 1680.44,-292 1680.44,-328"/>
<text text-anchor="middle" x="1619" y="-305.8" font-family="Times,serif" font-size="14.00">ExportComponent </text>
</g>
<!-- ExportModule&#45;&gt;ExportComponent  -->
<g id="edge16" class="edge">
<title>ExportModule&#45;&gt;ExportComponent </title>
<path fill="none" stroke="black" stroke-dasharray="1,5" d="M1618,-263.11C1618,-263.11 1618,-281.99 1618,-281.99"/>
<polygon fill="black" stroke="black" points="1614.5,-281.99 1618,-291.99 1621.5,-281.99 1614.5,-281.99"/>
</g>
<!-- FormComponent -->
<g id="node18" class="node">
<title>FormComponent</title>
<polygon fill="#ffffb3" stroke="black" points="2969.67,-198 2858.33,-198 2858.33,-162 2969.67,-162 2969.67,-198"/>
<text text-anchor="middle" x="2914" y="-175.8" font-family="Times,serif" font-size="14.00">FormComponent</text>
</g>
<!-- FormComponent&#45;&gt;FormModule -->
<g id="edge17" class="edge">
<title>FormComponent&#45;&gt;FormModule</title>
<path fill="none" stroke="black" d="M2914,-198.28C2914,-219.32 2914,-251 2914,-251 2914,-251 2512.07,-251 2512.07,-251"/>
<polygon fill="black" stroke="black" points="2512.07,-247.5 2502.07,-251 2512.07,-254.5 2512.07,-247.5"/>
</g>
<!-- FormFieldWrapperComponent -->
<g id="node19" class="node">
<title>FormFieldWrapperComponent</title>
<polygon fill="#ffffb3" stroke="black" points="2839.91,-198 2650.09,-198 2650.09,-162 2839.91,-162 2839.91,-198"/>
<text text-anchor="middle" x="2745" y="-175.8" font-family="Times,serif" font-size="14.00">FormFieldWrapperComponent</text>
</g>
<!-- FormFieldWrapperComponent&#45;&gt;FormModule -->
<g id="edge20" class="edge">
<title>FormFieldWrapperComponent&#45;&gt;FormModule</title>
<path fill="none" stroke="black" d="M2745,-198.02C2745,-215.37 2745,-239 2745,-239 2745,-239 2512,-239 2512,-239"/>
<polygon fill="black" stroke="black" points="2512,-235.5 2502,-239 2512,-242.5 2512,-235.5"/>
</g>
<!-- FormFieldWrapperDirective -->
<g id="node20" class="node">
<title>FormFieldWrapperDirective</title>
<polygon fill="#ffffb3" stroke="black" points="2632.16,-198 2455.84,-198 2455.84,-162 2632.16,-162 2632.16,-198"/>
<text text-anchor="middle" x="2544" y="-175.8" font-family="Times,serif" font-size="14.00">FormFieldWrapperDirective</text>
</g>
<!-- FormFieldWrapperDirective&#45;&gt;FormModule -->
<g id="edge21" class="edge">
<title>FormFieldWrapperDirective&#45;&gt;FormModule</title>
<path fill="none" stroke="black" d="M2478.93,-198.11C2478.93,-198.11 2478.93,-216.99 2478.93,-216.99"/>
<polygon fill="black" stroke="black" points="2475.43,-216.99 2478.93,-226.99 2482.43,-216.99 2475.43,-216.99"/>
</g>
<!-- TextFieldComponent -->
<g id="node21" class="node">
<title>TextFieldComponent</title>
<polygon fill="#ffffb3" stroke="black" points="2437.77,-198 2302.23,-198 2302.23,-162 2437.77,-162 2437.77,-198"/>
<text text-anchor="middle" x="2370" y="-175.8" font-family="Times,serif" font-size="14.00">TextFieldComponent</text>
</g>
<!-- TextFieldComponent&#45;&gt;FormModule -->
<g id="edge22" class="edge">
<title>TextFieldComponent&#45;&gt;FormModule</title>
<path fill="none" stroke="black" d="M2429.28,-198.11C2429.28,-198.11 2429.28,-216.99 2429.28,-216.99"/>
<polygon fill="black" stroke="black" points="2425.78,-216.99 2429.28,-226.99 2432.78,-216.99 2425.78,-216.99"/>
</g>
<!-- FormComponent  -->
<g id="node25" class="node">
<title>FormComponent </title>
<polygon fill="#80b1d3" stroke="black" points="2514.67,-328 2399.33,-328 2399.33,-292 2514.67,-292 2514.67,-328"/>
<text text-anchor="middle" x="2457" y="-305.8" font-family="Times,serif" font-size="14.00">FormComponent </text>
</g>
<!-- FormModule&#45;&gt;FormComponent  -->
<g id="edge24" class="edge">
<title>FormModule&#45;&gt;FormComponent </title>
<path fill="none" stroke="black" stroke-dasharray="1,5" d="M2457,-263.11C2457,-263.11 2457,-281.99 2457,-281.99"/>
<polygon fill="black" stroke="black" points="2453.5,-281.99 2457,-291.99 2460.5,-281.99 2453.5,-281.99"/>
</g>
<!-- Location -->
<g id="node23" class="node">
<title>Location</title>
<ellipse fill="#fdb462" stroke="black" cx="2919" cy="-104" rx="45.22" ry="18"/>
<text text-anchor="middle" x="2919" y="-99.8" font-family="Times,serif" font-size="14.00">Location</text>
</g>
<!-- Location&#45;&gt;FormComponent -->
<g id="edge18" class="edge">
<title>Location&#45;&gt;FormComponent</title>
<path fill="none" stroke="black" d="M2919,-122.01C2919,-122.01 2919,-151.85 2919,-151.85"/>
<polygon fill="black" stroke="black" points="2915.5,-151.85 2919,-161.85 2922.5,-151.85 2915.5,-151.85"/>
</g>
<!-- { provide: LocationStrategy, useClass: PathLocationStrategy } -->
<g id="node24" class="node">
<title>{ provide: LocationStrategy, useClass: PathLocationStrategy }</title>
<ellipse fill="#fdb462" stroke="black" cx="2602" cy="-104" rx="253.76" ry="18"/>
<text text-anchor="middle" x="2602" y="-99.8" font-family="Times,serif" font-size="14.00">{ provide: LocationStrategy, useClass: PathLocationStrategy }</text>
</g>
<!-- { provide: LocationStrategy, useClass: PathLocationStrategy }&#45;&gt;FormComponent -->
<g id="edge19" class="edge">
<title>{ provide: LocationStrategy, useClass: PathLocationStrategy }&#45;&gt;FormComponent</title>
<path fill="none" stroke="black" d="M2855.88,-104C2862.28,-104 2865.9,-104 2865.9,-104 2865.9,-104 2865.9,-151.99 2865.9,-151.99"/>
<polygon fill="black" stroke="black" points="2862.4,-151.99 2865.9,-161.99 2869.4,-151.99 2862.4,-151.99"/>
</g>
<!-- FormService -->
<g id="node26" class="node">
<title>FormService</title>
<ellipse fill="#fdb462" stroke="black" cx="2217" cy="-180" rx="60.83" ry="18"/>
<text text-anchor="middle" x="2217" y="-175.8" font-family="Times,serif" font-size="14.00">FormService</text>
</g>
<!-- FormService&#45;&gt;FormModule -->
<g id="edge25" class="edge">
<title>FormService&#45;&gt;FormModule</title>
<path fill="none" stroke="black" d="M2217,-198.11C2217,-217.34 2217,-245 2217,-245 2217,-245 2401.86,-245 2401.86,-245"/>
<polygon fill="black" stroke="black" points="2401.86,-248.5 2411.86,-245 2401.86,-241.5 2401.86,-248.5"/>
</g>
<!-- LocalAuthComponent -->
<g id="node27" class="node">
<title>LocalAuthComponent</title>
<polygon fill="#ffffb3" stroke="black" points="3151.7,-198 3010.3,-198 3010.3,-162 3151.7,-162 3151.7,-198"/>
<text text-anchor="middle" x="3081" y="-175.8" font-family="Times,serif" font-size="14.00">LocalAuthComponent</text>
</g>
<!-- LocalAuthComponent&#45;&gt;LocalAuthModule -->
<g id="edge26" class="edge">
<title>LocalAuthComponent&#45;&gt;LocalAuthModule</title>
<path fill="none" stroke="black" d="M3100.9,-198.11C3100.9,-198.11 3100.9,-216.99 3100.9,-216.99"/>
<polygon fill="black" stroke="black" points="3097.4,-216.99 3100.9,-226.99 3104.4,-216.99 3097.4,-216.99"/>
</g>
<!-- LocalAuthComponent  -->
<g id="node29" class="node">
<title>LocalAuthComponent </title>
<polygon fill="#80b1d3" stroke="black" points="3154.2,-328 3009.8,-328 3009.8,-292 3154.2,-292 3154.2,-328"/>
<text text-anchor="middle" x="3082" y="-305.8" font-family="Times,serif" font-size="14.00">LocalAuthComponent </text>
</g>
<!-- LocalAuthModule&#45;&gt;LocalAuthComponent  -->
<g id="edge28" class="edge">
<title>LocalAuthModule&#45;&gt;LocalAuthComponent </title>
<path fill="none" stroke="black" stroke-dasharray="1,5" d="M3081,-263.11C3081,-263.11 3081,-281.99 3081,-281.99"/>
<polygon fill="black" stroke="black" points="3077.5,-281.99 3081,-291.99 3084.5,-281.99 3077.5,-281.99"/>
</g>
<!-- ManageRolesComponent -->
<g id="node30" class="node">
<title>ManageRolesComponent</title>
<polygon fill="#ffffb3" stroke="black" points="3353.31,-198 3194.69,-198 3194.69,-162 3353.31,-162 3353.31,-198"/>
<text text-anchor="middle" x="3274" y="-175.8" font-family="Times,serif" font-size="14.00">ManageRolesComponent</text>
</g>
<!-- ManageRolesComponent&#45;&gt;ManageRolesModule -->
<g id="edge29" class="edge">
<title>ManageRolesComponent&#45;&gt;ManageRolesModule</title>
<path fill="none" stroke="black" d="M3296.75,-198.11C3296.75,-198.11 3296.75,-216.99 3296.75,-216.99"/>
<polygon fill="black" stroke="black" points="3293.25,-216.99 3296.75,-226.99 3300.25,-216.99 3293.25,-216.99"/>
</g>
<!-- ManageRolesComponent  -->
<g id="node32" class="node">
<title>ManageRolesComponent </title>
<polygon fill="#80b1d3" stroke="black" points="3355.81,-328 3194.19,-328 3194.19,-292 3355.81,-292 3355.81,-328"/>
<text text-anchor="middle" x="3275" y="-305.8" font-family="Times,serif" font-size="14.00">ManageRolesComponent </text>
</g>
<!-- ManageRolesModule&#45;&gt;ManageRolesComponent  -->
<g id="edge31" class="edge">
<title>ManageRolesModule&#45;&gt;ManageRolesComponent </title>
<path fill="none" stroke="black" stroke-dasharray="1,5" d="M3274,-263.11C3274,-263.11 3274,-281.99 3274,-281.99"/>
<polygon fill="black" stroke="black" points="3270.5,-281.99 3274,-291.99 3277.5,-281.99 3270.5,-281.99"/>
</g>
<!-- ManageUsersComponent -->
<g id="node33" class="node">
<title>ManageUsersComponent</title>
<polygon fill="#ffffb3" stroke="black" points="3555.29,-198 3396.71,-198 3396.71,-162 3555.29,-162 3555.29,-198"/>
<text text-anchor="middle" x="3476" y="-175.8" font-family="Times,serif" font-size="14.00">ManageUsersComponent</text>
</g>
<!-- ManageUsersComponent&#45;&gt;ManageUsersModule -->
<g id="edge32" class="edge">
<title>ManageUsersComponent&#45;&gt;ManageUsersModule</title>
<path fill="none" stroke="black" d="M3498.75,-198.11C3498.75,-198.11 3498.75,-216.99 3498.75,-216.99"/>
<polygon fill="black" stroke="black" points="3495.25,-216.99 3498.75,-226.99 3502.25,-216.99 3495.25,-216.99"/>
</g>
<!-- ManageUsersComponent  -->
<g id="node35" class="node">
<title>ManageUsersComponent </title>
<polygon fill="#80b1d3" stroke="black" points="3557.79,-328 3396.21,-328 3396.21,-292 3557.79,-292 3557.79,-328"/>
<text text-anchor="middle" x="3477" y="-305.8" font-family="Times,serif" font-size="14.00">ManageUsersComponent </text>
</g>
<!-- ManageUsersModule&#45;&gt;ManageUsersComponent  -->
<g id="edge34" class="edge">
<title>ManageUsersModule&#45;&gt;ManageUsersComponent </title>
<path fill="none" stroke="black" stroke-dasharray="1,5" d="M3476,-263.11C3476,-263.11 3476,-281.99 3476,-281.99"/>
<polygon fill="black" stroke="black" points="3472.5,-281.99 3476,-291.99 3479.5,-281.99 3472.5,-281.99"/>
</g>
<!-- HeaderSortComponent -->
<g id="node36" class="node">
<title>HeaderSortComponent</title>
<polygon fill="#ffffb3" stroke="black" points="2115.58,-122 1970.42,-122 1970.42,-86 2115.58,-86 2115.58,-122"/>
<text text-anchor="middle" x="2043" y="-99.8" font-family="Times,serif" font-size="14.00">HeaderSortComponent</text>
</g>
<!-- HeaderSortComponent&#45;&gt;RedboxPortalCoreModule -->
<g id="edge35" class="edge">
<title>HeaderSortComponent&#45;&gt;RedboxPortalCoreModule</title>
<path fill="none" stroke="black" d="M2043,-122.21C2043,-127.55 2043,-132 2043,-132 2043,-132 1491.3,-132 1491.3,-132 1491.3,-132 1491.3,-151.85 1491.3,-151.85"/>
<polygon fill="black" stroke="black" points="1487.8,-151.85 1491.3,-161.85 1494.8,-151.85 1487.8,-151.85"/>
</g>
<!-- RecordTableComponent -->
<g id="node37" class="node">
<title>RecordTableComponent</title>
<polygon fill="#ffffb3" stroke="black" points="1952.63,-122 1799.37,-122 1799.37,-86 1952.63,-86 1952.63,-122"/>
<text text-anchor="middle" x="1876" y="-99.8" font-family="Times,serif" font-size="14.00">RecordTableComponent</text>
</g>
<!-- RecordTableComponent&#45;&gt;RedboxPortalCoreModule -->
<g id="edge36" class="edge">
<title>RecordTableComponent&#45;&gt;RedboxPortalCoreModule</title>
<path fill="none" stroke="black" d="M1876,-122.17C1876,-126.05 1876,-129 1876,-129 1876,-129 1478.01,-129 1478.01,-129 1478.01,-129 1478.01,-151.88 1478.01,-151.88"/>
<polygon fill="black" stroke="black" points="1474.51,-151.88 1478.01,-161.88 1481.51,-151.88 1474.51,-151.88"/>
</g>
<!-- AppConfigService -->
<g id="node40" class="node">
<title>AppConfigService</title>
<ellipse fill="#fdb462" stroke="black" cx="875" cy="-104" rx="83.39" ry="18"/>
<text text-anchor="middle" x="875" y="-99.8" font-family="Times,serif" font-size="14.00">AppConfigService</text>
</g>
<!-- AppConfigService&#45;&gt;RedboxPortalCoreModule -->
<g id="edge39" class="edge">
<title>AppConfigService&#45;&gt;RedboxPortalCoreModule</title>
<path fill="none" stroke="black" d="M908.87,-120.78C908.87,-130.96 908.87,-142 908.87,-142 908.87,-142 1397.83,-142 1397.83,-142 1397.83,-142 1397.83,-151.89 1397.83,-151.89"/>
<polygon fill="black" stroke="black" points="1394.33,-151.89 1397.83,-161.89 1401.33,-151.89 1394.33,-151.89"/>
</g>
<!-- ConfigService -->
<g id="node41" class="node">
<title>ConfigService</title>
<ellipse fill="#fdb462" stroke="black" cx="707" cy="-104" rx="66.63" ry="18"/>
<text text-anchor="middle" x="707" y="-99.8" font-family="Times,serif" font-size="14.00">ConfigService</text>
</g>
<!-- ConfigService&#45;&gt;RedboxPortalCoreModule -->
<g id="edge40" class="edge">
<title>ConfigService&#45;&gt;RedboxPortalCoreModule</title>
<path fill="none" stroke="black" d="M740.36,-119.64C740.36,-131.58 740.36,-146 740.36,-146 740.36,-146 1390.55,-146 1390.55,-146 1390.55,-146 1390.55,-151.81 1390.55,-151.81"/>
<polygon fill="black" stroke="black" points="1387.05,-151.81 1390.55,-161.81 1394.05,-151.81 1387.05,-151.81"/>
</g>
<!-- CsrfInterceptor -->
<g id="node42" class="node">
<title>CsrfInterceptor</title>
<ellipse fill="#fdb462" stroke="black" cx="552" cy="-104" rx="70.04" ry="18"/>
<text text-anchor="middle" x="552" y="-99.8" font-family="Times,serif" font-size="14.00">CsrfInterceptor</text>
</g>
<!-- CsrfInterceptor&#45;&gt;RedboxPortalCoreModule -->
<g id="edge41" class="edge">
<title>CsrfInterceptor&#45;&gt;RedboxPortalCoreModule</title>
<path fill="none" stroke="black" d="M558.83,-122.04C558.83,-134.56 558.83,-149 558.83,-149 558.83,-149 1383.26,-149 1383.26,-149 1383.26,-149 1383.26,-151.97 1383.26,-151.97"/>
<polygon fill="black" stroke="black" points="1379.76,-151.97 1383.26,-161.97 1386.76,-151.97 1379.76,-151.97"/>
</g>
<!-- LoggerService -->
<g id="node43" class="node">
<title>LoggerService</title>
<ellipse fill="#fdb462" stroke="black" cx="396" cy="-104" rx="67.76" ry="18"/>
<text text-anchor="middle" x="396" y="-99.8" font-family="Times,serif" font-size="14.00">LoggerService</text>
</g>
<!-- LoggerService&#45;&gt;RedboxPortalCoreModule -->
<g id="edge42" class="edge">
<title>LoggerService&#45;&gt;RedboxPortalCoreModule</title>
<path fill="none" stroke="black" d="M458.43,-111.08C458.43,-124.43 458.43,-152 458.43,-152 458.43,-152 1375.98,-152 1375.98,-152 1375.98,-152 1375.98,-152.98 1375.98,-152.98"/>
<polygon fill="black" stroke="black" points="1372.48,-151.79 1375.98,-161.79 1379.48,-151.79 1372.48,-151.79"/>
</g>
<!-- RecordService -->
<g id="node44" class="node">
<title>RecordService</title>
<ellipse fill="#fdb462" stroke="black" cx="242" cy="-104" rx="67.75" ry="18"/>
<text text-anchor="middle" x="242" y="-99.8" font-family="Times,serif" font-size="14.00">RecordService</text>
</g>
<!-- RecordService&#45;&gt;RedboxPortalCoreModule -->
<g id="edge43" class="edge">
<title>RecordService&#45;&gt;RedboxPortalCoreModule</title>
<path fill="none" stroke="black" d="M300.3,-113.54C300.3,-128.55 300.3,-156 300.3,-156 300.3,-156 1368.69,-156 1368.69,-156 1368.69,-156 1368.69,-156.58 1368.69,-156.58"/>
<polygon fill="black" stroke="black" points="1365.19,-151.81 1368.69,-161.81 1372.19,-151.81 1365.19,-151.81"/>
</g>
<!-- ReportService -->
<g id="node45" class="node">
<title>ReportService</title>
<ellipse fill="#fdb462" stroke="black" cx="90" cy="-104" rx="66.05" ry="18"/>
<text text-anchor="middle" x="90" y="-99.8" font-family="Times,serif" font-size="14.00">ReportService</text>
</g>
<!-- ReportService&#45;&gt;RedboxPortalCoreModule -->
<g id="edge44" class="edge">
<title>ReportService&#45;&gt;RedboxPortalCoreModule</title>
<path fill="none" stroke="black" d="M90,-122.01C90,-138.05 90,-159 90,-159 90,-159 1361.41,-159 1361.41,-159 1361.41,-159 1361.41,-159.29 1361.41,-159.29"/>
<polygon fill="black" stroke="black" points="1357.91,-151.92 1361.41,-161.92 1364.91,-151.92 1357.91,-151.92"/>
</g>
<!-- TranslationService -->
<g id="node46" class="node">
<title>TranslationService</title>
<ellipse fill="#fdb462" stroke="black" cx="1343" cy="-104" rx="83.94" ry="18"/>
<text text-anchor="middle" x="1343" y="-99.8" font-family="Times,serif" font-size="14.00">TranslationService</text>
</g>
<!-- TranslationService&#45;&gt;RedboxPortalCoreModule -->
<g id="edge45" class="edge">
<title>TranslationService&#45;&gt;RedboxPortalCoreModule</title>
<path fill="none" stroke="black" d="M1419.69,-111.57C1419.69,-111.57 1419.69,-151.88 1419.69,-151.88"/>
<polygon fill="black" stroke="black" points="1416.19,-151.88 1419.69,-161.88 1423.19,-151.88 1416.19,-151.88"/>
</g>
<!-- UserService -->
<g id="node47" class="node">
<title>UserService</title>
<ellipse fill="#fdb462" stroke="black" cx="1183" cy="-104" rx="58.44" ry="18"/>
<text text-anchor="middle" x="1183" y="-99.8" font-family="Times,serif" font-size="14.00">UserService</text>
</g>
<!-- UserService&#45;&gt;RedboxPortalCoreModule -->
<g id="edge46" class="edge">
<title>UserService&#45;&gt;RedboxPortalCoreModule</title>
<path fill="none" stroke="black" d="M1213.53,-119.63C1213.53,-127.75 1213.53,-136 1213.53,-136 1213.53,-136 1412.4,-136 1412.4,-136 1412.4,-136 1412.4,-151.85 1412.4,-151.85"/>
<polygon fill="black" stroke="black" points="1408.9,-151.85 1412.4,-161.85 1415.9,-151.85 1408.9,-151.85"/>
</g>
<!-- UtilityService -->
<g id="node48" class="node">
<title>UtilityService</title>
<ellipse fill="#fdb462" stroke="black" cx="1042" cy="-104" rx="65.42" ry="18"/>
<text text-anchor="middle" x="1042" y="-99.8" font-family="Times,serif" font-size="14.00">UtilityService</text>
</g>
<!-- UtilityService&#45;&gt;RedboxPortalCoreModule -->
<g id="edge47" class="edge">
<title>UtilityService&#45;&gt;RedboxPortalCoreModule</title>
<path fill="none" stroke="black" d="M1065.92,-121.09C1065.92,-129.97 1065.92,-139 1065.92,-139 1065.92,-139 1405.12,-139 1405.12,-139 1405.12,-139 1405.12,-151.9 1405.12,-151.9"/>
<polygon fill="black" stroke="black" points="1401.62,-151.9 1405.12,-161.9 1408.62,-151.9 1401.62,-151.9"/>
</g>
<!-- ReportComponent -->
<g id="node49" class="node">
<title>ReportComponent</title>
<polygon fill="#ffffb3" stroke="black" points="3717.94,-198 3598.06,-198 3598.06,-162 3717.94,-162 3717.94,-198"/>
<text text-anchor="middle" x="3658" y="-175.8" font-family="Times,serif" font-size="14.00">ReportComponent</text>
</g>
<!-- ReportComponent&#45;&gt;ReportModule -->
<g id="edge48" class="edge">
<title>ReportComponent&#45;&gt;ReportModule</title>
<path fill="none" stroke="black" d="M3674.28,-198.11C3674.28,-198.11 3674.28,-216.99 3674.28,-216.99"/>
<polygon fill="black" stroke="black" points="3670.78,-216.99 3674.28,-226.99 3677.78,-216.99 3670.78,-216.99"/>
</g>
<!-- ReportComponent  -->
<g id="node51" class="node">
<title>ReportComponent </title>
<polygon fill="#80b1d3" stroke="black" points="3720.43,-328 3597.57,-328 3597.57,-292 3720.43,-292 3720.43,-328"/>
<text text-anchor="middle" x="3659" y="-305.8" font-family="Times,serif" font-size="14.00">ReportComponent </text>
</g>
<!-- ReportModule&#45;&gt;ReportComponent  -->
<g id="edge50" class="edge">
<title>ReportModule&#45;&gt;ReportComponent </title>
<path fill="none" stroke="black" stroke-dasharray="1,5" d="M3658,-263.11C3658,-263.11 3658,-281.99 3658,-281.99"/>
<polygon fill="black" stroke="black" points="3654.5,-281.99 3658,-291.99 3661.5,-281.99 3654.5,-281.99"/>
</g>
</g>
</svg>
