<?xml version="1.0" encoding="UTF-8" standalone="no"?>
<!DOCTYPE svg PUBLIC "-//W3C//DTD SVG 1.1//EN"
 "http://www.w3.org/Graphics/SVG/1.1/DTD/svg11.dtd">
<!-- Generated by graphviz version 2.40.1 (20161225.0304)
 -->
<!-- Title: dependencies Pages: 1 -->
<svg width="5149pt" height="284pt"
 viewBox="0.00 0.00 5149.00 284.00" xmlns="http://www.w3.org/2000/svg" xmlns:xlink="http://www.w3.org/1999/xlink">
<g id="graph0" class="graph" transform="scale(1 1) rotate(0) translate(4 280)">
<title>dependencies</title>
<polygon fill="#ffffff" stroke="transparent" points="-4,4 -4,-280 5145,-280 5145,4 -4,4"/>
<text text-anchor="start" x="2549.5091" y="-42.4" font-family="sans-serif" font-weight="bold" font-size="14.00" fill="#000000">Legend</text>
<polygon fill="#ffffb3" stroke="transparent" points="2336.5,-10 2336.5,-30 2356.5,-30 2356.5,-10 2336.5,-10"/>
<text text-anchor="start" x="2360.129" y="-15.4" font-family="sans-serif" font-size="14.00" fill="#000000"> &#160;Declarations</text>
<polygon fill="#8dd3c7" stroke="transparent" points="2449.5,-10 2449.5,-30 2469.5,-30 2469.5,-10 2449.5,-10"/>
<text text-anchor="start" x="2473.2251" y="-15.4" font-family="sans-serif" font-size="14.00" fill="#000000"> &#160;Module</text>
<polygon fill="#80b1d3" stroke="transparent" points="2535.5,-10 2535.5,-30 2555.5,-30 2555.5,-10 2535.5,-10"/>
<text text-anchor="start" x="2559.2812" y="-15.4" font-family="sans-serif" font-size="14.00" fill="#000000"> &#160;Bootstrap</text>
<polygon fill="#fdb462" stroke="transparent" points="2632.5,-10 2632.5,-30 2652.5,-30 2652.5,-10 2632.5,-10"/>
<text text-anchor="start" x="2656.1732" y="-15.4" font-family="sans-serif" font-size="14.00" fill="#000000"> &#160;Providers</text>
<polygon fill="#fb8072" stroke="transparent" points="2728.5,-10 2728.5,-30 2748.5,-30 2748.5,-10 2728.5,-10"/>
<text text-anchor="start" x="2752.2258" y="-15.4" font-family="sans-serif" font-size="14.00" fill="#000000"> &#160;Exports</text>
<g id="clust1" class="cluster">
<title>cluster_SharedModule</title>
<polygon fill="none" stroke="#000000" stroke-dasharray="1,5" points="8,-70 8,-268 5133,-268 5133,-70 8,-70"/>
</g>
<g id="clust2" class="cluster">
<title>cluster_SharedModule_declarations</title>
<polygon fill="none" stroke="#000000" points="1865,-78 1865,-130 5125,-130 5125,-78 1865,-78"/>
</g>
<g id="clust22" class="cluster">
<title>cluster_SharedModule_exports</title>
<polygon fill="none" stroke="#000000" points="915,-208 915,-260 4237,-260 4237,-208 915,-208"/>
</g>
<g id="clust24" class="cluster">
<title>cluster_SharedModule_providers</title>
<polygon fill="none" stroke="#000000" points="16,-78 16,-130 1857,-130 1857,-78 16,-78"/>
</g>
<!-- DmpFieldComponent -->
<g id="node1" class="node">
<title>DmpFieldComponent</title>
<polygon fill="#ffffb3" stroke="#000000" points="5117.108,-122 4978.892,-122 4978.892,-86 5117.108,-86 5117.108,-122"/>
<text text-anchor="middle" x="5048" y="-99.8" font-family="Times,serif" font-size="14.00" fill="#000000">DmpFieldComponent</text>
</g>
<!-- SharedModule -->
<g id="node19" class="node">
<title>SharedModule</title>
<polygon fill="#8dd3c7" stroke="#000000" points="2674.4231,-187 2671.4231,-191 2650.4231,-191 2647.4231,-187 2575.5769,-187 2575.5769,-151 2674.4231,-151 2674.4231,-187"/>
<text text-anchor="middle" x="2625" y="-164.8" font-family="Times,serif" font-size="14.00" fill="#000000">SharedModule</text>
</g>
<!-- DmpFieldComponent&#45;&gt;SharedModule -->
<g id="edge1" class="edge">
<title>DmpFieldComponent&#45;&gt;SharedModule</title>
<path fill="none" stroke="#000000" d="M5048,-122.1289C5048,-142.5724 5048,-173 5048,-173 5048,-173 2684.2227,-173 2684.2227,-173"/>
<polygon fill="#000000" stroke="#000000" points="2684.2228,-169.5001 2674.2227,-173 2684.2227,-176.5001 2684.2228,-169.5001"/>
</g>
<!-- TextFieldComponent -->
<g id="node2" class="node">
<title>TextFieldComponent</title>
<polygon fill="#ffffb3" stroke="#000000" points="4960.7688,-122 4825.2312,-122 4825.2312,-86 4960.7688,-86 4960.7688,-122"/>
<text text-anchor="middle" x="4893" y="-99.8" font-family="Times,serif" font-size="14.00" fill="#000000">TextFieldComponent</text>
</g>
<!-- TextFieldComponent&#45;&gt;SharedModule -->
<g id="edge2" class="edge">
<title>TextFieldComponent&#45;&gt;SharedModule</title>
<path fill="none" stroke="#000000" d="M4893,-122.308C4893,-142.1455 4893,-171 4893,-171 4893,-171 2684.2136,-171 2684.2136,-171"/>
<polygon fill="#000000" stroke="#000000" points="2684.2137,-167.5001 2674.2136,-171 2684.2136,-174.5001 2684.2137,-167.5001"/>
</g>
<!-- DropdownFieldComponent -->
<g id="node3" class="node">
<title>DropdownFieldComponent</title>
<polygon fill="#ffffb3" stroke="#000000" points="4806.9846,-122 4637.0154,-122 4637.0154,-86 4806.9846,-86 4806.9846,-122"/>
<text text-anchor="middle" x="4722" y="-99.8" font-family="Times,serif" font-size="14.00" fill="#000000">DropdownFieldComponent</text>
</g>
<!-- DropdownFieldComponent&#45;&gt;SharedModule -->
<g id="edge3" class="edge">
<title>DropdownFieldComponent&#45;&gt;SharedModule</title>
<path fill="none" stroke="#000000" d="M4722,-122.1061C4722,-141.3391 4722,-169 4722,-169 4722,-169 2684.257,-169 2684.257,-169"/>
<polygon fill="#000000" stroke="#000000" points="2684.257,-165.5001 2674.257,-169 2684.2569,-172.5001 2684.257,-165.5001"/>
</g>
<!-- TabOrAccordionContainerComponent -->
<g id="node4" class="node">
<title>TabOrAccordionContainerComponent</title>
<polygon fill="#ffffb3" stroke="#000000" points="4619.1615,-122 4386.8385,-122 4386.8385,-86 4619.1615,-86 4619.1615,-122"/>
<text text-anchor="middle" x="4503" y="-99.8" font-family="Times,serif" font-size="14.00" fill="#000000">TabOrAccordionContainerComponent</text>
</g>
<!-- TabOrAccordionContainerComponent&#45;&gt;SharedModule -->
<g id="edge4" class="edge">
<title>TabOrAccordionContainerComponent&#45;&gt;SharedModule</title>
<path fill="none" stroke="#000000" d="M4503,-122.1686C4503,-141.0898 4503,-168 4503,-168 4503,-168 2684.2666,-168 2684.2666,-168"/>
<polygon fill="#000000" stroke="#000000" points="2684.2667,-164.5001 2674.2666,-168 2684.2666,-171.5001 2684.2667,-164.5001"/>
</g>
<!-- TextBlockComponent -->
<g id="node5" class="node">
<title>TextBlockComponent</title>
<polygon fill="#ffffb3" stroke="#000000" points="4369.4327,-122 4228.5673,-122 4228.5673,-86 4369.4327,-86 4369.4327,-122"/>
<text text-anchor="middle" x="4299" y="-99.8" font-family="Times,serif" font-size="14.00" fill="#000000">TextBlockComponent</text>
</g>
<!-- TextBlockComponent&#45;&gt;SharedModule -->
<g id="edge5" class="edge">
<title>TextBlockComponent&#45;&gt;SharedModule</title>
<path fill="none" stroke="#000000" d="M4299.01,-122.2667C4299.01,-140.5552 4299.01,-166 4299.01,-166 4299.01,-166 2684.6456,-166 2684.6456,-166"/>
<polygon fill="#000000" stroke="#000000" points="2684.6457,-162.5001 2674.6456,-166 2684.6456,-169.5001 2684.6457,-162.5001"/>
</g>
<!-- TextAreaComponent -->
<g id="node6" class="node">
<title>TextAreaComponent</title>
<polygon fill="#ffffb3" stroke="#000000" points="4211.1867,-122 4076.8133,-122 4076.8133,-86 4211.1867,-86 4211.1867,-122"/>
<text text-anchor="middle" x="4144" y="-99.8" font-family="Times,serif" font-size="14.00" fill="#000000">TextAreaComponent</text>
</g>
<!-- TextAreaComponent&#45;&gt;SharedModule -->
<g id="edge6" class="edge">
<title>TextAreaComponent&#45;&gt;SharedModule</title>
<path fill="none" stroke="#000000" d="M4082.0514,-122.302C4082.0514,-140.2699 4082.0514,-165 4082.0514,-165 4082.0514,-165 2684.3136,-165 2684.3136,-165"/>
<polygon fill="#000000" stroke="#000000" points="2684.3136,-161.5001 2674.3136,-165 2684.3136,-168.5001 2684.3136,-161.5001"/>
</g>
<!-- DateTimeComponent -->
<g id="node7" class="node">
<title>DateTimeComponent</title>
<polygon fill="#ffffb3" stroke="#000000" points="4058.8075,-122 3921.1925,-122 3921.1925,-86 4058.8075,-86 4058.8075,-122"/>
<text text-anchor="middle" x="3990" y="-99.8" font-family="Times,serif" font-size="14.00" fill="#000000">DateTimeComponent</text>
</g>
<!-- DateTimeComponent&#45;&gt;SharedModule -->
<g id="edge7" class="edge">
<title>DateTimeComponent&#45;&gt;SharedModule</title>
<path fill="none" stroke="#000000" d="M3925.8561,-122.0225C3925.8561,-139.3734 3925.8561,-163 3925.8561,-163 3925.8561,-163 2684.4066,-163 2684.4066,-163"/>
<polygon fill="#000000" stroke="#000000" points="2684.4067,-159.5001 2674.4066,-163 2684.4066,-166.5001 2684.4067,-159.5001"/>
</g>
<!-- AnchorOrButtonComponent -->
<g id="node8" class="node">
<title>AnchorOrButtonComponent</title>
<polygon fill="#ffffb3" stroke="#000000" points="3903.1993,-122 3726.8007,-122 3726.8007,-86 3903.1993,-86 3903.1993,-122"/>
<text text-anchor="middle" x="3815" y="-99.8" font-family="Times,serif" font-size="14.00" fill="#000000">AnchorOrButtonComponent</text>
</g>
<!-- AnchorOrButtonComponent&#45;&gt;SharedModule -->
<g id="edge8" class="edge">
<title>AnchorOrButtonComponent&#45;&gt;SharedModule</title>
<path fill="none" stroke="#000000" d="M3733.0791,-122.0352C3733.0791,-138.7344 3733.0791,-161 3733.0791,-161 3733.0791,-161 2684.4029,-161 2684.4029,-161"/>
<polygon fill="#000000" stroke="#000000" points="2684.403,-157.5001 2674.4029,-161 2684.4029,-164.5001 2684.403,-157.5001"/>
</g>
<!-- VocabFieldComponent -->
<g id="node9" class="node">
<title>VocabFieldComponent</title>
<polygon fill="#ffffb3" stroke="#000000" points="3709.147,-122 3562.853,-122 3562.853,-86 3709.147,-86 3709.147,-122"/>
<text text-anchor="middle" x="3636" y="-99.8" font-family="Times,serif" font-size="14.00" fill="#000000">VocabFieldComponent</text>
</g>
<!-- VocabFieldComponent&#45;&gt;SharedModule -->
<g id="edge9" class="edge">
<title>VocabFieldComponent&#45;&gt;SharedModule</title>
<path fill="none" stroke="#000000" d="M3636,-122.027C3636,-138.3976 3636,-160 3636,-160 3636,-160 2684.447,-160 2684.447,-160"/>
<polygon fill="#000000" stroke="#000000" points="2684.4471,-156.5001 2674.447,-160 2684.447,-163.5001 2684.4471,-156.5001"/>
</g>
<!-- RepeatableVocabComponent -->
<g id="node10" class="node">
<title>RepeatableVocabComponent</title>
<polygon fill="#ffffb3" stroke="#000000" points="3545.059,-122 3364.941,-122 3364.941,-86 3545.059,-86 3545.059,-122"/>
<text text-anchor="middle" x="3455" y="-99.8" font-family="Times,serif" font-size="14.00" fill="#000000">RepeatableVocabComponent</text>
</g>
<!-- RepeatableVocabComponent&#45;&gt;SharedModule -->
<g id="edge10" class="edge">
<title>RepeatableVocabComponent&#45;&gt;SharedModule</title>
<path fill="none" stroke="#000000" d="M3415.9683,-122.2819C3415.9683,-137.9478 3415.9683,-158 3415.9683,-158 3415.9683,-158 2684.4786,-158 2684.4786,-158"/>
<polygon fill="#000000" stroke="#000000" points="2684.4786,-154.5001 2674.4786,-158 2684.4786,-161.5001 2684.4786,-154.5001"/>
</g>
<!-- ContributorComponent -->
<g id="node11" class="node">
<title>ContributorComponent</title>
<polygon fill="#ffffb3" stroke="#000000" points="3347.1624,-122 3200.8376,-122 3200.8376,-86 3347.1624,-86 3347.1624,-122"/>
<text text-anchor="middle" x="3274" y="-99.8" font-family="Times,serif" font-size="14.00" fill="#000000">ContributorComponent</text>
</g>
<!-- ContributorComponent&#45;&gt;SharedModule -->
<g id="edge11" class="edge">
<title>ContributorComponent&#45;&gt;SharedModule</title>
<path fill="none" stroke="#000000" d="M3252.7562,-122.1871C3252.7562,-137.1824 3252.7562,-156 3252.7562,-156 3252.7562,-156 2684.259,-156 2684.259,-156"/>
<polygon fill="#000000" stroke="#000000" points="2684.259,-152.5001 2674.259,-156 2684.2589,-159.5001 2684.259,-152.5001"/>
</g>
<!-- RepeatableContributorComponent -->
<g id="node12" class="node">
<title>RepeatableContributorComponent</title>
<polygon fill="#ffffb3" stroke="#000000" points="3182.3529,-122 2973.6471,-122 2973.6471,-86 3182.3529,-86 3182.3529,-122"/>
<text text-anchor="middle" x="3078" y="-99.8" font-family="Times,serif" font-size="14.00" fill="#000000">RepeatableContributorComponent</text>
</g>
<!-- RepeatableContributorComponent&#45;&gt;SharedModule -->
<g id="edge12" class="edge">
<title>RepeatableContributorComponent&#45;&gt;SharedModule</title>
<path fill="none" stroke="#000000" d="M2982.2116,-122.1243C2982.2116,-136.7832 2982.2116,-155 2982.2116,-155 2982.2116,-155 2684.2937,-155 2684.2937,-155"/>
<polygon fill="#000000" stroke="#000000" points="2684.2937,-151.5001 2674.2937,-155 2684.2937,-158.5001 2684.2937,-151.5001"/>
</g>
<!-- HtmlRawComponent -->
<g id="node13" class="node">
<title>HtmlRawComponent</title>
<polygon fill="#ffffb3" stroke="#000000" points="2955.7688,-122 2820.2312,-122 2820.2312,-86 2955.7688,-86 2955.7688,-122"/>
<text text-anchor="middle" x="2888" y="-99.8" font-family="Times,serif" font-size="14.00" fill="#000000">HtmlRawComponent</text>
</g>
<!-- HtmlRawComponent&#45;&gt;SharedModule -->
<g id="edge13" class="edge">
<title>HtmlRawComponent&#45;&gt;SharedModule</title>
<path fill="none" stroke="#000000" d="M2888,-122.2458C2888,-136.1772 2888,-153 2888,-153 2888,-153 2684.4683,-153 2684.4683,-153"/>
<polygon fill="#000000" stroke="#000000" points="2684.4683,-149.5001 2674.4683,-153 2684.4683,-156.5001 2684.4683,-149.5001"/>
</g>
<!-- HiddenValueComponent -->
<g id="node14" class="node">
<title>HiddenValueComponent</title>
<polygon fill="#ffffb3" stroke="#000000" points="2801.9706,-122 2646.0294,-122 2646.0294,-86 2801.9706,-86 2801.9706,-122"/>
<text text-anchor="middle" x="2724" y="-99.8" font-family="Times,serif" font-size="14.00" fill="#000000">HiddenValueComponent</text>
</g>
<!-- HiddenValueComponent&#45;&gt;SharedModule -->
<g id="edge14" class="edge">
<title>HiddenValueComponent&#45;&gt;SharedModule</title>
<path fill="none" stroke="#000000" d="M2660.1129,-122.1061C2660.1129,-122.1061 2660.1129,-140.991 2660.1129,-140.991"/>
<polygon fill="#000000" stroke="#000000" points="2656.613,-140.9909 2660.1129,-150.991 2663.613,-140.991 2656.613,-140.9909"/>
</g>
<!-- WorkflowStepButtonComponent -->
<g id="node15" class="node">
<title>WorkflowStepButtonComponent</title>
<polygon fill="#ffffb3" stroke="#000000" points="2627.871,-122 2426.129,-122 2426.129,-86 2627.871,-86 2627.871,-122"/>
<text text-anchor="middle" x="2527" y="-99.8" font-family="Times,serif" font-size="14.00" fill="#000000">WorkflowStepButtonComponent</text>
</g>
<!-- WorkflowStepButtonComponent&#45;&gt;SharedModule -->
<g id="edge15" class="edge">
<title>WorkflowStepButtonComponent&#45;&gt;SharedModule</title>
<path fill="none" stroke="#000000" d="M2601.8622,-122.1061C2601.8622,-122.1061 2601.8622,-140.991 2601.8622,-140.991"/>
<polygon fill="#000000" stroke="#000000" points="2598.3623,-140.9909 2601.8622,-150.991 2605.3623,-140.991 2598.3623,-140.9909"/>
</g>
<!-- LinkValueComponent -->
<g id="node16" class="node">
<title>LinkValueComponent</title>
<polygon fill="#ffffb3" stroke="#000000" points="2407.7021,-122 2266.2979,-122 2266.2979,-86 2407.7021,-86 2407.7021,-122"/>
<text text-anchor="middle" x="2337" y="-99.8" font-family="Times,serif" font-size="14.00" fill="#000000">LinkValueComponent</text>
</g>
<!-- LinkValueComponent&#45;&gt;SharedModule -->
<g id="edge16" class="edge">
<title>LinkValueComponent&#45;&gt;SharedModule</title>
<path fill="none" stroke="#000000" d="M2340.26,-122.2458C2340.26,-136.1772 2340.26,-153 2340.26,-153 2340.26,-153 2565.7271,-153 2565.7271,-153"/>
<polygon fill="#000000" stroke="#000000" points="2565.7272,-156.5001 2575.7271,-153 2565.7271,-149.5001 2565.7272,-156.5001"/>
</g>
<!-- SelectionFieldComponent -->
<g id="node17" class="node">
<title>SelectionFieldComponent</title>
<polygon fill="#ffffb3" stroke="#000000" points="2248.2091,-122 2085.7909,-122 2085.7909,-86 2248.2091,-86 2248.2091,-122"/>
<text text-anchor="middle" x="2167" y="-99.8" font-family="Times,serif" font-size="14.00" fill="#000000">SelectionFieldComponent</text>
</g>
<!-- SelectionFieldComponent&#45;&gt;SharedModule -->
<g id="edge17" class="edge">
<title>SelectionFieldComponent&#45;&gt;SharedModule</title>
<path fill="none" stroke="#000000" d="M2167,-122.1243C2167,-136.7832 2167,-155 2167,-155 2167,-155 2565.5508,-155 2565.5508,-155"/>
<polygon fill="#000000" stroke="#000000" points="2565.5509,-158.5001 2575.5508,-155 2565.5508,-151.5001 2565.5509,-158.5001"/>
</g>
<!-- RepeatableTextfieldComponent -->
<g id="node18" class="node">
<title>RepeatableTextfieldComponent</title>
<polygon fill="#ffffb3" stroke="#000000" points="2067.3375,-122 1872.6625,-122 1872.6625,-86 2067.3375,-86 2067.3375,-122"/>
<text text-anchor="middle" x="1970" y="-99.8" font-family="Times,serif" font-size="14.00" fill="#000000">RepeatableTextfieldComponent</text>
</g>
<!-- RepeatableTextfieldComponent&#45;&gt;SharedModule -->
<g id="edge18" class="edge">
<title>RepeatableTextfieldComponent&#45;&gt;SharedModule</title>
<path fill="none" stroke="#000000" d="M2055.1212,-122.1871C2055.1212,-137.1824 2055.1212,-156 2055.1212,-156 2055.1212,-156 2565.4239,-156 2565.4239,-156"/>
<polygon fill="#000000" stroke="#000000" points="2565.4239,-159.5001 2575.4239,-156 2565.4239,-152.5001 2565.4239,-159.5001"/>
</g>
<!-- DmpFieldComponent  -->
<g id="node20" class="node">
<title>DmpFieldComponent </title>
<polygon fill="#fb8072" stroke="#000000" points="4228.6085,-252 4087.3915,-252 4087.3915,-216 4228.6085,-216 4228.6085,-252"/>
<text text-anchor="middle" x="4158" y="-229.8" font-family="Times,serif" font-size="14.00" fill="#000000">DmpFieldComponent </text>
</g>
<!-- SharedModule&#45;&gt;DmpFieldComponent  -->
<g id="edge19" class="edge">
<title>SharedModule&#45;&gt;DmpFieldComponent </title>
<path fill="none" stroke="#000000" stroke-dasharray="5,2" d="M2674.4138,-174C2936.1933,-174 4149.1447,-174 4149.1447,-174 4149.1447,-174 4149.1447,-205.998 4149.1447,-205.998"/>
<polygon fill="#000000" stroke="#000000" points="4145.6447,-205.998 4149.1447,-215.998 4152.6447,-205.9981 4145.6447,-205.998"/>
</g>
<!-- TextFieldComponent  -->
<g id="node21" class="node">
<title>TextFieldComponent </title>
<polygon fill="#fb8072" stroke="#000000" points="4069.7689,-252 3930.2311,-252 3930.2311,-216 4069.7689,-216 4069.7689,-252"/>
<text text-anchor="middle" x="4000" y="-229.8" font-family="Times,serif" font-size="14.00" fill="#000000">TextFieldComponent </text>
</g>
<!-- SharedModule&#45;&gt;TextFieldComponent  -->
<g id="edge20" class="edge">
<title>SharedModule&#45;&gt;TextFieldComponent </title>
<path fill="none" stroke="#000000" stroke-dasharray="5,2" d="M2674.5506,-176C2920.0756,-176 3994.5097,-176 3994.5097,-176 3994.5097,-176 3994.5097,-205.9664 3994.5097,-205.9664"/>
<polygon fill="#000000" stroke="#000000" points="3991.0097,-205.9663 3994.5097,-215.9664 3998.0097,-205.9664 3991.0097,-205.9663"/>
</g>
<!-- DropdownFieldComponent  -->
<g id="node22" class="node">
<title>DropdownFieldComponent </title>
<polygon fill="#fb8072" stroke="#000000" points="3912.9853,-252 3739.0147,-252 3739.0147,-216 3912.9853,-216 3912.9853,-252"/>
<text text-anchor="middle" x="3826" y="-229.8" font-family="Times,serif" font-size="14.00" fill="#000000">DropdownFieldComponent </text>
</g>
<!-- SharedModule&#45;&gt;DropdownFieldComponent  -->
<g id="edge21" class="edge">
<title>SharedModule&#45;&gt;DropdownFieldComponent </title>
<path fill="none" stroke="#000000" stroke-dasharray="5,2" d="M2674.4979,-178C2900.2366,-178 3821.1787,-178 3821.1787,-178 3821.1787,-178 3821.1787,-205.973 3821.1787,-205.973"/>
<polygon fill="#000000" stroke="#000000" points="3817.6787,-205.973 3821.1787,-215.973 3824.6787,-205.973 3817.6787,-205.973"/>
</g>
<!-- TabOrAccordionContainerComponent  -->
<g id="node23" class="node">
<title>TabOrAccordionContainerComponent </title>
<polygon fill="#fb8072" stroke="#000000" points="3720.6616,-252 3485.3384,-252 3485.3384,-216 3720.6616,-216 3720.6616,-252"/>
<text text-anchor="middle" x="3603" y="-229.8" font-family="Times,serif" font-size="14.00" fill="#000000">TabOrAccordionContainerComponent </text>
</g>
<!-- SharedModule&#45;&gt;TabOrAccordionContainerComponent  -->
<g id="edge22" class="edge">
<title>SharedModule&#45;&gt;TabOrAccordionContainerComponent </title>
<path fill="none" stroke="#000000" stroke-dasharray="5,2" d="M2674.4427,-179C2861.4681,-179 3515.0994,-179 3515.0994,-179 3515.0994,-179 3515.0994,-205.9909 3515.0994,-205.9909"/>
<polygon fill="#000000" stroke="#000000" points="3511.5995,-205.9909 3515.0994,-215.9909 3518.5995,-205.991 3511.5995,-205.9909"/>
</g>
<!-- TextBlockComponent  -->
<g id="node24" class="node">
<title>TextBlockComponent </title>
<polygon fill="#fb8072" stroke="#000000" points="3466.932,-252 3323.068,-252 3323.068,-216 3466.932,-216 3466.932,-252"/>
<text text-anchor="middle" x="3395" y="-229.8" font-family="Times,serif" font-size="14.00" fill="#000000">TextBlockComponent </text>
</g>
<!-- SharedModule&#45;&gt;TextBlockComponent  -->
<g id="edge23" class="edge">
<title>SharedModule&#45;&gt;TextBlockComponent </title>
<path fill="none" stroke="#000000" stroke-dasharray="5,2" d="M2674.3748,-181C2835.4284,-181 3335.1825,-181 3335.1825,-181 3335.1825,-181 3335.1825,-205.7604 3335.1825,-205.7604"/>
<polygon fill="#000000" stroke="#000000" points="3331.6826,-205.7604 3335.1825,-215.7604 3338.6826,-205.7604 3331.6826,-205.7604"/>
</g>
<!-- TextAreaComponent  -->
<g id="node25" class="node">
<title>TextAreaComponent </title>
<polygon fill="#fb8072" stroke="#000000" points="3304.687,-252 3167.313,-252 3167.313,-216 3304.687,-216 3304.687,-252"/>
<text text-anchor="middle" x="3236" y="-229.8" font-family="Times,serif" font-size="14.00" fill="#000000">TextAreaComponent </text>
</g>
<!-- SharedModule&#45;&gt;TextAreaComponent  -->
<g id="edge24" class="edge">
<title>SharedModule&#45;&gt;TextAreaComponent </title>
<path fill="none" stroke="#000000" stroke-dasharray="5,2" d="M2674.2742,-183C2809.2211,-183 3174.7916,-183 3174.7916,-183 3174.7916,-183 3174.7916,-205.8757 3174.7916,-205.8757"/>
<polygon fill="#000000" stroke="#000000" points="3171.2916,-205.8757 3174.7916,-215.8757 3178.2916,-205.8757 3171.2916,-205.8757"/>
</g>
<!-- DateTimeComponent  -->
<g id="node26" class="node">
<title>DateTimeComponent </title>
<polygon fill="#fb8072" stroke="#000000" points="3149.3073,-252 3008.6927,-252 3008.6927,-216 3149.3073,-216 3149.3073,-252"/>
<text text-anchor="middle" x="3079" y="-229.8" font-family="Times,serif" font-size="14.00" fill="#000000">DateTimeComponent </text>
</g>
<!-- SharedModule&#45;&gt;DateTimeComponent  -->
<g id="edge25" class="edge">
<title>SharedModule&#45;&gt;DateTimeComponent </title>
<path fill="none" stroke="#000000" stroke-dasharray="5,2" d="M2674.4502,-184C2792.117,-184 3079,-184 3079,-184 3079,-184 3079,-205.9489 3079,-205.9489"/>
<polygon fill="#000000" stroke="#000000" points="3075.5001,-205.9488 3079,-215.9489 3082.5001,-205.9489 3075.5001,-205.9488"/>
</g>
<!-- AnchorOrButtonComponent  -->
<g id="node27" class="node">
<title>AnchorOrButtonComponent </title>
<polygon fill="#fb8072" stroke="#000000" points="2990.6995,-252 2811.3005,-252 2811.3005,-216 2990.6995,-216 2990.6995,-252"/>
<text text-anchor="middle" x="2901" y="-229.8" font-family="Times,serif" font-size="14.00" fill="#000000">AnchorOrButtonComponent </text>
</g>
<!-- SharedModule&#45;&gt;AnchorOrButtonComponent  -->
<g id="edge26" class="edge">
<title>SharedModule&#45;&gt;AnchorOrButtonComponent </title>
<path fill="none" stroke="#000000" stroke-dasharray="5,2" d="M2674.5889,-186C2731.0726,-186 2815.6331,-186 2815.6331,-186 2815.6331,-186 2815.6331,-205.8533 2815.6331,-205.8533"/>
<polygon fill="#000000" stroke="#000000" points="2812.1331,-205.8532 2815.6331,-215.8533 2819.1331,-205.8533 2812.1331,-205.8532"/>
</g>
<!-- VocabFieldComponent  -->
<g id="node28" class="node">
<title>VocabFieldComponent </title>
<polygon fill="#fb8072" stroke="#000000" points="2793.1467,-252 2642.8533,-252 2642.8533,-216 2793.1467,-216 2793.1467,-252"/>
<text text-anchor="middle" x="2718" y="-229.8" font-family="Times,serif" font-size="14.00" fill="#000000">VocabFieldComponent </text>
</g>
<!-- SharedModule&#45;&gt;VocabFieldComponent  -->
<g id="edge27" class="edge">
<title>SharedModule&#45;&gt;VocabFieldComponent </title>
<path fill="none" stroke="#000000" stroke-dasharray="5,2" d="M2658.5689,-187.1061C2658.5689,-187.1061 2658.5689,-205.991 2658.5689,-205.991"/>
<polygon fill="#000000" stroke="#000000" points="2655.069,-205.9909 2658.5689,-215.991 2662.069,-205.991 2655.069,-205.9909"/>
</g>
<!-- RepeatableVocabComponent  -->
<g id="node29" class="node">
<title>RepeatableVocabComponent </title>
<polygon fill="#fb8072" stroke="#000000" points="2624.5595,-252 2441.4405,-252 2441.4405,-216 2624.5595,-216 2624.5595,-252"/>
<text text-anchor="middle" x="2533" y="-229.8" font-family="Times,serif" font-size="14.00" fill="#000000">RepeatableVocabComponent </text>
</g>
<!-- SharedModule&#45;&gt;RepeatableVocabComponent  -->
<g id="edge28" class="edge">
<title>SharedModule&#45;&gt;RepeatableVocabComponent </title>
<path fill="none" stroke="#000000" stroke-dasharray="5,2" d="M2600.2842,-187.1061C2600.2842,-187.1061 2600.2842,-205.991 2600.2842,-205.991"/>
<polygon fill="#000000" stroke="#000000" points="2596.7843,-205.9909 2600.2842,-215.991 2603.7843,-205.991 2596.7843,-205.9909"/>
</g>
<!-- ContributorComponent  -->
<g id="node30" class="node">
<title>ContributorComponent </title>
<polygon fill="#fb8072" stroke="#000000" points="2423.1621,-252 2272.8379,-252 2272.8379,-216 2423.1621,-216 2423.1621,-252"/>
<text text-anchor="middle" x="2348" y="-229.8" font-family="Times,serif" font-size="14.00" fill="#000000">ContributorComponent </text>
</g>
<!-- SharedModule&#45;&gt;ContributorComponent  -->
<g id="edge29" class="edge">
<title>SharedModule&#45;&gt;ContributorComponent </title>
<path fill="none" stroke="#000000" stroke-dasharray="5,2" d="M2575.5792,-186C2513.5949,-186 2415.341,-186 2415.341,-186 2415.341,-186 2415.341,-205.8533 2415.341,-205.8533"/>
<polygon fill="#000000" stroke="#000000" points="2411.8411,-205.8532 2415.341,-215.8533 2418.8411,-205.8533 2411.8411,-205.8532"/>
</g>
<!-- RepeatableContributorComponent  -->
<g id="node31" class="node">
<title>RepeatableContributorComponent </title>
<polygon fill="#fb8072" stroke="#000000" points="2255.3531,-252 2042.6469,-252 2042.6469,-216 2255.3531,-216 2255.3531,-252"/>
<text text-anchor="middle" x="2149" y="-229.8" font-family="Times,serif" font-size="14.00" fill="#000000">RepeatableContributorComponent </text>
</g>
<!-- SharedModule&#45;&gt;RepeatableContributorComponent  -->
<g id="edge30" class="edge">
<title>SharedModule&#45;&gt;RepeatableContributorComponent </title>
<path fill="none" stroke="#000000" stroke-dasharray="5,2" d="M2575.4207,-184C2473.8596,-184 2251.6405,-184 2251.6405,-184 2251.6405,-184 2251.6405,-205.9489 2251.6405,-205.9489"/>
<polygon fill="#000000" stroke="#000000" points="2248.1405,-205.9488 2251.6405,-215.9489 2255.1405,-205.9489 2248.1405,-205.9488"/>
</g>
<!-- HtmlRawComponent  -->
<g id="node32" class="node">
<title>HtmlRawComponent </title>
<polygon fill="#fb8072" stroke="#000000" points="2024.7689,-252 1885.2311,-252 1885.2311,-216 2024.7689,-216 2024.7689,-252"/>
<text text-anchor="middle" x="1955" y="-229.8" font-family="Times,serif" font-size="14.00" fill="#000000">HtmlRawComponent </text>
</g>
<!-- SharedModule&#45;&gt;HtmlRawComponent  -->
<g id="edge31" class="edge">
<title>SharedModule&#45;&gt;HtmlRawComponent </title>
<path fill="none" stroke="#000000" stroke-dasharray="5,2" d="M2575.7333,-183C2421.0051,-183 1955,-183 1955,-183 1955,-183 1955,-205.8757 1955,-205.8757"/>
<polygon fill="#000000" stroke="#000000" points="1951.5001,-205.8757 1955,-215.8757 1958.5001,-205.8757 1951.5001,-205.8757"/>
</g>
<!-- HiddenValueComponent  -->
<g id="node33" class="node">
<title>HiddenValueComponent </title>
<polygon fill="#fb8072" stroke="#000000" points="1867.9713,-252 1708.0287,-252 1708.0287,-216 1867.9713,-216 1867.9713,-252"/>
<text text-anchor="middle" x="1788" y="-229.8" font-family="Times,serif" font-size="14.00" fill="#000000">HiddenValueComponent </text>
</g>
<!-- SharedModule&#45;&gt;HiddenValueComponent  -->
<g id="edge32" class="edge">
<title>SharedModule&#45;&gt;HiddenValueComponent </title>
<path fill="none" stroke="#000000" stroke-dasharray="5,2" d="M2575.5953,-181C2406.0908,-181 1858.5429,-181 1858.5429,-181 1858.5429,-181 1858.5429,-205.7604 1858.5429,-205.7604"/>
<polygon fill="#000000" stroke="#000000" points="1855.043,-205.7604 1858.5429,-215.7604 1862.043,-205.7604 1855.043,-205.7604"/>
</g>
<!-- WorkflowStepButtonComponent  -->
<g id="node34" class="node">
<title>WorkflowStepButtonComponent </title>
<polygon fill="#fb8072" stroke="#000000" points="1690.8713,-252 1485.1287,-252 1485.1287,-216 1690.8713,-216 1690.8713,-252"/>
<text text-anchor="middle" x="1588" y="-229.8" font-family="Times,serif" font-size="14.00" fill="#000000">WorkflowStepButtonComponent </text>
</g>
<!-- SharedModule&#45;&gt;WorkflowStepButtonComponent  -->
<g id="edge33" class="edge">
<title>SharedModule&#45;&gt;WorkflowStepButtonComponent </title>
<path fill="none" stroke="#000000" stroke-dasharray="5,2" d="M2575.5582,-179C2381.2547,-179 1680.6675,-179 1680.6675,-179 1680.6675,-179 1680.6675,-205.9909 1680.6675,-205.9909"/>
<polygon fill="#000000" stroke="#000000" points="1677.1676,-205.9909 1680.6675,-215.9909 1684.1676,-205.991 1677.1676,-205.9909"/>
</g>
<!-- LinkValueComponent  -->
<g id="node35" class="node">
<title>LinkValueComponent </title>
<polygon fill="#fb8072" stroke="#000000" points="1467.2023,-252 1322.7977,-252 1322.7977,-216 1467.2023,-216 1467.2023,-252"/>
<text text-anchor="middle" x="1395" y="-229.8" font-family="Times,serif" font-size="14.00" fill="#000000">LinkValueComponent </text>
</g>
<!-- SharedModule&#45;&gt;LinkValueComponent  -->
<g id="edge34" class="edge">
<title>SharedModule&#45;&gt;LinkValueComponent </title>
<path fill="none" stroke="#000000" stroke-dasharray="5,2" d="M2575.642,-178C2346.2017,-178 1395,-178 1395,-178 1395,-178 1395,-205.973 1395,-205.973"/>
<polygon fill="#000000" stroke="#000000" points="1391.5001,-205.973 1395,-215.973 1398.5001,-205.973 1391.5001,-205.973"/>
</g>
<!-- SelectionFieldComponent  -->
<g id="node36" class="node">
<title>SelectionFieldComponent </title>
<polygon fill="#fb8072" stroke="#000000" points="1304.7093,-252 1139.2907,-252 1139.2907,-216 1304.7093,-216 1304.7093,-252"/>
<text text-anchor="middle" x="1222" y="-229.8" font-family="Times,serif" font-size="14.00" fill="#000000">SelectionFieldComponent </text>
</g>
<!-- SharedModule&#45;&gt;SelectionFieldComponent  -->
<g id="edge35" class="edge">
<title>SharedModule&#45;&gt;SelectionFieldComponent </title>
<path fill="none" stroke="#000000" stroke-dasharray="5,2" d="M2575.6417,-176C2333.5061,-176 1282.8841,-176 1282.8841,-176 1282.8841,-176 1282.8841,-205.9664 1282.8841,-205.9664"/>
<polygon fill="#000000" stroke="#000000" points="1279.3842,-205.9663 1282.8841,-215.9664 1286.3842,-205.9664 1279.3842,-205.9663"/>
</g>
<!-- RepeatableTextfieldComponent  -->
<g id="node37" class="node">
<title>RepeatableTextfieldComponent </title>
<polygon fill="#fb8072" stroke="#000000" points="1121.3377,-252 922.6623,-252 922.6623,-216 1121.3377,-216 1121.3377,-252"/>
<text text-anchor="middle" x="1022" y="-229.8" font-family="Times,serif" font-size="14.00" fill="#000000">RepeatableTextfieldComponent </text>
</g>
<!-- SharedModule&#45;&gt;RepeatableTextfieldComponent  -->
<g id="edge36" class="edge">
<title>SharedModule&#45;&gt;RepeatableTextfieldComponent </title>
<path fill="none" stroke="#000000" stroke-dasharray="5,2" d="M2575.6239,-174C2315.4157,-174 1115.1764,-174 1115.1764,-174 1115.1764,-174 1115.1764,-205.998 1115.1764,-205.998"/>
<polygon fill="#000000" stroke="#000000" points="1111.6765,-205.998 1115.1764,-215.998 1118.6765,-205.9981 1111.6765,-205.998"/>
</g>
<!-- FieldControlService -->
<g id="node38" class="node">
<title>FieldControlService</title>
<ellipse fill="#fdb462" stroke="#000000" cx="1760" cy="-104" rx="89.2012" ry="18"/>
<text text-anchor="middle" x="1760" y="-99.8" font-family="Times,serif" font-size="14.00" fill="#000000">FieldControlService</text>
</g>
<!-- FieldControlService&#45;&gt;SharedModule -->
<g id="edge37" class="edge">
<title>FieldControlService&#45;&gt;SharedModule</title>
<path fill="none" stroke="#000000" d="M1778.8076,-121.6816C1778.8076,-137.4303 1778.8076,-158 1778.8076,-158 1778.8076,-158 2565.5372,-158 2565.5372,-158"/>
<polygon fill="#000000" stroke="#000000" points="2565.5372,-161.5001 2575.5372,-158 2565.5372,-154.5001 2565.5372,-161.5001"/>
</g>
<!-- RecordsService -->
<g id="node39" class="node">
<title>RecordsService</title>
<ellipse fill="#fdb462" stroke="#000000" cx="1581" cy="-104" rx="71.766" ry="18"/>
<text text-anchor="middle" x="1581" y="-99.8" font-family="Times,serif" font-size="14.00" fill="#000000">RecordsService</text>
</g>
<!-- RecordsService&#45;&gt;SharedModule -->
<g id="edge38" class="edge">
<title>RecordsService&#45;&gt;SharedModule</title>
<path fill="none" stroke="#000000" d="M1581,-122.027C1581,-138.3976 1581,-160 1581,-160 1581,-160 2565.6976,-160 2565.6976,-160"/>
<polygon fill="#000000" stroke="#000000" points="2565.6976,-163.5001 2575.6976,-160 2565.6975,-156.5001 2565.6976,-163.5001"/>
</g>
<!-- VocabFieldLookupService -->
<g id="node40" class="node">
<title>VocabFieldLookupService</title>
<ellipse fill="#fdb462" stroke="#000000" cx="1376" cy="-104" rx="115.1725" ry="18"/>
<text text-anchor="middle" x="1376" y="-99.8" font-family="Times,serif" font-size="14.00" fill="#000000">VocabFieldLookupService</text>
</g>
<!-- VocabFieldLookupService&#45;&gt;SharedModule -->
<g id="edge39" class="edge">
<title>VocabFieldLookupService&#45;&gt;SharedModule</title>
<path fill="none" stroke="#000000" d="M1476.3328,-112.9063C1476.3328,-128.9375 1476.3328,-161 1476.3328,-161 1476.3328,-161 2565.6432,-161 2565.6432,-161"/>
<polygon fill="#000000" stroke="#000000" points="2565.6432,-164.5001 2575.6432,-161 2565.6432,-157.5001 2565.6432,-164.5001"/>
</g>
<!-- ConfigService -->
<g id="node41" class="node">
<title>ConfigService</title>
<ellipse fill="#fdb462" stroke="#000000" cx="1176" cy="-104" rx="66.6325" ry="18"/>
<text text-anchor="middle" x="1176" y="-99.8" font-family="Times,serif" font-size="14.00" fill="#000000">ConfigService</text>
</g>
<!-- ConfigService&#45;&gt;SharedModule -->
<g id="edge40" class="edge">
<title>ConfigService&#45;&gt;SharedModule</title>
<path fill="none" stroke="#000000" d="M1190.9807,-121.7019C1190.9807,-139.0808 1190.9807,-163 1190.9807,-163 1190.9807,-163 2565.6378,-163 2565.6378,-163"/>
<polygon fill="#000000" stroke="#000000" points="2565.6378,-166.5001 2575.6378,-163 2565.6378,-159.5001 2565.6378,-166.5001"/>
</g>
<!-- TranslationService -->
<g id="node42" class="node">
<title>TranslationService</title>
<ellipse fill="#fdb462" stroke="#000000" cx="1007" cy="-104" rx="83.9431" ry="18"/>
<text text-anchor="middle" x="1007" y="-99.8" font-family="Times,serif" font-size="14.00" fill="#000000">TranslationService</text>
</g>
<!-- TranslationService&#45;&gt;SharedModule -->
<g id="edge41" class="edge">
<title>TranslationService&#45;&gt;SharedModule</title>
<path fill="none" stroke="#000000" d="M1007,-122.302C1007,-140.2699 1007,-165 1007,-165 1007,-165 2565.693,-165 2565.693,-165"/>
<polygon fill="#000000" stroke="#000000" points="2565.6931,-168.5001 2575.693,-165 2565.693,-161.5001 2565.6931,-168.5001"/>
</g>
<!-- UserSimpleService -->
<g id="node43" class="node">
<title>UserSimpleService</title>
<ellipse fill="#fdb462" stroke="#000000" cx="819" cy="-104" rx="85.6667" ry="18"/>
<text text-anchor="middle" x="819" y="-99.8" font-family="Times,serif" font-size="14.00" fill="#000000">UserSimpleService</text>
</g>
<!-- UserSimpleService&#45;&gt;SharedModule -->
<g id="edge42" class="edge">
<title>UserSimpleService&#45;&gt;SharedModule</title>
<path fill="none" stroke="#000000" d="M819,-122.2667C819,-140.5552 819,-166 819,-166 819,-166 2565.7572,-166 2565.7572,-166"/>
<polygon fill="#000000" stroke="#000000" points="2565.7573,-169.5001 2575.7572,-166 2565.7572,-162.5001 2565.7573,-169.5001"/>
</g>
<!-- DashboardService -->
<g id="node44" class="node">
<title>DashboardService</title>
<ellipse fill="#fdb462" stroke="#000000" cx="634" cy="-104" rx="81.6423" ry="18"/>
<text text-anchor="middle" x="634" y="-99.8" font-family="Times,serif" font-size="14.00" fill="#000000">DashboardService</text>
</g>
<!-- DashboardService&#45;&gt;SharedModule -->
<g id="edge43" class="edge">
<title>DashboardService&#45;&gt;SharedModule</title>
<path fill="none" stroke="#000000" d="M634,-122.1686C634,-141.0898 634,-168 634,-168 634,-168 2565.784,-168 2565.784,-168"/>
<polygon fill="#000000" stroke="#000000" points="2565.784,-171.5001 2575.784,-168 2565.784,-164.5001 2565.784,-171.5001"/>
</g>
<!-- RolesService -->
<g id="node45" class="node">
<title>RolesService</title>
<ellipse fill="#fdb462" stroke="#000000" cx="472" cy="-104" rx="61.9731" ry="18"/>
<text text-anchor="middle" x="472" y="-99.8" font-family="Times,serif" font-size="14.00" fill="#000000">RolesService</text>
</g>
<!-- RolesService&#45;&gt;SharedModule -->
<g id="edge44" class="edge">
<title>RolesService&#45;&gt;SharedModule</title>
<path fill="none" stroke="#000000" d="M472,-122.1061C472,-141.3391 472,-169 472,-169 472,-169 2565.7281,-169 2565.7281,-169"/>
<polygon fill="#000000" stroke="#000000" points="2565.7282,-172.5001 2575.7281,-169 2565.7281,-165.5001 2565.7282,-172.5001"/>
</g>
<!-- EmailNotificationService -->
<g id="node46" class="node">
<title>EmailNotificationService</title>
<ellipse fill="#fdb462" stroke="#000000" cx="282" cy="-104" rx="109.9421" ry="18"/>
<text text-anchor="middle" x="282" y="-99.8" font-family="Times,serif" font-size="14.00" fill="#000000">EmailNotificationService</text>
</g>
<!-- EmailNotificationService&#45;&gt;SharedModule -->
<g id="edge45" class="edge">
<title>EmailNotificationService&#45;&gt;SharedModule</title>
<path fill="none" stroke="#000000" d="M282,-122.308C282,-142.1455 282,-171 282,-171 282,-171 2565.5225,-171 2565.5225,-171"/>
<polygon fill="#000000" stroke="#000000" points="2565.5226,-174.5001 2575.5225,-171 2565.5225,-167.5001 2565.5226,-174.5001"/>
</g>
<!-- UtilityService -->
<g id="node47" class="node">
<title>UtilityService</title>
<ellipse fill="#fdb462" stroke="#000000" cx="89" cy="-104" rx="65.4208" ry="18"/>
<text text-anchor="middle" x="89" y="-99.8" font-family="Times,serif" font-size="14.00" fill="#000000">UtilityService</text>
</g>
<!-- UtilityService&#45;&gt;SharedModule -->
<g id="edge46" class="edge">
<title>UtilityService&#45;&gt;SharedModule</title>
<path fill="none" stroke="#000000" d="M89,-122.1289C89,-142.5724 89,-173 89,-173 89,-173 2565.7619,-173 2565.7619,-173"/>
<polygon fill="#000000" stroke="#000000" points="2565.762,-176.5001 2575.7619,-173 2565.7619,-169.5001 2565.762,-176.5001"/>
</g>
</g>
</svg>
