<?xml version="1.0" encoding="UTF-8" standalone="no"?>
<!DOCTYPE svg PUBLIC "-//W3C//DTD SVG 1.1//EN"
 "http://www.w3.org/Graphics/SVG/1.1/DTD/svg11.dtd">
<!-- Generated by graphviz version 2.47.0 (20210316.0004)
 -->
<!-- Title: dependencies Pages: 1 -->
<svg width="672pt" height="349pt"
 viewBox="0.00 0.00 672.00 349.00" xmlns="http://www.w3.org/2000/svg" xmlns:xlink="http://www.w3.org/1999/xlink">
<g id="graph0" class="graph" transform="scale(1 1) rotate(0) translate(4 345)">
<title>dependencies</title>
<polygon fill="white" stroke="transparent" points="-4,4 -4,-345 668,-345 668,4 -4,4"/>
<text text-anchor="start" x="311.01" y="-42.4" font-family="Times-12" font-weight="bold" font-size="14.00">Legend</text>
<polygon fill="#ffffb3" stroke="transparent" points="98,-10 98,-30 118,-30 118,-10 98,-10"/>
<text text-anchor="start" x="121.63" y="-15.4" font-family="Times-12" font-size="14.00"> &#160;Declarations</text>
<polygon fill="#8dd3c7" stroke="transparent" points="211,-10 211,-30 231,-30 231,-10 211,-10"/>
<text text-anchor="start" x="234.73" y="-15.4" font-family="Times-12" font-size="14.00"> &#160;Module</text>
<polygon fill="#80b1d3" stroke="transparent" points="297,-10 297,-30 317,-30 317,-10 297,-10"/>
<text text-anchor="start" x="320.78" y="-15.4" font-family="Times-12" font-size="14.00"> &#160;Bootstrap</text>
<polygon fill="#fdb462" stroke="transparent" points="394,-10 394,-30 414,-30 414,-10 394,-10"/>
<text text-anchor="start" x="417.67" y="-15.4" font-family="Times-12" font-size="14.00"> &#160;Providers</text>
<polygon fill="#fb8072" stroke="transparent" points="490,-10 490,-30 510,-30 510,-10 490,-10"/>
<text text-anchor="start" x="513.73" y="-15.4" font-family="Times-12" font-size="14.00"> &#160;Exports</text>
<g id="clust1" class="cluster">
<title>cluster_RecordSearchModule</title>
<polygon fill="none" stroke="black" stroke-dasharray="1,5" points="8,-70 8,-333 656,-333 656,-70 8,-70"/>
</g>
<g id="clust2" class="cluster">
<title>cluster_RecordSearchModule_declarations</title>
<polygon fill="none" stroke="black" points="73,-143 73,-195 469,-195 469,-143 73,-143"/>
</g>
<g id="clust5" class="cluster">
<title>cluster_RecordSearchModule_imports</title>
<polygon fill="none" stroke="black" points="477,-143 477,-195 591,-195 591,-143 477,-143"/>
</g>
<g id="clust7" class="cluster">
<title>cluster_RecordSearchModule_bootstrap</title>
<polygon fill="none" stroke="black" points="291,-273 291,-325 471,-325 471,-273 291,-273"/>
</g>
<g id="clust3" class="cluster">
<title>cluster_RecordSearchModule_RecordSearchComponent_providers</title>
<polygon fill="none" stroke="black" points="16,-78 16,-130 648,-130 648,-78 16,-78"/>
</g>
<!-- RecordSearchComponent -->
<g id="node1" class="node">
<title>RecordSearchComponent</title>
<polygon fill="#ffffb3" stroke="black" points="460.85,-187 301.15,-187 301.15,-151 460.85,-151 460.85,-187"/>
<text text-anchor="middle" x="381" y="-164.8" font-family="Times,serif" font-size="14.00">RecordSearchComponent</text>
</g>
<!-- RecordSearchModule -->
<g id="node3" class="node">
<title>RecordSearchModule</title>
<polygon fill="#8dd3c7" stroke="black" points="450.06,-252 447.06,-256 426.06,-256 423.06,-252 311.94,-252 311.94,-216 450.06,-216 450.06,-252"/>
<text text-anchor="middle" x="381" y="-229.8" font-family="Times,serif" font-size="14.00">RecordSearchModule</text>
</g>
<!-- RecordSearchComponent&#45;&gt;RecordSearchModule -->
<g id="edge1" class="edge">
<title>RecordSearchComponent&#45;&gt;RecordSearchModule</title>
<path fill="none" stroke="black" d="M381,-187.11C381,-187.11 381,-205.99 381,-205.99"/>
<polygon fill="black" stroke="black" points="377.5,-205.99 381,-215.99 384.5,-205.99 377.5,-205.99"/>
</g>
<!-- RecordSearchRefinerComponent -->
<g id="node2" class="node">
<title>RecordSearchRefinerComponent</title>
<polygon fill="#ffffb3" stroke="black" points="282.82,-187 81.18,-187 81.18,-151 282.82,-151 282.82,-187"/>
<text text-anchor="middle" x="182" y="-164.8" font-family="Times,serif" font-size="14.00">RecordSearchRefinerComponent</text>
</g>
<!-- RecordSearchRefinerComponent&#45;&gt;RecordSearchModule -->
<g id="edge4" class="edge">
<title>RecordSearchRefinerComponent&#45;&gt;RecordSearchModule</title>
<path fill="none" stroke="black" d="M182,-187.11C182,-206.34 182,-234 182,-234 182,-234 301.96,-234 301.96,-234"/>
<polygon fill="black" stroke="black" points="301.96,-237.5 311.96,-234 301.96,-230.5 301.96,-237.5"/>
</g>
<!-- RecordSearchComponent  -->
<g id="node7" class="node">
<title>RecordSearchComponent </title>
<polygon fill="#80b1d3" stroke="black" points="462.85,-317 299.15,-317 299.15,-281 462.85,-281 462.85,-317"/>
<text text-anchor="middle" x="381" y="-294.8" font-family="Times,serif" font-size="14.00">RecordSearchComponent </text>
</g>
<!-- RecordSearchModule&#45;&gt;RecordSearchComponent  -->
<g id="edge6" class="edge">
<title>RecordSearchModule&#45;&gt;RecordSearchComponent </title>
<path fill="none" stroke="black" stroke-dasharray="1,5" d="M381,-252.11C381,-252.11 381,-270.99 381,-270.99"/>
<polygon fill="black" stroke="black" points="377.5,-270.99 381,-280.99 384.5,-270.99 377.5,-270.99"/>
</g>
<!-- Location -->
<g id="node4" class="node">
<title>Location</title>
<ellipse fill="#fdb462" stroke="black" cx="595" cy="-104" rx="45.22" ry="18"/>
<text text-anchor="middle" x="595" y="-99.8" font-family="Times,serif" font-size="14.00">Location</text>
</g>
<!-- Location&#45;&gt;RecordSearchComponent -->
<g id="edge2" class="edge">
<title>Location&#45;&gt;RecordSearchComponent</title>
<path fill="none" stroke="black" d="M566.42,-118.19C566.42,-127.13 566.42,-137 566.42,-137 566.42,-137 407.64,-137 407.64,-137 407.64,-137 407.64,-140.76 407.64,-140.76"/>
<polygon fill="black" stroke="black" points="404.14,-140.76 407.64,-150.76 411.14,-140.76 404.14,-140.76"/>
</g>
<!-- { provide: LocationStrategy, useClass: PathLocationStrategy } -->
<g id="node5" class="node">
<title>{ provide: LocationStrategy, useClass: PathLocationStrategy }</title>
<ellipse fill="#fdb462" stroke="black" cx="278" cy="-104" rx="253.76" ry="18"/>
<text text-anchor="middle" x="278" y="-99.8" font-family="Times,serif" font-size="14.00">{ provide: LocationStrategy, useClass: PathLocationStrategy }</text>
</g>
<!-- { provide: LocationStrategy, useClass: PathLocationStrategy }&#45;&gt;RecordSearchComponent -->
<g id="edge3" class="edge">
<title>{ provide: LocationStrategy, useClass: PathLocationStrategy }&#45;&gt;RecordSearchComponent</title>
<path fill="none" stroke="black" d="M354.36,-121.42C354.36,-121.42 354.36,-140.62 354.36,-140.62"/>
<polygon fill="black" stroke="black" points="350.86,-140.62 354.36,-150.62 357.86,-140.62 350.86,-140.62"/>
</g>
<!-- SharedModule -->
<g id="node6" class="node">
<title>SharedModule</title>
<polygon fill="#8dd3c7" stroke="black" points="583.42,-187 580.42,-191 559.42,-191 556.42,-187 484.58,-187 484.58,-151 583.42,-151 583.42,-187"/>
<text text-anchor="middle" x="534" y="-164.8" font-family="Times,serif" font-size="14.00">SharedModule</text>
</g>
<!-- SharedModule&#45;&gt;RecordSearchModule -->
<g id="edge5" class="edge">
<title>SharedModule&#45;&gt;RecordSearchModule</title>
<path fill="none" stroke="black" d="M534,-187.11C534,-206.34 534,-234 534,-234 534,-234 460.34,-234 460.34,-234"/>
<polygon fill="black" stroke="black" points="460.34,-230.5 450.34,-234 460.34,-237.5 460.34,-230.5"/>
</g>
</g>
</svg>
