<?xml version="1.0" encoding="UTF-8" standalone="no"?>
<!DOCTYPE svg PUBLIC "-//W3C//DTD SVG 1.1//EN"
 "http://www.w3.org/Graphics/SVG/1.1/DTD/svg11.dtd">
<!-- Generated by graphviz version 2.47.0 (20210316.0004)
 -->
<!-- Title: dependencies Pages: 1 -->
<svg width="672pt" height="349pt"
 viewBox="0.00 0.00 672.00 349.00" xmlns="http://www.w3.org/2000/svg" xmlns:xlink="http://www.w3.org/1999/xlink">
<g id="graph0" class="graph" transform="scale(1 1) rotate(0) translate(4 345)">
<title>dependencies</title>
<polygon fill="white" stroke="transparent" points="-4,4 -4,-345 668,-345 668,4 -4,4"/>
<text text-anchor="start" x="311.01" y="-42.4" font-family="Times-12" font-weight="bold" font-size="14.00">Legend</text>
<polygon fill="#ffffb3" stroke="transparent" points="98,-10 98,-30 118,-30 118,-10 98,-10"/>
<text text-anchor="start" x="121.63" y="-15.4" font-family="Times-12" font-size="14.00"> &#160;Declarations</text>
<polygon fill="#8dd3c7" stroke="transparent" points="211,-10 211,-30 231,-30 231,-10 211,-10"/>
<text text-anchor="start" x="234.73" y="-15.4" font-family="Times-12" font-size="14.00"> &#160;Module</text>
<polygon fill="#80b1d3" stroke="transparent" points="297,-10 297,-30 317,-30 317,-10 297,-10"/>
<text text-anchor="start" x="320.78" y="-15.4" font-family="Times-12" font-size="14.00"> &#160;Bootstrap</text>
<polygon fill="#fdb462" stroke="transparent" points="394,-10 394,-30 414,-30 414,-10 394,-10"/>
<text text-anchor="start" x="417.67" y="-15.4" font-family="Times-12" font-size="14.00"> &#160;Providers</text>
<polygon fill="#fb8072" stroke="transparent" points="490,-10 490,-30 510,-30 510,-10 490,-10"/>
<text text-anchor="start" x="513.73" y="-15.4" font-family="Times-12" font-size="14.00"> &#160;Exports</text>
<g id="clust1" class="cluster">
<title>cluster_RecordSearchModule</title>
<polygon fill="none" stroke="black" stroke-dasharray="1,5" points="8,-70 8,-333 656,-333 656,-70 8,-70"/>
</g>
<g id="clust2" class="cluster">
<title>cluster_RecordSearchModule_declarations</title>
<polygon fill="none" stroke="black" points="195,-143 195,-195 591,-195 591,-143 195,-143"/>
</g>
<g id="clust3" class="cluster">
<title>cluster_RecordSearchModule_RecordSearchComponent_providers</title>
<polygon fill="none" stroke="black" points="16,-78 16,-130 648,-130 648,-78 16,-78"/>
</g>
<g id="clust7" class="cluster">
<title>cluster_RecordSearchModule_bootstrap</title>
<polygon fill="none" stroke="black" points="214,-273 214,-325 394,-325 394,-273 214,-273"/>
</g>
<g id="clust5" class="cluster">
<title>cluster_RecordSearchModule_imports</title>
<polygon fill="none" stroke="black" points="73,-143 73,-195 187,-195 187,-143 73,-143"/>
</g>
<!-- RecordSearchComponent -->
<g id="node1" class="node">
<title>RecordSearchComponent</title>
<polygon fill="#ffffb3" stroke="black" points="582.85,-187 423.15,-187 423.15,-151 582.85,-151 582.85,-187"/>
<text text-anchor="middle" x="503" y="-164.8" font-family="Times,serif" font-size="14.00">RecordSearchComponent</text>
</g>
<!-- RecordSearchModule -->
<g id="node3" class="node">
<title>RecordSearchModule</title>
<polygon fill="#8dd3c7" stroke="black" points="373.06,-252 370.06,-256 349.06,-256 346.06,-252 234.94,-252 234.94,-216 373.06,-216 373.06,-252"/>
<text text-anchor="middle" x="304" y="-229.8" font-family="Times,serif" font-size="14.00">RecordSearchModule</text>
</g>
<!-- RecordSearchComponent&#45;&gt;RecordSearchModule -->
<g id="edge1" class="edge">
<title>RecordSearchComponent&#45;&gt;RecordSearchModule</title>
<path fill="none" stroke="black" d="M503,-187.11C503,-206.34 503,-234 503,-234 503,-234 383.04,-234 383.04,-234"/>
<polygon fill="black" stroke="black" points="383.04,-230.5 373.04,-234 383.04,-237.5 383.04,-230.5"/>
</g>
<!-- RecordSearchRefinerComponent -->
<g id="node2" class="node">
<title>RecordSearchRefinerComponent</title>
<polygon fill="#ffffb3" stroke="black" points="404.82,-187 203.18,-187 203.18,-151 404.82,-151 404.82,-187"/>
<text text-anchor="middle" x="304" y="-164.8" font-family="Times,serif" font-size="14.00">RecordSearchRefinerComponent</text>
</g>
<!-- RecordSearchRefinerComponent&#45;&gt;RecordSearchModule -->
<g id="edge4" class="edge">
<title>RecordSearchRefinerComponent&#45;&gt;RecordSearchModule</title>
<path fill="none" stroke="black" d="M304,-187.11C304,-187.11 304,-205.99 304,-205.99"/>
<polygon fill="black" stroke="black" points="300.5,-205.99 304,-215.99 307.5,-205.99 300.5,-205.99"/>
</g>
<!-- RecordSearchComponent  -->
<g id="node7" class="node">
<title>RecordSearchComponent </title>
<polygon fill="#80b1d3" stroke="black" points="385.85,-317 222.15,-317 222.15,-281 385.85,-281 385.85,-317"/>
<text text-anchor="middle" x="304" y="-294.8" font-family="Times,serif" font-size="14.00">RecordSearchComponent </text>
</g>
<!-- RecordSearchModule&#45;&gt;RecordSearchComponent  -->
<g id="edge6" class="edge">
<title>RecordSearchModule&#45;&gt;RecordSearchComponent </title>
<path fill="none" stroke="black" stroke-dasharray="1,5" d="M304,-252.11C304,-252.11 304,-270.99 304,-270.99"/>
<polygon fill="black" stroke="black" points="300.5,-270.99 304,-280.99 307.5,-270.99 300.5,-270.99"/>
</g>
<!-- Location -->
<g id="node4" class="node">
<title>Location</title>
<ellipse fill="#fdb462" stroke="black" cx="595" cy="-104" rx="45.22" ry="18"/>
<text text-anchor="middle" x="595" y="-99.8" font-family="Times,serif" font-size="14.00">Location</text>
</g>
<!-- Location&#45;&gt;RecordSearchComponent -->
<g id="edge2" class="edge">
<title>Location&#45;&gt;RecordSearchComponent</title>
<path fill="none" stroke="black" d="M566.28,-118.1C566.28,-118.1 566.28,-140.72 566.28,-140.72"/>
<polygon fill="black" stroke="black" points="562.78,-140.72 566.28,-150.72 569.78,-140.72 562.78,-140.72"/>
</g>
<!-- { provide: LocationStrategy, useClass: PathLocationStrategy } -->
<g id="node5" class="node">
<title>{ provide: LocationStrategy, useClass: PathLocationStrategy }</title>
<ellipse fill="#fdb462" stroke="black" cx="278" cy="-104" rx="253.76" ry="18"/>
<text text-anchor="middle" x="278" y="-99.8" font-family="Times,serif" font-size="14.00">{ provide: LocationStrategy, useClass: PathLocationStrategy }</text>
</g>
<!-- { provide: LocationStrategy, useClass: PathLocationStrategy }&#45;&gt;RecordSearchComponent -->
<g id="edge3" class="edge">
<title>{ provide: LocationStrategy, useClass: PathLocationStrategy }&#45;&gt;RecordSearchComponent</title>
<path fill="none" stroke="black" d="M477.35,-115.32C477.35,-115.32 477.35,-140.94 477.35,-140.94"/>
<polygon fill="black" stroke="black" points="473.85,-140.94 477.35,-150.94 480.85,-140.94 473.85,-140.94"/>
</g>
<!-- SharedModule -->
<g id="node6" class="node">
<title>SharedModule</title>
<polygon fill="#8dd3c7" stroke="black" points="179.42,-187 176.42,-191 155.42,-191 152.42,-187 80.58,-187 80.58,-151 179.42,-151 179.42,-187"/>
<text text-anchor="middle" x="130" y="-164.8" font-family="Times,serif" font-size="14.00">SharedModule</text>
</g>
<!-- SharedModule&#45;&gt;RecordSearchModule -->
<g id="edge5" class="edge">
<title>SharedModule&#45;&gt;RecordSearchModule</title>
<path fill="none" stroke="black" d="M130,-187.11C130,-206.34 130,-234 130,-234 130,-234 224.73,-234 224.73,-234"/>
<polygon fill="black" stroke="black" points="224.73,-237.5 234.73,-234 224.73,-230.5 224.73,-237.5"/>
</g>
</g>
</svg>
