<?xml version="1.0" encoding="UTF-8" standalone="no"?>
<!DOCTYPE svg PUBLIC "-//W3C//DTD SVG 1.1//EN"
 "http://www.w3.org/Graphics/SVG/1.1/DTD/svg11.dtd">
<!-- Generated by graphviz version 5.0.0 (20220707.1540)
 -->
<!-- Title: dependencies Pages: 1 -->
<svg width="672pt" height="312pt"
 viewBox="0.00 0.00 672.00 311.80" xmlns="http://www.w3.org/2000/svg" xmlns:xlink="http://www.w3.org/1999/xlink">
<g id="graph0" class="graph" transform="scale(1 1) rotate(0) translate(4 307.8)">
<title>dependencies</title>
<polygon fill="white" stroke="transparent" points="-4,4 -4,-307.8 668,-307.8 668,4 -4,4"/>
<text text-anchor="middle" x="332" y="-8.2" font-family="sans-serif" font-size="14.00">dependencies</text>
<g id="clust1" class="cluster">
<title>cluster_RecordSearchModule</title>
<polygon fill="none" stroke="black" stroke-dasharray="1,5" points="8,-32.8 8,-295.8 656,-295.8 656,-32.8 8,-32.8"/>
</g>
<g id="clust5" class="cluster">
<title>cluster_RecordSearchModule_imports</title>
<polygon fill="none" stroke="black" points="477,-105.8 477,-157.8 591,-157.8 591,-105.8 477,-105.8"/>
</g>
<g id="clust2" class="cluster">
<title>cluster_RecordSearchModule_declarations</title>
<polygon fill="none" stroke="black" points="73,-105.8 73,-157.8 469,-157.8 469,-105.8 73,-105.8"/>
</g>
<g id="clust3" class="cluster">
<title>cluster_RecordSearchModule_RecordSearchComponent_providers</title>
<polygon fill="none" stroke="black" points="16,-40.8 16,-92.8 648,-92.8 648,-40.8 16,-40.8"/>
</g>
<g id="clust7" class="cluster">
<title>cluster_RecordSearchModule_bootstrap</title>
<polygon fill="none" stroke="black" points="291,-235.8 291,-287.8 471,-287.8 471,-235.8 291,-235.8"/>
</g>
<!-- RecordSearchComponent -->
<g id="node1" class="node">
<title>RecordSearchComponent</title>
<polygon fill="#ffffb3" stroke="black" points="460.85,-149.8 301.15,-149.8 301.15,-113.8 460.85,-113.8 460.85,-149.8"/>
<text text-anchor="middle" x="381" y="-127.6" font-family="Times,serif" font-size="14.00">RecordSearchComponent</text>
</g>
<!-- RecordSearchModule -->
<g id="node3" class="node">
<title>RecordSearchModule</title>
<polygon fill="#8dd3c7" stroke="black" points="450.07,-214.8 447.07,-218.8 426.07,-218.8 423.07,-214.8 311.93,-214.8 311.93,-178.8 450.07,-178.8 450.07,-214.8"/>
<text text-anchor="middle" x="381" y="-192.6" font-family="Times,serif" font-size="14.00">RecordSearchModule</text>
</g>
<!-- RecordSearchComponent&#45;&gt;RecordSearchModule -->
<g id="edge1" class="edge">
<title>RecordSearchComponent&#45;&gt;RecordSearchModule</title>
<path fill="none" stroke="black" d="M381,-149.91C381,-149.91 381,-168.79 381,-168.79"/>
<polygon fill="black" stroke="black" points="377.5,-168.79 381,-178.79 384.5,-168.79 377.5,-168.79"/>
</g>
<!-- RecordSearchRefinerComponent -->
<g id="node2" class="node">
<title>RecordSearchRefinerComponent</title>
<polygon fill="#ffffb3" stroke="black" points="282.83,-149.8 81.17,-149.8 81.17,-113.8 282.83,-113.8 282.83,-149.8"/>
<text text-anchor="middle" x="182" y="-127.6" font-family="Times,serif" font-size="14.00">RecordSearchRefinerComponent</text>
</g>
<!-- RecordSearchRefinerComponent&#45;&gt;RecordSearchModule -->
<g id="edge4" class="edge">
<title>RecordSearchRefinerComponent&#45;&gt;RecordSearchModule</title>
<path fill="none" stroke="black" d="M182,-149.91C182,-169.14 182,-196.8 182,-196.8 182,-196.8 301.96,-196.8 301.96,-196.8"/>
<polygon fill="black" stroke="black" points="301.96,-200.3 311.96,-196.8 301.96,-193.3 301.96,-200.3"/>
</g>
<!-- RecordSearchComponent  -->
<g id="node7" class="node">
<title>RecordSearchComponent </title>
<polygon fill="#80b1d3" stroke="black" points="462.85,-279.8 299.15,-279.8 299.15,-243.8 462.85,-243.8 462.85,-279.8"/>
<text text-anchor="middle" x="381" y="-257.6" font-family="Times,serif" font-size="14.00">RecordSearchComponent </text>
</g>
<!-- RecordSearchModule&#45;&gt;RecordSearchComponent  -->
<g id="edge6" class="edge">
<title>RecordSearchModule&#45;&gt;RecordSearchComponent </title>
<path fill="none" stroke="black" stroke-dasharray="1,5" d="M381,-214.91C381,-214.91 381,-233.79 381,-233.79"/>
<polygon fill="black" stroke="black" points="377.5,-233.79 381,-243.79 384.5,-233.79 377.5,-233.79"/>
</g>
<!-- Location -->
<g id="node4" class="node">
<title>Location</title>
<ellipse fill="#fdb462" stroke="black" cx="595" cy="-66.8" rx="45.22" ry="18"/>
<text text-anchor="middle" x="595" y="-62.6" font-family="Times,serif" font-size="14.00">Location</text>
</g>
<!-- Location&#45;&gt;RecordSearchComponent -->
<g id="edge2" class="edge">
<title>Location&#45;&gt;RecordSearchComponent</title>
<path fill="none" stroke="black" d="M566.43,-80.99C566.43,-89.93 566.43,-99.8 566.43,-99.8 566.43,-99.8 407.64,-99.8 407.64,-99.8 407.64,-99.8 407.64,-103.56 407.64,-103.56"/>
<polygon fill="black" stroke="black" points="404.14,-103.56 407.64,-113.56 411.14,-103.56 404.14,-103.56"/>
</g>
<!-- { provide: LocationStrategy, useClass: PathLocationStrategy } -->
<g id="node5" class="node">
<title>{ provide: LocationStrategy, useClass: PathLocationStrategy }</title>
<ellipse fill="#fdb462" stroke="black" cx="278" cy="-66.8" rx="253.77" ry="18"/>
<text text-anchor="middle" x="278" y="-62.6" font-family="Times,serif" font-size="14.00">{ provide: LocationStrategy, useClass: PathLocationStrategy }</text>
</g>
<!-- { provide: LocationStrategy, useClass: PathLocationStrategy }&#45;&gt;RecordSearchComponent -->
<g id="edge3" class="edge">
<title>{ provide: LocationStrategy, useClass: PathLocationStrategy }&#45;&gt;RecordSearchComponent</title>
<path fill="none" stroke="black" d="M354.36,-84.22C354.36,-84.22 354.36,-103.42 354.36,-103.42"/>
<polygon fill="black" stroke="black" points="350.86,-103.42 354.36,-113.42 357.86,-103.42 350.86,-103.42"/>
</g>
<!-- SharedModule -->
<g id="node6" class="node">
<title>SharedModule</title>
<polygon fill="#8dd3c7" stroke="black" points="583.43,-149.8 580.43,-153.8 559.43,-153.8 556.43,-149.8 484.57,-149.8 484.57,-113.8 583.43,-113.8 583.43,-149.8"/>
<text text-anchor="middle" x="534" y="-127.6" font-family="Times,serif" font-size="14.00">SharedModule</text>
</g>
<!-- SharedModule&#45;&gt;RecordSearchModule -->
<g id="edge5" class="edge">
<title>SharedModule&#45;&gt;RecordSearchModule</title>
<path fill="none" stroke="black" d="M534,-149.91C534,-169.14 534,-196.8 534,-196.8 534,-196.8 460.34,-196.8 460.34,-196.8"/>
<polygon fill="black" stroke="black" points="460.34,-193.3 450.34,-196.8 460.34,-200.3 460.34,-193.3"/>
</g>
</g>
</svg>
