<?xml version="1.0" encoding="UTF-8" standalone="no"?>
<!DOCTYPE svg PUBLIC "-//W3C//DTD SVG 1.1//EN"
 "http://www.w3.org/Graphics/SVG/1.1/DTD/svg11.dtd">
<!-- Generated by graphviz version 2.46.0 (20210119.1425)
 -->
<!-- Title: dependencies Pages: 1 -->
<svg width="1020pt" height="349pt"
 viewBox="0.00 0.00 1020.00 349.00" xmlns="http://www.w3.org/2000/svg" xmlns:xlink="http://www.w3.org/1999/xlink">
<g id="graph0" class="graph" transform="scale(1 1) rotate(0) translate(4 345)">
<title>dependencies</title>
<polygon fill="white" stroke="transparent" points="-4,4 -4,-345 1016,-345 1016,4 -4,4"/>
<text text-anchor="start" x="485.01" y="-42.4" font-family="sans-serif" font-weight="bold" font-size="14.00">Legend</text>
<polygon fill="#ffffb3" stroke="transparent" points="272,-10 272,-30 292,-30 292,-10 272,-10"/>
<text text-anchor="start" x="295.63" y="-15.4" font-family="sans-serif" font-size="14.00"> &#160;Declarations</text>
<polygon fill="#8dd3c7" stroke="transparent" points="385,-10 385,-30 405,-30 405,-10 385,-10"/>
<text text-anchor="start" x="408.73" y="-15.4" font-family="sans-serif" font-size="14.00"> &#160;Module</text>
<polygon fill="#80b1d3" stroke="transparent" points="471,-10 471,-30 491,-30 491,-10 471,-10"/>
<text text-anchor="start" x="494.78" y="-15.4" font-family="sans-serif" font-size="14.00"> &#160;Bootstrap</text>
<polygon fill="#fdb462" stroke="transparent" points="568,-10 568,-30 588,-30 588,-10 568,-10"/>
<text text-anchor="start" x="591.67" y="-15.4" font-family="sans-serif" font-size="14.00"> &#160;Providers</text>
<polygon fill="#fb8072" stroke="transparent" points="664,-10 664,-30 684,-30 684,-10 664,-10"/>
<text text-anchor="start" x="687.73" y="-15.4" font-family="sans-serif" font-size="14.00"> &#160;Exports</text>
<g id="clust1" class="cluster">
<title>cluster_RecordSearchModule</title>
<polygon fill="none" stroke="black" stroke-dasharray="1,5" points="8,-70 8,-333 1004,-333 1004,-70 8,-70"/>
</g>
<g id="clust7" class="cluster">
<title>cluster_RecordSearchModule_bootstrap</title>
<polygon fill="none" stroke="black" points="157,-273 157,-325 337,-325 337,-273 157,-273"/>
</g>
<g id="clust3" class="cluster">
<title>cluster_RecordSearchModule_RecordSearchComponent_providers</title>
<polygon fill="none" stroke="black" points="364,-78 364,-195 996,-195 996,-78 364,-78"/>
</g>
<g id="clust2" class="cluster">
<title>cluster_RecordSearchModule_declarations</title>
<polygon fill="none" stroke="black" points="138,-143 138,-195 356,-195 356,-143 138,-143"/>
</g>
<g id="clust5" class="cluster">
<title>cluster_RecordSearchModule_imports</title>
<polygon fill="none" stroke="black" points="16,-143 16,-195 130,-195 130,-143 16,-143"/>
</g>
<!-- RecordSearchComponent -->
<g id="node1" class="node">
<title>RecordSearchComponent</title>
<polygon fill="#ffffb3" stroke="black" points="705.85,-187 546.15,-187 546.15,-151 705.85,-151 705.85,-187"/>
<text text-anchor="middle" x="626" y="-164.8" font-family="Times,serif" font-size="14.00">RecordSearchComponent</text>
</g>
<!-- RecordSearchModule -->
<g id="node3" class="node">
<title>RecordSearchModule</title>
<polygon fill="#8dd3c7" stroke="black" points="316.06,-252 313.06,-256 292.06,-256 289.06,-252 177.94,-252 177.94,-216 316.06,-216 316.06,-252"/>
<text text-anchor="middle" x="247" y="-229.8" font-family="Times,serif" font-size="14.00">RecordSearchModule</text>
</g>
<!-- RecordSearchComponent&#45;&gt;RecordSearchModule -->
<g id="edge1" class="edge">
<title>RecordSearchComponent&#45;&gt;RecordSearchModule</title>
<path fill="none" stroke="black" d="M626,-187.11C626,-206.34 626,-234 626,-234 626,-234 326.07,-234 326.07,-234"/>
<polygon fill="black" stroke="black" points="326.07,-230.5 316.07,-234 326.07,-237.5 326.07,-230.5"/>
</g>
<!-- RecordSearchRefinerComponent -->
<g id="node2" class="node">
<title>RecordSearchRefinerComponent</title>
<polygon fill="#ffffb3" stroke="black" points="347.82,-187 146.18,-187 146.18,-151 347.82,-151 347.82,-187"/>
<text text-anchor="middle" x="247" y="-164.8" font-family="Times,serif" font-size="14.00">RecordSearchRefinerComponent</text>
</g>
<!-- RecordSearchRefinerComponent&#45;&gt;RecordSearchModule -->
<g id="edge4" class="edge">
<title>RecordSearchRefinerComponent&#45;&gt;RecordSearchModule</title>
<path fill="none" stroke="black" d="M247,-187.11C247,-187.11 247,-205.99 247,-205.99"/>
<polygon fill="black" stroke="black" points="243.5,-205.99 247,-215.99 250.5,-205.99 243.5,-205.99"/>
</g>
<!-- RecordSearchComponent  -->
<g id="node7" class="node">
<title>RecordSearchComponent </title>
<polygon fill="#80b1d3" stroke="black" points="328.85,-317 165.15,-317 165.15,-281 328.85,-281 328.85,-317"/>
<text text-anchor="middle" x="247" y="-294.8" font-family="Times,serif" font-size="14.00">RecordSearchComponent </text>
</g>
<!-- RecordSearchModule&#45;&gt;RecordSearchComponent  -->
<g id="edge6" class="edge">
<title>RecordSearchModule&#45;&gt;RecordSearchComponent </title>
<path fill="none" stroke="black" stroke-dasharray="1,5" d="M247,-252.11C247,-252.11 247,-270.99 247,-270.99"/>
<polygon fill="black" stroke="black" points="243.5,-270.99 247,-280.99 250.5,-270.99 243.5,-270.99"/>
</g>
<!-- Location -->
<g id="node4" class="node">
<title>Location</title>
<ellipse fill="#fdb462" stroke="black" cx="943" cy="-104" rx="45.22" ry="18"/>
<text text-anchor="middle" x="943" y="-99.8" font-family="Times,serif" font-size="14.00">Location</text>
</g>
<!-- Location&#45;&gt;RecordSearchComponent -->
<g id="edge2" class="edge">
<title>Location&#45;&gt;RecordSearchComponent</title>
<path fill="none" stroke="black" d="M943,-122.11C943,-141.34 943,-169 943,-169 943,-169 715.99,-169 715.99,-169"/>
<polygon fill="black" stroke="black" points="715.99,-165.5 705.99,-169 715.99,-172.5 715.99,-165.5"/>
</g>
<!-- { provide: LocationStrategy, useClass: PathLocationStrategy } -->
<g id="node5" class="node">
<title>{ provide: LocationStrategy, useClass: PathLocationStrategy }</title>
<ellipse fill="#fdb462" stroke="black" cx="626" cy="-104" rx="253.76" ry="18"/>
<text text-anchor="middle" x="626" y="-99.8" font-family="Times,serif" font-size="14.00">{ provide: LocationStrategy, useClass: PathLocationStrategy }</text>
</g>
<!-- { provide: LocationStrategy, useClass: PathLocationStrategy }&#45;&gt;RecordSearchComponent -->
<g id="edge3" class="edge">
<title>{ provide: LocationStrategy, useClass: PathLocationStrategy }&#45;&gt;RecordSearchComponent</title>
<path fill="none" stroke="black" d="M626,-122.11C626,-122.11 626,-140.99 626,-140.99"/>
<polygon fill="black" stroke="black" points="622.5,-140.99 626,-150.99 629.5,-140.99 622.5,-140.99"/>
</g>
<!-- SharedModule -->
<g id="node6" class="node">
<title>SharedModule</title>
<polygon fill="#8dd3c7" stroke="black" points="122.42,-187 119.42,-191 98.42,-191 95.42,-187 23.58,-187 23.58,-151 122.42,-151 122.42,-187"/>
<text text-anchor="middle" x="73" y="-164.8" font-family="Times,serif" font-size="14.00">SharedModule</text>
</g>
<!-- SharedModule&#45;&gt;RecordSearchModule -->
<g id="edge5" class="edge">
<title>SharedModule&#45;&gt;RecordSearchModule</title>
<path fill="none" stroke="black" d="M73,-187.11C73,-206.34 73,-234 73,-234 73,-234 167.73,-234 167.73,-234"/>
<polygon fill="black" stroke="black" points="167.73,-237.5 177.73,-234 167.73,-230.5 167.73,-237.5"/>
</g>
</g>
</svg>
