<?xml version="1.0" encoding="UTF-8" standalone="no"?>
<!DOCTYPE svg PUBLIC "-//W3C//DTD SVG 1.1//EN"
 "http://www.w3.org/Graphics/SVG/1.1/DTD/svg11.dtd">
<!-- Generated by graphviz version 2.40.1 (20161225.0304)
 -->
<!-- Title: dependencies Pages: 1 -->
<svg width="672pt" height="349pt"
 viewBox="0.00 0.00 672.00 349.00" xmlns="http://www.w3.org/2000/svg" xmlns:xlink="http://www.w3.org/1999/xlink">
<g id="graph0" class="graph" transform="scale(1 1) rotate(0) translate(4 345)">
<title>dependencies</title>
<polygon fill="#ffffff" stroke="transparent" points="-4,4 -4,-345 668,-345 668,4 -4,4"/>
<text text-anchor="start" x="311.0091" y="-42.4" font-family="sans-serif" font-weight="bold" font-size="14.00" fill="#000000">Legend</text>
<polygon fill="#ffffb3" stroke="transparent" points="98,-10 98,-30 118,-30 118,-10 98,-10"/>
<text text-anchor="start" x="121.629" y="-15.4" font-family="sans-serif" font-size="14.00" fill="#000000"> &#160;Declarations</text>
<polygon fill="#8dd3c7" stroke="transparent" points="211,-10 211,-30 231,-30 231,-10 211,-10"/>
<text text-anchor="start" x="234.7251" y="-15.4" font-family="sans-serif" font-size="14.00" fill="#000000"> &#160;Module</text>
<polygon fill="#80b1d3" stroke="transparent" points="297,-10 297,-30 317,-30 317,-10 297,-10"/>
<text text-anchor="start" x="320.7812" y="-15.4" font-family="sans-serif" font-size="14.00" fill="#000000"> &#160;Bootstrap</text>
<polygon fill="#fdb462" stroke="transparent" points="394,-10 394,-30 414,-30 414,-10 394,-10"/>
<text text-anchor="start" x="417.6732" y="-15.4" font-family="sans-serif" font-size="14.00" fill="#000000"> &#160;Providers</text>
<polygon fill="#fb8072" stroke="transparent" points="490,-10 490,-30 510,-30 510,-10 490,-10"/>
<text text-anchor="start" x="513.7258" y="-15.4" font-family="sans-serif" font-size="14.00" fill="#000000"> &#160;Exports</text>
<g id="clust1" class="cluster">
<title>cluster_RecordSearchModule</title>
<polygon fill="none" stroke="#000000" stroke-dasharray="1,5" points="8,-70 8,-333 656,-333 656,-70 8,-70"/>
</g>
<g id="clust2" class="cluster">
<title>cluster_RecordSearchModule_declarations</title>
<polygon fill="none" stroke="#000000" points="195,-143 195,-195 591,-195 591,-143 195,-143"/>
</g>
<g id="clust3" class="cluster">
<title>cluster_RecordSearchModule_RecordSearchComponent_providers</title>
<polygon fill="none" stroke="#000000" points="16,-78 16,-130 648,-130 648,-78 16,-78"/>
</g>
<g id="clust5" class="cluster">
<title>cluster_RecordSearchModule_imports</title>
<polygon fill="none" stroke="#000000" points="73,-143 73,-195 187,-195 187,-143 73,-143"/>
</g>
<g id="clust7" class="cluster">
<title>cluster_RecordSearchModule_bootstrap</title>
<polygon fill="none" stroke="#000000" points="214,-273 214,-325 394,-325 394,-273 214,-273"/>
</g>
<!-- RecordSearchComponent -->
<g id="node1" class="node">
<title>RecordSearchComponent</title>
<polygon fill="#ffffb3" stroke="#000000" points="582.8459,-187 423.1541,-187 423.1541,-151 582.8459,-151 582.8459,-187"/>
<text text-anchor="middle" x="503" y="-164.8" font-family="Times,serif" font-size="14.00" fill="#000000">RecordSearchComponent</text>
</g>
<!-- RecordSearchModule -->
<g id="node3" class="node">
<title>RecordSearchModule</title>
<polygon fill="#8dd3c7" stroke="#000000" points="373.0632,-252 370.0632,-256 349.0632,-256 346.0632,-252 234.9368,-252 234.9368,-216 373.0632,-216 373.0632,-252"/>
<text text-anchor="middle" x="304" y="-229.8" font-family="Times,serif" font-size="14.00" fill="#000000">RecordSearchModule</text>
</g>
<!-- RecordSearchComponent&#45;&gt;RecordSearchModule -->
<g id="edge1" class="edge">
<title>RecordSearchComponent&#45;&gt;RecordSearchModule</title>
<path fill="none" stroke="#000000" d="M503,-187.1061C503,-206.3391 503,-234 503,-234 503,-234 383.0421,-234 383.0421,-234"/>
<polygon fill="#000000" stroke="#000000" points="383.0421,-230.5001 373.0421,-234 383.042,-237.5001 383.0421,-230.5001"/>
</g>
<!-- RecordSearchRefinerComponent -->
<g id="node2" class="node">
<title>RecordSearchRefinerComponent</title>
<polygon fill="#ffffb3" stroke="#000000" points="404.8235,-187 203.1765,-187 203.1765,-151 404.8235,-151 404.8235,-187"/>
<text text-anchor="middle" x="304" y="-164.8" font-family="Times,serif" font-size="14.00" fill="#000000">RecordSearchRefinerComponent</text>
</g>
<!-- RecordSearchRefinerComponent&#45;&gt;RecordSearchModule -->
<g id="edge4" class="edge">
<title>RecordSearchRefinerComponent&#45;&gt;RecordSearchModule</title>
<path fill="none" stroke="#000000" d="M304,-187.1061C304,-187.1061 304,-205.991 304,-205.991"/>
<polygon fill="#000000" stroke="#000000" points="300.5001,-205.9909 304,-215.991 307.5001,-205.991 300.5001,-205.9909"/>
</g>
<!-- RecordSearchComponent  -->
<g id="node7" class="node">
<title>RecordSearchComponent </title>
<polygon fill="#80b1d3" stroke="#000000" points="385.8462,-317 222.1538,-317 222.1538,-281 385.8462,-281 385.8462,-317"/>
<text text-anchor="middle" x="304" y="-294.8" font-family="Times,serif" font-size="14.00" fill="#000000">RecordSearchComponent </text>
</g>
<!-- RecordSearchModule&#45;&gt;RecordSearchComponent  -->
<g id="edge6" class="edge">
<title>RecordSearchModule&#45;&gt;RecordSearchComponent </title>
<path fill="none" stroke="#000000" stroke-dasharray="1,5" d="M304,-252.1061C304,-252.1061 304,-270.991 304,-270.991"/>
<polygon fill="#000000" stroke="#000000" points="300.5001,-270.9909 304,-280.991 307.5001,-270.991 300.5001,-270.9909"/>
</g>
<!-- Location -->
<g id="node4" class="node">
<title>Location</title>
<ellipse fill="#fdb462" stroke="#000000" cx="595" cy="-104" rx="45.2247" ry="18"/>
<text text-anchor="middle" x="595" y="-99.8" font-family="Times,serif" font-size="14.00" fill="#000000">Location</text>
</g>
<!-- Location&#45;&gt;RecordSearchComponent -->
<g id="edge2" class="edge">
<title>Location&#45;&gt;RecordSearchComponent</title>
<path fill="none" stroke="#000000" d="M566.2804,-118.104C566.2804,-118.104 566.2804,-140.7209 566.2804,-140.7209"/>
<polygon fill="#000000" stroke="#000000" points="562.7805,-140.7209 566.2804,-150.7209 569.7805,-140.7209 562.7805,-140.7209"/>
</g>
<!-- { provide: LocationStrategy, useClass: PathLocationStrategy } -->
<g id="node5" class="node">
<title>{ provide: LocationStrategy, useClass: PathLocationStrategy }</title>
<ellipse fill="#fdb462" stroke="#000000" cx="278" cy="-104" rx="253.7592" ry="18"/>
<text text-anchor="middle" x="278" y="-99.8" font-family="Times,serif" font-size="14.00" fill="#000000">{ provide: LocationStrategy, useClass: PathLocationStrategy }</text>
</g>
<!-- { provide: LocationStrategy, useClass: PathLocationStrategy }&#45;&gt;RecordSearchComponent -->
<g id="edge3" class="edge">
<title>{ provide: LocationStrategy, useClass: PathLocationStrategy }&#45;&gt;RecordSearchComponent</title>
<path fill="none" stroke="#000000" d="M477.3533,-115.3221C477.3533,-115.3221 477.3533,-140.9424 477.3533,-140.9424"/>
<polygon fill="#000000" stroke="#000000" points="473.8534,-140.9424 477.3533,-150.9424 480.8534,-140.9425 473.8534,-140.9424"/>
</g>
<!-- SharedModule -->
<g id="node6" class="node">
<title>SharedModule</title>
<polygon fill="#8dd3c7" stroke="#000000" points="179.4231,-187 176.4231,-191 155.4231,-191 152.4231,-187 80.5769,-187 80.5769,-151 179.4231,-151 179.4231,-187"/>
<text text-anchor="middle" x="130" y="-164.8" font-family="Times,serif" font-size="14.00" fill="#000000">SharedModule</text>
</g>
<!-- SharedModule&#45;&gt;RecordSearchModule -->
<g id="edge5" class="edge">
<title>SharedModule&#45;&gt;RecordSearchModule</title>
<path fill="none" stroke="#000000" d="M130,-187.1061C130,-206.3391 130,-234 130,-234 130,-234 224.7306,-234 224.7306,-234"/>
<polygon fill="#000000" stroke="#000000" points="224.7307,-237.5001 234.7306,-234 224.7306,-230.5001 224.7307,-237.5001"/>
</g>
</g>
</svg>
