<?xml version="1.0" encoding="UTF-8" standalone="no"?>
<!DOCTYPE svg PUBLIC "-//W3C//DTD SVG 1.1//EN"
 "http://www.w3.org/Graphics/SVG/1.1/DTD/svg11.dtd">
<!-- Generated by graphviz version 2.47.0 (20210316.0004)
 -->
<!-- Title: dependencies Pages: 1 -->
<svg width="504pt" height="284pt"
 viewBox="0.00 0.00 504.00 284.00" xmlns="http://www.w3.org/2000/svg" xmlns:xlink="http://www.w3.org/1999/xlink">
<g id="graph0" class="graph" transform="scale(1 1) rotate(0) translate(4 280)">
<title>dependencies</title>
<polygon fill="white" stroke="transparent" points="-4,4 -4,-280 500,-280 500,4 -4,4"/>
<text text-anchor="start" x="227.01" y="-42.4" font-family="Times-12" font-weight="bold" font-size="14.00">Legend</text>
<polygon fill="#ffffb3" stroke="transparent" points="14,-10 14,-30 34,-30 34,-10 14,-10"/>
<text text-anchor="start" x="37.63" y="-15.4" font-family="Times-12" font-size="14.00"> &#160;Declarations</text>
<polygon fill="#8dd3c7" stroke="transparent" points="127,-10 127,-30 147,-30 147,-10 127,-10"/>
<text text-anchor="start" x="150.73" y="-15.4" font-family="Times-12" font-size="14.00"> &#160;Module</text>
<polygon fill="#80b1d3" stroke="transparent" points="213,-10 213,-30 233,-30 233,-10 213,-10"/>
<text text-anchor="start" x="236.78" y="-15.4" font-family="Times-12" font-size="14.00"> &#160;Bootstrap</text>
<polygon fill="#fdb462" stroke="transparent" points="310,-10 310,-30 330,-30 330,-10 310,-10"/>
<text text-anchor="start" x="333.67" y="-15.4" font-family="Times-12" font-size="14.00"> &#160;Providers</text>
<polygon fill="#fb8072" stroke="transparent" points="406,-10 406,-30 426,-30 426,-10 406,-10"/>
<text text-anchor="start" x="429.73" y="-15.4" font-family="Times-12" font-size="14.00"> &#160;Exports</text>
<g id="clust1" class="cluster">
<title>cluster_WorkspaceListModule</title>
<polygon fill="none" stroke="black" stroke-dasharray="1,5" points="88,-70 88,-268 408,-268 408,-70 88,-70"/>
</g>
<g id="clust2" class="cluster">
<title>cluster_WorkspaceListModule_declarations</title>
<polygon fill="none" stroke="black" points="218,-78 218,-130 400,-130 400,-78 218,-78"/>
</g>
<g id="clust4" class="cluster">
<title>cluster_WorkspaceListModule_imports</title>
<polygon fill="none" stroke="black" points="96,-78 96,-130 210,-130 210,-78 96,-78"/>
</g>
<g id="clust6" class="cluster">
<title>cluster_WorkspaceListModule_bootstrap</title>
<polygon fill="none" stroke="black" points="155,-208 155,-260 341,-260 341,-208 155,-208"/>
</g>
<!-- WorkspaceListComponent -->
<g id="node1" class="node">
<title>WorkspaceListComponent</title>
<polygon fill="#ffffb3" stroke="black" points="392.07,-122 225.93,-122 225.93,-86 392.07,-86 392.07,-122"/>
<text text-anchor="middle" x="309" y="-99.8" font-family="Times,serif" font-size="14.00">WorkspaceListComponent</text>
</g>
<!-- WorkspaceListModule -->
<g id="node2" class="node">
<title>WorkspaceListModule</title>
<polygon fill="#8dd3c7" stroke="black" points="320.29,-187 317.29,-191 296.29,-191 293.29,-187 175.71,-187 175.71,-151 320.29,-151 320.29,-187"/>
<text text-anchor="middle" x="248" y="-164.8" font-family="Times,serif" font-size="14.00">WorkspaceListModule</text>
</g>
<!-- WorkspaceListComponent&#45;&gt;WorkspaceListModule -->
<g id="edge1" class="edge">
<title>WorkspaceListComponent&#45;&gt;WorkspaceListModule</title>
<path fill="none" stroke="black" d="M273.05,-122.11C273.05,-122.11 273.05,-140.99 273.05,-140.99"/>
<polygon fill="black" stroke="black" points="269.55,-140.99 273.05,-150.99 276.55,-140.99 269.55,-140.99"/>
</g>
<!-- WorkspaceListComponent  -->
<g id="node4" class="node">
<title>WorkspaceListComponent </title>
<polygon fill="#80b1d3" stroke="black" points="332.57,-252 163.43,-252 163.43,-216 332.57,-216 332.57,-252"/>
<text text-anchor="middle" x="248" y="-229.8" font-family="Times,serif" font-size="14.00">WorkspaceListComponent </text>
</g>
<!-- WorkspaceListModule&#45;&gt;WorkspaceListComponent  -->
<g id="edge3" class="edge">
<title>WorkspaceListModule&#45;&gt;WorkspaceListComponent </title>
<path fill="none" stroke="black" stroke-dasharray="1,5" d="M248,-187.11C248,-187.11 248,-205.99 248,-205.99"/>
<polygon fill="black" stroke="black" points="244.5,-205.99 248,-215.99 251.5,-205.99 244.5,-205.99"/>
</g>
<!-- SharedModule -->
<g id="node3" class="node">
<title>SharedModule</title>
<polygon fill="#8dd3c7" stroke="black" points="202.42,-122 199.42,-126 178.42,-126 175.42,-122 103.58,-122 103.58,-86 202.42,-86 202.42,-122"/>
<text text-anchor="middle" x="153" y="-99.8" font-family="Times,serif" font-size="14.00">SharedModule</text>
</g>
<!-- SharedModule&#45;&gt;WorkspaceListModule -->
<g id="edge2" class="edge">
<title>SharedModule&#45;&gt;WorkspaceListModule</title>
<path fill="none" stroke="black" d="M189.03,-122.11C189.03,-122.11 189.03,-140.99 189.03,-140.99"/>
<polygon fill="black" stroke="black" points="185.53,-140.99 189.03,-150.99 192.53,-140.99 185.53,-140.99"/>
</g>
</g>
</svg>
