<?xml version="1.0" encoding="UTF-8" standalone="no"?>
<!DOCTYPE svg PUBLIC "-//W3C//DTD SVG 1.1//EN"
 "http://www.w3.org/Graphics/SVG/1.1/DTD/svg11.dtd">
<!-- Generated by graphviz version 5.0.0 (20220707.1540)
 -->
<!-- Title: dependencies Pages: 1 -->
<svg width="344pt" height="247pt"
 viewBox="0.00 0.00 344.00 246.80" xmlns="http://www.w3.org/2000/svg" xmlns:xlink="http://www.w3.org/1999/xlink">
<g id="graph0" class="graph" transform="scale(1 1) rotate(0) translate(4 242.8)">
<title>dependencies</title>
<polygon fill="white" stroke="transparent" points="-4,4 -4,-242.8 340,-242.8 340,4 -4,4"/>
<text text-anchor="middle" x="168" y="-8.2" font-family="sans-serif" font-size="14.00">dependencies</text>
<g id="clust1" class="cluster">
<title>cluster_WorkspaceListModule</title>
<polygon fill="none" stroke="black" stroke-dasharray="1,5" points="8,-32.8 8,-230.8 328,-230.8 328,-32.8 8,-32.8"/>
</g>
<g id="clust6" class="cluster">
<title>cluster_WorkspaceListModule_bootstrap</title>
<polygon fill="none" stroke="black" points="75,-170.8 75,-222.8 261,-222.8 261,-170.8 75,-170.8"/>
</g>
<g id="clust2" class="cluster">
<title>cluster_WorkspaceListModule_declarations</title>
<polygon fill="none" stroke="black" points="138,-40.8 138,-92.8 320,-92.8 320,-40.8 138,-40.8"/>
</g>
<g id="clust4" class="cluster">
<title>cluster_WorkspaceListModule_imports</title>
<polygon fill="none" stroke="black" points="16,-40.8 16,-92.8 130,-92.8 130,-40.8 16,-40.8"/>
</g>
<!-- WorkspaceListComponent -->
<g id="node1" class="node">
<title>WorkspaceListComponent</title>
<polygon fill="#ffffb3" stroke="black" points="312.08,-84.8 145.92,-84.8 145.92,-48.8 312.08,-48.8 312.08,-84.8"/>
<text text-anchor="middle" x="229" y="-62.6" font-family="Times,serif" font-size="14.00">WorkspaceListComponent</text>
</g>
<!-- WorkspaceListModule -->
<g id="node2" class="node">
<title>WorkspaceListModule</title>
<polygon fill="#8dd3c7" stroke="black" points="240.3,-149.8 237.3,-153.8 216.3,-153.8 213.3,-149.8 95.7,-149.8 95.7,-113.8 240.3,-113.8 240.3,-149.8"/>
<text text-anchor="middle" x="168" y="-127.6" font-family="Times,serif" font-size="14.00">WorkspaceListModule</text>
</g>
<!-- WorkspaceListComponent&#45;&gt;WorkspaceListModule -->
<g id="edge1" class="edge">
<title>WorkspaceListComponent&#45;&gt;WorkspaceListModule</title>
<path fill="none" stroke="black" d="M193.06,-84.91C193.06,-84.91 193.06,-103.79 193.06,-103.79"/>
<polygon fill="black" stroke="black" points="189.56,-103.79 193.06,-113.79 196.56,-103.79 189.56,-103.79"/>
</g>
<!-- WorkspaceListComponent  -->
<g id="node4" class="node">
<title>WorkspaceListComponent </title>
<polygon fill="#80b1d3" stroke="black" points="252.58,-214.8 83.42,-214.8 83.42,-178.8 252.58,-178.8 252.58,-214.8"/>
<text text-anchor="middle" x="168" y="-192.6" font-family="Times,serif" font-size="14.00">WorkspaceListComponent </text>
</g>
<!-- WorkspaceListModule&#45;&gt;WorkspaceListComponent  -->
<g id="edge3" class="edge">
<title>WorkspaceListModule&#45;&gt;WorkspaceListComponent </title>
<path fill="none" stroke="black" stroke-dasharray="1,5" d="M168,-149.91C168,-149.91 168,-168.79 168,-168.79"/>
<polygon fill="black" stroke="black" points="164.5,-168.79 168,-178.79 171.5,-168.79 164.5,-168.79"/>
</g>
<!-- SharedModule -->
<g id="node3" class="node">
<title>SharedModule</title>
<polygon fill="#8dd3c7" stroke="black" points="122.43,-84.8 119.43,-88.8 98.43,-88.8 95.43,-84.8 23.57,-84.8 23.57,-48.8 122.43,-48.8 122.43,-84.8"/>
<text text-anchor="middle" x="73" y="-62.6" font-family="Times,serif" font-size="14.00">SharedModule</text>
</g>
<!-- SharedModule&#45;&gt;WorkspaceListModule -->
<g id="edge2" class="edge">
<title>SharedModule&#45;&gt;WorkspaceListModule</title>
<path fill="none" stroke="black" d="M109.03,-84.91C109.03,-84.91 109.03,-103.79 109.03,-103.79"/>
<polygon fill="black" stroke="black" points="105.53,-103.79 109.03,-113.79 112.53,-103.79 105.53,-103.79"/>
</g>
</g>
</svg>
