<?xml version="1.0" encoding="UTF-8" standalone="no"?>
<!DOCTYPE svg PUBLIC "-//W3C//DTD SVG 1.1//EN"
 "http://www.w3.org/Graphics/SVG/1.1/DTD/svg11.dtd">
<!-- Generated by graphviz version 2.40.1 (20161225.0304)
 -->
<!-- Title: dependencies Pages: 1 -->
<svg width="558pt" height="349pt"
 viewBox="0.00 0.00 558.00 349.00" xmlns="http://www.w3.org/2000/svg" xmlns:xlink="http://www.w3.org/1999/xlink">
<g id="graph0" class="graph" transform="scale(1 1) rotate(0) translate(4 345)">
<title>dependencies</title>
<polygon fill="#ffffff" stroke="transparent" points="-4,4 -4,-345 554,-345 554,4 -4,4"/>
<text text-anchor="start" x="254.0091" y="-42.4" font-family="sans-serif" font-weight="bold" font-size="14.00" fill="#000000">Legend</text>
<polygon fill="#ffffb3" stroke="transparent" points="41,-10 41,-30 61,-30 61,-10 41,-10"/>
<text text-anchor="start" x="64.629" y="-15.4" font-family="sans-serif" font-size="14.00" fill="#000000"> &#160;Declarations</text>
<polygon fill="#8dd3c7" stroke="transparent" points="154,-10 154,-30 174,-30 174,-10 154,-10"/>
<text text-anchor="start" x="177.7251" y="-15.4" font-family="sans-serif" font-size="14.00" fill="#000000"> &#160;Module</text>
<polygon fill="#80b1d3" stroke="transparent" points="240,-10 240,-30 260,-30 260,-10 240,-10"/>
<text text-anchor="start" x="263.7812" y="-15.4" font-family="sans-serif" font-size="14.00" fill="#000000"> &#160;Bootstrap</text>
<polygon fill="#fdb462" stroke="transparent" points="337,-10 337,-30 357,-30 357,-10 337,-10"/>
<text text-anchor="start" x="360.6732" y="-15.4" font-family="sans-serif" font-size="14.00" fill="#000000"> &#160;Providers</text>
<polygon fill="#fb8072" stroke="transparent" points="433,-10 433,-30 453,-30 453,-10 433,-10"/>
<text text-anchor="start" x="456.7258" y="-15.4" font-family="sans-serif" font-size="14.00" fill="#000000"> &#160;Exports</text>
<g id="clust1" class="cluster">
<title>cluster_RecordSearchModule</title>
<polygon fill="none" stroke="#000000" stroke-dasharray="1,5" points="8,-70 8,-333 542,-333 542,-70 8,-70"/>
</g>
<g id="clust2" class="cluster">
<title>cluster_RecordSearchModule_declarations</title>
<polygon fill="none" stroke="#000000" points="138,-143 138,-195 534,-195 534,-143 138,-143"/>
</g>
<g id="clust3" class="cluster">
<title>cluster_RecordSearchModule_RecordSearchComponent_providers</title>
<polygon fill="none" stroke="#000000" points="311,-78 311,-130 516,-130 516,-78 311,-78"/>
</g>
<g id="clust5" class="cluster">
<title>cluster_RecordSearchModule_imports</title>
<polygon fill="none" stroke="#000000" points="16,-143 16,-195 130,-195 130,-143 16,-143"/>
</g>
<g id="clust7" class="cluster">
<title>cluster_RecordSearchModule_bootstrap</title>
<polygon fill="none" stroke="#000000" points="74,-273 74,-325 477,-325 477,-273 74,-273"/>
</g>
<!-- RecordSearchComponent -->
<g id="node1" class="node">
<title>RecordSearchComponent</title>
<polygon fill="#ffffb3" stroke="#000000" points="525.8459,-187 366.1541,-187 366.1541,-151 525.8459,-151 525.8459,-187"/>
<text text-anchor="middle" x="446" y="-164.8" font-family="Times,serif" font-size="14.00" fill="#000000">RecordSearchComponent</text>
</g>
<!-- RecordSearchModule -->
<g id="node3" class="node">
<title>RecordSearchModule</title>
<polygon fill="#8dd3c7" stroke="#000000" points="316.0632,-252 313.0632,-256 292.0632,-256 289.0632,-252 177.9368,-252 177.9368,-216 316.0632,-216 316.0632,-252"/>
<text text-anchor="middle" x="247" y="-229.8" font-family="Times,serif" font-size="14.00" fill="#000000">RecordSearchModule</text>
</g>
<!-- RecordSearchComponent&#45;&gt;RecordSearchModule -->
<g id="edge1" class="edge">
<title>RecordSearchComponent&#45;&gt;RecordSearchModule</title>
<path fill="none" stroke="#000000" d="M417.375,-187.1061C417.375,-206.3391 417.375,-234 417.375,-234 417.375,-234 326.298,-234 326.298,-234"/>
<polygon fill="#000000" stroke="#000000" points="326.2981,-230.5001 316.298,-234 326.298,-237.5001 326.2981,-230.5001"/>
</g>
<!-- RecordSearchRefinerComponent -->
<g id="node2" class="node">
<title>RecordSearchRefinerComponent</title>
<polygon fill="#ffffb3" stroke="#000000" points="347.8235,-187 146.1765,-187 146.1765,-151 347.8235,-151 347.8235,-187"/>
<text text-anchor="middle" x="247" y="-164.8" font-family="Times,serif" font-size="14.00" fill="#000000">RecordSearchRefinerComponent</text>
</g>
<!-- RecordSearchRefinerComponent&#45;&gt;RecordSearchModule -->
<g id="edge4" class="edge">
<title>RecordSearchRefinerComponent&#45;&gt;RecordSearchModule</title>
<path fill="none" stroke="#000000" d="M247,-187.1061C247,-187.1061 247,-205.991 247,-205.991"/>
<polygon fill="#000000" stroke="#000000" points="243.5001,-205.9909 247,-215.991 250.5001,-205.991 243.5001,-205.9909"/>
</g>
<!-- RecordSearchComponent  -->
<g id="node7" class="node">
<title>RecordSearchComponent </title>
<polygon fill="#80b1d3" stroke="#000000" points="468.8462,-317 305.1538,-317 305.1538,-281 468.8462,-281 468.8462,-317"/>
<text text-anchor="middle" x="387" y="-294.8" font-family="Times,serif" font-size="14.00" fill="#000000">RecordSearchComponent </text>
</g>
<!-- RecordSearchModule&#45;&gt;RecordSearchComponent  -->
<g id="edge6" class="edge">
<title>RecordSearchModule&#45;&gt;RecordSearchComponent </title>
<path fill="none" stroke="#000000" stroke-dasharray="1,5" d="M310.6794,-252.1061C310.6794,-252.1061 310.6794,-270.991 310.6794,-270.991"/>
<polygon fill="#000000" stroke="#000000" points="307.1794,-270.9909 310.6794,-280.991 314.1794,-270.991 307.1794,-270.9909"/>
</g>
<!-- RecordSearchRefinerComponent  -->
<g id="node8" class="node">
<title>RecordSearchRefinerComponent </title>
<polygon fill="#80b1d3" stroke="#000000" points="287.8237,-317 82.1763,-317 82.1763,-281 287.8237,-281 287.8237,-317"/>
<text text-anchor="middle" x="185" y="-294.8" font-family="Times,serif" font-size="14.00" fill="#000000">RecordSearchRefinerComponent </text>
</g>
<!-- RecordSearchModule&#45;&gt;RecordSearchRefinerComponent  -->
<g id="edge7" class="edge">
<title>RecordSearchModule&#45;&gt;RecordSearchRefinerComponent </title>
<path fill="none" stroke="#000000" stroke-dasharray="1,5" d="M232.8151,-252.1061C232.8151,-252.1061 232.8151,-270.991 232.8151,-270.991"/>
<polygon fill="#000000" stroke="#000000" points="229.3151,-270.9909 232.8151,-280.991 236.3151,-270.991 229.3151,-270.9909"/>
</g>
<!-- Location -->
<g id="node4" class="node">
<title>Location</title>
<ellipse fill="#fdb462" stroke="#000000" cx="463" cy="-104" rx="45.2247" ry="18"/>
<text text-anchor="middle" x="463" y="-99.8" font-family="Times,serif" font-size="14.00" fill="#000000">Location</text>
</g>
<!-- Location&#45;&gt;RecordSearchComponent -->
<g id="edge2" class="edge">
<title>Location&#45;&gt;RecordSearchComponent</title>
<path fill="none" stroke="#000000" d="M463,-122.1061C463,-122.1061 463,-140.991 463,-140.991"/>
<polygon fill="#000000" stroke="#000000" points="459.5001,-140.9909 463,-150.991 466.5001,-140.991 459.5001,-140.9909"/>
</g>
<!-- { : , : &#160;} -->
<g id="node5" class="node">
<title>{ : , : &#160;}</title>
<ellipse fill="#fdb462" stroke="#000000" cx="359" cy="-104" rx="40.3166" ry="18"/>
<text text-anchor="middle" x="359" y="-99.8" font-family="Times,serif" font-size="14.00" fill="#000000">{ : , : &#160;}</text>
</g>
<!-- { : , : &#160;}&#45;&gt;RecordSearchComponent -->
<g id="edge3" class="edge">
<title>{ : , : &#160;}&#45;&gt;RecordSearchComponent</title>
<path fill="none" stroke="#000000" d="M382.6175,-118.7495C382.6175,-118.7495 382.6175,-140.5882 382.6175,-140.5882"/>
<polygon fill="#000000" stroke="#000000" points="379.1176,-140.5881 382.6175,-150.5882 386.1176,-140.5882 379.1176,-140.5881"/>
</g>
<!-- SharedModule -->
<g id="node6" class="node">
<title>SharedModule</title>
<polygon fill="#8dd3c7" stroke="#000000" points="122.4231,-187 119.4231,-191 98.4231,-191 95.4231,-187 23.5769,-187 23.5769,-151 122.4231,-151 122.4231,-187"/>
<text text-anchor="middle" x="73" y="-164.8" font-family="Times,serif" font-size="14.00" fill="#000000">SharedModule</text>
</g>
<!-- SharedModule&#45;&gt;RecordSearchModule -->
<g id="edge5" class="edge">
<title>SharedModule&#45;&gt;RecordSearchModule</title>
<path fill="none" stroke="#000000" d="M102.2747,-187.1061C102.2747,-206.3391 102.2747,-234 102.2747,-234 102.2747,-234 167.6046,-234 167.6046,-234"/>
<polygon fill="#000000" stroke="#000000" points="167.6046,-237.5001 177.6046,-234 167.6046,-230.5001 167.6046,-237.5001"/>
</g>
</g>
</svg>
