<?xml version="1.0" encoding="UTF-8" standalone="no"?>
<!DOCTYPE svg PUBLIC "-//W3C//DTD SVG 1.1//EN"
 "http://www.w3.org/Graphics/SVG/1.1/DTD/svg11.dtd">
<!-- Generated by graphviz version 2.47.0 (20210316.0004)
 -->
<!-- Title: dependencies Pages: 1 -->
<svg width="1058pt" height="349pt"
 viewBox="0.00 0.00 1058.00 349.00" xmlns="http://www.w3.org/2000/svg" xmlns:xlink="http://www.w3.org/1999/xlink">
<g id="graph0" class="graph" transform="scale(1 1) rotate(0) translate(4 345)">
<title>dependencies</title>
<polygon fill="white" stroke="transparent" points="-4,4 -4,-345 1054,-345 1054,4 -4,4"/>
<text text-anchor="start" x="504.01" y="-42.4" font-family="Times-12" font-weight="bold" font-size="14.00">Legend</text>
<polygon fill="#ffffb3" stroke="transparent" points="291,-10 291,-30 311,-30 311,-10 291,-10"/>
<text text-anchor="start" x="314.63" y="-15.4" font-family="Times-12" font-size="14.00"> &#160;Declarations</text>
<polygon fill="#8dd3c7" stroke="transparent" points="404,-10 404,-30 424,-30 424,-10 404,-10"/>
<text text-anchor="start" x="427.73" y="-15.4" font-family="Times-12" font-size="14.00"> &#160;Module</text>
<polygon fill="#80b1d3" stroke="transparent" points="490,-10 490,-30 510,-30 510,-10 490,-10"/>
<text text-anchor="start" x="513.78" y="-15.4" font-family="Times-12" font-size="14.00"> &#160;Bootstrap</text>
<polygon fill="#fdb462" stroke="transparent" points="587,-10 587,-30 607,-30 607,-10 587,-10"/>
<text text-anchor="start" x="610.67" y="-15.4" font-family="Times-12" font-size="14.00"> &#160;Providers</text>
<polygon fill="#fb8072" stroke="transparent" points="683,-10 683,-30 703,-30 703,-10 683,-10"/>
<text text-anchor="start" x="706.73" y="-15.4" font-family="Times-12" font-size="14.00"> &#160;Exports</text>
<g id="clust1" class="cluster">
<title>cluster_FormModule</title>
<polygon fill="none" stroke="black" stroke-dasharray="1,5" points="8,-70 8,-333 1042,-333 1042,-70 8,-70"/>
</g>
<g id="clust7" class="cluster">
<title>cluster_FormModule_imports</title>
<polygon fill="none" stroke="black" points="854,-143 854,-195 1034,-195 1034,-143 854,-143"/>
</g>
<g id="clust10" class="cluster">
<title>cluster_FormModule_providers</title>
<polygon fill="none" stroke="black" points="708,-143 708,-195 846,-195 846,-143 708,-143"/>
</g>
<g id="clust2" class="cluster">
<title>cluster_FormModule_declarations</title>
<polygon fill="none" stroke="black" points="16,-143 16,-195 700,-195 700,-143 16,-143"/>
</g>
<g id="clust3" class="cluster">
<title>cluster_FormModule_FormComponent_providers</title>
<polygon fill="none" stroke="black" points="215,-78 215,-130 847,-130 847,-78 215,-78"/>
</g>
<g id="clust9" class="cluster">
<title>cluster_FormModule_bootstrap</title>
<polygon fill="none" stroke="black" points="485,-273 485,-325 617,-325 617,-273 485,-273"/>
</g>
<!-- FormComponent -->
<g id="node1" class="node">
<title>FormComponent</title>
<polygon fill="#ffffb3" stroke="black" points="691.67,-187 580.33,-187 580.33,-151 691.67,-151 691.67,-187"/>
<text text-anchor="middle" x="636" y="-164.8" font-family="Times,serif" font-size="14.00">FormComponent</text>
</g>
<!-- FormModule -->
<g id="node5" class="node">
<title>FormModule</title>
<polygon fill="#8dd3c7" stroke="black" points="595.88,-252 592.88,-256 571.88,-256 568.88,-252 506.12,-252 506.12,-216 595.88,-216 595.88,-252"/>
<text text-anchor="middle" x="551" y="-229.8" font-family="Times,serif" font-size="14.00">FormModule</text>
</g>
<!-- FormComponent&#45;&gt;FormModule -->
<g id="edge1" class="edge">
<title>FormComponent&#45;&gt;FormModule</title>
<path fill="none" stroke="black" d="M588.05,-187.11C588.05,-187.11 588.05,-205.99 588.05,-205.99"/>
<polygon fill="black" stroke="black" points="584.55,-205.99 588.05,-215.99 591.55,-205.99 584.55,-205.99"/>
</g>
<!-- FormFieldWrapperComponent -->
<g id="node2" class="node">
<title>FormFieldWrapperComponent</title>
<polygon fill="#ffffb3" stroke="black" points="561.91,-187 372.09,-187 372.09,-151 561.91,-151 561.91,-187"/>
<text text-anchor="middle" x="467" y="-164.8" font-family="Times,serif" font-size="14.00">FormFieldWrapperComponent</text>
</g>
<!-- FormFieldWrapperComponent&#45;&gt;FormModule -->
<g id="edge4" class="edge">
<title>FormFieldWrapperComponent&#45;&gt;FormModule</title>
<path fill="none" stroke="black" d="M533.88,-187.11C533.88,-187.11 533.88,-205.99 533.88,-205.99"/>
<polygon fill="black" stroke="black" points="530.38,-205.99 533.88,-215.99 537.38,-205.99 530.38,-205.99"/>
</g>
<!-- FormFieldWrapperDirective -->
<g id="node3" class="node">
<title>FormFieldWrapperDirective</title>
<polygon fill="#ffffb3" stroke="black" points="354.16,-187 177.84,-187 177.84,-151 354.16,-151 354.16,-187"/>
<text text-anchor="middle" x="266" y="-164.8" font-family="Times,serif" font-size="14.00">FormFieldWrapperDirective</text>
</g>
<!-- FormFieldWrapperDirective&#45;&gt;FormModule -->
<g id="edge5" class="edge">
<title>FormFieldWrapperDirective&#45;&gt;FormModule</title>
<path fill="none" stroke="black" d="M266,-187.02C266,-204.37 266,-228 266,-228 266,-228 495.84,-228 495.84,-228"/>
<polygon fill="black" stroke="black" points="495.84,-231.5 505.84,-228 495.84,-224.5 495.84,-231.5"/>
</g>
<!-- TextFieldComponent -->
<g id="node4" class="node">
<title>TextFieldComponent</title>
<polygon fill="#ffffb3" stroke="black" points="159.77,-187 24.23,-187 24.23,-151 159.77,-151 159.77,-187"/>
<text text-anchor="middle" x="92" y="-164.8" font-family="Times,serif" font-size="14.00">TextFieldComponent</text>
</g>
<!-- TextFieldComponent&#45;&gt;FormModule -->
<g id="edge6" class="edge">
<title>TextFieldComponent&#45;&gt;FormModule</title>
<path fill="none" stroke="black" d="M92,-187.28C92,-208.32 92,-240 92,-240 92,-240 495.73,-240 495.73,-240"/>
<polygon fill="black" stroke="black" points="495.73,-243.5 505.73,-240 495.73,-236.5 495.73,-243.5"/>
</g>
<!-- FormComponent  -->
<g id="node9" class="node">
<title>FormComponent </title>
<polygon fill="#80b1d3" stroke="black" points="608.67,-317 493.33,-317 493.33,-281 608.67,-281 608.67,-317"/>
<text text-anchor="middle" x="551" y="-294.8" font-family="Times,serif" font-size="14.00">FormComponent </text>
</g>
<!-- FormModule&#45;&gt;FormComponent  -->
<g id="edge8" class="edge">
<title>FormModule&#45;&gt;FormComponent </title>
<path fill="none" stroke="black" stroke-dasharray="1,5" d="M551,-252.11C551,-252.11 551,-270.99 551,-270.99"/>
<polygon fill="black" stroke="black" points="547.5,-270.99 551,-280.99 554.5,-270.99 547.5,-270.99"/>
</g>
<!-- Location -->
<g id="node6" class="node">
<title>Location</title>
<ellipse fill="#fdb462" stroke="black" cx="794" cy="-104" rx="45.22" ry="18"/>
<text text-anchor="middle" x="794" y="-99.8" font-family="Times,serif" font-size="14.00">Location</text>
</g>
<!-- Location&#45;&gt;FormComponent -->
<g id="edge2" class="edge">
<title>Location&#45;&gt;FormComponent</title>
<path fill="none" stroke="black" d="M793.28,-122.04C793.28,-129.75 793.28,-137 793.28,-137 793.28,-137 654.61,-137 654.61,-137 654.61,-137 654.61,-140.76 654.61,-140.76"/>
<polygon fill="black" stroke="black" points="651.11,-140.76 654.61,-150.76 658.11,-140.76 651.11,-140.76"/>
</g>
<!-- { provide: LocationStrategy, useClass: PathLocationStrategy } -->
<g id="node7" class="node">
<title>{ provide: LocationStrategy, useClass: PathLocationStrategy }</title>
<ellipse fill="#fdb462" stroke="black" cx="477" cy="-104" rx="253.76" ry="18"/>
<text text-anchor="middle" x="477" y="-99.8" font-family="Times,serif" font-size="14.00">{ provide: LocationStrategy, useClass: PathLocationStrategy }</text>
</g>
<!-- { provide: LocationStrategy, useClass: PathLocationStrategy }&#45;&gt;FormComponent -->
<g id="edge3" class="edge">
<title>{ provide: LocationStrategy, useClass: PathLocationStrategy }&#45;&gt;FormComponent</title>
<path fill="none" stroke="black" d="M617.39,-119.08C617.39,-119.08 617.39,-140.76 617.39,-140.76"/>
<polygon fill="black" stroke="black" points="613.89,-140.76 617.39,-150.76 620.89,-140.76 613.89,-140.76"/>
</g>
<!-- RedboxPortalCoreModule -->
<g id="node8" class="node">
<title>RedboxPortalCoreModule</title>
<polygon fill="#8dd3c7" stroke="black" points="1025.75,-187 1022.75,-191 1001.75,-191 998.75,-187 862.25,-187 862.25,-151 1025.75,-151 1025.75,-187"/>
<text text-anchor="middle" x="944" y="-164.8" font-family="Times,serif" font-size="14.00">RedboxPortalCoreModule</text>
</g>
<!-- RedboxPortalCoreModule&#45;&gt;FormModule -->
<g id="edge7" class="edge">
<title>RedboxPortalCoreModule&#45;&gt;FormModule</title>
<path fill="none" stroke="black" d="M944,-187.28C944,-208.32 944,-240 944,-240 944,-240 606.08,-240 606.08,-240"/>
<polygon fill="black" stroke="black" points="606.08,-236.5 596.08,-240 606.08,-243.5 606.08,-236.5"/>
</g>
<!-- FormService -->
<g id="node10" class="node">
<title>FormService</title>
<ellipse fill="#fdb462" stroke="black" cx="777" cy="-169" rx="60.83" ry="18"/>
<text text-anchor="middle" x="777" y="-164.8" font-family="Times,serif" font-size="14.00">FormService</text>
</g>
<!-- FormService&#45;&gt;FormModule -->
<g id="edge9" class="edge">
<title>FormService&#45;&gt;FormModule</title>
<path fill="none" stroke="black" d="M777,-187.02C777,-204.37 777,-228 777,-228 777,-228 605.92,-228 605.92,-228"/>
<polygon fill="black" stroke="black" points="605.92,-224.5 595.92,-228 605.92,-231.5 605.92,-224.5"/>
</g>
</g>
</svg>
