<?xml version="1.0" encoding="UTF-8" standalone="no"?>
<!DOCTYPE svg PUBLIC "-//W3C//DTD SVG 1.1//EN"
 "http://www.w3.org/Graphics/SVG/1.1/DTD/svg11.dtd">
<!-- Generated by graphviz version 2.47.0 (20210316.0004)
 -->
<!-- Title: dependencies Pages: 1 -->
<svg width="1058pt" height="349pt"
 viewBox="0.00 0.00 1058.00 349.00" xmlns="http://www.w3.org/2000/svg" xmlns:xlink="http://www.w3.org/1999/xlink">
<g id="graph0" class="graph" transform="scale(1 1) rotate(0) translate(4 345)">
<title>dependencies</title>
<polygon fill="white" stroke="transparent" points="-4,4 -4,-345 1054,-345 1054,4 -4,4"/>
<text text-anchor="start" x="504.01" y="-42.4" font-family="Times-12" font-weight="bold" font-size="14.00">Legend</text>
<polygon fill="#ffffb3" stroke="transparent" points="291,-10 291,-30 311,-30 311,-10 291,-10"/>
<text text-anchor="start" x="314.63" y="-15.4" font-family="Times-12" font-size="14.00"> &#160;Declarations</text>
<polygon fill="#8dd3c7" stroke="transparent" points="404,-10 404,-30 424,-30 424,-10 404,-10"/>
<text text-anchor="start" x="427.73" y="-15.4" font-family="Times-12" font-size="14.00"> &#160;Module</text>
<polygon fill="#80b1d3" stroke="transparent" points="490,-10 490,-30 510,-30 510,-10 490,-10"/>
<text text-anchor="start" x="513.78" y="-15.4" font-family="Times-12" font-size="14.00"> &#160;Bootstrap</text>
<polygon fill="#fdb462" stroke="transparent" points="587,-10 587,-30 607,-30 607,-10 587,-10"/>
<text text-anchor="start" x="610.67" y="-15.4" font-family="Times-12" font-size="14.00"> &#160;Providers</text>
<polygon fill="#fb8072" stroke="transparent" points="683,-10 683,-30 703,-30 703,-10 683,-10"/>
<text text-anchor="start" x="706.73" y="-15.4" font-family="Times-12" font-size="14.00"> &#160;Exports</text>
<g id="clust1" class="cluster">
<title>cluster_FormModule</title>
<polygon fill="none" stroke="black" stroke-dasharray="1,5" points="8,-70 8,-333 1042,-333 1042,-70 8,-70"/>
</g>
<g id="clust2" class="cluster">
<title>cluster_FormModule_declarations</title>
<polygon fill="none" stroke="black" points="350,-143 350,-195 1034,-195 1034,-143 350,-143"/>
</g>
<g id="clust3" class="cluster">
<title>cluster_FormModule_FormComponent_providers</title>
<polygon fill="none" stroke="black" points="396,-78 396,-130 1028,-130 1028,-78 396,-78"/>
</g>
<g id="clust7" class="cluster">
<title>cluster_FormModule_imports</title>
<polygon fill="none" stroke="black" points="162,-143 162,-195 342,-195 342,-143 162,-143"/>
</g>
<g id="clust10" class="cluster">
<title>cluster_FormModule_providers</title>
<polygon fill="none" stroke="black" points="16,-143 16,-195 154,-195 154,-143 16,-143"/>
</g>
<g id="clust9" class="cluster">
<title>cluster_FormModule_bootstrap</title>
<polygon fill="none" stroke="black" points="447,-273 447,-325 579,-325 579,-273 447,-273"/>
</g>
<!-- FormComponent -->
<g id="node1" class="node">
<title>FormComponent</title>
<polygon fill="#ffffb3" stroke="black" points="1025.67,-187 914.33,-187 914.33,-151 1025.67,-151 1025.67,-187"/>
<text text-anchor="middle" x="970" y="-164.8" font-family="Times,serif" font-size="14.00">FormComponent</text>
</g>
<!-- FormModule -->
<g id="node5" class="node">
<title>FormModule</title>
<polygon fill="#8dd3c7" stroke="black" points="557.88,-252 554.88,-256 533.88,-256 530.88,-252 468.12,-252 468.12,-216 557.88,-216 557.88,-252"/>
<text text-anchor="middle" x="513" y="-229.8" font-family="Times,serif" font-size="14.00">FormModule</text>
</g>
<!-- FormComponent&#45;&gt;FormModule -->
<g id="edge1" class="edge">
<title>FormComponent&#45;&gt;FormModule</title>
<path fill="none" stroke="black" d="M970,-187.28C970,-208.32 970,-240 970,-240 970,-240 568.07,-240 568.07,-240"/>
<polygon fill="black" stroke="black" points="568.07,-236.5 558.07,-240 568.07,-243.5 568.07,-236.5"/>
</g>
<!-- FormFieldWrapperComponent -->
<g id="node2" class="node">
<title>FormFieldWrapperComponent</title>
<polygon fill="#ffffb3" stroke="black" points="895.91,-187 706.09,-187 706.09,-151 895.91,-151 895.91,-187"/>
<text text-anchor="middle" x="801" y="-164.8" font-family="Times,serif" font-size="14.00">FormFieldWrapperComponent</text>
</g>
<!-- FormFieldWrapperComponent&#45;&gt;FormModule -->
<g id="edge4" class="edge">
<title>FormFieldWrapperComponent&#45;&gt;FormModule</title>
<path fill="none" stroke="black" d="M801,-187.02C801,-204.37 801,-228 801,-228 801,-228 568,-228 568,-228"/>
<polygon fill="black" stroke="black" points="568,-224.5 558,-228 568,-231.5 568,-224.5"/>
</g>
<!-- FormFieldWrapperDirective -->
<g id="node3" class="node">
<title>FormFieldWrapperDirective</title>
<polygon fill="#ffffb3" stroke="black" points="688.16,-187 511.84,-187 511.84,-151 688.16,-151 688.16,-187"/>
<text text-anchor="middle" x="600" y="-164.8" font-family="Times,serif" font-size="14.00">FormFieldWrapperDirective</text>
</g>
<!-- FormFieldWrapperDirective&#45;&gt;FormModule -->
<g id="edge5" class="edge">
<title>FormFieldWrapperDirective&#45;&gt;FormModule</title>
<path fill="none" stroke="black" d="M534.93,-187.11C534.93,-187.11 534.93,-205.99 534.93,-205.99"/>
<polygon fill="black" stroke="black" points="531.43,-205.99 534.93,-215.99 538.43,-205.99 531.43,-205.99"/>
</g>
<!-- TextFieldComponent -->
<g id="node4" class="node">
<title>TextFieldComponent</title>
<polygon fill="#ffffb3" stroke="black" points="493.77,-187 358.23,-187 358.23,-151 493.77,-151 493.77,-187"/>
<text text-anchor="middle" x="426" y="-164.8" font-family="Times,serif" font-size="14.00">TextFieldComponent</text>
</g>
<!-- TextFieldComponent&#45;&gt;FormModule -->
<g id="edge6" class="edge">
<title>TextFieldComponent&#45;&gt;FormModule</title>
<path fill="none" stroke="black" d="M480.97,-187.11C480.97,-187.11 480.97,-205.99 480.97,-205.99"/>
<polygon fill="black" stroke="black" points="477.47,-205.99 480.97,-215.99 484.47,-205.99 477.47,-205.99"/>
</g>
<!-- FormComponent  -->
<g id="node9" class="node">
<title>FormComponent </title>
<polygon fill="#80b1d3" stroke="black" points="570.67,-317 455.33,-317 455.33,-281 570.67,-281 570.67,-317"/>
<text text-anchor="middle" x="513" y="-294.8" font-family="Times,serif" font-size="14.00">FormComponent </text>
</g>
<!-- FormModule&#45;&gt;FormComponent  -->
<g id="edge8" class="edge">
<title>FormModule&#45;&gt;FormComponent </title>
<path fill="none" stroke="black" stroke-dasharray="1,5" d="M513,-252.11C513,-252.11 513,-270.99 513,-270.99"/>
<polygon fill="black" stroke="black" points="509.5,-270.99 513,-280.99 516.5,-270.99 509.5,-270.99"/>
</g>
<!-- Location -->
<g id="node6" class="node">
<title>Location</title>
<ellipse fill="#fdb462" stroke="black" cx="975" cy="-104" rx="45.22" ry="18"/>
<text text-anchor="middle" x="975" y="-99.8" font-family="Times,serif" font-size="14.00">Location</text>
</g>
<!-- Location&#45;&gt;FormComponent -->
<g id="edge2" class="edge">
<title>Location&#45;&gt;FormComponent</title>
<path fill="none" stroke="black" d="M975,-122.11C975,-122.11 975,-140.99 975,-140.99"/>
<polygon fill="black" stroke="black" points="971.5,-140.99 975,-150.99 978.5,-140.99 971.5,-140.99"/>
</g>
<!-- { provide: LocationStrategy, useClass: PathLocationStrategy } -->
<g id="node7" class="node">
<title>{ provide: LocationStrategy, useClass: PathLocationStrategy }</title>
<ellipse fill="#fdb462" stroke="black" cx="658" cy="-104" rx="253.76" ry="18"/>
<text text-anchor="middle" x="658" y="-99.8" font-family="Times,serif" font-size="14.00">{ provide: LocationStrategy, useClass: PathLocationStrategy }</text>
</g>
<!-- { provide: LocationStrategy, useClass: PathLocationStrategy }&#45;&gt;FormComponent -->
<g id="edge3" class="edge">
<title>{ provide: LocationStrategy, useClass: PathLocationStrategy }&#45;&gt;FormComponent</title>
<path fill="none" stroke="black" d="M903.67,-108.67C903.67,-123.58 903.67,-169 903.67,-169 903.67,-169 904.73,-169 904.73,-169"/>
<polygon fill="black" stroke="black" points="904.32,-172.5 914.32,-169 904.32,-165.5 904.32,-172.5"/>
</g>
<!-- RedboxPortalCoreModule -->
<g id="node8" class="node">
<title>RedboxPortalCoreModule</title>
<polygon fill="#8dd3c7" stroke="black" points="333.75,-187 330.75,-191 309.75,-191 306.75,-187 170.25,-187 170.25,-151 333.75,-151 333.75,-187"/>
<text text-anchor="middle" x="252" y="-164.8" font-family="Times,serif" font-size="14.00">RedboxPortalCoreModule</text>
</g>
<!-- RedboxPortalCoreModule&#45;&gt;FormModule -->
<g id="edge7" class="edge">
<title>RedboxPortalCoreModule&#45;&gt;FormModule</title>
<path fill="none" stroke="black" d="M252,-187.02C252,-204.37 252,-228 252,-228 252,-228 457.84,-228 457.84,-228"/>
<polygon fill="black" stroke="black" points="457.84,-231.5 467.84,-228 457.84,-224.5 457.84,-231.5"/>
</g>
<!-- FormService -->
<g id="node10" class="node">
<title>FormService</title>
<ellipse fill="#fdb462" stroke="black" cx="85" cy="-169" rx="60.83" ry="18"/>
<text text-anchor="middle" x="85" y="-164.8" font-family="Times,serif" font-size="14.00">FormService</text>
</g>
<!-- FormService&#45;&gt;FormModule -->
<g id="edge9" class="edge">
<title>FormService&#45;&gt;FormModule</title>
<path fill="none" stroke="black" d="M85,-187.28C85,-208.32 85,-240 85,-240 85,-240 458.01,-240 458.01,-240"/>
<polygon fill="black" stroke="black" points="458.01,-243.5 468.01,-240 458.01,-236.5 458.01,-243.5"/>
</g>
</g>
</svg>
