<?xml version="1.0" encoding="UTF-8" standalone="no"?>
<!DOCTYPE svg PUBLIC "-//W3C//DTD SVG 1.1//EN"
 "http://www.w3.org/Graphics/SVG/1.1/DTD/svg11.dtd">
<!-- Generated by graphviz version 2.47.0 (20210316.0004)
 -->
<!-- Title: dependencies Pages: 1 -->
<svg width="1568pt" height="349pt"
 viewBox="0.00 0.00 1568.00 349.00" xmlns="http://www.w3.org/2000/svg" xmlns:xlink="http://www.w3.org/1999/xlink">
<g id="graph0" class="graph" transform="scale(1 1) rotate(0) translate(4 345)">
<title>dependencies</title>
<polygon fill="white" stroke="transparent" points="-4,4 -4,-345 1564,-345 1564,4 -4,4"/>
<text text-anchor="start" x="759.01" y="-42.4" font-family="Times-12" font-weight="bold" font-size="14.00">Legend</text>
<polygon fill="#ffffb3" stroke="transparent" points="546,-10 546,-30 566,-30 566,-10 546,-10"/>
<text text-anchor="start" x="569.63" y="-15.4" font-family="Times-12" font-size="14.00"> &#160;Declarations</text>
<polygon fill="#8dd3c7" stroke="transparent" points="659,-10 659,-30 679,-30 679,-10 659,-10"/>
<text text-anchor="start" x="682.73" y="-15.4" font-family="Times-12" font-size="14.00"> &#160;Module</text>
<polygon fill="#80b1d3" stroke="transparent" points="745,-10 745,-30 765,-30 765,-10 745,-10"/>
<text text-anchor="start" x="768.78" y="-15.4" font-family="Times-12" font-size="14.00"> &#160;Bootstrap</text>
<polygon fill="#fdb462" stroke="transparent" points="842,-10 842,-30 862,-30 862,-10 842,-10"/>
<text text-anchor="start" x="865.67" y="-15.4" font-family="Times-12" font-size="14.00"> &#160;Providers</text>
<polygon fill="#fb8072" stroke="transparent" points="938,-10 938,-30 958,-30 958,-10 938,-10"/>
<text text-anchor="start" x="961.73" y="-15.4" font-family="Times-12" font-size="14.00"> &#160;Exports</text>
<g id="clust1" class="cluster">
<title>cluster_FormModule</title>
<polygon fill="none" stroke="black" stroke-dasharray="1,5" points="8,-70 8,-333 1552,-333 1552,-70 8,-70"/>
</g>
<g id="clust3" class="cluster">
<title>cluster_FormModule_FormComponent_providers</title>
<polygon fill="none" stroke="black" points="912,-78 912,-195 1544,-195 1544,-78 912,-78"/>
</g>
<g id="clust10" class="cluster">
<title>cluster_FormModule_providers</title>
<polygon fill="none" stroke="black" points="766,-143 766,-195 904,-195 904,-143 766,-143"/>
</g>
<g id="clust7" class="cluster">
<title>cluster_FormModule_imports</title>
<polygon fill="none" stroke="black" points="578,-143 578,-195 758,-195 758,-143 578,-143"/>
</g>
<g id="clust9" class="cluster">
<title>cluster_FormModule_bootstrap</title>
<polygon fill="none" stroke="black" points="501,-273 501,-325 633,-325 633,-273 501,-273"/>
</g>
<g id="clust2" class="cluster">
<title>cluster_FormModule_declarations</title>
<polygon fill="none" stroke="black" points="16,-143 16,-195 570,-195 570,-143 16,-143"/>
</g>
<!-- FormComponent -->
<g id="node1" class="node">
<title>FormComponent</title>
<polygon fill="#ffffb3" stroke="black" points="1229.67,-187 1118.33,-187 1118.33,-151 1229.67,-151 1229.67,-187"/>
<text text-anchor="middle" x="1174" y="-164.8" font-family="Times,serif" font-size="14.00">FormComponent</text>
</g>
<!-- FormModule -->
<g id="node5" class="node">
<title>FormModule</title>
<polygon fill="#8dd3c7" stroke="black" points="611.88,-252 608.88,-256 587.88,-256 584.88,-252 522.12,-252 522.12,-216 611.88,-216 611.88,-252"/>
<text text-anchor="middle" x="567" y="-229.8" font-family="Times,serif" font-size="14.00">FormModule</text>
</g>
<!-- FormComponent&#45;&gt;FormModule -->
<g id="edge1" class="edge">
<title>FormComponent&#45;&gt;FormModule</title>
<path fill="none" stroke="black" d="M1174,-187.28C1174,-208.32 1174,-240 1174,-240 1174,-240 622.13,-240 622.13,-240"/>
<polygon fill="black" stroke="black" points="622.13,-236.5 612.13,-240 622.13,-243.5 622.13,-236.5"/>
</g>
<!-- FormFieldWrapperComponent -->
<g id="node2" class="node">
<title>FormFieldWrapperComponent</title>
<polygon fill="#ffffb3" stroke="black" points="561.91,-187 372.09,-187 372.09,-151 561.91,-151 561.91,-187"/>
<text text-anchor="middle" x="467" y="-164.8" font-family="Times,serif" font-size="14.00">FormFieldWrapperComponent</text>
</g>
<!-- FormFieldWrapperComponent&#45;&gt;FormModule -->
<g id="edge4" class="edge">
<title>FormFieldWrapperComponent&#45;&gt;FormModule</title>
<path fill="none" stroke="black" d="M541.88,-187.11C541.88,-187.11 541.88,-205.99 541.88,-205.99"/>
<polygon fill="black" stroke="black" points="538.38,-205.99 541.88,-215.99 545.38,-205.99 538.38,-205.99"/>
</g>
<!-- FormFieldWrapperDirective -->
<g id="node3" class="node">
<title>FormFieldWrapperDirective</title>
<polygon fill="#ffffb3" stroke="black" points="354.16,-187 177.84,-187 177.84,-151 354.16,-151 354.16,-187"/>
<text text-anchor="middle" x="266" y="-164.8" font-family="Times,serif" font-size="14.00">FormFieldWrapperDirective</text>
</g>
<!-- FormFieldWrapperDirective&#45;&gt;FormModule -->
<g id="edge5" class="edge">
<title>FormFieldWrapperDirective&#45;&gt;FormModule</title>
<path fill="none" stroke="black" d="M266,-187.02C266,-204.37 266,-228 266,-228 266,-228 511.94,-228 511.94,-228"/>
<polygon fill="black" stroke="black" points="511.94,-231.5 521.94,-228 511.94,-224.5 511.94,-231.5"/>
</g>
<!-- TextFieldComponent -->
<g id="node4" class="node">
<title>TextFieldComponent</title>
<polygon fill="#ffffb3" stroke="black" points="159.77,-187 24.23,-187 24.23,-151 159.77,-151 159.77,-187"/>
<text text-anchor="middle" x="92" y="-164.8" font-family="Times,serif" font-size="14.00">TextFieldComponent</text>
</g>
<!-- TextFieldComponent&#45;&gt;FormModule -->
<g id="edge6" class="edge">
<title>TextFieldComponent&#45;&gt;FormModule</title>
<path fill="none" stroke="black" d="M92,-187.28C92,-208.32 92,-240 92,-240 92,-240 511.88,-240 511.88,-240"/>
<polygon fill="black" stroke="black" points="511.88,-243.5 521.88,-240 511.88,-236.5 511.88,-243.5"/>
</g>
<!-- FormComponent  -->
<g id="node9" class="node">
<title>FormComponent </title>
<polygon fill="#80b1d3" stroke="black" points="624.67,-317 509.33,-317 509.33,-281 624.67,-281 624.67,-317"/>
<text text-anchor="middle" x="567" y="-294.8" font-family="Times,serif" font-size="14.00">FormComponent </text>
</g>
<!-- FormModule&#45;&gt;FormComponent  -->
<g id="edge8" class="edge">
<title>FormModule&#45;&gt;FormComponent </title>
<path fill="none" stroke="black" stroke-dasharray="1,5" d="M567,-252.11C567,-252.11 567,-270.99 567,-270.99"/>
<polygon fill="black" stroke="black" points="563.5,-270.99 567,-280.99 570.5,-270.99 563.5,-270.99"/>
</g>
<!-- Location -->
<g id="node6" class="node">
<title>Location</title>
<ellipse fill="#fdb462" stroke="black" cx="1491" cy="-104" rx="45.22" ry="18"/>
<text text-anchor="middle" x="1491" y="-99.8" font-family="Times,serif" font-size="14.00">Location</text>
</g>
<!-- Location&#45;&gt;FormComponent -->
<g id="edge2" class="edge">
<title>Location&#45;&gt;FormComponent</title>
<path fill="none" stroke="black" d="M1491,-122.11C1491,-141.34 1491,-169 1491,-169 1491,-169 1239.94,-169 1239.94,-169"/>
<polygon fill="black" stroke="black" points="1239.94,-165.5 1229.94,-169 1239.94,-172.5 1239.94,-165.5"/>
</g>
<!-- { provide: LocationStrategy, useClass: PathLocationStrategy } -->
<g id="node7" class="node">
<title>{ provide: LocationStrategy, useClass: PathLocationStrategy }</title>
<ellipse fill="#fdb462" stroke="black" cx="1174" cy="-104" rx="253.76" ry="18"/>
<text text-anchor="middle" x="1174" y="-99.8" font-family="Times,serif" font-size="14.00">{ provide: LocationStrategy, useClass: PathLocationStrategy }</text>
</g>
<!-- { provide: LocationStrategy, useClass: PathLocationStrategy }&#45;&gt;FormComponent -->
<g id="edge3" class="edge">
<title>{ provide: LocationStrategy, useClass: PathLocationStrategy }&#45;&gt;FormComponent</title>
<path fill="none" stroke="black" d="M1174,-122.11C1174,-122.11 1174,-140.99 1174,-140.99"/>
<polygon fill="black" stroke="black" points="1170.5,-140.99 1174,-150.99 1177.5,-140.99 1170.5,-140.99"/>
</g>
<!-- RedboxPortalCoreModule -->
<g id="node8" class="node">
<title>RedboxPortalCoreModule</title>
<polygon fill="#8dd3c7" stroke="black" points="749.75,-187 746.75,-191 725.75,-191 722.75,-187 586.25,-187 586.25,-151 749.75,-151 749.75,-187"/>
<text text-anchor="middle" x="668" y="-164.8" font-family="Times,serif" font-size="14.00">RedboxPortalCoreModule</text>
</g>
<!-- RedboxPortalCoreModule&#45;&gt;FormModule -->
<g id="edge7" class="edge">
<title>RedboxPortalCoreModule&#45;&gt;FormModule</title>
<path fill="none" stroke="black" d="M599.03,-187.11C599.03,-187.11 599.03,-205.99 599.03,-205.99"/>
<polygon fill="black" stroke="black" points="595.53,-205.99 599.03,-215.99 602.53,-205.99 595.53,-205.99"/>
</g>
<!-- FormService -->
<g id="node10" class="node">
<title>FormService</title>
<ellipse fill="#fdb462" stroke="black" cx="835" cy="-169" rx="60.83" ry="18"/>
<text text-anchor="middle" x="835" y="-164.8" font-family="Times,serif" font-size="14.00">FormService</text>
</g>
<!-- FormService&#45;&gt;FormModule -->
<g id="edge9" class="edge">
<title>FormService&#45;&gt;FormModule</title>
<path fill="none" stroke="black" d="M835,-187.02C835,-204.37 835,-228 835,-228 835,-228 622.16,-228 622.16,-228"/>
<polygon fill="black" stroke="black" points="622.16,-224.5 612.16,-228 622.16,-231.5 622.16,-224.5"/>
</g>
</g>
</svg>
