<?xml version="1.0" encoding="UTF-8" standalone="no"?>
<!DOCTYPE svg PUBLIC "-//W3C//DTD SVG 1.1//EN"
 "http://www.w3.org/Graphics/SVG/1.1/DTD/svg11.dtd">
<!-- Generated by graphviz version 2.47.0 (20210316.0004)
 -->
<!-- Title: dependencies Pages: 1 -->
<svg width="1568pt" height="349pt"
 viewBox="0.00 0.00 1568.00 349.00" xmlns="http://www.w3.org/2000/svg" xmlns:xlink="http://www.w3.org/1999/xlink">
<g id="graph0" class="graph" transform="scale(1 1) rotate(0) translate(4 345)">
<title>dependencies</title>
<polygon fill="white" stroke="transparent" points="-4,4 -4,-345 1564,-345 1564,4 -4,4"/>
<text text-anchor="start" x="759.01" y="-42.4" font-family="Times-12" font-weight="bold" font-size="14.00">Legend</text>
<polygon fill="#ffffb3" stroke="transparent" points="546,-10 546,-30 566,-30 566,-10 546,-10"/>
<text text-anchor="start" x="569.63" y="-15.4" font-family="Times-12" font-size="14.00"> &#160;Declarations</text>
<polygon fill="#8dd3c7" stroke="transparent" points="659,-10 659,-30 679,-30 679,-10 659,-10"/>
<text text-anchor="start" x="682.73" y="-15.4" font-family="Times-12" font-size="14.00"> &#160;Module</text>
<polygon fill="#80b1d3" stroke="transparent" points="745,-10 745,-30 765,-30 765,-10 745,-10"/>
<text text-anchor="start" x="768.78" y="-15.4" font-family="Times-12" font-size="14.00"> &#160;Bootstrap</text>
<polygon fill="#fdb462" stroke="transparent" points="842,-10 842,-30 862,-30 862,-10 842,-10"/>
<text text-anchor="start" x="865.67" y="-15.4" font-family="Times-12" font-size="14.00"> &#160;Providers</text>
<polygon fill="#fb8072" stroke="transparent" points="938,-10 938,-30 958,-30 958,-10 938,-10"/>
<text text-anchor="start" x="961.73" y="-15.4" font-family="Times-12" font-size="14.00"> &#160;Exports</text>
<g id="clust1" class="cluster">
<title>cluster_FormModule</title>
<polygon fill="none" stroke="black" stroke-dasharray="1,5" points="8,-70 8,-333 1552,-333 1552,-70 8,-70"/>
</g>
<g id="clust10" class="cluster">
<title>cluster_FormModule_providers</title>
<polygon fill="none" stroke="black" points="1406,-143 1406,-195 1544,-195 1544,-143 1406,-143"/>
</g>
<g id="clust9" class="cluster">
<title>cluster_FormModule_bootstrap</title>
<polygon fill="none" stroke="black" points="488,-273 488,-325 620,-325 620,-273 488,-273"/>
</g>
<g id="clust3" class="cluster">
<title>cluster_FormModule_FormComponent_providers</title>
<polygon fill="none" stroke="black" points="766,-78 766,-195 1398,-195 1398,-78 766,-78"/>
</g>
<g id="clust2" class="cluster">
<title>cluster_FormModule_declarations</title>
<polygon fill="none" stroke="black" points="204,-143 204,-195 758,-195 758,-143 204,-143"/>
</g>
<g id="clust7" class="cluster">
<title>cluster_FormModule_imports</title>
<polygon fill="none" stroke="black" points="16,-143 16,-195 196,-195 196,-143 16,-143"/>
</g>
<!-- FormComponent -->
<g id="node1" class="node">
<title>FormComponent</title>
<polygon fill="#ffffb3" stroke="black" points="1083.67,-187 972.33,-187 972.33,-151 1083.67,-151 1083.67,-187"/>
<text text-anchor="middle" x="1028" y="-164.8" font-family="Times,serif" font-size="14.00">FormComponent</text>
</g>
<!-- FormModule -->
<g id="node5" class="node">
<title>FormModule</title>
<polygon fill="#8dd3c7" stroke="black" points="598.88,-252 595.88,-256 574.88,-256 571.88,-252 509.12,-252 509.12,-216 598.88,-216 598.88,-252"/>
<text text-anchor="middle" x="554" y="-229.8" font-family="Times,serif" font-size="14.00">FormModule</text>
</g>
<!-- FormComponent&#45;&gt;FormModule -->
<g id="edge1" class="edge">
<title>FormComponent&#45;&gt;FormModule</title>
<path fill="none" stroke="black" d="M1028,-187.02C1028,-204.37 1028,-228 1028,-228 1028,-228 609.02,-228 609.02,-228"/>
<polygon fill="black" stroke="black" points="609.02,-224.5 599.02,-228 609.02,-231.5 609.02,-224.5"/>
</g>
<!-- FormFieldWrapperComponent -->
<g id="node2" class="node">
<title>FormFieldWrapperComponent</title>
<polygon fill="#ffffb3" stroke="black" points="749.91,-187 560.09,-187 560.09,-151 749.91,-151 749.91,-187"/>
<text text-anchor="middle" x="655" y="-164.8" font-family="Times,serif" font-size="14.00">FormFieldWrapperComponent</text>
</g>
<!-- FormFieldWrapperComponent&#45;&gt;FormModule -->
<g id="edge4" class="edge">
<title>FormFieldWrapperComponent&#45;&gt;FormModule</title>
<path fill="none" stroke="black" d="M579.62,-187.11C579.62,-187.11 579.62,-205.99 579.62,-205.99"/>
<polygon fill="black" stroke="black" points="576.12,-205.99 579.62,-215.99 583.12,-205.99 576.12,-205.99"/>
</g>
<!-- FormFieldWrapperDirective -->
<g id="node3" class="node">
<title>FormFieldWrapperDirective</title>
<polygon fill="#ffffb3" stroke="black" points="542.16,-187 365.84,-187 365.84,-151 542.16,-151 542.16,-187"/>
<text text-anchor="middle" x="454" y="-164.8" font-family="Times,serif" font-size="14.00">FormFieldWrapperDirective</text>
</g>
<!-- FormFieldWrapperDirective&#45;&gt;FormModule -->
<g id="edge5" class="edge">
<title>FormFieldWrapperDirective&#45;&gt;FormModule</title>
<path fill="none" stroke="black" d="M525.57,-187.11C525.57,-187.11 525.57,-205.99 525.57,-205.99"/>
<polygon fill="black" stroke="black" points="522.07,-205.99 525.57,-215.99 529.07,-205.99 522.07,-205.99"/>
</g>
<!-- TextFieldComponent -->
<g id="node4" class="node">
<title>TextFieldComponent</title>
<polygon fill="#ffffb3" stroke="black" points="347.77,-187 212.23,-187 212.23,-151 347.77,-151 347.77,-187"/>
<text text-anchor="middle" x="280" y="-164.8" font-family="Times,serif" font-size="14.00">TextFieldComponent</text>
</g>
<!-- TextFieldComponent&#45;&gt;FormModule -->
<g id="edge6" class="edge">
<title>TextFieldComponent&#45;&gt;FormModule</title>
<path fill="none" stroke="black" d="M280,-187.02C280,-204.37 280,-228 280,-228 280,-228 499.06,-228 499.06,-228"/>
<polygon fill="black" stroke="black" points="499.06,-231.5 509.06,-228 499.06,-224.5 499.06,-231.5"/>
</g>
<!-- FormComponent  -->
<g id="node9" class="node">
<title>FormComponent </title>
<polygon fill="#80b1d3" stroke="black" points="611.67,-317 496.33,-317 496.33,-281 611.67,-281 611.67,-317"/>
<text text-anchor="middle" x="554" y="-294.8" font-family="Times,serif" font-size="14.00">FormComponent </text>
</g>
<!-- FormModule&#45;&gt;FormComponent  -->
<g id="edge8" class="edge">
<title>FormModule&#45;&gt;FormComponent </title>
<path fill="none" stroke="black" stroke-dasharray="1,5" d="M554,-252.11C554,-252.11 554,-270.99 554,-270.99"/>
<polygon fill="black" stroke="black" points="550.5,-270.99 554,-280.99 557.5,-270.99 550.5,-270.99"/>
</g>
<!-- Location -->
<g id="node6" class="node">
<title>Location</title>
<ellipse fill="#fdb462" stroke="black" cx="1345" cy="-104" rx="45.22" ry="18"/>
<text text-anchor="middle" x="1345" y="-99.8" font-family="Times,serif" font-size="14.00">Location</text>
</g>
<!-- Location&#45;&gt;FormComponent -->
<g id="edge2" class="edge">
<title>Location&#45;&gt;FormComponent</title>
<path fill="none" stroke="black" d="M1345,-122.11C1345,-141.34 1345,-169 1345,-169 1345,-169 1093.94,-169 1093.94,-169"/>
<polygon fill="black" stroke="black" points="1093.94,-165.5 1083.94,-169 1093.94,-172.5 1093.94,-165.5"/>
</g>
<!-- { provide: LocationStrategy, useClass: PathLocationStrategy } -->
<g id="node7" class="node">
<title>{ provide: LocationStrategy, useClass: PathLocationStrategy }</title>
<ellipse fill="#fdb462" stroke="black" cx="1028" cy="-104" rx="253.76" ry="18"/>
<text text-anchor="middle" x="1028" y="-99.8" font-family="Times,serif" font-size="14.00">{ provide: LocationStrategy, useClass: PathLocationStrategy }</text>
</g>
<!-- { provide: LocationStrategy, useClass: PathLocationStrategy }&#45;&gt;FormComponent -->
<g id="edge3" class="edge">
<title>{ provide: LocationStrategy, useClass: PathLocationStrategy }&#45;&gt;FormComponent</title>
<path fill="none" stroke="black" d="M1028,-122.11C1028,-122.11 1028,-140.99 1028,-140.99"/>
<polygon fill="black" stroke="black" points="1024.5,-140.99 1028,-150.99 1031.5,-140.99 1024.5,-140.99"/>
</g>
<!-- RedboxPortalCoreModule -->
<g id="node8" class="node">
<title>RedboxPortalCoreModule</title>
<polygon fill="#8dd3c7" stroke="black" points="187.75,-187 184.75,-191 163.75,-191 160.75,-187 24.25,-187 24.25,-151 187.75,-151 187.75,-187"/>
<text text-anchor="middle" x="106" y="-164.8" font-family="Times,serif" font-size="14.00">RedboxPortalCoreModule</text>
</g>
<!-- RedboxPortalCoreModule&#45;&gt;FormModule -->
<g id="edge7" class="edge">
<title>RedboxPortalCoreModule&#45;&gt;FormModule</title>
<path fill="none" stroke="black" d="M106,-187.28C106,-208.32 106,-240 106,-240 106,-240 498.99,-240 498.99,-240"/>
<polygon fill="black" stroke="black" points="498.99,-243.5 508.99,-240 498.99,-236.5 498.99,-243.5"/>
</g>
<!-- FormService -->
<g id="node10" class="node">
<title>FormService</title>
<ellipse fill="#fdb462" stroke="black" cx="1475" cy="-169" rx="60.83" ry="18"/>
<text text-anchor="middle" x="1475" y="-164.8" font-family="Times,serif" font-size="14.00">FormService</text>
</g>
<!-- FormService&#45;&gt;FormModule -->
<g id="edge9" class="edge">
<title>FormService&#45;&gt;FormModule</title>
<path fill="none" stroke="black" d="M1475,-187.28C1475,-208.32 1475,-240 1475,-240 1475,-240 609.05,-240 609.05,-240"/>
<polygon fill="black" stroke="black" points="609.05,-236.5 599.05,-240 609.05,-243.5 609.05,-236.5"/>
</g>
</g>
</svg>
