<?xml version="1.0" encoding="UTF-8" standalone="no"?>
<!DOCTYPE svg PUBLIC "-//W3C//DTD SVG 1.1//EN"
 "http://www.w3.org/Graphics/SVG/1.1/DTD/svg11.dtd">
<!-- Generated by graphviz version 2.47.0 (20210316.0004)
 -->
<!-- Title: dependencies Pages: 1 -->
<svg width="504pt" height="284pt"
 viewBox="0.00 0.00 504.00 284.00" xmlns="http://www.w3.org/2000/svg" xmlns:xlink="http://www.w3.org/1999/xlink">
<g id="graph0" class="graph" transform="scale(1 1) rotate(0) translate(4 280)">
<title>dependencies</title>
<polygon fill="white" stroke="transparent" points="-4,4 -4,-280 500,-280 500,4 -4,4"/>
<text text-anchor="start" x="227.01" y="-42.4" font-family="Times-12" font-weight="bold" font-size="14.00">Legend</text>
<polygon fill="#ffffb3" stroke="transparent" points="14,-10 14,-30 34,-30 34,-10 14,-10"/>
<text text-anchor="start" x="37.63" y="-15.4" font-family="Times-12" font-size="14.00"> &#160;Declarations</text>
<polygon fill="#8dd3c7" stroke="transparent" points="127,-10 127,-30 147,-30 147,-10 127,-10"/>
<text text-anchor="start" x="150.73" y="-15.4" font-family="Times-12" font-size="14.00"> &#160;Module</text>
<polygon fill="#80b1d3" stroke="transparent" points="213,-10 213,-30 233,-30 233,-10 213,-10"/>
<text text-anchor="start" x="236.78" y="-15.4" font-family="Times-12" font-size="14.00"> &#160;Bootstrap</text>
<polygon fill="#fdb462" stroke="transparent" points="310,-10 310,-30 330,-30 330,-10 310,-10"/>
<text text-anchor="start" x="333.67" y="-15.4" font-family="Times-12" font-size="14.00"> &#160;Providers</text>
<polygon fill="#fb8072" stroke="transparent" points="406,-10 406,-30 426,-30 426,-10 406,-10"/>
<text text-anchor="start" x="429.73" y="-15.4" font-family="Times-12" font-size="14.00"> &#160;Exports</text>
<g id="clust1" class="cluster">
<title>cluster_ExportModule</title>
<polygon fill="none" stroke="black" stroke-dasharray="1,5" points="78,-70 78,-268 418,-268 418,-70 78,-70"/>
</g>
<g id="clust6" class="cluster">
<title>cluster_ExportModule_bootstrap</title>
<polygon fill="none" stroke="black" points="189,-208 189,-260 327,-260 327,-208 189,-208"/>
</g>
<g id="clust2" class="cluster">
<title>cluster_ExportModule_declarations</title>
<polygon fill="none" stroke="black" points="274,-78 274,-130 410,-130 410,-78 274,-78"/>
</g>
<g id="clust4" class="cluster">
<title>cluster_ExportModule_imports</title>
<polygon fill="none" stroke="black" points="86,-78 86,-130 266,-130 266,-78 86,-78"/>
</g>
<!-- ExportComponent -->
<g id="node1" class="node">
<title>ExportComponent</title>
<polygon fill="#ffffb3" stroke="black" points="401.94,-122 282.06,-122 282.06,-86 401.94,-86 401.94,-122"/>
<text text-anchor="middle" x="342" y="-99.8" font-family="Times,serif" font-size="14.00">ExportComponent</text>
</g>
<!-- ExportModule -->
<g id="node2" class="node">
<title>ExportModule</title>
<polygon fill="#8dd3c7" stroke="black" points="306.65,-187 303.65,-191 282.65,-191 279.65,-187 209.35,-187 209.35,-151 306.65,-151 306.65,-187"/>
<text text-anchor="middle" x="258" y="-164.8" font-family="Times,serif" font-size="14.00">ExportModule</text>
</g>
<!-- ExportComponent&#45;&gt;ExportModule -->
<g id="edge1" class="edge">
<title>ExportComponent&#45;&gt;ExportModule</title>
<path fill="none" stroke="black" d="M294.55,-122.11C294.55,-122.11 294.55,-140.99 294.55,-140.99"/>
<polygon fill="black" stroke="black" points="291.05,-140.99 294.55,-150.99 298.05,-140.99 291.05,-140.99"/>
</g>
<!-- ExportComponent  -->
<g id="node4" class="node">
<title>ExportComponent </title>
<polygon fill="#80b1d3" stroke="black" points="319.44,-252 196.56,-252 196.56,-216 319.44,-216 319.44,-252"/>
<text text-anchor="middle" x="258" y="-229.8" font-family="Times,serif" font-size="14.00">ExportComponent </text>
</g>
<!-- ExportModule&#45;&gt;ExportComponent  -->
<g id="edge3" class="edge">
<title>ExportModule&#45;&gt;ExportComponent </title>
<path fill="none" stroke="black" stroke-dasharray="1,5" d="M258,-187.11C258,-187.11 258,-205.99 258,-205.99"/>
<polygon fill="black" stroke="black" points="254.5,-205.99 258,-215.99 261.5,-205.99 254.5,-205.99"/>
</g>
<!-- RedboxPortalCoreModule -->
<g id="node3" class="node">
<title>RedboxPortalCoreModule</title>
<polygon fill="#8dd3c7" stroke="black" points="257.75,-122 254.75,-126 233.75,-126 230.75,-122 94.25,-122 94.25,-86 257.75,-86 257.75,-122"/>
<text text-anchor="middle" x="176" y="-99.8" font-family="Times,serif" font-size="14.00">RedboxPortalCoreModule</text>
</g>
<!-- RedboxPortalCoreModule&#45;&gt;ExportModule -->
<g id="edge2" class="edge">
<title>RedboxPortalCoreModule&#45;&gt;ExportModule</title>
<path fill="none" stroke="black" d="M233.52,-122.11C233.52,-122.11 233.52,-140.99 233.52,-140.99"/>
<polygon fill="black" stroke="black" points="230.02,-140.99 233.52,-150.99 237.02,-140.99 230.02,-140.99"/>
</g>
</g>
</svg>
