<?xml version="1.0" encoding="UTF-8" standalone="no"?>
<!DOCTYPE svg PUBLIC "-//W3C//DTD SVG 1.1//EN"
 "http://www.w3.org/Graphics/SVG/1.1/DTD/svg11.dtd">
<!-- Generated by graphviz version 5.0.0 (20220707.1540)
 -->
<!-- Title: dependencies Pages: 1 -->
<svg width="672pt" height="312pt"
 viewBox="0.00 0.00 672.00 311.80" xmlns="http://www.w3.org/2000/svg" xmlns:xlink="http://www.w3.org/1999/xlink">
<g id="graph0" class="graph" transform="scale(1 1) rotate(0) translate(4 307.8)">
<title>dependencies</title>
<polygon fill="white" stroke="transparent" points="-4,4 -4,-307.8 668,-307.8 668,4 -4,4"/>
<text text-anchor="middle" x="332" y="-8.2" font-family="sans-serif" font-size="14.00">dependencies</text>
<g id="clust1" class="cluster">
<title>cluster_ExportModule</title>
<polygon fill="none" stroke="black" stroke-dasharray="1,5" points="8,-32.8 8,-295.8 656,-295.8 656,-32.8 8,-32.8"/>
</g>
<g id="clust2" class="cluster">
<title>cluster_ExportModule_declarations</title>
<polygon fill="none" stroke="black" points="338,-105.8 338,-157.8 504,-157.8 504,-105.8 338,-105.8"/>
</g>
<g id="clust3" class="cluster">
<title>cluster_ExportModule_ExportFormComponent_providers</title>
<polygon fill="none" stroke="black" points="16,-40.8 16,-92.8 648,-92.8 648,-40.8 16,-40.8"/>
</g>
<g id="clust6" class="cluster">
<title>cluster_ExportModule_bootstrap</title>
<polygon fill="none" stroke="black" points="262,-235.8 262,-287.8 432,-287.8 432,-235.8 262,-235.8"/>
</g>
<g id="clust4" class="cluster">
<title>cluster_ExportModule_imports</title>
<polygon fill="none" stroke="black" points="216,-105.8 216,-157.8 330,-157.8 330,-105.8 216,-105.8"/>
</g>
<!-- ExportFormComponent -->
<g id="node1" class="node">
<title>ExportFormComponent</title>
<polygon fill="#ffffb3" stroke="black" points="495.77,-149.8 346.23,-149.8 346.23,-113.8 495.77,-113.8 495.77,-149.8"/>
<text text-anchor="middle" x="421" y="-127.6" font-family="Times,serif" font-size="14.00">ExportFormComponent</text>
</g>
<!-- ExportModule -->
<g id="node2" class="node">
<title>ExportModule</title>
<polygon fill="#8dd3c7" stroke="black" points="395.66,-214.8 392.66,-218.8 371.66,-218.8 368.66,-214.8 298.34,-214.8 298.34,-178.8 395.66,-178.8 395.66,-214.8"/>
<text text-anchor="middle" x="347" y="-192.6" font-family="Times,serif" font-size="14.00">ExportModule</text>
</g>
<!-- ExportFormComponent&#45;&gt;ExportModule -->
<g id="edge1" class="edge">
<title>ExportFormComponent&#45;&gt;ExportModule</title>
<path fill="none" stroke="black" d="M370.97,-149.91C370.97,-149.91 370.97,-168.79 370.97,-168.79"/>
<polygon fill="black" stroke="black" points="367.47,-168.79 370.97,-178.79 374.47,-168.79 367.47,-168.79"/>
</g>
<!-- ExportFormComponent  -->
<g id="node6" class="node">
<title>ExportFormComponent </title>
<polygon fill="#80b1d3" stroke="black" points="423.77,-279.8 270.23,-279.8 270.23,-243.8 423.77,-243.8 423.77,-279.8"/>
<text text-anchor="middle" x="347" y="-257.6" font-family="Times,serif" font-size="14.00">ExportFormComponent </text>
</g>
<!-- ExportModule&#45;&gt;ExportFormComponent  -->
<g id="edge5" class="edge">
<title>ExportModule&#45;&gt;ExportFormComponent </title>
<path fill="none" stroke="black" stroke-dasharray="1,5" d="M347,-214.91C347,-214.91 347,-233.79 347,-233.79"/>
<polygon fill="black" stroke="black" points="343.5,-233.79 347,-243.79 350.5,-233.79 343.5,-233.79"/>
</g>
<!-- Location -->
<g id="node3" class="node">
<title>Location</title>
<ellipse fill="#fdb462" stroke="black" cx="595" cy="-66.8" rx="45.22" ry="18"/>
<text text-anchor="middle" x="595" y="-62.6" font-family="Times,serif" font-size="14.00">Location</text>
</g>
<!-- Location&#45;&gt;ExportFormComponent -->
<g id="edge2" class="edge">
<title>Location&#45;&gt;ExportFormComponent</title>
<path fill="none" stroke="black" d="M595,-84.91C595,-104.14 595,-131.8 595,-131.8 595,-131.8 505.8,-131.8 505.8,-131.8"/>
<polygon fill="black" stroke="black" points="505.8,-128.3 495.8,-131.8 505.8,-135.3 505.8,-128.3"/>
</g>
<!-- { provide: LocationStrategy, useClass: PathLocationStrategy } -->
<g id="node4" class="node">
<title>{ provide: LocationStrategy, useClass: PathLocationStrategy }</title>
<ellipse fill="#fdb462" stroke="black" cx="278" cy="-66.8" rx="253.77" ry="18"/>
<text text-anchor="middle" x="278" y="-62.6" font-family="Times,serif" font-size="14.00">{ provide: LocationStrategy, useClass: PathLocationStrategy }</text>
</g>
<!-- { provide: LocationStrategy, useClass: PathLocationStrategy }&#45;&gt;ExportFormComponent -->
<g id="edge3" class="edge">
<title>{ provide: LocationStrategy, useClass: PathLocationStrategy }&#45;&gt;ExportFormComponent</title>
<path fill="none" stroke="black" d="M421,-81.88C421,-81.88 421,-103.56 421,-103.56"/>
<polygon fill="black" stroke="black" points="417.5,-103.56 421,-113.56 424.5,-103.56 417.5,-103.56"/>
</g>
<!-- SharedModule -->
<g id="node5" class="node">
<title>SharedModule</title>
<polygon fill="#8dd3c7" stroke="black" points="322.43,-149.8 319.43,-153.8 298.43,-153.8 295.43,-149.8 223.57,-149.8 223.57,-113.8 322.43,-113.8 322.43,-149.8"/>
<text text-anchor="middle" x="273" y="-127.6" font-family="Times,serif" font-size="14.00">SharedModule</text>
</g>
<!-- SharedModule&#45;&gt;ExportModule -->
<g id="edge4" class="edge">
<title>SharedModule&#45;&gt;ExportModule</title>
<path fill="none" stroke="black" d="M310.19,-149.91C310.19,-149.91 310.19,-168.79 310.19,-168.79"/>
<polygon fill="black" stroke="black" points="306.69,-168.79 310.19,-178.79 313.69,-168.79 306.69,-168.79"/>
</g>
</g>
</svg>
