<?xml version="1.0" encoding="UTF-8" standalone="no"?>
<!DOCTYPE svg PUBLIC "-//W3C//DTD SVG 1.1//EN"
 "http://www.w3.org/Graphics/SVG/1.1/DTD/svg11.dtd">
<!-- Generated by graphviz version 2.47.3 (20210619.1520)
 -->
<!-- Title: dependencies Pages: 1 -->
<svg width="672pt" height="312pt"
 viewBox="0.00 0.00 672.00 311.80" xmlns="http://www.w3.org/2000/svg" xmlns:xlink="http://www.w3.org/1999/xlink">
<g id="graph0" class="graph" transform="scale(1 1) rotate(0) translate(4 307.8)">
<title>dependencies</title>
<polygon fill="white" stroke="transparent" points="-4,4 -4,-307.8 668,-307.8 668,4 -4,4"/>
<text text-anchor="middle" x="332" y="-8.2" font-family="sans-serif" font-size="14.00">dependencies</text>
<g id="clust1" class="cluster">
<title>cluster_ExportModule</title>
<polygon fill="none" stroke="black" stroke-dasharray="1,5" points="8,-32.8 8,-295.8 656,-295.8 656,-32.8 8,-32.8"/>
</g>
<g id="clust2" class="cluster">
<title>cluster_ExportModule_declarations</title>
<polygon fill="none" stroke="black" points="277,-105.8 277,-157.8 443,-157.8 443,-105.8 277,-105.8"/>
</g>
<g id="clust4" class="cluster">
<title>cluster_ExportModule_imports</title>
<polygon fill="none" stroke="black" points="451,-105.8 451,-157.8 565,-157.8 565,-105.8 451,-105.8"/>
</g>
<g id="clust3" class="cluster">
<title>cluster_ExportModule_ExportFormComponent_providers</title>
<polygon fill="none" stroke="black" points="16,-40.8 16,-92.8 648,-92.8 648,-40.8 16,-40.8"/>
</g>
<g id="clust6" class="cluster">
<title>cluster_ExportModule_bootstrap</title>
<polygon fill="none" stroke="black" points="349,-235.8 349,-287.8 519,-287.8 519,-235.8 349,-235.8"/>
</g>
<!-- ExportFormComponent -->
<g id="node1" class="node">
<title>ExportFormComponent</title>
<polygon fill="#ffffb3" stroke="black" points="434.77,-149.8 285.23,-149.8 285.23,-113.8 434.77,-113.8 434.77,-149.8"/>
<text text-anchor="middle" x="360" y="-127.6" font-family="Times,serif" font-size="14.00">ExportFormComponent</text>
</g>
<!-- ExportModule -->
<g id="node2" class="node">
<title>ExportModule</title>
<polygon fill="#8dd3c7" stroke="black" points="482.65,-214.8 479.65,-218.8 458.65,-218.8 455.65,-214.8 385.35,-214.8 385.35,-178.8 482.65,-178.8 482.65,-214.8"/>
<text text-anchor="middle" x="434" y="-192.6" font-family="Times,serif" font-size="14.00">ExportModule</text>
</g>
<!-- ExportFormComponent&#45;&gt;ExportModule -->
<g id="edge1" class="edge">
<title>ExportFormComponent&#45;&gt;ExportModule</title>
<path fill="none" stroke="black" d="M410.03,-149.91C410.03,-149.91 410.03,-168.79 410.03,-168.79"/>
<polygon fill="black" stroke="black" points="406.53,-168.79 410.03,-178.79 413.53,-168.79 406.53,-168.79"/>
</g>
<!-- ExportFormComponent  -->
<g id="node6" class="node">
<title>ExportFormComponent </title>
<polygon fill="#80b1d3" stroke="black" points="510.77,-279.8 357.23,-279.8 357.23,-243.8 510.77,-243.8 510.77,-279.8"/>
<text text-anchor="middle" x="434" y="-257.6" font-family="Times,serif" font-size="14.00">ExportFormComponent </text>
</g>
<!-- ExportModule&#45;&gt;ExportFormComponent  -->
<g id="edge5" class="edge">
<title>ExportModule&#45;&gt;ExportFormComponent </title>
<path fill="none" stroke="black" stroke-dasharray="1,5" d="M434,-214.91C434,-214.91 434,-233.79 434,-233.79"/>
<polygon fill="black" stroke="black" points="430.5,-233.79 434,-243.79 437.5,-233.79 430.5,-233.79"/>
</g>
<!-- Location -->
<g id="node3" class="node">
<title>Location</title>
<ellipse fill="#fdb462" stroke="black" cx="595" cy="-66.8" rx="45.22" ry="18"/>
<text text-anchor="middle" x="595" y="-62.6" font-family="Times,serif" font-size="14.00">Location</text>
</g>
<!-- Location&#45;&gt;ExportFormComponent -->
<g id="edge2" class="edge">
<title>Location&#45;&gt;ExportFormComponent</title>
<path fill="none" stroke="black" d="M553.42,-74.12C553.42,-83.85 553.42,-99.8 553.42,-99.8 553.42,-99.8 384.96,-99.8 384.96,-99.8 384.96,-99.8 384.96,-103.56 384.96,-103.56"/>
<polygon fill="black" stroke="black" points="381.46,-103.56 384.96,-113.56 388.46,-103.56 381.46,-103.56"/>
</g>
<!-- { provide: LocationStrategy, useClass: PathLocationStrategy } -->
<g id="node4" class="node">
<title>{ provide: LocationStrategy, useClass: PathLocationStrategy }</title>
<ellipse fill="#fdb462" stroke="black" cx="278" cy="-66.8" rx="253.76" ry="18"/>
<text text-anchor="middle" x="278" y="-62.6" font-family="Times,serif" font-size="14.00">{ provide: LocationStrategy, useClass: PathLocationStrategy }</text>
</g>
<!-- { provide: LocationStrategy, useClass: PathLocationStrategy }&#45;&gt;ExportFormComponent -->
<g id="edge3" class="edge">
<title>{ provide: LocationStrategy, useClass: PathLocationStrategy }&#45;&gt;ExportFormComponent</title>
<path fill="none" stroke="black" d="M335.04,-84.56C335.04,-84.56 335.04,-103.61 335.04,-103.61"/>
<polygon fill="black" stroke="black" points="331.54,-103.61 335.04,-113.61 338.54,-103.61 331.54,-103.61"/>
</g>
<!-- SharedModule -->
<g id="node5" class="node">
<title>SharedModule</title>
<polygon fill="#8dd3c7" stroke="black" points="557.42,-149.8 554.42,-153.8 533.42,-153.8 530.42,-149.8 458.58,-149.8 458.58,-113.8 557.42,-113.8 557.42,-149.8"/>
<text text-anchor="middle" x="508" y="-127.6" font-family="Times,serif" font-size="14.00">SharedModule</text>
</g>
<!-- SharedModule&#45;&gt;ExportModule -->
<g id="edge4" class="edge">
<title>SharedModule&#45;&gt;ExportModule</title>
<path fill="none" stroke="black" d="M470.81,-149.91C470.81,-149.91 470.81,-168.79 470.81,-168.79"/>
<polygon fill="black" stroke="black" points="467.31,-168.79 470.81,-178.79 474.31,-168.79 467.31,-168.79"/>
</g>
</g>
</svg>
