<?xml version="1.0" encoding="UTF-8" standalone="no"?>
<!DOCTYPE svg PUBLIC "-//W3C//DTD SVG 1.1//EN"
 "http://www.w3.org/Graphics/SVG/1.1/DTD/svg11.dtd">
<!-- Generated by graphviz version 2.47.0 (20210316.0004)
 -->
<!-- Title: dependencies Pages: 1 -->
<svg width="794pt" height="349pt"
 viewBox="0.00 0.00 794.00 349.00" xmlns="http://www.w3.org/2000/svg" xmlns:xlink="http://www.w3.org/1999/xlink">
<g id="graph0" class="graph" transform="scale(1 1) rotate(0) translate(4 345)">
<title>dependencies</title>
<polygon fill="white" stroke="transparent" points="-4,4 -4,-345 790,-345 790,4 -4,4"/>
<text text-anchor="start" x="372.01" y="-42.4" font-family="Times-12" font-weight="bold" font-size="14.00">Legend</text>
<polygon fill="#ffffb3" stroke="transparent" points="159,-10 159,-30 179,-30 179,-10 159,-10"/>
<text text-anchor="start" x="182.63" y="-15.4" font-family="Times-12" font-size="14.00"> &#160;Declarations</text>
<polygon fill="#8dd3c7" stroke="transparent" points="272,-10 272,-30 292,-30 292,-10 272,-10"/>
<text text-anchor="start" x="295.73" y="-15.4" font-family="Times-12" font-size="14.00"> &#160;Module</text>
<polygon fill="#80b1d3" stroke="transparent" points="358,-10 358,-30 378,-30 378,-10 358,-10"/>
<text text-anchor="start" x="381.78" y="-15.4" font-family="Times-12" font-size="14.00"> &#160;Bootstrap</text>
<polygon fill="#fdb462" stroke="transparent" points="455,-10 455,-30 475,-30 475,-10 455,-10"/>
<text text-anchor="start" x="478.67" y="-15.4" font-family="Times-12" font-size="14.00"> &#160;Providers</text>
<polygon fill="#fb8072" stroke="transparent" points="551,-10 551,-30 571,-30 571,-10 551,-10"/>
<text text-anchor="start" x="574.73" y="-15.4" font-family="Times-12" font-size="14.00"> &#160;Exports</text>
<g id="clust1" class="cluster">
<title>cluster_ExportModule</title>
<polygon fill="none" stroke="black" stroke-dasharray="1,5" points="8,-70 8,-333 778,-333 778,-70 8,-70"/>
</g>
<g id="clust3" class="cluster">
<title>cluster_ExportModule_ExportFormComponent_providers</title>
<polygon fill="none" stroke="black" points="138,-78 138,-195 770,-195 770,-78 138,-78"/>
</g>
<g id="clust4" class="cluster">
<title>cluster_ExportModule_imports</title>
<polygon fill="none" stroke="black" points="16,-143 16,-195 130,-195 130,-143 16,-143"/>
</g>
<g id="clust6" class="cluster">
<title>cluster_ExportModule_bootstrap</title>
<polygon fill="none" stroke="black" points="165,-273 165,-325 335,-325 335,-273 165,-273"/>
</g>
<!-- ExportFormComponent -->
<g id="node1" class="node">
<title>ExportFormComponent</title>
<polygon fill="#ffffb3" stroke="black" points="474.77,-187 325.23,-187 325.23,-151 474.77,-151 474.77,-187"/>
<text text-anchor="middle" x="400" y="-164.8" font-family="Times,serif" font-size="14.00">ExportFormComponent</text>
</g>
<!-- ExportModule -->
<g id="node2" class="node">
<title>ExportModule</title>
<polygon fill="#8dd3c7" stroke="black" points="298.65,-252 295.65,-256 274.65,-256 271.65,-252 201.35,-252 201.35,-216 298.65,-216 298.65,-252"/>
<text text-anchor="middle" x="250" y="-229.8" font-family="Times,serif" font-size="14.00">ExportModule</text>
</g>
<!-- ExportFormComponent&#45;&gt;ExportModule -->
<g id="edge1" class="edge">
<title>ExportFormComponent&#45;&gt;ExportModule</title>
<path fill="none" stroke="black" d="M324.93,-175C294.45,-175 266.28,-175 266.28,-175 266.28,-175 266.28,-205.98 266.28,-205.98"/>
<polygon fill="black" stroke="black" points="262.78,-205.98 266.28,-215.98 269.78,-205.98 262.78,-205.98"/>
</g>
<!-- ExportFormComponent  -->
<g id="node6" class="node">
<title>ExportFormComponent </title>
<polygon fill="#80b1d3" stroke="black" points="326.77,-317 173.23,-317 173.23,-281 326.77,-281 326.77,-317"/>
<text text-anchor="middle" x="250" y="-294.8" font-family="Times,serif" font-size="14.00">ExportFormComponent </text>
</g>
<!-- ExportModule&#45;&gt;ExportFormComponent  -->
<g id="edge5" class="edge">
<title>ExportModule&#45;&gt;ExportFormComponent </title>
<path fill="none" stroke="black" stroke-dasharray="1,5" d="M250,-252.11C250,-252.11 250,-270.99 250,-270.99"/>
<polygon fill="black" stroke="black" points="246.5,-270.99 250,-280.99 253.5,-270.99 246.5,-270.99"/>
</g>
<!-- Location -->
<g id="node3" class="node">
<title>Location</title>
<ellipse fill="#fdb462" stroke="black" cx="717" cy="-104" rx="45.22" ry="18"/>
<text text-anchor="middle" x="717" y="-99.8" font-family="Times,serif" font-size="14.00">Location</text>
</g>
<!-- Location&#45;&gt;ExportFormComponent -->
<g id="edge2" class="edge">
<title>Location&#45;&gt;ExportFormComponent</title>
<path fill="none" stroke="black" d="M717,-122.11C717,-141.34 717,-169 717,-169 717,-169 485.12,-169 485.12,-169"/>
<polygon fill="black" stroke="black" points="485.12,-165.5 475.12,-169 485.12,-172.5 485.12,-165.5"/>
</g>
<!-- { provide: LocationStrategy, useClass: PathLocationStrategy } -->
<g id="node4" class="node">
<title>{ provide: LocationStrategy, useClass: PathLocationStrategy }</title>
<ellipse fill="#fdb462" stroke="black" cx="400" cy="-104" rx="253.76" ry="18"/>
<text text-anchor="middle" x="400" y="-99.8" font-family="Times,serif" font-size="14.00">{ provide: LocationStrategy, useClass: PathLocationStrategy }</text>
</g>
<!-- { provide: LocationStrategy, useClass: PathLocationStrategy }&#45;&gt;ExportFormComponent -->
<g id="edge3" class="edge">
<title>{ provide: LocationStrategy, useClass: PathLocationStrategy }&#45;&gt;ExportFormComponent</title>
<path fill="none" stroke="black" d="M400,-122.11C400,-122.11 400,-140.99 400,-140.99"/>
<polygon fill="black" stroke="black" points="396.5,-140.99 400,-150.99 403.5,-140.99 396.5,-140.99"/>
</g>
<!-- SharedModule -->
<g id="node5" class="node">
<title>SharedModule</title>
<polygon fill="#8dd3c7" stroke="black" points="122.42,-187 119.42,-191 98.42,-191 95.42,-187 23.58,-187 23.58,-151 122.42,-151 122.42,-187"/>
<text text-anchor="middle" x="73" y="-164.8" font-family="Times,serif" font-size="14.00">SharedModule</text>
</g>
<!-- SharedModule&#45;&gt;ExportModule -->
<g id="edge4" class="edge">
<title>SharedModule&#45;&gt;ExportModule</title>
<path fill="none" stroke="black" d="M122.53,-163C169.76,-163 233.72,-163 233.72,-163 233.72,-163 233.72,-205.72 233.72,-205.72"/>
<polygon fill="black" stroke="black" points="230.22,-205.72 233.72,-215.72 237.22,-205.72 230.22,-205.72"/>
</g>
</g>
</svg>
