<?xml version="1.0" encoding="UTF-8" standalone="no"?>
<!DOCTYPE svg PUBLIC "-//W3C//DTD SVG 1.1//EN"
 "http://www.w3.org/Graphics/SVG/1.1/DTD/svg11.dtd">
<!-- Generated by graphviz version 2.46.0 (20210119.1425)
 -->
<!-- Title: dependencies Pages: 1 -->
<svg width="672pt" height="349pt"
 viewBox="0.00 0.00 672.00 349.00" xmlns="http://www.w3.org/2000/svg" xmlns:xlink="http://www.w3.org/1999/xlink">
<g id="graph0" class="graph" transform="scale(1 1) rotate(0) translate(4 345)">
<title>dependencies</title>
<polygon fill="white" stroke="transparent" points="-4,4 -4,-345 668,-345 668,4 -4,4"/>
<text text-anchor="start" x="311.01" y="-42.4" font-family="sans-serif" font-weight="bold" font-size="14.00">Legend</text>
<polygon fill="#ffffb3" stroke="transparent" points="98,-10 98,-30 118,-30 118,-10 98,-10"/>
<text text-anchor="start" x="121.63" y="-15.4" font-family="sans-serif" font-size="14.00"> &#160;Declarations</text>
<polygon fill="#8dd3c7" stroke="transparent" points="211,-10 211,-30 231,-30 231,-10 211,-10"/>
<text text-anchor="start" x="234.73" y="-15.4" font-family="sans-serif" font-size="14.00"> &#160;Module</text>
<polygon fill="#80b1d3" stroke="transparent" points="297,-10 297,-30 317,-30 317,-10 297,-10"/>
<text text-anchor="start" x="320.78" y="-15.4" font-family="sans-serif" font-size="14.00"> &#160;Bootstrap</text>
<polygon fill="#fdb462" stroke="transparent" points="394,-10 394,-30 414,-30 414,-10 394,-10"/>
<text text-anchor="start" x="417.67" y="-15.4" font-family="sans-serif" font-size="14.00"> &#160;Providers</text>
<polygon fill="#fb8072" stroke="transparent" points="490,-10 490,-30 510,-30 510,-10 490,-10"/>
<text text-anchor="start" x="513.73" y="-15.4" font-family="sans-serif" font-size="14.00"> &#160;Exports</text>
<g id="clust1" class="cluster">
<title>cluster_ExportModule</title>
<polygon fill="none" stroke="black" stroke-dasharray="1,5" points="8,-70 8,-333 656,-333 656,-70 8,-70"/>
</g>
<g id="clust4" class="cluster">
<title>cluster_ExportModule_imports</title>
<polygon fill="none" stroke="black" points="451,-143 451,-195 565,-195 565,-143 451,-143"/>
</g>
<g id="clust2" class="cluster">
<title>cluster_ExportModule_declarations</title>
<polygon fill="none" stroke="black" points="277,-143 277,-195 443,-195 443,-143 277,-143"/>
</g>
<g id="clust3" class="cluster">
<title>cluster_ExportModule_ExportFormComponent_providers</title>
<polygon fill="none" stroke="black" points="16,-78 16,-130 648,-130 648,-78 16,-78"/>
</g>
<g id="clust6" class="cluster">
<title>cluster_ExportModule_bootstrap</title>
<polygon fill="none" stroke="black" points="349,-273 349,-325 519,-325 519,-273 349,-273"/>
</g>
<!-- ExportFormComponent -->
<g id="node1" class="node">
<title>ExportFormComponent</title>
<polygon fill="#ffffb3" stroke="black" points="434.77,-187 285.23,-187 285.23,-151 434.77,-151 434.77,-187"/>
<text text-anchor="middle" x="360" y="-164.8" font-family="Times,serif" font-size="14.00">ExportFormComponent</text>
</g>
<!-- ExportModule -->
<g id="node2" class="node">
<title>ExportModule</title>
<polygon fill="#8dd3c7" stroke="black" points="482.65,-252 479.65,-256 458.65,-256 455.65,-252 385.35,-252 385.35,-216 482.65,-216 482.65,-252"/>
<text text-anchor="middle" x="434" y="-229.8" font-family="Times,serif" font-size="14.00">ExportModule</text>
</g>
<!-- ExportFormComponent&#45;&gt;ExportModule -->
<g id="edge1" class="edge">
<title>ExportFormComponent&#45;&gt;ExportModule</title>
<path fill="none" stroke="black" d="M410.03,-187.11C410.03,-187.11 410.03,-205.99 410.03,-205.99"/>
<polygon fill="black" stroke="black" points="406.53,-205.99 410.03,-215.99 413.53,-205.99 406.53,-205.99"/>
</g>
<!-- ExportFormComponent  -->
<g id="node6" class="node">
<title>ExportFormComponent </title>
<polygon fill="#80b1d3" stroke="black" points="510.77,-317 357.23,-317 357.23,-281 510.77,-281 510.77,-317"/>
<text text-anchor="middle" x="434" y="-294.8" font-family="Times,serif" font-size="14.00">ExportFormComponent </text>
</g>
<!-- ExportModule&#45;&gt;ExportFormComponent  -->
<g id="edge5" class="edge">
<title>ExportModule&#45;&gt;ExportFormComponent </title>
<path fill="none" stroke="black" stroke-dasharray="1,5" d="M434,-252.11C434,-252.11 434,-270.99 434,-270.99"/>
<polygon fill="black" stroke="black" points="430.5,-270.99 434,-280.99 437.5,-270.99 430.5,-270.99"/>
</g>
<!-- Location -->
<g id="node3" class="node">
<title>Location</title>
<ellipse fill="#fdb462" stroke="black" cx="595" cy="-104" rx="45.22" ry="18"/>
<text text-anchor="middle" x="595" y="-99.8" font-family="Times,serif" font-size="14.00">Location</text>
</g>
<!-- Location&#45;&gt;ExportFormComponent -->
<g id="edge2" class="edge">
<title>Location&#45;&gt;ExportFormComponent</title>
<path fill="none" stroke="black" d="M553.42,-111.32C553.42,-121.05 553.42,-137 553.42,-137 553.42,-137 384.96,-137 384.96,-137 384.96,-137 384.96,-140.76 384.96,-140.76"/>
<polygon fill="black" stroke="black" points="381.46,-140.76 384.96,-150.76 388.46,-140.76 381.46,-140.76"/>
</g>
<!-- { provide: LocationStrategy, useClass: PathLocationStrategy } -->
<g id="node4" class="node">
<title>{ provide: LocationStrategy, useClass: PathLocationStrategy }</title>
<ellipse fill="#fdb462" stroke="black" cx="278" cy="-104" rx="253.76" ry="18"/>
<text text-anchor="middle" x="278" y="-99.8" font-family="Times,serif" font-size="14.00">{ provide: LocationStrategy, useClass: PathLocationStrategy }</text>
</g>
<!-- { provide: LocationStrategy, useClass: PathLocationStrategy }&#45;&gt;ExportFormComponent -->
<g id="edge3" class="edge">
<title>{ provide: LocationStrategy, useClass: PathLocationStrategy }&#45;&gt;ExportFormComponent</title>
<path fill="none" stroke="black" d="M335.04,-121.76C335.04,-121.76 335.04,-140.81 335.04,-140.81"/>
<polygon fill="black" stroke="black" points="331.54,-140.81 335.04,-150.81 338.54,-140.81 331.54,-140.81"/>
</g>
<!-- SharedModule -->
<g id="node5" class="node">
<title>SharedModule</title>
<polygon fill="#8dd3c7" stroke="black" points="557.42,-187 554.42,-191 533.42,-191 530.42,-187 458.58,-187 458.58,-151 557.42,-151 557.42,-187"/>
<text text-anchor="middle" x="508" y="-164.8" font-family="Times,serif" font-size="14.00">SharedModule</text>
</g>
<!-- SharedModule&#45;&gt;ExportModule -->
<g id="edge4" class="edge">
<title>SharedModule&#45;&gt;ExportModule</title>
<path fill="none" stroke="black" d="M470.81,-187.11C470.81,-187.11 470.81,-205.99 470.81,-205.99"/>
<polygon fill="black" stroke="black" points="467.31,-205.99 470.81,-215.99 474.31,-205.99 467.31,-205.99"/>
</g>
</g>
</svg>
