<?xml version="1.0" encoding="UTF-8" standalone="no"?>
<!DOCTYPE svg PUBLIC "-//W3C//DTD SVG 1.1//EN"
 "http://www.w3.org/Graphics/SVG/1.1/DTD/svg11.dtd">
<!-- Generated by graphviz version 2.47.0 (20210316.0004)
 -->
<!-- Title: dependencies Pages: 1 -->
<svg width="504pt" height="284pt"
 viewBox="0.00 0.00 504.00 284.00" xmlns="http://www.w3.org/2000/svg" xmlns:xlink="http://www.w3.org/1999/xlink">
<g id="graph0" class="graph" transform="scale(1 1) rotate(0) translate(4 280)">
<title>dependencies</title>
<polygon fill="white" stroke="transparent" points="-4,4 -4,-280 500,-280 500,4 -4,4"/>
<text text-anchor="start" x="227.01" y="-42.4" font-family="Times-12" font-weight="bold" font-size="14.00">Legend</text>
<polygon fill="#ffffb3" stroke="transparent" points="14,-10 14,-30 34,-30 34,-10 14,-10"/>
<text text-anchor="start" x="37.63" y="-15.4" font-family="Times-12" font-size="14.00"> &#160;Declarations</text>
<polygon fill="#8dd3c7" stroke="transparent" points="127,-10 127,-30 147,-30 147,-10 127,-10"/>
<text text-anchor="start" x="150.73" y="-15.4" font-family="Times-12" font-size="14.00"> &#160;Module</text>
<polygon fill="#80b1d3" stroke="transparent" points="213,-10 213,-30 233,-30 233,-10 213,-10"/>
<text text-anchor="start" x="236.78" y="-15.4" font-family="Times-12" font-size="14.00"> &#160;Bootstrap</text>
<polygon fill="#fdb462" stroke="transparent" points="310,-10 310,-30 330,-30 330,-10 310,-10"/>
<text text-anchor="start" x="333.67" y="-15.4" font-family="Times-12" font-size="14.00"> &#160;Providers</text>
<polygon fill="#fb8072" stroke="transparent" points="406,-10 406,-30 426,-30 426,-10 406,-10"/>
<text text-anchor="start" x="429.73" y="-15.4" font-family="Times-12" font-size="14.00"> &#160;Exports</text>
<g id="clust1" class="cluster">
<title>cluster_DeletedRecordsModule</title>
<polygon fill="none" stroke="black" stroke-dasharray="1,5" points="53,-70 53,-268 443,-268 443,-70 53,-70"/>
</g>
<g id="clust2" class="cluster">
<title>cluster_DeletedRecordsModule_declarations</title>
<polygon fill="none" stroke="black" points="249,-78 249,-130 435,-130 435,-78 249,-78"/>
</g>
<g id="clust4" class="cluster">
<title>cluster_DeletedRecordsModule_imports</title>
<polygon fill="none" stroke="black" points="61,-78 61,-130 241,-130 241,-78 61,-78"/>
</g>
<g id="clust6" class="cluster">
<title>cluster_DeletedRecordsModule_bootstrap</title>
<polygon fill="none" stroke="black" points="153,-208 153,-260 343,-260 343,-208 153,-208"/>
</g>
<!-- DeletedRecordsComponent -->
<g id="node1" class="node">
<title>DeletedRecordsComponent</title>
<polygon fill="#ffffb3" stroke="black" points="427.24,-122 256.76,-122 256.76,-86 427.24,-86 427.24,-122"/>
<text text-anchor="middle" x="342" y="-99.8" font-family="Times,serif" font-size="14.00">DeletedRecordsComponent</text>
</g>
<!-- DeletedRecordsModule -->
<g id="node2" class="node">
<title>DeletedRecordsModule</title>
<polygon fill="#8dd3c7" stroke="black" points="322.45,-187 319.45,-191 298.45,-191 295.45,-187 173.55,-187 173.55,-151 322.45,-151 322.45,-187"/>
<text text-anchor="middle" x="248" y="-164.8" font-family="Times,serif" font-size="14.00">DeletedRecordsModule</text>
</g>
<!-- DeletedRecordsComponent&#45;&gt;DeletedRecordsModule -->
<g id="edge1" class="edge">
<title>DeletedRecordsComponent&#45;&gt;DeletedRecordsModule</title>
<path fill="none" stroke="black" d="M289.55,-122.11C289.55,-122.11 289.55,-140.99 289.55,-140.99"/>
<polygon fill="black" stroke="black" points="286.05,-140.99 289.55,-150.99 293.05,-140.99 286.05,-140.99"/>
</g>
<!-- DeletedRecordsComponent  -->
<g id="node4" class="node">
<title>DeletedRecordsComponent </title>
<polygon fill="#80b1d3" stroke="black" points="335.24,-252 160.76,-252 160.76,-216 335.24,-216 335.24,-252"/>
<text text-anchor="middle" x="248" y="-229.8" font-family="Times,serif" font-size="14.00">DeletedRecordsComponent </text>
</g>
<!-- DeletedRecordsModule&#45;&gt;DeletedRecordsComponent  -->
<g id="edge3" class="edge">
<title>DeletedRecordsModule&#45;&gt;DeletedRecordsComponent </title>
<path fill="none" stroke="black" stroke-dasharray="1,5" d="M248,-187.11C248,-187.11 248,-205.99 248,-205.99"/>
<polygon fill="black" stroke="black" points="244.5,-205.99 248,-215.99 251.5,-205.99 244.5,-205.99"/>
</g>
<!-- RedboxPortalCoreModule -->
<g id="node3" class="node">
<title>RedboxPortalCoreModule</title>
<polygon fill="#8dd3c7" stroke="black" points="232.75,-122 229.75,-126 208.75,-126 205.75,-122 69.25,-122 69.25,-86 232.75,-86 232.75,-122"/>
<text text-anchor="middle" x="151" y="-99.8" font-family="Times,serif" font-size="14.00">RedboxPortalCoreModule</text>
</g>
<!-- RedboxPortalCoreModule&#45;&gt;DeletedRecordsModule -->
<g id="edge2" class="edge">
<title>RedboxPortalCoreModule&#45;&gt;DeletedRecordsModule</title>
<path fill="none" stroke="black" d="M203.2,-122.11C203.2,-122.11 203.2,-140.99 203.2,-140.99"/>
<polygon fill="black" stroke="black" points="199.7,-140.99 203.2,-150.99 206.7,-140.99 199.7,-140.99"/>
</g>
</g>
</svg>
