<?xml version="1.0" encoding="UTF-8" standalone="no"?>
<!DOCTYPE svg PUBLIC "-//W3C//DTD SVG 1.1//EN"
 "http://www.w3.org/Graphics/SVG/1.1/DTD/svg11.dtd">
<!-- Generated by graphviz version 2.47.0 (20210316.0004)
 -->
<!-- Title: dependencies Pages: 1 -->
<svg width="1799pt" height="284pt"
 viewBox="0.00 0.00 1799.00 284.00" xmlns="http://www.w3.org/2000/svg" xmlns:xlink="http://www.w3.org/1999/xlink">
<g id="graph0" class="graph" transform="scale(1 1) rotate(0) translate(4 280)">
<title>dependencies</title>
<polygon fill="white" stroke="transparent" points="-4,4 -4,-280 1795,-280 1795,4 -4,4"/>
<text text-anchor="start" x="874.51" y="-42.4" font-family="Times-12" font-weight="bold" font-size="14.00">Legend</text>
<polygon fill="#ffffb3" stroke="transparent" points="661.5,-10 661.5,-30 681.5,-30 681.5,-10 661.5,-10"/>
<text text-anchor="start" x="685.13" y="-15.4" font-family="Times-12" font-size="14.00"> &#160;Declarations</text>
<polygon fill="#8dd3c7" stroke="transparent" points="774.5,-10 774.5,-30 794.5,-30 794.5,-10 774.5,-10"/>
<text text-anchor="start" x="798.23" y="-15.4" font-family="Times-12" font-size="14.00"> &#160;Module</text>
<polygon fill="#80b1d3" stroke="transparent" points="860.5,-10 860.5,-30 880.5,-30 880.5,-10 860.5,-10"/>
<text text-anchor="start" x="884.28" y="-15.4" font-family="Times-12" font-size="14.00"> &#160;Bootstrap</text>
<polygon fill="#fdb462" stroke="transparent" points="957.5,-10 957.5,-30 977.5,-30 977.5,-10 957.5,-10"/>
<text text-anchor="start" x="981.17" y="-15.4" font-family="Times-12" font-size="14.00"> &#160;Providers</text>
<polygon fill="#fb8072" stroke="transparent" points="1053.5,-10 1053.5,-30 1073.5,-30 1073.5,-10 1053.5,-10"/>
<text text-anchor="start" x="1077.23" y="-15.4" font-family="Times-12" font-size="14.00"> &#160;Exports</text>
<g id="clust1" class="cluster">
<title>cluster_RedboxPortalCoreModule</title>
<polygon fill="none" stroke="black" stroke-dasharray="1,5" points="8,-70 8,-268 1783,-268 1783,-70 8,-70"/>
</g>
<g id="clust6" class="cluster">
<title>cluster_RedboxPortalCoreModule_exports</title>
<polygon fill="none" stroke="black" points="692,-208 692,-260 1032,-260 1032,-208 692,-208"/>
</g>
<g id="clust2" class="cluster">
<title>cluster_RedboxPortalCoreModule_declarations</title>
<polygon fill="none" stroke="black" points="1442,-78 1442,-130 1775,-130 1775,-78 1442,-78"/>
</g>
<g id="clust8" class="cluster">
<title>cluster_RedboxPortalCoreModule_providers</title>
<polygon fill="none" stroke="black" points="16,-78 16,-130 1434,-130 1434,-78 16,-78"/>
</g>
<!-- HeaderSortComponent -->
<g id="node1" class="node">
<title>HeaderSortComponent</title>
<polygon fill="#ffffb3" stroke="black" points="1766.58,-122 1621.42,-122 1621.42,-86 1766.58,-86 1766.58,-122"/>
<text text-anchor="middle" x="1694" y="-99.8" font-family="Times,serif" font-size="14.00">HeaderSortComponent</text>
</g>
<!-- RedboxPortalCoreModule -->
<g id="node3" class="node">
<title>RedboxPortalCoreModule</title>
<polygon fill="#8dd3c7" stroke="black" points="945.75,-187 942.75,-191 921.75,-191 918.75,-187 782.25,-187 782.25,-151 945.75,-151 945.75,-187"/>
<text text-anchor="middle" x="864" y="-164.8" font-family="Times,serif" font-size="14.00">RedboxPortalCoreModule</text>
</g>
<!-- HeaderSortComponent&#45;&gt;RedboxPortalCoreModule -->
<g id="edge1" class="edge">
<title>HeaderSortComponent&#45;&gt;RedboxPortalCoreModule</title>
<path fill="none" stroke="black" d="M1694,-122.01C1694,-144.49 1694,-180 1694,-180 1694,-180 955.86,-180 955.86,-180"/>
<polygon fill="black" stroke="black" points="955.86,-176.5 945.86,-180 955.86,-183.5 955.86,-176.5"/>
</g>
<!-- RecordTableComponent -->
<g id="node2" class="node">
<title>RecordTableComponent</title>
<polygon fill="#ffffb3" stroke="black" points="1603.63,-122 1450.37,-122 1450.37,-86 1603.63,-86 1603.63,-122"/>
<text text-anchor="middle" x="1527" y="-99.8" font-family="Times,serif" font-size="14.00">RecordTableComponent</text>
</g>
<!-- RecordTableComponent&#45;&gt;RedboxPortalCoreModule -->
<g id="edge2" class="edge">
<title>RecordTableComponent&#45;&gt;RedboxPortalCoreModule</title>
<path fill="none" stroke="black" d="M1527,-122.13C1527,-142.57 1527,-173 1527,-173 1527,-173 955.96,-173 955.96,-173"/>
<polygon fill="black" stroke="black" points="955.96,-169.5 945.96,-173 955.96,-176.5 955.96,-169.5"/>
</g>
<!-- HeaderSortComponent  -->
<g id="node4" class="node">
<title>HeaderSortComponent </title>
<polygon fill="#fb8072" stroke="black" points="1024.08,-252 875.92,-252 875.92,-216 1024.08,-216 1024.08,-252"/>
<text text-anchor="middle" x="950" y="-229.8" font-family="Times,serif" font-size="14.00">HeaderSortComponent </text>
</g>
<!-- RedboxPortalCoreModule&#45;&gt;HeaderSortComponent  -->
<g id="edge3" class="edge">
<title>RedboxPortalCoreModule&#45;&gt;HeaderSortComponent </title>
<path fill="none" stroke="black" stroke-dasharray="5,2" d="M910.79,-187.11C910.79,-187.11 910.79,-205.99 910.79,-205.99"/>
<polygon fill="black" stroke="black" points="907.29,-205.99 910.79,-215.99 914.29,-205.99 907.29,-205.99"/>
</g>
<!-- RecordTableComponent  -->
<g id="node5" class="node">
<title>RecordTableComponent </title>
<polygon fill="#fb8072" stroke="black" points="857.63,-252 700.37,-252 700.37,-216 857.63,-216 857.63,-252"/>
<text text-anchor="middle" x="779" y="-229.8" font-family="Times,serif" font-size="14.00">RecordTableComponent </text>
</g>
<!-- RedboxPortalCoreModule&#45;&gt;RecordTableComponent  -->
<g id="edge4" class="edge">
<title>RedboxPortalCoreModule&#45;&gt;RecordTableComponent </title>
<path fill="none" stroke="black" stroke-dasharray="5,2" d="M819.84,-187.11C819.84,-187.11 819.84,-205.99 819.84,-205.99"/>
<polygon fill="black" stroke="black" points="816.34,-205.99 819.84,-215.99 823.34,-205.99 816.34,-205.99"/>
</g>
<!-- AppConfigService -->
<g id="node6" class="node">
<title>AppConfigService</title>
<ellipse fill="#fdb462" stroke="black" cx="1343" cy="-104" rx="83.39" ry="18"/>
<text text-anchor="middle" x="1343" y="-99.8" font-family="Times,serif" font-size="14.00">AppConfigService</text>
</g>
<!-- AppConfigService&#45;&gt;RedboxPortalCoreModule -->
<g id="edge5" class="edge">
<title>AppConfigService&#45;&gt;RedboxPortalCoreModule</title>
<path fill="none" stroke="black" d="M1343,-122.27C1343,-140.56 1343,-166 1343,-166 1343,-166 955.8,-166 955.8,-166"/>
<polygon fill="black" stroke="black" points="955.8,-162.5 945.8,-166 955.8,-169.5 955.8,-162.5"/>
</g>
<!-- ConfigService -->
<g id="node7" class="node">
<title>ConfigService</title>
<ellipse fill="#fdb462" stroke="black" cx="1175" cy="-104" rx="66.63" ry="18"/>
<text text-anchor="middle" x="1175" y="-99.8" font-family="Times,serif" font-size="14.00">ConfigService</text>
</g>
<!-- ConfigService&#45;&gt;RedboxPortalCoreModule -->
<g id="edge6" class="edge">
<title>ConfigService&#45;&gt;RedboxPortalCoreModule</title>
<path fill="none" stroke="black" d="M1175,-122.01C1175,-138.05 1175,-159 1175,-159 1175,-159 956.12,-159 956.12,-159"/>
<polygon fill="black" stroke="black" points="956.12,-155.5 946.12,-159 956.12,-162.5 956.12,-155.5"/>
</g>
<!-- CsrfInterceptor -->
<g id="node8" class="node">
<title>CsrfInterceptor</title>
<ellipse fill="#fdb462" stroke="black" cx="1020" cy="-104" rx="70.04" ry="18"/>
<text text-anchor="middle" x="1020" y="-99.8" font-family="Times,serif" font-size="14.00">CsrfInterceptor</text>
</g>
<!-- CsrfInterceptor&#45;&gt;RedboxPortalCoreModule -->
<g id="edge7" class="edge">
<title>CsrfInterceptor&#45;&gt;RedboxPortalCoreModule</title>
<path fill="none" stroke="black" d="M949.82,-104C943.19,-104 938.88,-104 938.88,-104 938.88,-104 938.88,-140.89 938.88,-140.89"/>
<polygon fill="black" stroke="black" points="935.38,-140.89 938.88,-150.89 942.38,-140.89 935.38,-140.89"/>
</g>
<!-- LoggerService -->
<g id="node9" class="node">
<title>LoggerService</title>
<ellipse fill="#fdb462" stroke="black" cx="864" cy="-104" rx="67.76" ry="18"/>
<text text-anchor="middle" x="864" y="-99.8" font-family="Times,serif" font-size="14.00">LoggerService</text>
</g>
<!-- LoggerService&#45;&gt;RedboxPortalCoreModule -->
<g id="edge8" class="edge">
<title>LoggerService&#45;&gt;RedboxPortalCoreModule</title>
<path fill="none" stroke="black" d="M864,-122.11C864,-122.11 864,-140.99 864,-140.99"/>
<polygon fill="black" stroke="black" points="860.5,-140.99 864,-150.99 867.5,-140.99 860.5,-140.99"/>
</g>
<!-- RecordService -->
<g id="node10" class="node">
<title>RecordService</title>
<ellipse fill="#fdb462" stroke="black" cx="710" cy="-104" rx="67.75" ry="18"/>
<text text-anchor="middle" x="710" y="-99.8" font-family="Times,serif" font-size="14.00">RecordService</text>
</g>
<!-- RecordService&#45;&gt;RedboxPortalCoreModule -->
<g id="edge9" class="edge">
<title>RecordService&#45;&gt;RedboxPortalCoreModule</title>
<path fill="none" stroke="black" d="M778.12,-104C784.78,-104 789.12,-104 789.12,-104 789.12,-104 789.12,-140.89 789.12,-140.89"/>
<polygon fill="black" stroke="black" points="785.62,-140.89 789.12,-150.89 792.62,-140.89 785.62,-140.89"/>
</g>
<!-- ReportService -->
<g id="node11" class="node">
<title>ReportService</title>
<ellipse fill="#fdb462" stroke="black" cx="558" cy="-104" rx="66.05" ry="18"/>
<text text-anchor="middle" x="558" y="-99.8" font-family="Times,serif" font-size="14.00">ReportService</text>
</g>
<!-- ReportService&#45;&gt;RedboxPortalCoreModule -->
<g id="edge10" class="edge">
<title>ReportService&#45;&gt;RedboxPortalCoreModule</title>
<path fill="none" stroke="black" d="M558,-122.01C558,-138.05 558,-159 558,-159 558,-159 772,-159 772,-159"/>
<polygon fill="black" stroke="black" points="772,-162.5 782,-159 772,-155.5 772,-162.5"/>
</g>
<!-- TranslationService -->
<g id="node12" class="node">
<title>TranslationService</title>
<ellipse fill="#fdb462" stroke="black" cx="390" cy="-104" rx="83.94" ry="18"/>
<text text-anchor="middle" x="390" y="-99.8" font-family="Times,serif" font-size="14.00">TranslationService</text>
</g>
<!-- TranslationService&#45;&gt;RedboxPortalCoreModule -->
<g id="edge11" class="edge">
<title>TranslationService&#45;&gt;RedboxPortalCoreModule</title>
<path fill="none" stroke="black" d="M390,-122.27C390,-140.56 390,-166 390,-166 390,-166 772.25,-166 772.25,-166"/>
<polygon fill="black" stroke="black" points="772.25,-169.5 782.25,-166 772.25,-162.5 772.25,-169.5"/>
</g>
<!-- UserService -->
<g id="node13" class="node">
<title>UserService</title>
<ellipse fill="#fdb462" stroke="black" cx="230" cy="-104" rx="58.44" ry="18"/>
<text text-anchor="middle" x="230" y="-99.8" font-family="Times,serif" font-size="14.00">UserService</text>
</g>
<!-- UserService&#45;&gt;RedboxPortalCoreModule -->
<g id="edge12" class="edge">
<title>UserService&#45;&gt;RedboxPortalCoreModule</title>
<path fill="none" stroke="black" d="M230,-122.13C230,-142.57 230,-173 230,-173 230,-173 772.09,-173 772.09,-173"/>
<polygon fill="black" stroke="black" points="772.09,-176.5 782.09,-173 772.09,-169.5 772.09,-176.5"/>
</g>
<!-- UtilityService -->
<g id="node14" class="node">
<title>UtilityService</title>
<ellipse fill="#fdb462" stroke="black" cx="89" cy="-104" rx="65.42" ry="18"/>
<text text-anchor="middle" x="89" y="-99.8" font-family="Times,serif" font-size="14.00">UtilityService</text>
</g>
<!-- UtilityService&#45;&gt;RedboxPortalCoreModule -->
<g id="edge13" class="edge">
<title>UtilityService&#45;&gt;RedboxPortalCoreModule</title>
<path fill="none" stroke="black" d="M89,-122.01C89,-144.49 89,-180 89,-180 89,-180 772.16,-180 772.16,-180"/>
<polygon fill="black" stroke="black" points="772.16,-183.5 782.16,-180 772.16,-176.5 772.16,-183.5"/>
</g>
</g>
</svg>
