<?xml version="1.0" encoding="UTF-8" standalone="no"?>
<!DOCTYPE svg PUBLIC "-//W3C//DTD SVG 1.1//EN"
 "http://www.w3.org/Graphics/SVG/1.1/DTD/svg11.dtd">
<!-- Generated by graphviz version 2.47.0 (20210316.0004)
 -->
<!-- Title: dependencies Pages: 1 -->
<svg width="1452pt" height="284pt"
 viewBox="0.00 0.00 1452.00 284.00" xmlns="http://www.w3.org/2000/svg" xmlns:xlink="http://www.w3.org/1999/xlink">
<g id="graph0" class="graph" transform="scale(1 1) rotate(0) translate(4 280)">
<title>dependencies</title>
<polygon fill="white" stroke="transparent" points="-4,4 -4,-280 1448,-280 1448,4 -4,4"/>
<text text-anchor="start" x="701.01" y="-42.4" font-family="Times-12" font-weight="bold" font-size="14.00">Legend</text>
<polygon fill="#ffffb3" stroke="transparent" points="488,-10 488,-30 508,-30 508,-10 488,-10"/>
<text text-anchor="start" x="511.63" y="-15.4" font-family="Times-12" font-size="14.00"> &#160;Declarations</text>
<polygon fill="#8dd3c7" stroke="transparent" points="601,-10 601,-30 621,-30 621,-10 601,-10"/>
<text text-anchor="start" x="624.73" y="-15.4" font-family="Times-12" font-size="14.00"> &#160;Module</text>
<polygon fill="#80b1d3" stroke="transparent" points="687,-10 687,-30 707,-30 707,-10 687,-10"/>
<text text-anchor="start" x="710.78" y="-15.4" font-family="Times-12" font-size="14.00"> &#160;Bootstrap</text>
<polygon fill="#fdb462" stroke="transparent" points="784,-10 784,-30 804,-30 804,-10 784,-10"/>
<text text-anchor="start" x="807.67" y="-15.4" font-family="Times-12" font-size="14.00"> &#160;Providers</text>
<polygon fill="#fb8072" stroke="transparent" points="880,-10 880,-30 900,-30 900,-10 880,-10"/>
<text text-anchor="start" x="903.73" y="-15.4" font-family="Times-12" font-size="14.00"> &#160;Exports</text>
<g id="clust1" class="cluster">
<title>cluster_RedboxPortalCoreModule</title>
<polygon fill="none" stroke="black" stroke-dasharray="1,5" points="8,-70 8,-268 1436,-268 1436,-70 8,-70"/>
</g>
<g id="clust5" class="cluster">
<title>cluster_RedboxPortalCoreModule_exports</title>
<polygon fill="none" stroke="black" points="623,-208 623,-260 797,-260 797,-208 623,-208"/>
</g>
<g id="clust2" class="cluster">
<title>cluster_RedboxPortalCoreModule_declarations</title>
<polygon fill="none" stroke="black" points="1258,-78 1258,-130 1428,-130 1428,-78 1258,-78"/>
</g>
<g id="clust7" class="cluster">
<title>cluster_RedboxPortalCoreModule_providers</title>
<polygon fill="none" stroke="black" points="16,-78 16,-130 1250,-130 1250,-78 16,-78"/>
</g>
<!-- RecordTableComponent -->
<g id="node1" class="node">
<title>RecordTableComponent</title>
<polygon fill="#ffffb3" stroke="black" points="1419.63,-122 1266.37,-122 1266.37,-86 1419.63,-86 1419.63,-122"/>
<text text-anchor="middle" x="1343" y="-99.8" font-family="Times,serif" font-size="14.00">RecordTableComponent</text>
</g>
<!-- RedboxPortalCoreModule -->
<g id="node2" class="node">
<title>RedboxPortalCoreModule</title>
<polygon fill="#8dd3c7" stroke="black" points="791.75,-187 788.75,-191 767.75,-191 764.75,-187 628.25,-187 628.25,-151 791.75,-151 791.75,-187"/>
<text text-anchor="middle" x="710" y="-164.8" font-family="Times,serif" font-size="14.00">RedboxPortalCoreModule</text>
</g>
<!-- RecordTableComponent&#45;&gt;RedboxPortalCoreModule -->
<g id="edge1" class="edge">
<title>RecordTableComponent&#45;&gt;RedboxPortalCoreModule</title>
<path fill="none" stroke="black" d="M1343,-122.29C1343,-144.21 1343,-178 1343,-178 1343,-178 801.78,-178 801.78,-178"/>
<polygon fill="black" stroke="black" points="801.78,-174.5 791.78,-178 801.78,-181.5 801.78,-174.5"/>
</g>
<!-- RecordTableComponent  -->
<g id="node3" class="node">
<title>RecordTableComponent </title>
<polygon fill="#fb8072" stroke="black" points="788.63,-252 631.37,-252 631.37,-216 788.63,-216 788.63,-252"/>
<text text-anchor="middle" x="710" y="-229.8" font-family="Times,serif" font-size="14.00">RecordTableComponent </text>
</g>
<!-- RedboxPortalCoreModule&#45;&gt;RecordTableComponent  -->
<g id="edge2" class="edge">
<title>RedboxPortalCoreModule&#45;&gt;RecordTableComponent </title>
<path fill="none" stroke="black" stroke-dasharray="5,2" d="M710,-187.11C710,-187.11 710,-205.99 710,-205.99"/>
<polygon fill="black" stroke="black" points="706.5,-205.99 710,-215.99 713.5,-205.99 706.5,-205.99"/>
</g>
<!-- ConfigService -->
<g id="node4" class="node">
<title>ConfigService</title>
<ellipse fill="#fdb462" stroke="black" cx="1175" cy="-104" rx="66.63" ry="18"/>
<text text-anchor="middle" x="1175" y="-99.8" font-family="Times,serif" font-size="14.00">ConfigService</text>
</g>
<!-- ConfigService&#45;&gt;RedboxPortalCoreModule -->
<g id="edge3" class="edge">
<title>ConfigService&#45;&gt;RedboxPortalCoreModule</title>
<path fill="none" stroke="black" d="M1175,-122.11C1175,-141.34 1175,-169 1175,-169 1175,-169 801.8,-169 801.8,-169"/>
<polygon fill="black" stroke="black" points="801.8,-165.5 791.8,-169 801.8,-172.5 801.8,-165.5"/>
</g>
<!-- CsrfInterceptor -->
<g id="node5" class="node">
<title>CsrfInterceptor</title>
<ellipse fill="#fdb462" stroke="black" cx="1020" cy="-104" rx="70.04" ry="18"/>
<text text-anchor="middle" x="1020" y="-99.8" font-family="Times,serif" font-size="14.00">CsrfInterceptor</text>
</g>
<!-- CsrfInterceptor&#45;&gt;RedboxPortalCoreModule -->
<g id="edge4" class="edge">
<title>CsrfInterceptor&#45;&gt;RedboxPortalCoreModule</title>
<path fill="none" stroke="black" d="M1020,-122.03C1020,-138.4 1020,-160 1020,-160 1020,-160 801.85,-160 801.85,-160"/>
<polygon fill="black" stroke="black" points="801.85,-156.5 791.85,-160 801.85,-163.5 801.85,-156.5"/>
</g>
<!-- LoggerService -->
<g id="node6" class="node">
<title>LoggerService</title>
<ellipse fill="#fdb462" stroke="black" cx="864" cy="-104" rx="67.76" ry="18"/>
<text text-anchor="middle" x="864" y="-99.8" font-family="Times,serif" font-size="14.00">LoggerService</text>
</g>
<!-- LoggerService&#45;&gt;RedboxPortalCoreModule -->
<g id="edge5" class="edge">
<title>LoggerService&#45;&gt;RedboxPortalCoreModule</title>
<path fill="none" stroke="black" d="M795.88,-104C789.22,-104 784.88,-104 784.88,-104 784.88,-104 784.88,-140.89 784.88,-140.89"/>
<polygon fill="black" stroke="black" points="781.38,-140.89 784.88,-150.89 788.38,-140.89 781.38,-140.89"/>
</g>
<!-- RecordService -->
<g id="node7" class="node">
<title>RecordService</title>
<ellipse fill="#fdb462" stroke="black" cx="710" cy="-104" rx="67.75" ry="18"/>
<text text-anchor="middle" x="710" y="-99.8" font-family="Times,serif" font-size="14.00">RecordService</text>
</g>
<!-- RecordService&#45;&gt;RedboxPortalCoreModule -->
<g id="edge6" class="edge">
<title>RecordService&#45;&gt;RedboxPortalCoreModule</title>
<path fill="none" stroke="black" d="M710,-122.11C710,-122.11 710,-140.99 710,-140.99"/>
<polygon fill="black" stroke="black" points="706.5,-140.99 710,-150.99 713.5,-140.99 706.5,-140.99"/>
</g>
<!-- ReportService -->
<g id="node8" class="node">
<title>ReportService</title>
<ellipse fill="#fdb462" stroke="black" cx="558" cy="-104" rx="66.05" ry="18"/>
<text text-anchor="middle" x="558" y="-99.8" font-family="Times,serif" font-size="14.00">ReportService</text>
</g>
<!-- ReportService&#45;&gt;RedboxPortalCoreModule -->
<g id="edge7" class="edge">
<title>ReportService&#45;&gt;RedboxPortalCoreModule</title>
<path fill="none" stroke="black" d="M624.4,-104C630.89,-104 635.12,-104 635.12,-104 635.12,-104 635.12,-140.89 635.12,-140.89"/>
<polygon fill="black" stroke="black" points="631.62,-140.89 635.12,-150.89 638.62,-140.89 631.62,-140.89"/>
</g>
<!-- TranslationService -->
<g id="node9" class="node">
<title>TranslationService</title>
<ellipse fill="#fdb462" stroke="black" cx="390" cy="-104" rx="83.94" ry="18"/>
<text text-anchor="middle" x="390" y="-99.8" font-family="Times,serif" font-size="14.00">TranslationService</text>
</g>
<!-- TranslationService&#45;&gt;RedboxPortalCoreModule -->
<g id="edge8" class="edge">
<title>TranslationService&#45;&gt;RedboxPortalCoreModule</title>
<path fill="none" stroke="black" d="M390,-122.03C390,-138.4 390,-160 390,-160 390,-160 618.01,-160 618.01,-160"/>
<polygon fill="black" stroke="black" points="618.01,-163.5 628.01,-160 618.01,-156.5 618.01,-163.5"/>
</g>
<!-- UserService -->
<g id="node10" class="node">
<title>UserService</title>
<ellipse fill="#fdb462" stroke="black" cx="230" cy="-104" rx="58.44" ry="18"/>
<text text-anchor="middle" x="230" y="-99.8" font-family="Times,serif" font-size="14.00">UserService</text>
</g>
<!-- UserService&#45;&gt;RedboxPortalCoreModule -->
<g id="edge9" class="edge">
<title>UserService&#45;&gt;RedboxPortalCoreModule</title>
<path fill="none" stroke="black" d="M230,-122.11C230,-141.34 230,-169 230,-169 230,-169 618.03,-169 618.03,-169"/>
<polygon fill="black" stroke="black" points="618.03,-172.5 628.03,-169 618.03,-165.5 618.03,-172.5"/>
</g>
<!-- UtilityService -->
<g id="node11" class="node">
<title>UtilityService</title>
<ellipse fill="#fdb462" stroke="black" cx="89" cy="-104" rx="65.42" ry="18"/>
<text text-anchor="middle" x="89" y="-99.8" font-family="Times,serif" font-size="14.00">UtilityService</text>
</g>
<!-- UtilityService&#45;&gt;RedboxPortalCoreModule -->
<g id="edge10" class="edge">
<title>UtilityService&#45;&gt;RedboxPortalCoreModule</title>
<path fill="none" stroke="black" d="M89,-122.29C89,-144.21 89,-178 89,-178 89,-178 618.18,-178 618.18,-178"/>
<polygon fill="black" stroke="black" points="618.18,-181.5 628.18,-178 618.18,-174.5 618.18,-181.5"/>
</g>
</g>
</svg>
