<?xml version="1.0" encoding="UTF-8" standalone="no"?>
<!DOCTYPE svg PUBLIC "-//W3C//DTD SVG 1.1//EN"
 "http://www.w3.org/Graphics/SVG/1.1/DTD/svg11.dtd">
<!-- Generated by graphviz version 2.47.0 (20210316.0004)
 -->
<!-- Title: dependencies Pages: 1 -->
<svg width="1452pt" height="284pt"
 viewBox="0.00 0.00 1452.00 284.00" xmlns="http://www.w3.org/2000/svg" xmlns:xlink="http://www.w3.org/1999/xlink">
<g id="graph0" class="graph" transform="scale(1 1) rotate(0) translate(4 280)">
<title>dependencies</title>
<polygon fill="white" stroke="transparent" points="-4,4 -4,-280 1448,-280 1448,4 -4,4"/>
<text text-anchor="start" x="701.01" y="-42.4" font-family="Times-12" font-weight="bold" font-size="14.00">Legend</text>
<polygon fill="#ffffb3" stroke="transparent" points="488,-10 488,-30 508,-30 508,-10 488,-10"/>
<text text-anchor="start" x="511.63" y="-15.4" font-family="Times-12" font-size="14.00"> &#160;Declarations</text>
<polygon fill="#8dd3c7" stroke="transparent" points="601,-10 601,-30 621,-30 621,-10 601,-10"/>
<text text-anchor="start" x="624.73" y="-15.4" font-family="Times-12" font-size="14.00"> &#160;Module</text>
<polygon fill="#80b1d3" stroke="transparent" points="687,-10 687,-30 707,-30 707,-10 687,-10"/>
<text text-anchor="start" x="710.78" y="-15.4" font-family="Times-12" font-size="14.00"> &#160;Bootstrap</text>
<polygon fill="#fdb462" stroke="transparent" points="784,-10 784,-30 804,-30 804,-10 784,-10"/>
<text text-anchor="start" x="807.67" y="-15.4" font-family="Times-12" font-size="14.00"> &#160;Providers</text>
<polygon fill="#fb8072" stroke="transparent" points="880,-10 880,-30 900,-30 900,-10 880,-10"/>
<text text-anchor="start" x="903.73" y="-15.4" font-family="Times-12" font-size="14.00"> &#160;Exports</text>
<g id="clust1" class="cluster">
<title>cluster_RedboxPortalCoreModule</title>
<polygon fill="none" stroke="black" stroke-dasharray="1,5" points="8,-70 8,-268 1436,-268 1436,-70 8,-70"/>
</g>
<g id="clust7" class="cluster">
<title>cluster_RedboxPortalCoreModule_providers</title>
<polygon fill="none" stroke="black" points="194,-78 194,-130 1428,-130 1428,-78 194,-78"/>
</g>
<g id="clust2" class="cluster">
<title>cluster_RedboxPortalCoreModule_declarations</title>
<polygon fill="none" stroke="black" points="16,-78 16,-130 186,-130 186,-78 16,-78"/>
</g>
<g id="clust5" class="cluster">
<title>cluster_RedboxPortalCoreModule_exports</title>
<polygon fill="none" stroke="black" points="649,-208 649,-260 823,-260 823,-208 649,-208"/>
</g>
<!-- RecordTableComponent -->
<g id="node1" class="node">
<title>RecordTableComponent</title>
<polygon fill="#ffffb3" stroke="black" points="177.63,-122 24.37,-122 24.37,-86 177.63,-86 177.63,-122"/>
<text text-anchor="middle" x="101" y="-99.8" font-family="Times,serif" font-size="14.00">RecordTableComponent</text>
</g>
<!-- RedboxPortalCoreModule -->
<g id="node2" class="node">
<title>RedboxPortalCoreModule</title>
<polygon fill="#8dd3c7" stroke="black" points="817.75,-187 814.75,-191 793.75,-191 790.75,-187 654.25,-187 654.25,-151 817.75,-151 817.75,-187"/>
<text text-anchor="middle" x="736" y="-164.8" font-family="Times,serif" font-size="14.00">RedboxPortalCoreModule</text>
</g>
<!-- RecordTableComponent&#45;&gt;RedboxPortalCoreModule -->
<g id="edge1" class="edge">
<title>RecordTableComponent&#45;&gt;RedboxPortalCoreModule</title>
<path fill="none" stroke="black" d="M101,-122.29C101,-144.21 101,-178 101,-178 101,-178 643.96,-178 643.96,-178"/>
<polygon fill="black" stroke="black" points="643.96,-181.5 653.96,-178 643.96,-174.5 643.96,-181.5"/>
</g>
<!-- RecordTableComponent  -->
<g id="node3" class="node">
<title>RecordTableComponent </title>
<polygon fill="#fb8072" stroke="black" points="814.63,-252 657.37,-252 657.37,-216 814.63,-216 814.63,-252"/>
<text text-anchor="middle" x="736" y="-229.8" font-family="Times,serif" font-size="14.00">RecordTableComponent </text>
</g>
<!-- RedboxPortalCoreModule&#45;&gt;RecordTableComponent  -->
<g id="edge2" class="edge">
<title>RedboxPortalCoreModule&#45;&gt;RecordTableComponent </title>
<path fill="none" stroke="black" stroke-dasharray="5,2" d="M736,-187.11C736,-187.11 736,-205.99 736,-205.99"/>
<polygon fill="black" stroke="black" points="732.5,-205.99 736,-215.99 739.5,-205.99 732.5,-205.99"/>
</g>
<!-- ConfigService -->
<g id="node4" class="node">
<title>ConfigService</title>
<ellipse fill="#fdb462" stroke="black" cx="1353" cy="-104" rx="66.63" ry="18"/>
<text text-anchor="middle" x="1353" y="-99.8" font-family="Times,serif" font-size="14.00">ConfigService</text>
</g>
<!-- ConfigService&#45;&gt;RedboxPortalCoreModule -->
<g id="edge3" class="edge">
<title>ConfigService&#45;&gt;RedboxPortalCoreModule</title>
<path fill="none" stroke="black" d="M1353,-122.29C1353,-144.21 1353,-178 1353,-178 1353,-178 827.93,-178 827.93,-178"/>
<polygon fill="black" stroke="black" points="827.93,-174.5 817.93,-178 827.93,-181.5 827.93,-174.5"/>
</g>
<!-- CsrfInterceptor -->
<g id="node5" class="node">
<title>CsrfInterceptor</title>
<ellipse fill="#fdb462" stroke="black" cx="1198" cy="-104" rx="70.04" ry="18"/>
<text text-anchor="middle" x="1198" y="-99.8" font-family="Times,serif" font-size="14.00">CsrfInterceptor</text>
</g>
<!-- CsrfInterceptor&#45;&gt;RedboxPortalCoreModule -->
<g id="edge4" class="edge">
<title>CsrfInterceptor&#45;&gt;RedboxPortalCoreModule</title>
<path fill="none" stroke="black" d="M1198,-122.11C1198,-141.34 1198,-169 1198,-169 1198,-169 827.8,-169 827.8,-169"/>
<polygon fill="black" stroke="black" points="827.8,-165.5 817.8,-169 827.8,-172.5 827.8,-165.5"/>
</g>
<!-- LoggerService -->
<g id="node6" class="node">
<title>LoggerService</title>
<ellipse fill="#fdb462" stroke="black" cx="1042" cy="-104" rx="67.76" ry="18"/>
<text text-anchor="middle" x="1042" y="-99.8" font-family="Times,serif" font-size="14.00">LoggerService</text>
</g>
<!-- LoggerService&#45;&gt;RedboxPortalCoreModule -->
<g id="edge5" class="edge">
<title>LoggerService&#45;&gt;RedboxPortalCoreModule</title>
<path fill="none" stroke="black" d="M1042,-122.03C1042,-138.4 1042,-160 1042,-160 1042,-160 828,-160 828,-160"/>
<polygon fill="black" stroke="black" points="828,-156.5 818,-160 828,-163.5 828,-156.5"/>
</g>
<!-- RecordService -->
<g id="node7" class="node">
<title>RecordService</title>
<ellipse fill="#fdb462" stroke="black" cx="888" cy="-104" rx="67.75" ry="18"/>
<text text-anchor="middle" x="888" y="-99.8" font-family="Times,serif" font-size="14.00">RecordService</text>
</g>
<!-- RecordService&#45;&gt;RedboxPortalCoreModule -->
<g id="edge6" class="edge">
<title>RecordService&#45;&gt;RedboxPortalCoreModule</title>
<path fill="none" stroke="black" d="M819.94,-104C813.94,-104 810.08,-104 810.08,-104 810.08,-104 810.08,-140.89 810.08,-140.89"/>
<polygon fill="black" stroke="black" points="806.58,-140.89 810.08,-150.89 813.58,-140.89 806.58,-140.89"/>
</g>
<!-- ReportService -->
<g id="node8" class="node">
<title>ReportService</title>
<ellipse fill="#fdb462" stroke="black" cx="736" cy="-104" rx="66.05" ry="18"/>
<text text-anchor="middle" x="736" y="-99.8" font-family="Times,serif" font-size="14.00">ReportService</text>
</g>
<!-- ReportService&#45;&gt;RedboxPortalCoreModule -->
<g id="edge7" class="edge">
<title>ReportService&#45;&gt;RedboxPortalCoreModule</title>
<path fill="none" stroke="black" d="M736,-122.11C736,-122.11 736,-140.99 736,-140.99"/>
<polygon fill="black" stroke="black" points="732.5,-140.99 736,-150.99 739.5,-140.99 732.5,-140.99"/>
</g>
<!-- TranslationService -->
<g id="node9" class="node">
<title>TranslationService</title>
<ellipse fill="#fdb462" stroke="black" cx="568" cy="-104" rx="83.94" ry="18"/>
<text text-anchor="middle" x="568" y="-99.8" font-family="Times,serif" font-size="14.00">TranslationService</text>
</g>
<!-- TranslationService&#45;&gt;RedboxPortalCoreModule -->
<g id="edge8" class="edge">
<title>TranslationService&#45;&gt;RedboxPortalCoreModule</title>
<path fill="none" stroke="black" d="M652.23,-104C658.2,-104 661.92,-104 661.92,-104 661.92,-104 661.92,-140.89 661.92,-140.89"/>
<polygon fill="black" stroke="black" points="658.43,-140.89 661.92,-150.89 665.43,-140.89 658.43,-140.89"/>
</g>
<!-- UserService -->
<g id="node10" class="node">
<title>UserService</title>
<ellipse fill="#fdb462" stroke="black" cx="408" cy="-104" rx="58.44" ry="18"/>
<text text-anchor="middle" x="408" y="-99.8" font-family="Times,serif" font-size="14.00">UserService</text>
</g>
<!-- UserService&#45;&gt;RedboxPortalCoreModule -->
<g id="edge9" class="edge">
<title>UserService&#45;&gt;RedboxPortalCoreModule</title>
<path fill="none" stroke="black" d="M408,-122.03C408,-138.4 408,-160 408,-160 408,-160 644.08,-160 644.08,-160"/>
<polygon fill="black" stroke="black" points="644.08,-163.5 654.08,-160 644.08,-156.5 644.08,-163.5"/>
</g>
<!-- UtilityService -->
<g id="node11" class="node">
<title>UtilityService</title>
<ellipse fill="#fdb462" stroke="black" cx="267" cy="-104" rx="65.42" ry="18"/>
<text text-anchor="middle" x="267" y="-99.8" font-family="Times,serif" font-size="14.00">UtilityService</text>
</g>
<!-- UtilityService&#45;&gt;RedboxPortalCoreModule -->
<g id="edge10" class="edge">
<title>UtilityService&#45;&gt;RedboxPortalCoreModule</title>
<path fill="none" stroke="black" d="M267,-122.11C267,-141.34 267,-169 267,-169 267,-169 644.04,-169 644.04,-169"/>
<polygon fill="black" stroke="black" points="644.04,-172.5 654.04,-169 644.04,-165.5 644.04,-172.5"/>
</g>
</g>
</svg>
