<?xml version="1.0" encoding="UTF-8" standalone="no"?>
<!DOCTYPE svg PUBLIC "-//W3C//DTD SVG 1.1//EN"
 "http://www.w3.org/Graphics/SVG/1.1/DTD/svg11.dtd">
<!-- Generated by graphviz version 2.47.0 (20210316.0004)
 -->
<!-- Title: dependencies Pages: 1 -->
<svg width="1636pt" height="284pt"
 viewBox="0.00 0.00 1636.00 284.00" xmlns="http://www.w3.org/2000/svg" xmlns:xlink="http://www.w3.org/1999/xlink">
<g id="graph0" class="graph" transform="scale(1 1) rotate(0) translate(4 280)">
<title>dependencies</title>
<polygon fill="white" stroke="transparent" points="-4,4 -4,-280 1632,-280 1632,4 -4,4"/>
<text text-anchor="start" x="793.01" y="-42.4" font-family="Times-12" font-weight="bold" font-size="14.00">Legend</text>
<polygon fill="#ffffb3" stroke="transparent" points="580,-10 580,-30 600,-30 600,-10 580,-10"/>
<text text-anchor="start" x="603.63" y="-15.4" font-family="Times-12" font-size="14.00"> &#160;Declarations</text>
<polygon fill="#8dd3c7" stroke="transparent" points="693,-10 693,-30 713,-30 713,-10 693,-10"/>
<text text-anchor="start" x="716.73" y="-15.4" font-family="Times-12" font-size="14.00"> &#160;Module</text>
<polygon fill="#80b1d3" stroke="transparent" points="779,-10 779,-30 799,-30 799,-10 779,-10"/>
<text text-anchor="start" x="802.78" y="-15.4" font-family="Times-12" font-size="14.00"> &#160;Bootstrap</text>
<polygon fill="#fdb462" stroke="transparent" points="876,-10 876,-30 896,-30 896,-10 876,-10"/>
<text text-anchor="start" x="899.67" y="-15.4" font-family="Times-12" font-size="14.00"> &#160;Providers</text>
<polygon fill="#fb8072" stroke="transparent" points="972,-10 972,-30 992,-30 992,-10 972,-10"/>
<text text-anchor="start" x="995.73" y="-15.4" font-family="Times-12" font-size="14.00"> &#160;Exports</text>
<g id="clust1" class="cluster">
<title>cluster_RedboxPortalCoreModule</title>
<polygon fill="none" stroke="black" stroke-dasharray="1,5" points="8,-70 8,-268 1620,-268 1620,-70 8,-70"/>
</g>
<g id="clust5" class="cluster">
<title>cluster_RedboxPortalCoreModule_exports</title>
<polygon fill="none" stroke="black" points="725,-208 725,-260 899,-260 899,-208 725,-208"/>
</g>
<g id="clust7" class="cluster">
<title>cluster_RedboxPortalCoreModule_providers</title>
<polygon fill="none" stroke="black" points="194,-78 194,-130 1612,-130 1612,-78 194,-78"/>
</g>
<g id="clust2" class="cluster">
<title>cluster_RedboxPortalCoreModule_declarations</title>
<polygon fill="none" stroke="black" points="16,-78 16,-130 186,-130 186,-78 16,-78"/>
</g>
<!-- RecordTableComponent -->
<g id="node1" class="node">
<title>RecordTableComponent</title>
<polygon fill="#ffffb3" stroke="black" points="177.63,-122 24.37,-122 24.37,-86 177.63,-86 177.63,-122"/>
<text text-anchor="middle" x="101" y="-99.8" font-family="Times,serif" font-size="14.00">RecordTableComponent</text>
</g>
<!-- RedboxPortalCoreModule -->
<g id="node2" class="node">
<title>RedboxPortalCoreModule</title>
<polygon fill="#8dd3c7" stroke="black" points="893.75,-187 890.75,-191 869.75,-191 866.75,-187 730.25,-187 730.25,-151 893.75,-151 893.75,-187"/>
<text text-anchor="middle" x="812" y="-164.8" font-family="Times,serif" font-size="14.00">RedboxPortalCoreModule</text>
</g>
<!-- RecordTableComponent&#45;&gt;RedboxPortalCoreModule -->
<g id="edge1" class="edge">
<title>RecordTableComponent&#45;&gt;RedboxPortalCoreModule</title>
<path fill="none" stroke="black" d="M101,-122.01C101,-144.49 101,-180 101,-180 101,-180 720.09,-180 720.09,-180"/>
<polygon fill="black" stroke="black" points="720.09,-183.5 730.09,-180 720.09,-176.5 720.09,-183.5"/>
</g>
<!-- RecordTableComponent  -->
<g id="node3" class="node">
<title>RecordTableComponent </title>
<polygon fill="#fb8072" stroke="black" points="890.63,-252 733.37,-252 733.37,-216 890.63,-216 890.63,-252"/>
<text text-anchor="middle" x="812" y="-229.8" font-family="Times,serif" font-size="14.00">RecordTableComponent </text>
</g>
<!-- RedboxPortalCoreModule&#45;&gt;RecordTableComponent  -->
<g id="edge2" class="edge">
<title>RedboxPortalCoreModule&#45;&gt;RecordTableComponent </title>
<path fill="none" stroke="black" stroke-dasharray="5,2" d="M812,-187.11C812,-187.11 812,-205.99 812,-205.99"/>
<polygon fill="black" stroke="black" points="808.5,-205.99 812,-215.99 815.5,-205.99 808.5,-205.99"/>
</g>
<!-- AppConfigService -->
<g id="node4" class="node">
<title>AppConfigService</title>
<ellipse fill="#fdb462" stroke="black" cx="1521" cy="-104" rx="83.39" ry="18"/>
<text text-anchor="middle" x="1521" y="-99.8" font-family="Times,serif" font-size="14.00">AppConfigService</text>
</g>
<!-- AppConfigService&#45;&gt;RedboxPortalCoreModule -->
<g id="edge3" class="edge">
<title>AppConfigService&#45;&gt;RedboxPortalCoreModule</title>
<path fill="none" stroke="black" d="M1521,-122.01C1521,-144.49 1521,-180 1521,-180 1521,-180 904.02,-180 904.02,-180"/>
<polygon fill="black" stroke="black" points="904.02,-176.5 894.02,-180 904.02,-183.5 904.02,-176.5"/>
</g>
<!-- ConfigService -->
<g id="node5" class="node">
<title>ConfigService</title>
<ellipse fill="#fdb462" stroke="black" cx="1353" cy="-104" rx="66.63" ry="18"/>
<text text-anchor="middle" x="1353" y="-99.8" font-family="Times,serif" font-size="14.00">ConfigService</text>
</g>
<!-- ConfigService&#45;&gt;RedboxPortalCoreModule -->
<g id="edge4" class="edge">
<title>ConfigService&#45;&gt;RedboxPortalCoreModule</title>
<path fill="none" stroke="black" d="M1353,-122.13C1353,-142.57 1353,-173 1353,-173 1353,-173 903.87,-173 903.87,-173"/>
<polygon fill="black" stroke="black" points="903.87,-169.5 893.87,-173 903.87,-176.5 903.87,-169.5"/>
</g>
<!-- CsrfInterceptor -->
<g id="node6" class="node">
<title>CsrfInterceptor</title>
<ellipse fill="#fdb462" stroke="black" cx="1198" cy="-104" rx="70.04" ry="18"/>
<text text-anchor="middle" x="1198" y="-99.8" font-family="Times,serif" font-size="14.00">CsrfInterceptor</text>
</g>
<!-- CsrfInterceptor&#45;&gt;RedboxPortalCoreModule -->
<g id="edge5" class="edge">
<title>CsrfInterceptor&#45;&gt;RedboxPortalCoreModule</title>
<path fill="none" stroke="black" d="M1198,-122.27C1198,-140.56 1198,-166 1198,-166 1198,-166 903.86,-166 903.86,-166"/>
<polygon fill="black" stroke="black" points="903.86,-162.5 893.86,-166 903.86,-169.5 903.86,-162.5"/>
</g>
<!-- LoggerService -->
<g id="node7" class="node">
<title>LoggerService</title>
<ellipse fill="#fdb462" stroke="black" cx="1042" cy="-104" rx="67.76" ry="18"/>
<text text-anchor="middle" x="1042" y="-99.8" font-family="Times,serif" font-size="14.00">LoggerService</text>
</g>
<!-- LoggerService&#45;&gt;RedboxPortalCoreModule -->
<g id="edge6" class="edge">
<title>LoggerService&#45;&gt;RedboxPortalCoreModule</title>
<path fill="none" stroke="black" d="M1042,-122.01C1042,-138.05 1042,-159 1042,-159 1042,-159 904.06,-159 904.06,-159"/>
<polygon fill="black" stroke="black" points="904.06,-155.5 894.06,-159 904.06,-162.5 904.06,-155.5"/>
</g>
<!-- RecordService -->
<g id="node8" class="node">
<title>RecordService</title>
<ellipse fill="#fdb462" stroke="black" cx="888" cy="-104" rx="67.75" ry="18"/>
<text text-anchor="middle" x="888" y="-99.8" font-family="Times,serif" font-size="14.00">RecordService</text>
</g>
<!-- RecordService&#45;&gt;RedboxPortalCoreModule -->
<g id="edge7" class="edge">
<title>RecordService&#45;&gt;RedboxPortalCoreModule</title>
<path fill="none" stroke="black" d="M857,-120.07C857,-120.07 857,-140.82 857,-140.82"/>
<polygon fill="black" stroke="black" points="853.5,-140.82 857,-150.82 860.5,-140.82 853.5,-140.82"/>
</g>
<!-- ReportService -->
<g id="node9" class="node">
<title>ReportService</title>
<ellipse fill="#fdb462" stroke="black" cx="736" cy="-104" rx="66.05" ry="18"/>
<text text-anchor="middle" x="736" y="-99.8" font-family="Times,serif" font-size="14.00">ReportService</text>
</g>
<!-- ReportService&#45;&gt;RedboxPortalCoreModule -->
<g id="edge8" class="edge">
<title>ReportService&#45;&gt;RedboxPortalCoreModule</title>
<path fill="none" stroke="black" d="M766.2,-120.07C766.2,-120.07 766.2,-140.82 766.2,-140.82"/>
<polygon fill="black" stroke="black" points="762.7,-140.82 766.2,-150.82 769.7,-140.82 762.7,-140.82"/>
</g>
<!-- TranslationService -->
<g id="node10" class="node">
<title>TranslationService</title>
<ellipse fill="#fdb462" stroke="black" cx="568" cy="-104" rx="83.94" ry="18"/>
<text text-anchor="middle" x="568" y="-99.8" font-family="Times,serif" font-size="14.00">TranslationService</text>
</g>
<!-- TranslationService&#45;&gt;RedboxPortalCoreModule -->
<g id="edge9" class="edge">
<title>TranslationService&#45;&gt;RedboxPortalCoreModule</title>
<path fill="none" stroke="black" d="M568,-122.01C568,-138.05 568,-159 568,-159 568,-159 720.07,-159 720.07,-159"/>
<polygon fill="black" stroke="black" points="720.07,-162.5 730.07,-159 720.07,-155.5 720.07,-162.5"/>
</g>
<!-- UserService -->
<g id="node11" class="node">
<title>UserService</title>
<ellipse fill="#fdb462" stroke="black" cx="408" cy="-104" rx="58.44" ry="18"/>
<text text-anchor="middle" x="408" y="-99.8" font-family="Times,serif" font-size="14.00">UserService</text>
</g>
<!-- UserService&#45;&gt;RedboxPortalCoreModule -->
<g id="edge10" class="edge">
<title>UserService&#45;&gt;RedboxPortalCoreModule</title>
<path fill="none" stroke="black" d="M408,-122.27C408,-140.56 408,-166 408,-166 408,-166 720.24,-166 720.24,-166"/>
<polygon fill="black" stroke="black" points="720.24,-169.5 730.24,-166 720.24,-162.5 720.24,-169.5"/>
</g>
<!-- UtilityService -->
<g id="node12" class="node">
<title>UtilityService</title>
<ellipse fill="#fdb462" stroke="black" cx="267" cy="-104" rx="65.42" ry="18"/>
<text text-anchor="middle" x="267" y="-99.8" font-family="Times,serif" font-size="14.00">UtilityService</text>
</g>
<!-- UtilityService&#45;&gt;RedboxPortalCoreModule -->
<g id="edge11" class="edge">
<title>UtilityService&#45;&gt;RedboxPortalCoreModule</title>
<path fill="none" stroke="black" d="M267,-122.13C267,-142.57 267,-173 267,-173 267,-173 720.11,-173 720.11,-173"/>
<polygon fill="black" stroke="black" points="720.11,-176.5 730.11,-173 720.11,-169.5 720.11,-176.5"/>
</g>
</g>
</svg>
