<?xml version="1.0" encoding="UTF-8" standalone="no"?>
<!DOCTYPE svg PUBLIC "-//W3C//DTD SVG 1.1//EN"
 "http://www.w3.org/Graphics/SVG/1.1/DTD/svg11.dtd">
<!-- Generated by graphviz version 2.47.0 (20210316.0004)
 -->
<!-- Title: dependencies Pages: 1 -->
<svg width="1636pt" height="284pt"
 viewBox="0.00 0.00 1636.00 284.00" xmlns="http://www.w3.org/2000/svg" xmlns:xlink="http://www.w3.org/1999/xlink">
<g id="graph0" class="graph" transform="scale(1 1) rotate(0) translate(4 280)">
<title>dependencies</title>
<polygon fill="white" stroke="transparent" points="-4,4 -4,-280 1632,-280 1632,4 -4,4"/>
<text text-anchor="start" x="793.01" y="-42.4" font-family="Times-12" font-weight="bold" font-size="14.00">Legend</text>
<polygon fill="#ffffb3" stroke="transparent" points="580,-10 580,-30 600,-30 600,-10 580,-10"/>
<text text-anchor="start" x="603.63" y="-15.4" font-family="Times-12" font-size="14.00"> &#160;Declarations</text>
<polygon fill="#8dd3c7" stroke="transparent" points="693,-10 693,-30 713,-30 713,-10 693,-10"/>
<text text-anchor="start" x="716.73" y="-15.4" font-family="Times-12" font-size="14.00"> &#160;Module</text>
<polygon fill="#80b1d3" stroke="transparent" points="779,-10 779,-30 799,-30 799,-10 779,-10"/>
<text text-anchor="start" x="802.78" y="-15.4" font-family="Times-12" font-size="14.00"> &#160;Bootstrap</text>
<polygon fill="#fdb462" stroke="transparent" points="876,-10 876,-30 896,-30 896,-10 876,-10"/>
<text text-anchor="start" x="899.67" y="-15.4" font-family="Times-12" font-size="14.00"> &#160;Providers</text>
<polygon fill="#fb8072" stroke="transparent" points="972,-10 972,-30 992,-30 992,-10 972,-10"/>
<text text-anchor="start" x="995.73" y="-15.4" font-family="Times-12" font-size="14.00"> &#160;Exports</text>
<g id="clust1" class="cluster">
<title>cluster_RedboxPortalCoreModule</title>
<polygon fill="none" stroke="black" stroke-dasharray="1,5" points="8,-70 8,-268 1620,-268 1620,-70 8,-70"/>
</g>
<g id="clust2" class="cluster">
<title>cluster_RedboxPortalCoreModule_declarations</title>
<polygon fill="none" stroke="black" points="1442,-78 1442,-130 1612,-130 1612,-78 1442,-78"/>
</g>
<g id="clust5" class="cluster">
<title>cluster_RedboxPortalCoreModule_exports</title>
<polygon fill="none" stroke="black" points="700,-208 700,-260 874,-260 874,-208 700,-208"/>
</g>
<g id="clust7" class="cluster">
<title>cluster_RedboxPortalCoreModule_providers</title>
<polygon fill="none" stroke="black" points="16,-78 16,-130 1434,-130 1434,-78 16,-78"/>
</g>
<!-- RecordTableComponent -->
<g id="node1" class="node">
<title>RecordTableComponent</title>
<polygon fill="#ffffb3" stroke="black" points="1603.63,-122 1450.37,-122 1450.37,-86 1603.63,-86 1603.63,-122"/>
<text text-anchor="middle" x="1527" y="-99.8" font-family="Times,serif" font-size="14.00">RecordTableComponent</text>
</g>
<!-- RedboxPortalCoreModule -->
<g id="node2" class="node">
<title>RedboxPortalCoreModule</title>
<polygon fill="#8dd3c7" stroke="black" points="868.75,-187 865.75,-191 844.75,-191 841.75,-187 705.25,-187 705.25,-151 868.75,-151 868.75,-187"/>
<text text-anchor="middle" x="787" y="-164.8" font-family="Times,serif" font-size="14.00">RedboxPortalCoreModule</text>
</g>
<!-- RecordTableComponent&#45;&gt;RedboxPortalCoreModule -->
<g id="edge1" class="edge">
<title>RecordTableComponent&#45;&gt;RedboxPortalCoreModule</title>
<path fill="none" stroke="black" d="M1527,-122.01C1527,-144.49 1527,-180 1527,-180 1527,-180 879.02,-180 879.02,-180"/>
<polygon fill="black" stroke="black" points="879.02,-176.5 869.02,-180 879.02,-183.5 879.02,-176.5"/>
</g>
<!-- RecordTableComponent  -->
<g id="node3" class="node">
<title>RecordTableComponent </title>
<polygon fill="#fb8072" stroke="black" points="865.63,-252 708.37,-252 708.37,-216 865.63,-216 865.63,-252"/>
<text text-anchor="middle" x="787" y="-229.8" font-family="Times,serif" font-size="14.00">RecordTableComponent </text>
</g>
<!-- RedboxPortalCoreModule&#45;&gt;RecordTableComponent  -->
<g id="edge2" class="edge">
<title>RedboxPortalCoreModule&#45;&gt;RecordTableComponent </title>
<path fill="none" stroke="black" stroke-dasharray="5,2" d="M787,-187.11C787,-187.11 787,-205.99 787,-205.99"/>
<polygon fill="black" stroke="black" points="783.5,-205.99 787,-215.99 790.5,-205.99 783.5,-205.99"/>
</g>
<!-- AppConfigService -->
<g id="node4" class="node">
<title>AppConfigService</title>
<ellipse fill="#fdb462" stroke="black" cx="1343" cy="-104" rx="83.39" ry="18"/>
<text text-anchor="middle" x="1343" y="-99.8" font-family="Times,serif" font-size="14.00">AppConfigService</text>
</g>
<!-- AppConfigService&#45;&gt;RedboxPortalCoreModule -->
<g id="edge3" class="edge">
<title>AppConfigService&#45;&gt;RedboxPortalCoreModule</title>
<path fill="none" stroke="black" d="M1343,-122.13C1343,-142.57 1343,-173 1343,-173 1343,-173 879.04,-173 879.04,-173"/>
<polygon fill="black" stroke="black" points="879.04,-169.5 869.04,-173 879.04,-176.5 879.04,-169.5"/>
</g>
<!-- ConfigService -->
<g id="node5" class="node">
<title>ConfigService</title>
<ellipse fill="#fdb462" stroke="black" cx="1175" cy="-104" rx="66.63" ry="18"/>
<text text-anchor="middle" x="1175" y="-99.8" font-family="Times,serif" font-size="14.00">ConfigService</text>
</g>
<!-- ConfigService&#45;&gt;RedboxPortalCoreModule -->
<g id="edge4" class="edge">
<title>ConfigService&#45;&gt;RedboxPortalCoreModule</title>
<path fill="none" stroke="black" d="M1175,-122.27C1175,-140.56 1175,-166 1175,-166 1175,-166 878.81,-166 878.81,-166"/>
<polygon fill="black" stroke="black" points="878.81,-162.5 868.81,-166 878.81,-169.5 878.81,-162.5"/>
</g>
<!-- CsrfInterceptor -->
<g id="node6" class="node">
<title>CsrfInterceptor</title>
<ellipse fill="#fdb462" stroke="black" cx="1020" cy="-104" rx="70.04" ry="18"/>
<text text-anchor="middle" x="1020" y="-99.8" font-family="Times,serif" font-size="14.00">CsrfInterceptor</text>
</g>
<!-- CsrfInterceptor&#45;&gt;RedboxPortalCoreModule -->
<g id="edge5" class="edge">
<title>CsrfInterceptor&#45;&gt;RedboxPortalCoreModule</title>
<path fill="none" stroke="black" d="M1020,-122.01C1020,-138.05 1020,-159 1020,-159 1020,-159 878.82,-159 878.82,-159"/>
<polygon fill="black" stroke="black" points="878.82,-155.5 868.82,-159 878.82,-162.5 878.82,-155.5"/>
</g>
<!-- LoggerService -->
<g id="node7" class="node">
<title>LoggerService</title>
<ellipse fill="#fdb462" stroke="black" cx="864" cy="-104" rx="67.76" ry="18"/>
<text text-anchor="middle" x="864" y="-99.8" font-family="Times,serif" font-size="14.00">LoggerService</text>
</g>
<!-- LoggerService&#45;&gt;RedboxPortalCoreModule -->
<g id="edge6" class="edge">
<title>LoggerService&#45;&gt;RedboxPortalCoreModule</title>
<path fill="none" stroke="black" d="M832.5,-120.07C832.5,-120.07 832.5,-140.82 832.5,-140.82"/>
<polygon fill="black" stroke="black" points="829,-140.82 832.5,-150.82 836,-140.82 829,-140.82"/>
</g>
<!-- RecordService -->
<g id="node8" class="node">
<title>RecordService</title>
<ellipse fill="#fdb462" stroke="black" cx="710" cy="-104" rx="67.75" ry="18"/>
<text text-anchor="middle" x="710" y="-99.8" font-family="Times,serif" font-size="14.00">RecordService</text>
</g>
<!-- RecordService&#45;&gt;RedboxPortalCoreModule -->
<g id="edge7" class="edge">
<title>RecordService&#45;&gt;RedboxPortalCoreModule</title>
<path fill="none" stroke="black" d="M741.5,-120.07C741.5,-120.07 741.5,-140.82 741.5,-140.82"/>
<polygon fill="black" stroke="black" points="738,-140.82 741.5,-150.82 745,-140.82 738,-140.82"/>
</g>
<!-- ReportService -->
<g id="node9" class="node">
<title>ReportService</title>
<ellipse fill="#fdb462" stroke="black" cx="558" cy="-104" rx="66.05" ry="18"/>
<text text-anchor="middle" x="558" y="-99.8" font-family="Times,serif" font-size="14.00">ReportService</text>
</g>
<!-- ReportService&#45;&gt;RedboxPortalCoreModule -->
<g id="edge8" class="edge">
<title>ReportService&#45;&gt;RedboxPortalCoreModule</title>
<path fill="none" stroke="black" d="M558,-122.01C558,-138.05 558,-159 558,-159 558,-159 694.97,-159 694.97,-159"/>
<polygon fill="black" stroke="black" points="694.97,-162.5 704.97,-159 694.97,-155.5 694.97,-162.5"/>
</g>
<!-- TranslationService -->
<g id="node10" class="node">
<title>TranslationService</title>
<ellipse fill="#fdb462" stroke="black" cx="390" cy="-104" rx="83.94" ry="18"/>
<text text-anchor="middle" x="390" y="-99.8" font-family="Times,serif" font-size="14.00">TranslationService</text>
</g>
<!-- TranslationService&#45;&gt;RedboxPortalCoreModule -->
<g id="edge9" class="edge">
<title>TranslationService&#45;&gt;RedboxPortalCoreModule</title>
<path fill="none" stroke="black" d="M390,-122.27C390,-140.56 390,-166 390,-166 390,-166 695.22,-166 695.22,-166"/>
<polygon fill="black" stroke="black" points="695.22,-169.5 705.22,-166 695.22,-162.5 695.22,-169.5"/>
</g>
<!-- UserService -->
<g id="node11" class="node">
<title>UserService</title>
<ellipse fill="#fdb462" stroke="black" cx="230" cy="-104" rx="58.44" ry="18"/>
<text text-anchor="middle" x="230" y="-99.8" font-family="Times,serif" font-size="14.00">UserService</text>
</g>
<!-- UserService&#45;&gt;RedboxPortalCoreModule -->
<g id="edge10" class="edge">
<title>UserService&#45;&gt;RedboxPortalCoreModule</title>
<path fill="none" stroke="black" d="M230,-122.13C230,-142.57 230,-173 230,-173 230,-173 695.11,-173 695.11,-173"/>
<polygon fill="black" stroke="black" points="695.11,-176.5 705.11,-173 695.11,-169.5 695.11,-176.5"/>
</g>
<!-- UtilityService -->
<g id="node12" class="node">
<title>UtilityService</title>
<ellipse fill="#fdb462" stroke="black" cx="89" cy="-104" rx="65.42" ry="18"/>
<text text-anchor="middle" x="89" y="-99.8" font-family="Times,serif" font-size="14.00">UtilityService</text>
</g>
<!-- UtilityService&#45;&gt;RedboxPortalCoreModule -->
<g id="edge11" class="edge">
<title>UtilityService&#45;&gt;RedboxPortalCoreModule</title>
<path fill="none" stroke="black" d="M89,-122.01C89,-144.49 89,-180 89,-180 89,-180 695.22,-180 695.22,-180"/>
<polygon fill="black" stroke="black" points="695.22,-183.5 705.22,-180 695.22,-176.5 695.22,-183.5"/>
</g>
</g>
</svg>
