<?xml version="1.0" encoding="UTF-8" standalone="no"?>
<!DOCTYPE svg PUBLIC "-//W3C//DTD SVG 1.1//EN"
 "http://www.w3.org/Graphics/SVG/1.1/DTD/svg11.dtd">
<!-- Generated by graphviz version 2.47.0 (20210316.0004)
 -->
<!-- Title: dependencies Pages: 1 -->
<svg width="504pt" height="284pt"
 viewBox="0.00 0.00 504.00 284.00" xmlns="http://www.w3.org/2000/svg" xmlns:xlink="http://www.w3.org/1999/xlink">
<g id="graph0" class="graph" transform="scale(1 1) rotate(0) translate(4 280)">
<title>dependencies</title>
<polygon fill="white" stroke="transparent" points="-4,4 -4,-280 500,-280 500,4 -4,4"/>
<text text-anchor="start" x="227.01" y="-42.4" font-family="Times-12" font-weight="bold" font-size="14.00">Legend</text>
<polygon fill="#ffffb3" stroke="transparent" points="14,-10 14,-30 34,-30 34,-10 14,-10"/>
<text text-anchor="start" x="37.63" y="-15.4" font-family="Times-12" font-size="14.00"> &#160;Declarations</text>
<polygon fill="#8dd3c7" stroke="transparent" points="127,-10 127,-30 147,-30 147,-10 127,-10"/>
<text text-anchor="start" x="150.73" y="-15.4" font-family="Times-12" font-size="14.00"> &#160;Module</text>
<polygon fill="#80b1d3" stroke="transparent" points="213,-10 213,-30 233,-30 233,-10 213,-10"/>
<text text-anchor="start" x="236.78" y="-15.4" font-family="Times-12" font-size="14.00"> &#160;Bootstrap</text>
<polygon fill="#fdb462" stroke="transparent" points="310,-10 310,-30 330,-30 330,-10 310,-10"/>
<text text-anchor="start" x="333.67" y="-15.4" font-family="Times-12" font-size="14.00"> &#160;Providers</text>
<polygon fill="#fb8072" stroke="transparent" points="406,-10 406,-30 426,-30 426,-10 406,-10"/>
<text text-anchor="start" x="429.73" y="-15.4" font-family="Times-12" font-size="14.00"> &#160;Exports</text>
<g id="clust1" class="cluster">
<title>cluster_LocalAuthModule</title>
<polygon fill="none" stroke="black" stroke-dasharray="1,5" points="67,-70 67,-268 429,-268 429,-70 67,-70"/>
</g>
<g id="clust2" class="cluster">
<title>cluster_LocalAuthModule_declarations</title>
<polygon fill="none" stroke="black" points="263,-78 263,-130 421,-130 421,-78 263,-78"/>
</g>
<g id="clust6" class="cluster">
<title>cluster_LocalAuthModule_bootstrap</title>
<polygon fill="none" stroke="black" points="173,-208 173,-260 333,-260 333,-208 173,-208"/>
</g>
<g id="clust4" class="cluster">
<title>cluster_LocalAuthModule_imports</title>
<polygon fill="none" stroke="black" points="75,-78 75,-130 255,-130 255,-78 75,-78"/>
</g>
<!-- LocalAuthComponent -->
<g id="node1" class="node">
<title>LocalAuthComponent</title>
<polygon fill="#ffffb3" stroke="black" points="412.7,-122 271.3,-122 271.3,-86 412.7,-86 412.7,-122"/>
<text text-anchor="middle" x="342" y="-99.8" font-family="Times,serif" font-size="14.00">LocalAuthComponent</text>
</g>
<!-- LocalAuthModule -->
<g id="node2" class="node">
<title>LocalAuthModule</title>
<polygon fill="#8dd3c7" stroke="black" points="312.92,-187 309.92,-191 288.92,-191 285.92,-187 193.08,-187 193.08,-151 312.92,-151 312.92,-187"/>
<text text-anchor="middle" x="253" y="-164.8" font-family="Times,serif" font-size="14.00">LocalAuthModule</text>
</g>
<!-- LocalAuthComponent&#45;&gt;LocalAuthModule -->
<g id="edge1" class="edge">
<title>LocalAuthComponent&#45;&gt;LocalAuthModule</title>
<path fill="none" stroke="black" d="M292.05,-122.11C292.05,-122.11 292.05,-140.99 292.05,-140.99"/>
<polygon fill="black" stroke="black" points="288.55,-140.99 292.05,-150.99 295.55,-140.99 288.55,-140.99"/>
</g>
<!-- LocalAuthComponent  -->
<g id="node4" class="node">
<title>LocalAuthComponent </title>
<polygon fill="#80b1d3" stroke="black" points="325.2,-252 180.8,-252 180.8,-216 325.2,-216 325.2,-252"/>
<text text-anchor="middle" x="253" y="-229.8" font-family="Times,serif" font-size="14.00">LocalAuthComponent </text>
</g>
<!-- LocalAuthModule&#45;&gt;LocalAuthComponent  -->
<g id="edge3" class="edge">
<title>LocalAuthModule&#45;&gt;LocalAuthComponent </title>
<path fill="none" stroke="black" stroke-dasharray="1,5" d="M253,-187.11C253,-187.11 253,-205.99 253,-205.99"/>
<polygon fill="black" stroke="black" points="249.5,-205.99 253,-215.99 256.5,-205.99 249.5,-205.99"/>
</g>
<!-- RedboxPortalCoreModule -->
<g id="node3" class="node">
<title>RedboxPortalCoreModule</title>
<polygon fill="#8dd3c7" stroke="black" points="246.75,-122 243.75,-126 222.75,-126 219.75,-122 83.25,-122 83.25,-86 246.75,-86 246.75,-122"/>
<text text-anchor="middle" x="165" y="-99.8" font-family="Times,serif" font-size="14.00">RedboxPortalCoreModule</text>
</g>
<!-- RedboxPortalCoreModule&#45;&gt;LocalAuthModule -->
<g id="edge2" class="edge">
<title>RedboxPortalCoreModule&#45;&gt;LocalAuthModule</title>
<path fill="none" stroke="black" d="M220.08,-122.11C220.08,-122.11 220.08,-140.99 220.08,-140.99"/>
<polygon fill="black" stroke="black" points="216.58,-140.99 220.08,-150.99 223.58,-140.99 216.58,-140.99"/>
</g>
</g>
</svg>
