<?xml version="1.0" encoding="UTF-8" standalone="no"?>
<!DOCTYPE svg PUBLIC "-//W3C//DTD SVG 1.1//EN"
 "http://www.w3.org/Graphics/SVG/1.1/DTD/svg11.dtd">
<!-- Generated by graphviz version 5.0.0 (20220707.1540)
 -->
<!-- Title: dependencies Pages: 1 -->
<svg width="320pt" height="247pt"
 viewBox="0.00 0.00 320.00 246.80" xmlns="http://www.w3.org/2000/svg" xmlns:xlink="http://www.w3.org/1999/xlink">
<g id="graph0" class="graph" transform="scale(1 1) rotate(0) translate(4 242.8)">
<title>dependencies</title>
<polygon fill="white" stroke="transparent" points="-4,4 -4,-242.8 316,-242.8 316,4 -4,4"/>
<text text-anchor="middle" x="156" y="-8.2" font-family="sans-serif" font-size="14.00">dependencies</text>
<g id="clust1" class="cluster">
<title>cluster_LocalAuthModule</title>
<polygon fill="none" stroke="black" stroke-dasharray="1,5" points="8,-32.8 8,-230.8 304,-230.8 304,-32.8 8,-32.8"/>
</g>
<g id="clust4" class="cluster">
<title>cluster_LocalAuthModule_imports</title>
<polygon fill="none" stroke="black" points="182,-40.8 182,-92.8 296,-92.8 296,-40.8 182,-40.8"/>
</g>
<g id="clust2" class="cluster">
<title>cluster_LocalAuthModule_declarations</title>
<polygon fill="none" stroke="black" points="16,-40.8 16,-92.8 174,-92.8 174,-40.8 16,-40.8"/>
</g>
<g id="clust6" class="cluster">
<title>cluster_LocalAuthModule_bootstrap</title>
<polygon fill="none" stroke="black" points="76,-170.8 76,-222.8 236,-222.8 236,-170.8 76,-170.8"/>
</g>
<!-- LocalAuthComponent -->
<g id="node1" class="node">
<title>LocalAuthComponent</title>
<polygon fill="#ffffb3" stroke="black" points="165.7,-84.8 24.3,-84.8 24.3,-48.8 165.7,-48.8 165.7,-84.8"/>
<text text-anchor="middle" x="95" y="-62.6" font-family="Times,serif" font-size="14.00">LocalAuthComponent</text>
</g>
<!-- LocalAuthModule -->
<g id="node2" class="node">
<title>LocalAuthModule</title>
<polygon fill="#8dd3c7" stroke="black" points="215.92,-149.8 212.92,-153.8 191.92,-153.8 188.92,-149.8 96.08,-149.8 96.08,-113.8 215.92,-113.8 215.92,-149.8"/>
<text text-anchor="middle" x="156" y="-127.6" font-family="Times,serif" font-size="14.00">LocalAuthModule</text>
</g>
<!-- LocalAuthComponent&#45;&gt;LocalAuthModule -->
<g id="edge1" class="edge">
<title>LocalAuthComponent&#45;&gt;LocalAuthModule</title>
<path fill="none" stroke="black" d="M130.94,-84.91C130.94,-84.91 130.94,-103.79 130.94,-103.79"/>
<polygon fill="black" stroke="black" points="127.44,-103.79 130.94,-113.79 134.44,-103.79 127.44,-103.79"/>
</g>
<!-- LocalAuthComponent  -->
<g id="node4" class="node">
<title>LocalAuthComponent </title>
<polygon fill="#80b1d3" stroke="black" points="228.2,-214.8 83.8,-214.8 83.8,-178.8 228.2,-178.8 228.2,-214.8"/>
<text text-anchor="middle" x="156" y="-192.6" font-family="Times,serif" font-size="14.00">LocalAuthComponent </text>
</g>
<!-- LocalAuthModule&#45;&gt;LocalAuthComponent  -->
<g id="edge3" class="edge">
<title>LocalAuthModule&#45;&gt;LocalAuthComponent </title>
<path fill="none" stroke="black" stroke-dasharray="1,5" d="M156,-149.91C156,-149.91 156,-168.79 156,-168.79"/>
<polygon fill="black" stroke="black" points="152.5,-168.79 156,-178.79 159.5,-168.79 152.5,-168.79"/>
</g>
<!-- SharedModule -->
<g id="node3" class="node">
<title>SharedModule</title>
<polygon fill="#8dd3c7" stroke="black" points="288.43,-84.8 285.43,-88.8 264.43,-88.8 261.43,-84.8 189.57,-84.8 189.57,-48.8 288.43,-48.8 288.43,-84.8"/>
<text text-anchor="middle" x="239" y="-62.6" font-family="Times,serif" font-size="14.00">SharedModule</text>
</g>
<!-- SharedModule&#45;&gt;LocalAuthModule -->
<g id="edge2" class="edge">
<title>SharedModule&#45;&gt;LocalAuthModule</title>
<path fill="none" stroke="black" d="M202.75,-84.91C202.75,-84.91 202.75,-103.79 202.75,-103.79"/>
<polygon fill="black" stroke="black" points="199.25,-103.79 202.75,-113.79 206.25,-103.79 199.25,-103.79"/>
</g>
</g>
</svg>
