<?xml version="1.0" encoding="UTF-8" standalone="no"?>
<!DOCTYPE svg PUBLIC "-//W3C//DTD SVG 1.1//EN"
 "http://www.w3.org/Graphics/SVG/1.1/DTD/svg11.dtd">
<!-- Generated by graphviz version 2.47.0 (20210316.0004)
 -->
<!-- Title: dependencies Pages: 1 -->
<svg width="504pt" height="284pt"
 viewBox="0.00 0.00 504.00 284.00" xmlns="http://www.w3.org/2000/svg" xmlns:xlink="http://www.w3.org/1999/xlink">
<g id="graph0" class="graph" transform="scale(1 1) rotate(0) translate(4 280)">
<title>dependencies</title>
<polygon fill="white" stroke="transparent" points="-4,4 -4,-280 500,-280 500,4 -4,4"/>
<text text-anchor="start" x="227.01" y="-42.4" font-family="Times-12" font-weight="bold" font-size="14.00">Legend</text>
<polygon fill="#ffffb3" stroke="transparent" points="14,-10 14,-30 34,-30 34,-10 14,-10"/>
<text text-anchor="start" x="37.63" y="-15.4" font-family="Times-12" font-size="14.00"> &#160;Declarations</text>
<polygon fill="#8dd3c7" stroke="transparent" points="127,-10 127,-30 147,-30 147,-10 127,-10"/>
<text text-anchor="start" x="150.73" y="-15.4" font-family="Times-12" font-size="14.00"> &#160;Module</text>
<polygon fill="#80b1d3" stroke="transparent" points="213,-10 213,-30 233,-30 233,-10 213,-10"/>
<text text-anchor="start" x="236.78" y="-15.4" font-family="Times-12" font-size="14.00"> &#160;Bootstrap</text>
<polygon fill="#fdb462" stroke="transparent" points="310,-10 310,-30 330,-30 330,-10 310,-10"/>
<text text-anchor="start" x="333.67" y="-15.4" font-family="Times-12" font-size="14.00"> &#160;Providers</text>
<polygon fill="#fb8072" stroke="transparent" points="406,-10 406,-30 426,-30 426,-10 406,-10"/>
<text text-anchor="start" x="429.73" y="-15.4" font-family="Times-12" font-size="14.00"> &#160;Exports</text>
<g id="clust1" class="cluster">
<title>cluster_LocalAuthModule</title>
<polygon fill="none" stroke="black" stroke-dasharray="1,5" points="67,-70 67,-268 429,-268 429,-70 67,-70"/>
</g>
<g id="clust4" class="cluster">
<title>cluster_LocalAuthModule_imports</title>
<polygon fill="none" stroke="black" points="241,-78 241,-130 421,-130 421,-78 241,-78"/>
</g>
<g id="clust6" class="cluster">
<title>cluster_LocalAuthModule_bootstrap</title>
<polygon fill="none" stroke="black" points="163,-208 163,-260 323,-260 323,-208 163,-208"/>
</g>
<g id="clust2" class="cluster">
<title>cluster_LocalAuthModule_declarations</title>
<polygon fill="none" stroke="black" points="75,-78 75,-130 233,-130 233,-78 75,-78"/>
</g>
<!-- LocalAuthComponent -->
<g id="node1" class="node">
<title>LocalAuthComponent</title>
<polygon fill="#ffffb3" stroke="black" points="224.7,-122 83.3,-122 83.3,-86 224.7,-86 224.7,-122"/>
<text text-anchor="middle" x="154" y="-99.8" font-family="Times,serif" font-size="14.00">LocalAuthComponent</text>
</g>
<!-- LocalAuthModule -->
<g id="node2" class="node">
<title>LocalAuthModule</title>
<polygon fill="#8dd3c7" stroke="black" points="302.92,-187 299.92,-191 278.92,-191 275.92,-187 183.08,-187 183.08,-151 302.92,-151 302.92,-187"/>
<text text-anchor="middle" x="243" y="-164.8" font-family="Times,serif" font-size="14.00">LocalAuthModule</text>
</g>
<!-- LocalAuthComponent&#45;&gt;LocalAuthModule -->
<g id="edge1" class="edge">
<title>LocalAuthComponent&#45;&gt;LocalAuthModule</title>
<path fill="none" stroke="black" d="M203.95,-122.11C203.95,-122.11 203.95,-140.99 203.95,-140.99"/>
<polygon fill="black" stroke="black" points="200.45,-140.99 203.95,-150.99 207.45,-140.99 200.45,-140.99"/>
</g>
<!-- LocalAuthComponent  -->
<g id="node4" class="node">
<title>LocalAuthComponent </title>
<polygon fill="#80b1d3" stroke="black" points="315.2,-252 170.8,-252 170.8,-216 315.2,-216 315.2,-252"/>
<text text-anchor="middle" x="243" y="-229.8" font-family="Times,serif" font-size="14.00">LocalAuthComponent </text>
</g>
<!-- LocalAuthModule&#45;&gt;LocalAuthComponent  -->
<g id="edge3" class="edge">
<title>LocalAuthModule&#45;&gt;LocalAuthComponent </title>
<path fill="none" stroke="black" stroke-dasharray="1,5" d="M243,-187.11C243,-187.11 243,-205.99 243,-205.99"/>
<polygon fill="black" stroke="black" points="239.5,-205.99 243,-215.99 246.5,-205.99 239.5,-205.99"/>
</g>
<!-- RedboxPortalCoreModule -->
<g id="node3" class="node">
<title>RedboxPortalCoreModule</title>
<polygon fill="#8dd3c7" stroke="black" points="412.75,-122 409.75,-126 388.75,-126 385.75,-122 249.25,-122 249.25,-86 412.75,-86 412.75,-122"/>
<text text-anchor="middle" x="331" y="-99.8" font-family="Times,serif" font-size="14.00">RedboxPortalCoreModule</text>
</g>
<!-- RedboxPortalCoreModule&#45;&gt;LocalAuthModule -->
<g id="edge2" class="edge">
<title>RedboxPortalCoreModule&#45;&gt;LocalAuthModule</title>
<path fill="none" stroke="black" d="M275.92,-122.11C275.92,-122.11 275.92,-140.99 275.92,-140.99"/>
<polygon fill="black" stroke="black" points="272.42,-140.99 275.92,-150.99 279.42,-140.99 272.42,-140.99"/>
</g>
</g>
</svg>
