<?xml version="1.0" encoding="UTF-8" standalone="no"?>
<!DOCTYPE svg PUBLIC "-//W3C//DTD SVG 1.1//EN"
 "http://www.w3.org/Graphics/SVG/1.1/DTD/svg11.dtd">
<!-- Generated by graphviz version 2.47.3 (20210619.1520)
 -->
<!-- Title: dependencies Pages: 1 -->
<svg width="794pt" height="312pt"
 viewBox="0.00 0.00 794.00 311.80" xmlns="http://www.w3.org/2000/svg" xmlns:xlink="http://www.w3.org/1999/xlink">
<g id="graph0" class="graph" transform="scale(1 1) rotate(0) translate(4 307.8)">
<title>dependencies</title>
<polygon fill="white" stroke="transparent" points="-4,4 -4,-307.8 790,-307.8 790,4 -4,4"/>
<text text-anchor="middle" x="393" y="-8.2" font-family="sans-serif" font-size="14.00">dependencies</text>
<g id="clust1" class="cluster">
<title>cluster_DmpModule</title>
<polygon fill="none" stroke="black" stroke-dasharray="1,5" points="8,-32.8 8,-295.8 778,-295.8 778,-32.8 8,-32.8"/>
</g>
<g id="clust3" class="cluster">
<title>cluster_DmpModule_DmpFormComponent_providers</title>
<polygon fill="none" stroke="black" points="138,-40.8 138,-157.8 770,-157.8 770,-40.8 138,-40.8"/>
</g>
<g id="clust4" class="cluster">
<title>cluster_DmpModule_imports</title>
<polygon fill="none" stroke="black" points="16,-105.8 16,-157.8 130,-157.8 130,-105.8 16,-105.8"/>
</g>
<g id="clust6" class="cluster">
<title>cluster_DmpModule_bootstrap</title>
<polygon fill="none" stroke="black" points="168,-235.8 168,-287.8 328,-287.8 328,-235.8 168,-235.8"/>
</g>
<!-- DmpFormComponent -->
<g id="node1" class="node">
<title>DmpFormComponent</title>
<polygon fill="#ffffb3" stroke="black" points="469.66,-149.8 330.34,-149.8 330.34,-113.8 469.66,-113.8 469.66,-149.8"/>
<text text-anchor="middle" x="400" y="-127.6" font-family="Times,serif" font-size="14.00">DmpFormComponent</text>
</g>
<!-- DmpModule -->
<g id="node2" class="node">
<title>DmpModule</title>
<polygon fill="#8dd3c7" stroke="black" points="291.55,-214.8 288.55,-218.8 267.55,-218.8 264.55,-214.8 204.45,-214.8 204.45,-178.8 291.55,-178.8 291.55,-214.8"/>
<text text-anchor="middle" x="248" y="-192.6" font-family="Times,serif" font-size="14.00">DmpModule</text>
</g>
<!-- DmpFormComponent&#45;&gt;DmpModule -->
<g id="edge1" class="edge">
<title>DmpFormComponent&#45;&gt;DmpModule</title>
<path fill="none" stroke="black" d="M330.09,-137.8C296.14,-137.8 262.59,-137.8 262.59,-137.8 262.59,-137.8 262.59,-168.78 262.59,-168.78"/>
<polygon fill="black" stroke="black" points="259.09,-168.78 262.59,-178.78 266.09,-168.78 259.09,-168.78"/>
</g>
<!-- DmpFormComponent  -->
<g id="node6" class="node">
<title>DmpFormComponent </title>
<polygon fill="#80b1d3" stroke="black" points="319.66,-279.8 176.34,-279.8 176.34,-243.8 319.66,-243.8 319.66,-279.8"/>
<text text-anchor="middle" x="248" y="-257.6" font-family="Times,serif" font-size="14.00">DmpFormComponent </text>
</g>
<!-- DmpModule&#45;&gt;DmpFormComponent  -->
<g id="edge5" class="edge">
<title>DmpModule&#45;&gt;DmpFormComponent </title>
<path fill="none" stroke="black" stroke-dasharray="1,5" d="M248,-214.91C248,-214.91 248,-233.79 248,-233.79"/>
<polygon fill="black" stroke="black" points="244.5,-233.79 248,-243.79 251.5,-233.79 244.5,-233.79"/>
</g>
<!-- Location -->
<g id="node3" class="node">
<title>Location</title>
<ellipse fill="#fdb462" stroke="black" cx="717" cy="-66.8" rx="45.22" ry="18"/>
<text text-anchor="middle" x="717" y="-62.6" font-family="Times,serif" font-size="14.00">Location</text>
</g>
<!-- Location&#45;&gt;DmpFormComponent -->
<g id="edge2" class="edge">
<title>Location&#45;&gt;DmpFormComponent</title>
<path fill="none" stroke="black" d="M717,-84.91C717,-104.14 717,-131.8 717,-131.8 717,-131.8 479.96,-131.8 479.96,-131.8"/>
<polygon fill="black" stroke="black" points="479.96,-128.3 469.96,-131.8 479.96,-135.3 479.96,-128.3"/>
</g>
<!-- { provide: LocationStrategy, useClass: PathLocationStrategy } -->
<g id="node4" class="node">
<title>{ provide: LocationStrategy, useClass: PathLocationStrategy }</title>
<ellipse fill="#fdb462" stroke="black" cx="400" cy="-66.8" rx="253.76" ry="18"/>
<text text-anchor="middle" x="400" y="-62.6" font-family="Times,serif" font-size="14.00">{ provide: LocationStrategy, useClass: PathLocationStrategy }</text>
</g>
<!-- { provide: LocationStrategy, useClass: PathLocationStrategy }&#45;&gt;DmpFormComponent -->
<g id="edge3" class="edge">
<title>{ provide: LocationStrategy, useClass: PathLocationStrategy }&#45;&gt;DmpFormComponent</title>
<path fill="none" stroke="black" d="M400,-84.91C400,-84.91 400,-103.79 400,-103.79"/>
<polygon fill="black" stroke="black" points="396.5,-103.79 400,-113.79 403.5,-103.79 396.5,-103.79"/>
</g>
<!-- SharedModule -->
<g id="node5" class="node">
<title>SharedModule</title>
<polygon fill="#8dd3c7" stroke="black" points="122.42,-149.8 119.42,-153.8 98.42,-153.8 95.42,-149.8 23.58,-149.8 23.58,-113.8 122.42,-113.8 122.42,-149.8"/>
<text text-anchor="middle" x="73" y="-127.6" font-family="Times,serif" font-size="14.00">SharedModule</text>
</g>
<!-- SharedModule&#45;&gt;DmpModule -->
<g id="edge4" class="edge">
<title>SharedModule&#45;&gt;DmpModule</title>
<path fill="none" stroke="black" d="M122.44,-125.8C169.57,-125.8 233.41,-125.8 233.41,-125.8 233.41,-125.8 233.41,-168.52 233.41,-168.52"/>
<polygon fill="black" stroke="black" points="229.91,-168.52 233.41,-178.52 236.91,-168.52 229.91,-168.52"/>
</g>
</g>
</svg>
