<?xml version="1.0" encoding="UTF-8" standalone="no"?>
<!DOCTYPE svg PUBLIC "-//W3C//DTD SVG 1.1//EN"
 "http://www.w3.org/Graphics/SVG/1.1/DTD/svg11.dtd">
<!-- Generated by graphviz version 2.40.1 (20161225.0304)
 -->
<!-- Title: dependencies Pages: 1 -->
<svg width="504pt" height="349pt"
 viewBox="0.00 0.00 504.00 349.00" xmlns="http://www.w3.org/2000/svg" xmlns:xlink="http://www.w3.org/1999/xlink">
<g id="graph0" class="graph" transform="scale(1 1) rotate(0) translate(4 345)">
<title>dependencies</title>
<polygon fill="#ffffff" stroke="transparent" points="-4,4 -4,-345 500,-345 500,4 -4,4"/>
<text text-anchor="start" x="227.0091" y="-42.4" font-family="sans-serif" font-weight="bold" font-size="14.00" fill="#000000">Legend</text>
<polygon fill="#ffffb3" stroke="transparent" points="14,-10 14,-30 34,-30 34,-10 14,-10"/>
<text text-anchor="start" x="37.629" y="-15.4" font-family="sans-serif" font-size="14.00" fill="#000000"> &#160;Declarations</text>
<polygon fill="#8dd3c7" stroke="transparent" points="127,-10 127,-30 147,-30 147,-10 127,-10"/>
<text text-anchor="start" x="150.7251" y="-15.4" font-family="sans-serif" font-size="14.00" fill="#000000"> &#160;Module</text>
<polygon fill="#80b1d3" stroke="transparent" points="213,-10 213,-30 233,-30 233,-10 213,-10"/>
<text text-anchor="start" x="236.7812" y="-15.4" font-family="sans-serif" font-size="14.00" fill="#000000"> &#160;Bootstrap</text>
<polygon fill="#fdb462" stroke="transparent" points="310,-10 310,-30 330,-30 330,-10 310,-10"/>
<text text-anchor="start" x="333.6732" y="-15.4" font-family="sans-serif" font-size="14.00" fill="#000000"> &#160;Providers</text>
<polygon fill="#fb8072" stroke="transparent" points="406,-10 406,-30 426,-30 426,-10 406,-10"/>
<text text-anchor="start" x="429.7258" y="-15.4" font-family="sans-serif" font-size="14.00" fill="#000000"> &#160;Exports</text>
<g id="clust1" class="cluster">
<title>cluster_DmpModule</title>
<polygon fill="none" stroke="#000000" stroke-dasharray="1,5" points="101,-70 101,-333 395,-333 395,-70 101,-70"/>
</g>
<g id="clust2" class="cluster">
<title>cluster_DmpModule_declarations</title>
<polygon fill="none" stroke="#000000" points="231,-143 231,-195 387,-195 387,-143 231,-143"/>
</g>
<g id="clust3" class="cluster">
<title>cluster_DmpModule_DmpFormComponent_providers</title>
<polygon fill="none" stroke="#000000" points="169,-78 169,-130 374,-130 374,-78 169,-78"/>
</g>
<g id="clust4" class="cluster">
<title>cluster_DmpModule_imports</title>
<polygon fill="none" stroke="#000000" points="109,-143 109,-195 223,-195 223,-143 109,-143"/>
</g>
<g id="clust6" class="cluster">
<title>cluster_DmpModule_bootstrap</title>
<polygon fill="none" stroke="#000000" points="168,-273 168,-325 328,-325 328,-273 168,-273"/>
</g>
<!-- DmpFormComponent -->
<g id="node1" class="node">
<title>DmpFormComponent</title>
<polygon fill="#ffffb3" stroke="#000000" points="378.6638,-187 239.3362,-187 239.3362,-151 378.6638,-151 378.6638,-187"/>
<text text-anchor="middle" x="309" y="-164.8" font-family="Times,serif" font-size="14.00" fill="#000000">DmpFormComponent</text>
</g>
<!-- DmpModule -->
<g id="node2" class="node">
<title>DmpModule</title>
<polygon fill="#8dd3c7" stroke="#000000" points="291.5482,-252 288.5482,-256 267.5482,-256 264.5482,-252 204.4518,-252 204.4518,-216 291.5482,-216 291.5482,-252"/>
<text text-anchor="middle" x="248" y="-229.8" font-family="Times,serif" font-size="14.00" fill="#000000">DmpModule</text>
</g>
<!-- DmpFormComponent&#45;&gt;DmpModule -->
<g id="edge1" class="edge">
<title>DmpFormComponent&#45;&gt;DmpModule</title>
<path fill="none" stroke="#000000" d="M265.4709,-187.1061C265.4709,-187.1061 265.4709,-205.991 265.4709,-205.991"/>
<polygon fill="#000000" stroke="#000000" points="261.971,-205.9909 265.4709,-215.991 268.971,-205.991 261.971,-205.9909"/>
</g>
<!-- DmpFormComponent  -->
<g id="node6" class="node">
<title>DmpFormComponent </title>
<polygon fill="#80b1d3" stroke="#000000" points="319.6635,-317 176.3365,-317 176.3365,-281 319.6635,-281 319.6635,-317"/>
<text text-anchor="middle" x="248" y="-294.8" font-family="Times,serif" font-size="14.00" fill="#000000">DmpFormComponent </text>
</g>
<!-- DmpModule&#45;&gt;DmpFormComponent  -->
<g id="edge5" class="edge">
<title>DmpModule&#45;&gt;DmpFormComponent </title>
<path fill="none" stroke="#000000" stroke-dasharray="1,5" d="M248,-252.1061C248,-252.1061 248,-270.991 248,-270.991"/>
<polygon fill="#000000" stroke="#000000" points="244.5001,-270.9909 248,-280.991 251.5001,-270.991 244.5001,-270.9909"/>
</g>
<!-- Location -->
<g id="node3" class="node">
<title>Location</title>
<ellipse fill="#fdb462" stroke="#000000" cx="321" cy="-104" rx="45.2247" ry="18"/>
<text text-anchor="middle" x="321" y="-99.8" font-family="Times,serif" font-size="14.00" fill="#000000">Location</text>
</g>
<!-- Location&#45;&gt;DmpFormComponent -->
<g id="edge2" class="edge">
<title>Location&#45;&gt;DmpFormComponent</title>
<path fill="none" stroke="#000000" d="M321,-122.1061C321,-122.1061 321,-140.991 321,-140.991"/>
<polygon fill="#000000" stroke="#000000" points="317.5001,-140.9909 321,-150.991 324.5001,-140.991 317.5001,-140.9909"/>
</g>
<!-- { : , : &#160;} -->
<g id="node4" class="node">
<title>{ : , : &#160;}</title>
<ellipse fill="#fdb462" stroke="#000000" cx="217" cy="-104" rx="40.3166" ry="18"/>
<text text-anchor="middle" x="217" y="-99.8" font-family="Times,serif" font-size="14.00" fill="#000000">{ : , : &#160;}</text>
</g>
<!-- { : , : &#160;}&#45;&gt;DmpFormComponent -->
<g id="edge3" class="edge">
<title>{ : , : &#160;}&#45;&gt;DmpFormComponent</title>
<path fill="none" stroke="#000000" d="M248.1631,-115.6207C248.1631,-115.6207 248.1631,-140.8534 248.1631,-140.8534"/>
<polygon fill="#000000" stroke="#000000" points="244.6632,-140.8533 248.1631,-150.8534 251.6632,-140.8534 244.6632,-140.8533"/>
</g>
<!-- SharedModule -->
<g id="node5" class="node">
<title>SharedModule</title>
<polygon fill="#8dd3c7" stroke="#000000" points="215.4231,-187 212.4231,-191 191.4231,-191 188.4231,-187 116.5769,-187 116.5769,-151 215.4231,-151 215.4231,-187"/>
<text text-anchor="middle" x="166" y="-164.8" font-family="Times,serif" font-size="14.00" fill="#000000">SharedModule</text>
</g>
<!-- SharedModule&#45;&gt;DmpModule -->
<g id="edge4" class="edge">
<title>SharedModule&#45;&gt;DmpModule</title>
<path fill="none" stroke="#000000" d="M209.7188,-187.1061C209.7188,-187.1061 209.7188,-205.991 209.7188,-205.991"/>
<polygon fill="#000000" stroke="#000000" points="206.2189,-205.9909 209.7188,-215.991 213.2189,-205.991 206.2189,-205.9909"/>
</g>
</g>
</svg>
