<?xml version="1.0" encoding="UTF-8" standalone="no"?>
<!DOCTYPE svg PUBLIC "-//W3C//DTD SVG 1.1//EN"
 "http://www.w3.org/Graphics/SVG/1.1/DTD/svg11.dtd">
<!-- Generated by graphviz version 2.44.1 (20200629.0846)
 -->
<!-- Title: dependencies Pages: 1 -->
<svg width="794pt" height="349pt"
 viewBox="0.00 0.00 794.00 349.00" xmlns="http://www.w3.org/2000/svg" xmlns:xlink="http://www.w3.org/1999/xlink">
<g id="graph0" class="graph" transform="scale(1 1) rotate(0) translate(4 345)">
<title>dependencies</title>
<polygon fill="white" stroke="transparent" points="-4,4 -4,-345 790,-345 790,4 -4,4"/>
<text text-anchor="start" x="372.01" y="-42.4" font-family="sans-serif" font-weight="bold" font-size="14.00">Legend</text>
<polygon fill="#ffffb3" stroke="transparent" points="159,-10 159,-30 179,-30 179,-10 159,-10"/>
<text text-anchor="start" x="182.63" y="-15.4" font-family="sans-serif" font-size="14.00"> &#160;Declarations</text>
<polygon fill="#8dd3c7" stroke="transparent" points="272,-10 272,-30 292,-30 292,-10 272,-10"/>
<text text-anchor="start" x="295.73" y="-15.4" font-family="sans-serif" font-size="14.00"> &#160;Module</text>
<polygon fill="#80b1d3" stroke="transparent" points="358,-10 358,-30 378,-30 378,-10 358,-10"/>
<text text-anchor="start" x="381.78" y="-15.4" font-family="sans-serif" font-size="14.00"> &#160;Bootstrap</text>
<polygon fill="#fdb462" stroke="transparent" points="455,-10 455,-30 475,-30 475,-10 455,-10"/>
<text text-anchor="start" x="478.67" y="-15.4" font-family="sans-serif" font-size="14.00"> &#160;Providers</text>
<polygon fill="#fb8072" stroke="transparent" points="551,-10 551,-30 571,-30 571,-10 551,-10"/>
<text text-anchor="start" x="574.73" y="-15.4" font-family="sans-serif" font-size="14.00"> &#160;Exports</text>
<g id="clust1" class="cluster">
<title>cluster_DmpModule</title>
<polygon fill="none" stroke="black" stroke-dasharray="1,5" points="8,-70 8,-333 778,-333 778,-70 8,-70"/>
</g>
<g id="clust4" class="cluster">
<title>cluster_DmpModule_imports</title>
<polygon fill="none" stroke="black" points="656,-143 656,-195 770,-195 770,-143 656,-143"/>
</g>
<g id="clust3" class="cluster">
<title>cluster_DmpModule_DmpFormComponent_providers</title>
<polygon fill="none" stroke="black" points="16,-78 16,-195 648,-195 648,-78 16,-78"/>
</g>
<g id="clust6" class="cluster">
<title>cluster_DmpModule_bootstrap</title>
<polygon fill="none" stroke="black" points="550,-273 550,-325 710,-325 710,-273 550,-273"/>
</g>
<!-- DmpFormComponent -->
<g id="node1" class="node">
<title>DmpFormComponent</title>
<polygon fill="#ffffb3" stroke="black" points="639.66,-187 500.34,-187 500.34,-151 639.66,-151 639.66,-187"/>
<text text-anchor="middle" x="570" y="-164.8" font-family="Times,serif" font-size="14.00">DmpFormComponent</text>
</g>
<!-- DmpModule -->
<g id="node2" class="node">
<title>DmpModule</title>
<polygon fill="#8dd3c7" stroke="black" points="673.55,-252 670.55,-256 649.55,-256 646.55,-252 586.45,-252 586.45,-216 673.55,-216 673.55,-252"/>
<text text-anchor="middle" x="630" y="-229.8" font-family="Times,serif" font-size="14.00">DmpModule</text>
</g>
<!-- DmpFormComponent&#45;&gt;DmpModule -->
<g id="edge1" class="edge">
<title>DmpFormComponent&#45;&gt;DmpModule</title>
<path fill="none" stroke="black" d="M613.03,-187.11C613.03,-187.11 613.03,-205.99 613.03,-205.99"/>
<polygon fill="black" stroke="black" points="609.53,-205.99 613.03,-215.99 616.53,-205.99 609.53,-205.99"/>
</g>
<!-- DmpFormComponent  -->
<g id="node6" class="node">
<title>DmpFormComponent </title>
<polygon fill="#80b1d3" stroke="black" points="701.66,-317 558.34,-317 558.34,-281 701.66,-281 701.66,-317"/>
<text text-anchor="middle" x="630" y="-294.8" font-family="Times,serif" font-size="14.00">DmpFormComponent </text>
</g>
<!-- DmpModule&#45;&gt;DmpFormComponent  -->
<g id="edge5" class="edge">
<title>DmpModule&#45;&gt;DmpFormComponent </title>
<path fill="none" stroke="black" stroke-dasharray="1,5" d="M630,-252.11C630,-252.11 630,-270.99 630,-270.99"/>
<polygon fill="black" stroke="black" points="626.5,-270.99 630,-280.99 633.5,-270.99 626.5,-270.99"/>
</g>
<!-- Location -->
<g id="node3" class="node">
<title>Location</title>
<ellipse fill="#fdb462" stroke="black" cx="595" cy="-104" rx="45.22" ry="18"/>
<text text-anchor="middle" x="595" y="-99.8" font-family="Times,serif" font-size="14.00">Location</text>
</g>
<!-- Location&#45;&gt;DmpFormComponent -->
<g id="edge2" class="edge">
<title>Location&#45;&gt;DmpFormComponent</title>
<path fill="none" stroke="black" d="M594.73,-122.11C594.73,-122.11 594.73,-140.99 594.73,-140.99"/>
<polygon fill="black" stroke="black" points="591.23,-140.99 594.73,-150.99 598.23,-140.99 591.23,-140.99"/>
</g>
<!-- { provide: LocationStrategy, useClass: PathLocationStrategy } -->
<g id="node4" class="node">
<title>{ provide: LocationStrategy, useClass: PathLocationStrategy }</title>
<ellipse fill="#fdb462" stroke="black" cx="278" cy="-104" rx="253.76" ry="18"/>
<text text-anchor="middle" x="278" y="-99.8" font-family="Times,serif" font-size="14.00">{ provide: LocationStrategy, useClass: PathLocationStrategy }</text>
</g>
<!-- { provide: LocationStrategy, useClass: PathLocationStrategy }&#45;&gt;DmpFormComponent -->
<g id="edge3" class="edge">
<title>{ provide: LocationStrategy, useClass: PathLocationStrategy }&#45;&gt;DmpFormComponent</title>
<path fill="none" stroke="black" d="M515.9,-110.47C515.9,-110.47 515.9,-140.78 515.9,-140.78"/>
<polygon fill="black" stroke="black" points="512.4,-140.78 515.9,-150.78 519.4,-140.78 512.4,-140.78"/>
</g>
<!-- SharedModule -->
<g id="node5" class="node">
<title>SharedModule</title>
<polygon fill="#8dd3c7" stroke="black" points="762.42,-187 759.42,-191 738.42,-191 735.42,-187 663.58,-187 663.58,-151 762.42,-151 762.42,-187"/>
<text text-anchor="middle" x="713" y="-164.8" font-family="Times,serif" font-size="14.00">SharedModule</text>
</g>
<!-- SharedModule&#45;&gt;DmpModule -->
<g id="edge4" class="edge">
<title>SharedModule&#45;&gt;DmpModule</title>
<path fill="none" stroke="black" d="M668.78,-187.11C668.78,-187.11 668.78,-205.99 668.78,-205.99"/>
<polygon fill="black" stroke="black" points="665.28,-205.99 668.78,-215.99 672.28,-205.99 665.28,-205.99"/>
</g>
</g>
</svg>
