<?xml version="1.0" encoding="UTF-8" standalone="no"?>
<!DOCTYPE svg PUBLIC "-//W3C//DTD SVG 1.1//EN"
 "http://www.w3.org/Graphics/SVG/1.1/DTD/svg11.dtd">
<!-- Generated by graphviz version 5.0.0 (20220707.1540)
 -->
<!-- Title: dependencies Pages: 1 -->
<svg width="794pt" height="312pt"
 viewBox="0.00 0.00 794.00 311.80" xmlns="http://www.w3.org/2000/svg" xmlns:xlink="http://www.w3.org/1999/xlink">
<g id="graph0" class="graph" transform="scale(1 1) rotate(0) translate(4 307.8)">
<title>dependencies</title>
<polygon fill="white" stroke="transparent" points="-4,4 -4,-307.8 790,-307.8 790,4 -4,4"/>
<text text-anchor="middle" x="393" y="-8.2" font-family="sans-serif" font-size="14.00">dependencies</text>
<g id="clust1" class="cluster">
<title>cluster_DmpModule</title>
<polygon fill="none" stroke="black" stroke-dasharray="1,5" points="8,-32.8 8,-295.8 778,-295.8 778,-32.8 8,-32.8"/>
</g>
<g id="clust6" class="cluster">
<title>cluster_DmpModule_bootstrap</title>
<polygon fill="none" stroke="black" points="550,-235.8 550,-287.8 710,-287.8 710,-235.8 550,-235.8"/>
</g>
<g id="clust4" class="cluster">
<title>cluster_DmpModule_imports</title>
<polygon fill="none" stroke="black" points="656,-105.8 656,-157.8 770,-157.8 770,-105.8 656,-105.8"/>
</g>
<g id="clust3" class="cluster">
<title>cluster_DmpModule_DmpFormComponent_providers</title>
<polygon fill="none" stroke="black" points="16,-40.8 16,-157.8 648,-157.8 648,-40.8 16,-40.8"/>
</g>
<!-- DmpFormComponent -->
<g id="node1" class="node">
<title>DmpFormComponent</title>
<polygon fill="#ffffb3" stroke="black" points="639.67,-149.8 500.33,-149.8 500.33,-113.8 639.67,-113.8 639.67,-149.8"/>
<text text-anchor="middle" x="570" y="-127.6" font-family="Times,serif" font-size="14.00">DmpFormComponent</text>
</g>
<!-- DmpModule -->
<g id="node2" class="node">
<title>DmpModule</title>
<polygon fill="#8dd3c7" stroke="black" points="673.55,-214.8 670.55,-218.8 649.55,-218.8 646.55,-214.8 586.45,-214.8 586.45,-178.8 673.55,-178.8 673.55,-214.8"/>
<text text-anchor="middle" x="630" y="-192.6" font-family="Times,serif" font-size="14.00">DmpModule</text>
</g>
<!-- DmpFormComponent&#45;&gt;DmpModule -->
<g id="edge1" class="edge">
<title>DmpFormComponent&#45;&gt;DmpModule</title>
<path fill="none" stroke="black" d="M613.03,-149.91C613.03,-149.91 613.03,-168.79 613.03,-168.79"/>
<polygon fill="black" stroke="black" points="609.53,-168.79 613.03,-178.79 616.53,-168.79 609.53,-168.79"/>
</g>
<!-- DmpFormComponent  -->
<g id="node6" class="node">
<title>DmpFormComponent </title>
<polygon fill="#80b1d3" stroke="black" points="701.67,-279.8 558.33,-279.8 558.33,-243.8 701.67,-243.8 701.67,-279.8"/>
<text text-anchor="middle" x="630" y="-257.6" font-family="Times,serif" font-size="14.00">DmpFormComponent </text>
</g>
<!-- DmpModule&#45;&gt;DmpFormComponent  -->
<g id="edge5" class="edge">
<title>DmpModule&#45;&gt;DmpFormComponent </title>
<path fill="none" stroke="black" stroke-dasharray="1,5" d="M630,-214.91C630,-214.91 630,-233.79 630,-233.79"/>
<polygon fill="black" stroke="black" points="626.5,-233.79 630,-243.79 633.5,-233.79 626.5,-233.79"/>
</g>
<!-- Location -->
<g id="node3" class="node">
<title>Location</title>
<ellipse fill="#fdb462" stroke="black" cx="595" cy="-66.8" rx="45.22" ry="18"/>
<text text-anchor="middle" x="595" y="-62.6" font-family="Times,serif" font-size="14.00">Location</text>
</g>
<!-- Location&#45;&gt;DmpFormComponent -->
<g id="edge2" class="edge">
<title>Location&#45;&gt;DmpFormComponent</title>
<path fill="none" stroke="black" d="M594.74,-84.91C594.74,-84.91 594.74,-103.79 594.74,-103.79"/>
<polygon fill="black" stroke="black" points="591.24,-103.79 594.74,-113.79 598.24,-103.79 591.24,-103.79"/>
</g>
<!-- { provide: LocationStrategy, useClass: PathLocationStrategy } -->
<g id="node4" class="node">
<title>{ provide: LocationStrategy, useClass: PathLocationStrategy }</title>
<ellipse fill="#fdb462" stroke="black" cx="278" cy="-66.8" rx="253.77" ry="18"/>
<text text-anchor="middle" x="278" y="-62.6" font-family="Times,serif" font-size="14.00">{ provide: LocationStrategy, useClass: PathLocationStrategy }</text>
</g>
<!-- { provide: LocationStrategy, useClass: PathLocationStrategy }&#45;&gt;DmpFormComponent -->
<g id="edge3" class="edge">
<title>{ provide: LocationStrategy, useClass: PathLocationStrategy }&#45;&gt;DmpFormComponent</title>
<path fill="none" stroke="black" d="M515.9,-73.27C515.9,-73.27 515.9,-103.58 515.9,-103.58"/>
<polygon fill="black" stroke="black" points="512.4,-103.58 515.9,-113.58 519.4,-103.58 512.4,-103.58"/>
</g>
<!-- SharedModule -->
<g id="node5" class="node">
<title>SharedModule</title>
<polygon fill="#8dd3c7" stroke="black" points="762.43,-149.8 759.43,-153.8 738.43,-153.8 735.43,-149.8 663.57,-149.8 663.57,-113.8 762.43,-113.8 762.43,-149.8"/>
<text text-anchor="middle" x="713" y="-127.6" font-family="Times,serif" font-size="14.00">SharedModule</text>
</g>
<!-- SharedModule&#45;&gt;DmpModule -->
<g id="edge4" class="edge">
<title>SharedModule&#45;&gt;DmpModule</title>
<path fill="none" stroke="black" d="M668.78,-149.91C668.78,-149.91 668.78,-168.79 668.78,-168.79"/>
<polygon fill="black" stroke="black" points="665.28,-168.79 668.78,-178.79 672.28,-168.79 665.28,-168.79"/>
</g>
</g>
</svg>
