<?xml version="1.0" encoding="UTF-8" standalone="no"?>
<!DOCTYPE svg PUBLIC "-//W3C//DTD SVG 1.1//EN"
 "http://www.w3.org/Graphics/SVG/1.1/DTD/svg11.dtd">
<!-- Generated by graphviz version 2.44.1 (20200629.0846)
 -->
<!-- Title: dependencies Pages: 1 -->
<svg width="672pt" height="349pt"
 viewBox="0.00 0.00 672.00 349.00" xmlns="http://www.w3.org/2000/svg" xmlns:xlink="http://www.w3.org/1999/xlink">
<g id="graph0" class="graph" transform="scale(1 1) rotate(0) translate(4 345)">
<title>dependencies</title>
<polygon fill="white" stroke="transparent" points="-4,4 -4,-345 668,-345 668,4 -4,4"/>
<text text-anchor="start" x="311.01" y="-42.4" font-family="sans-serif" font-weight="bold" font-size="14.00">Legend</text>
<polygon fill="#ffffb3" stroke="transparent" points="98,-10 98,-30 118,-30 118,-10 98,-10"/>
<text text-anchor="start" x="121.63" y="-15.4" font-family="sans-serif" font-size="14.00"> &#160;Declarations</text>
<polygon fill="#8dd3c7" stroke="transparent" points="211,-10 211,-30 231,-30 231,-10 211,-10"/>
<text text-anchor="start" x="234.73" y="-15.4" font-family="sans-serif" font-size="14.00"> &#160;Module</text>
<polygon fill="#80b1d3" stroke="transparent" points="297,-10 297,-30 317,-30 317,-10 297,-10"/>
<text text-anchor="start" x="320.78" y="-15.4" font-family="sans-serif" font-size="14.00"> &#160;Bootstrap</text>
<polygon fill="#fdb462" stroke="transparent" points="394,-10 394,-30 414,-30 414,-10 394,-10"/>
<text text-anchor="start" x="417.67" y="-15.4" font-family="sans-serif" font-size="14.00"> &#160;Providers</text>
<polygon fill="#fb8072" stroke="transparent" points="490,-10 490,-30 510,-30 510,-10 490,-10"/>
<text text-anchor="start" x="513.73" y="-15.4" font-family="sans-serif" font-size="14.00"> &#160;Exports</text>
<g id="clust1" class="cluster">
<title>cluster_DmpModule</title>
<polygon fill="none" stroke="black" stroke-dasharray="1,5" points="8,-70 8,-333 656,-333 656,-70 8,-70"/>
</g>
<g id="clust2" class="cluster">
<title>cluster_DmpModule_declarations</title>
<polygon fill="none" stroke="black" points="346,-143 346,-195 502,-195 502,-143 346,-143"/>
</g>
<g id="clust3" class="cluster">
<title>cluster_DmpModule_DmpFormComponent_providers</title>
<polygon fill="none" stroke="black" points="16,-78 16,-130 648,-130 648,-78 16,-78"/>
</g>
<g id="clust4" class="cluster">
<title>cluster_DmpModule_imports</title>
<polygon fill="none" stroke="black" points="224,-143 224,-195 338,-195 338,-143 224,-143"/>
</g>
<g id="clust6" class="cluster">
<title>cluster_DmpModule_bootstrap</title>
<polygon fill="none" stroke="black" points="272,-273 272,-325 432,-325 432,-273 272,-273"/>
</g>
<!-- DmpFormComponent -->
<g id="node1" class="node">
<title>DmpFormComponent</title>
<polygon fill="#ffffb3" stroke="black" points="493.66,-187 354.34,-187 354.34,-151 493.66,-151 493.66,-187"/>
<text text-anchor="middle" x="424" y="-164.8" font-family="Times,serif" font-size="14.00">DmpFormComponent</text>
</g>
<!-- DmpModule -->
<g id="node2" class="node">
<title>DmpModule</title>
<polygon fill="#8dd3c7" stroke="black" points="395.55,-252 392.55,-256 371.55,-256 368.55,-252 308.45,-252 308.45,-216 395.55,-216 395.55,-252"/>
<text text-anchor="middle" x="352" y="-229.8" font-family="Times,serif" font-size="14.00">DmpModule</text>
</g>
<!-- DmpFormComponent&#45;&gt;DmpModule -->
<g id="edge1" class="edge">
<title>DmpFormComponent&#45;&gt;DmpModule</title>
<path fill="none" stroke="black" d="M374.97,-187.11C374.97,-187.11 374.97,-205.99 374.97,-205.99"/>
<polygon fill="black" stroke="black" points="371.47,-205.99 374.97,-215.99 378.47,-205.99 371.47,-205.99"/>
</g>
<!-- DmpFormComponent  -->
<g id="node6" class="node">
<title>DmpFormComponent </title>
<polygon fill="#80b1d3" stroke="black" points="423.66,-317 280.34,-317 280.34,-281 423.66,-281 423.66,-317"/>
<text text-anchor="middle" x="352" y="-294.8" font-family="Times,serif" font-size="14.00">DmpFormComponent </text>
</g>
<!-- DmpModule&#45;&gt;DmpFormComponent  -->
<g id="edge5" class="edge">
<title>DmpModule&#45;&gt;DmpFormComponent </title>
<path fill="none" stroke="black" stroke-dasharray="1,5" d="M352,-252.11C352,-252.11 352,-270.99 352,-270.99"/>
<polygon fill="black" stroke="black" points="348.5,-270.99 352,-280.99 355.5,-270.99 348.5,-270.99"/>
</g>
<!-- Location -->
<g id="node3" class="node">
<title>Location</title>
<ellipse fill="#fdb462" stroke="black" cx="595" cy="-104" rx="45.22" ry="18"/>
<text text-anchor="middle" x="595" y="-99.8" font-family="Times,serif" font-size="14.00">Location</text>
</g>
<!-- Location&#45;&gt;DmpFormComponent -->
<g id="edge2" class="edge">
<title>Location&#45;&gt;DmpFormComponent</title>
<path fill="none" stroke="black" d="M595,-122.11C595,-141.34 595,-169 595,-169 595,-169 504.05,-169 504.05,-169"/>
<polygon fill="black" stroke="black" points="504.05,-165.5 494.05,-169 504.05,-172.5 504.05,-165.5"/>
</g>
<!-- { provide: LocationStrategy, useClass: PathLocationStrategy } -->
<g id="node4" class="node">
<title>{ provide: LocationStrategy, useClass: PathLocationStrategy }</title>
<ellipse fill="#fdb462" stroke="black" cx="278" cy="-104" rx="253.76" ry="18"/>
<text text-anchor="middle" x="278" y="-99.8" font-family="Times,serif" font-size="14.00">{ provide: LocationStrategy, useClass: PathLocationStrategy }</text>
</g>
<!-- { provide: LocationStrategy, useClass: PathLocationStrategy }&#45;&gt;DmpFormComponent -->
<g id="edge3" class="edge">
<title>{ provide: LocationStrategy, useClass: PathLocationStrategy }&#45;&gt;DmpFormComponent</title>
<path fill="none" stroke="black" d="M424,-118.75C424,-118.75 424,-140.59 424,-140.59"/>
<polygon fill="black" stroke="black" points="420.5,-140.59 424,-150.59 427.5,-140.59 420.5,-140.59"/>
</g>
<!-- SharedModule -->
<g id="node5" class="node">
<title>SharedModule</title>
<polygon fill="#8dd3c7" stroke="black" points="330.42,-187 327.42,-191 306.42,-191 303.42,-187 231.58,-187 231.58,-151 330.42,-151 330.42,-187"/>
<text text-anchor="middle" x="281" y="-164.8" font-family="Times,serif" font-size="14.00">SharedModule</text>
</g>
<!-- SharedModule&#45;&gt;DmpModule -->
<g id="edge4" class="edge">
<title>SharedModule&#45;&gt;DmpModule</title>
<path fill="none" stroke="black" d="M319.22,-187.11C319.22,-187.11 319.22,-205.99 319.22,-205.99"/>
<polygon fill="black" stroke="black" points="315.72,-205.99 319.22,-215.99 322.72,-205.99 315.72,-205.99"/>
</g>
</g>
</svg>
