<?xml version="1.0" encoding="UTF-8" standalone="no"?>
<!DOCTYPE svg PUBLIC "-//W3C//DTD SVG 1.1//EN"
 "http://www.w3.org/Graphics/SVG/1.1/DTD/svg11.dtd">
<!-- Generated by graphviz version 2.40.1 (20161225.0304)
 -->
<!-- Title: dependencies Pages: 1 -->
<svg width="672pt" height="349pt"
 viewBox="0.00 0.00 672.00 349.00" xmlns="http://www.w3.org/2000/svg" xmlns:xlink="http://www.w3.org/1999/xlink">
<g id="graph0" class="graph" transform="scale(1 1) rotate(0) translate(4 345)">
<title>dependencies</title>
<polygon fill="#ffffff" stroke="transparent" points="-4,4 -4,-345 668,-345 668,4 -4,4"/>
<text text-anchor="start" x="311.0091" y="-42.4" font-family="sans-serif" font-weight="bold" font-size="14.00" fill="#000000">Legend</text>
<polygon fill="#ffffb3" stroke="transparent" points="98,-10 98,-30 118,-30 118,-10 98,-10"/>
<text text-anchor="start" x="121.629" y="-15.4" font-family="sans-serif" font-size="14.00" fill="#000000"> &#160;Declarations</text>
<polygon fill="#8dd3c7" stroke="transparent" points="211,-10 211,-30 231,-30 231,-10 211,-10"/>
<text text-anchor="start" x="234.7251" y="-15.4" font-family="sans-serif" font-size="14.00" fill="#000000"> &#160;Module</text>
<polygon fill="#80b1d3" stroke="transparent" points="297,-10 297,-30 317,-30 317,-10 297,-10"/>
<text text-anchor="start" x="320.7812" y="-15.4" font-family="sans-serif" font-size="14.00" fill="#000000"> &#160;Bootstrap</text>
<polygon fill="#fdb462" stroke="transparent" points="394,-10 394,-30 414,-30 414,-10 394,-10"/>
<text text-anchor="start" x="417.6732" y="-15.4" font-family="sans-serif" font-size="14.00" fill="#000000"> &#160;Providers</text>
<polygon fill="#fb8072" stroke="transparent" points="490,-10 490,-30 510,-30 510,-10 490,-10"/>
<text text-anchor="start" x="513.7258" y="-15.4" font-family="sans-serif" font-size="14.00" fill="#000000"> &#160;Exports</text>
<g id="clust1" class="cluster">
<title>cluster_DmpModule</title>
<polygon fill="none" stroke="#000000" stroke-dasharray="1,5" points="8,-70 8,-333 656,-333 656,-70 8,-70"/>
</g>
<g id="clust2" class="cluster">
<title>cluster_DmpModule_declarations</title>
<polygon fill="none" stroke="#000000" points="346,-143 346,-195 502,-195 502,-143 346,-143"/>
</g>
<g id="clust3" class="cluster">
<title>cluster_DmpModule_DmpFormComponent_providers</title>
<polygon fill="none" stroke="#000000" points="16,-78 16,-130 648,-130 648,-78 16,-78"/>
</g>
<g id="clust4" class="cluster">
<title>cluster_DmpModule_imports</title>
<polygon fill="none" stroke="#000000" points="224,-143 224,-195 338,-195 338,-143 224,-143"/>
</g>
<g id="clust6" class="cluster">
<title>cluster_DmpModule_bootstrap</title>
<polygon fill="none" stroke="#000000" points="272,-273 272,-325 432,-325 432,-273 272,-273"/>
</g>
<!-- DmpFormComponent -->
<g id="node1" class="node">
<title>DmpFormComponent</title>
<polygon fill="#ffffb3" stroke="#000000" points="493.6638,-187 354.3362,-187 354.3362,-151 493.6638,-151 493.6638,-187"/>
<text text-anchor="middle" x="424" y="-164.8" font-family="Times,serif" font-size="14.00" fill="#000000">DmpFormComponent</text>
</g>
<!-- DmpModule -->
<g id="node2" class="node">
<title>DmpModule</title>
<polygon fill="#8dd3c7" stroke="#000000" points="395.5482,-252 392.5482,-256 371.5482,-256 368.5482,-252 308.4518,-252 308.4518,-216 395.5482,-216 395.5482,-252"/>
<text text-anchor="middle" x="352" y="-229.8" font-family="Times,serif" font-size="14.00" fill="#000000">DmpModule</text>
</g>
<!-- DmpFormComponent&#45;&gt;DmpModule -->
<g id="edge1" class="edge">
<title>DmpFormComponent&#45;&gt;DmpModule</title>
<path fill="none" stroke="#000000" d="M374.9709,-187.1061C374.9709,-187.1061 374.9709,-205.991 374.9709,-205.991"/>
<polygon fill="#000000" stroke="#000000" points="371.471,-205.9909 374.9709,-215.991 378.471,-205.991 371.471,-205.9909"/>
</g>
<!-- DmpFormComponent  -->
<g id="node6" class="node">
<title>DmpFormComponent </title>
<polygon fill="#80b1d3" stroke="#000000" points="423.6635,-317 280.3365,-317 280.3365,-281 423.6635,-281 423.6635,-317"/>
<text text-anchor="middle" x="352" y="-294.8" font-family="Times,serif" font-size="14.00" fill="#000000">DmpFormComponent </text>
</g>
<!-- DmpModule&#45;&gt;DmpFormComponent  -->
<g id="edge5" class="edge">
<title>DmpModule&#45;&gt;DmpFormComponent </title>
<path fill="none" stroke="#000000" stroke-dasharray="1,5" d="M352,-252.1061C352,-252.1061 352,-270.991 352,-270.991"/>
<polygon fill="#000000" stroke="#000000" points="348.5001,-270.9909 352,-280.991 355.5001,-270.991 348.5001,-270.9909"/>
</g>
<!-- Location -->
<g id="node3" class="node">
<title>Location</title>
<ellipse fill="#fdb462" stroke="#000000" cx="595" cy="-104" rx="45.2247" ry="18"/>
<text text-anchor="middle" x="595" y="-99.8" font-family="Times,serif" font-size="14.00" fill="#000000">Location</text>
</g>
<!-- Location&#45;&gt;DmpFormComponent -->
<g id="edge2" class="edge">
<title>Location&#45;&gt;DmpFormComponent</title>
<path fill="none" stroke="#000000" d="M595,-122.1061C595,-141.3391 595,-169 595,-169 595,-169 504.0456,-169 504.0456,-169"/>
<polygon fill="#000000" stroke="#000000" points="504.0457,-165.5001 494.0456,-169 504.0456,-172.5001 504.0457,-165.5001"/>
</g>
<!-- { provide: LocationStrategy, useClass: PathLocationStrategy } -->
<g id="node4" class="node">
<title>{ provide: LocationStrategy, useClass: PathLocationStrategy }</title>
<ellipse fill="#fdb462" stroke="#000000" cx="278" cy="-104" rx="253.7592" ry="18"/>
<text text-anchor="middle" x="278" y="-99.8" font-family="Times,serif" font-size="14.00" fill="#000000">{ provide: LocationStrategy, useClass: PathLocationStrategy }</text>
</g>
<!-- { provide: LocationStrategy, useClass: PathLocationStrategy }&#45;&gt;DmpFormComponent -->
<g id="edge3" class="edge">
<title>{ provide: LocationStrategy, useClass: PathLocationStrategy }&#45;&gt;DmpFormComponent</title>
<path fill="none" stroke="#000000" d="M424,-118.7495C424,-118.7495 424,-140.5882 424,-140.5882"/>
<polygon fill="#000000" stroke="#000000" points="420.5001,-140.5881 424,-150.5882 427.5001,-140.5882 420.5001,-140.5881"/>
</g>
<!-- SharedModule -->
<g id="node5" class="node">
<title>SharedModule</title>
<polygon fill="#8dd3c7" stroke="#000000" points="330.4231,-187 327.4231,-191 306.4231,-191 303.4231,-187 231.5769,-187 231.5769,-151 330.4231,-151 330.4231,-187"/>
<text text-anchor="middle" x="281" y="-164.8" font-family="Times,serif" font-size="14.00" fill="#000000">SharedModule</text>
</g>
<!-- SharedModule&#45;&gt;DmpModule -->
<g id="edge4" class="edge">
<title>SharedModule&#45;&gt;DmpModule</title>
<path fill="none" stroke="#000000" d="M319.2188,-187.1061C319.2188,-187.1061 319.2188,-205.991 319.2188,-205.991"/>
<polygon fill="#000000" stroke="#000000" points="315.7189,-205.9909 319.2188,-215.991 322.7189,-205.991 315.7189,-205.9909"/>
</g>
</g>
</svg>
