<?xml version="1.0" encoding="UTF-8" standalone="no"?>
<!DOCTYPE svg PUBLIC "-//W3C//DTD SVG 1.1//EN"
 "http://www.w3.org/Graphics/SVG/1.1/DTD/svg11.dtd">
<!-- Generated by graphviz version 2.40.1 (20161225.0304)
 -->
<!-- Title: dependencies Pages: 1 -->
<svg width="504pt" height="349pt"
 viewBox="0.00 0.00 504.00 349.00" xmlns="http://www.w3.org/2000/svg" xmlns:xlink="http://www.w3.org/1999/xlink">
<g id="graph0" class="graph" transform="scale(1 1) rotate(0) translate(4 345)">
<title>dependencies</title>
<polygon fill="#ffffff" stroke="transparent" points="-4,4 -4,-345 500,-345 500,4 -4,4"/>
<text text-anchor="start" x="227.0091" y="-42.4" font-family="sans-serif" font-weight="bold" font-size="14.00" fill="#000000">Legend</text>
<polygon fill="#ffffb3" stroke="transparent" points="14,-10 14,-30 34,-30 34,-10 14,-10"/>
<text text-anchor="start" x="37.629" y="-15.4" font-family="sans-serif" font-size="14.00" fill="#000000"> &#160;Declarations</text>
<polygon fill="#8dd3c7" stroke="transparent" points="127,-10 127,-30 147,-30 147,-10 127,-10"/>
<text text-anchor="start" x="150.7251" y="-15.4" font-family="sans-serif" font-size="14.00" fill="#000000"> &#160;Module</text>
<polygon fill="#80b1d3" stroke="transparent" points="213,-10 213,-30 233,-30 233,-10 213,-10"/>
<text text-anchor="start" x="236.7812" y="-15.4" font-family="sans-serif" font-size="14.00" fill="#000000"> &#160;Bootstrap</text>
<polygon fill="#fdb462" stroke="transparent" points="310,-10 310,-30 330,-30 330,-10 310,-10"/>
<text text-anchor="start" x="333.6732" y="-15.4" font-family="sans-serif" font-size="14.00" fill="#000000"> &#160;Providers</text>
<polygon fill="#fb8072" stroke="transparent" points="406,-10 406,-30 426,-30 426,-10 406,-10"/>
<text text-anchor="start" x="429.7258" y="-15.4" font-family="sans-serif" font-size="14.00" fill="#000000"> &#160;Exports</text>
<g id="clust1" class="cluster">
<title>cluster_UserProfileModule</title>
<polygon fill="none" stroke="#000000" stroke-dasharray="1,5" points="98,-70 98,-333 398,-333 398,-70 98,-70"/>
</g>
<g id="clust2" class="cluster">
<title>cluster_UserProfileModule_declarations</title>
<polygon fill="none" stroke="#000000" points="228,-143 228,-195 390,-195 390,-143 228,-143"/>
</g>
<g id="clust3" class="cluster">
<title>cluster_UserProfileModule_UserProfileComponent_providers</title>
<polygon fill="none" stroke="#000000" points="171,-78 171,-130 376,-130 376,-78 171,-78"/>
</g>
<g id="clust4" class="cluster">
<title>cluster_UserProfileModule_imports</title>
<polygon fill="none" stroke="#000000" points="106,-143 106,-195 220,-195 220,-143 106,-143"/>
</g>
<g id="clust6" class="cluster">
<title>cluster_UserProfileModule_bootstrap</title>
<polygon fill="none" stroke="#000000" points="165,-273 165,-325 331,-325 331,-273 165,-273"/>
</g>
<!-- UserProfileComponent -->
<g id="node1" class="node">
<title>UserProfileComponent</title>
<polygon fill="#ffffb3" stroke="#000000" points="381.8585,-187 236.1415,-187 236.1415,-151 381.8585,-151 381.8585,-187"/>
<text text-anchor="middle" x="309" y="-164.8" font-family="Times,serif" font-size="14.00" fill="#000000">UserProfileComponent</text>
</g>
<!-- UserProfileModule -->
<g id="node2" class="node">
<title>UserProfileModule</title>
<polygon fill="#8dd3c7" stroke="#000000" points="310.0758,-252 307.0758,-256 286.0758,-256 283.0758,-252 185.9242,-252 185.9242,-216 310.0758,-216 310.0758,-252"/>
<text text-anchor="middle" x="248" y="-229.8" font-family="Times,serif" font-size="14.00" fill="#000000">UserProfileModule</text>
</g>
<!-- UserProfileComponent&#45;&gt;UserProfileModule -->
<g id="edge1" class="edge">
<title>UserProfileComponent&#45;&gt;UserProfileModule</title>
<path fill="none" stroke="#000000" d="M273.0544,-187.1061C273.0544,-187.1061 273.0544,-205.991 273.0544,-205.991"/>
<polygon fill="#000000" stroke="#000000" points="269.5544,-205.9909 273.0544,-215.991 276.5544,-205.991 269.5544,-205.9909"/>
</g>
<!-- UserProfileComponent  -->
<g id="node6" class="node">
<title>UserProfileComponent </title>
<polygon fill="#80b1d3" stroke="#000000" points="322.8588,-317 173.1412,-317 173.1412,-281 322.8588,-281 322.8588,-317"/>
<text text-anchor="middle" x="248" y="-294.8" font-family="Times,serif" font-size="14.00" fill="#000000">UserProfileComponent </text>
</g>
<!-- UserProfileModule&#45;&gt;UserProfileComponent  -->
<g id="edge5" class="edge">
<title>UserProfileModule&#45;&gt;UserProfileComponent </title>
<path fill="none" stroke="#000000" stroke-dasharray="1,5" d="M248,-252.1061C248,-252.1061 248,-270.991 248,-270.991"/>
<polygon fill="#000000" stroke="#000000" points="244.5001,-270.9909 248,-280.991 251.5001,-270.991 244.5001,-270.9909"/>
</g>
<!-- Location -->
<g id="node3" class="node">
<title>Location</title>
<ellipse fill="#fdb462" stroke="#000000" cx="323" cy="-104" rx="45.2247" ry="18"/>
<text text-anchor="middle" x="323" y="-99.8" font-family="Times,serif" font-size="14.00" fill="#000000">Location</text>
</g>
<!-- Location&#45;&gt;UserProfileComponent -->
<g id="edge2" class="edge">
<title>Location&#45;&gt;UserProfileComponent</title>
<path fill="none" stroke="#000000" d="M323,-122.1061C323,-122.1061 323,-140.991 323,-140.991"/>
<polygon fill="#000000" stroke="#000000" points="319.5001,-140.9909 323,-150.991 326.5001,-140.991 319.5001,-140.9909"/>
</g>
<!-- { : , : &#160;} -->
<g id="node4" class="node">
<title>{ : , : &#160;}</title>
<ellipse fill="#fdb462" stroke="#000000" cx="219" cy="-104" rx="40.3166" ry="18"/>
<text text-anchor="middle" x="219" y="-99.8" font-family="Times,serif" font-size="14.00" fill="#000000">{ : , : &#160;}</text>
</g>
<!-- { : , : &#160;}&#45;&gt;UserProfileComponent -->
<g id="edge3" class="edge">
<title>{ : , : &#160;}&#45;&gt;UserProfileComponent</title>
<path fill="none" stroke="#000000" d="M247.6144,-116.8419C247.6144,-116.8419 247.6144,-140.5231 247.6144,-140.5231"/>
<polygon fill="#000000" stroke="#000000" points="244.1145,-140.523 247.6144,-150.5231 251.1145,-140.5231 244.1145,-140.523"/>
</g>
<!-- SharedModule -->
<g id="node5" class="node">
<title>SharedModule</title>
<polygon fill="#8dd3c7" stroke="#000000" points="212.4231,-187 209.4231,-191 188.4231,-191 185.4231,-187 113.5769,-187 113.5769,-151 212.4231,-151 212.4231,-187"/>
<text text-anchor="middle" x="163" y="-164.8" font-family="Times,serif" font-size="14.00" fill="#000000">SharedModule</text>
</g>
<!-- SharedModule&#45;&gt;UserProfileModule -->
<g id="edge4" class="edge">
<title>SharedModule&#45;&gt;UserProfileModule</title>
<path fill="none" stroke="#000000" d="M199.0866,-187.1061C199.0866,-187.1061 199.0866,-205.991 199.0866,-205.991"/>
<polygon fill="#000000" stroke="#000000" points="195.5867,-205.9909 199.0866,-215.991 202.5867,-205.991 195.5867,-205.9909"/>
</g>
</g>
</svg>
