<?xml version="1.0" encoding="UTF-8" standalone="no"?>
<!DOCTYPE svg PUBLIC "-//W3C//DTD SVG 1.1//EN"
 "http://www.w3.org/Graphics/SVG/1.1/DTD/svg11.dtd">
<!-- Generated by graphviz version 2.44.1 (20200629.0846)
 -->
<!-- Title: dependencies Pages: 1 -->
<svg width="504pt" height="284pt"
 viewBox="0.00 0.00 504.00 284.00" xmlns="http://www.w3.org/2000/svg" xmlns:xlink="http://www.w3.org/1999/xlink">
<g id="graph0" class="graph" transform="scale(1 1) rotate(0) translate(4 280)">
<title>dependencies</title>
<polygon fill="white" stroke="transparent" points="-4,4 -4,-280 500,-280 500,4 -4,4"/>
<text text-anchor="start" x="227.01" y="-42.4" font-family="sans-serif" font-weight="bold" font-size="14.00">Legend</text>
<polygon fill="#ffffb3" stroke="transparent" points="14,-10 14,-30 34,-30 34,-10 14,-10"/>
<text text-anchor="start" x="37.63" y="-15.4" font-family="sans-serif" font-size="14.00"> &#160;Declarations</text>
<polygon fill="#8dd3c7" stroke="transparent" points="127,-10 127,-30 147,-30 147,-10 127,-10"/>
<text text-anchor="start" x="150.73" y="-15.4" font-family="sans-serif" font-size="14.00"> &#160;Module</text>
<polygon fill="#80b1d3" stroke="transparent" points="213,-10 213,-30 233,-30 233,-10 213,-10"/>
<text text-anchor="start" x="236.78" y="-15.4" font-family="sans-serif" font-size="14.00"> &#160;Bootstrap</text>
<polygon fill="#fdb462" stroke="transparent" points="310,-10 310,-30 330,-30 330,-10 310,-10"/>
<text text-anchor="start" x="333.67" y="-15.4" font-family="sans-serif" font-size="14.00"> &#160;Providers</text>
<polygon fill="#fb8072" stroke="transparent" points="406,-10 406,-30 426,-30 426,-10 406,-10"/>
<text text-anchor="start" x="429.73" y="-15.4" font-family="sans-serif" font-size="14.00"> &#160;Exports</text>
<g id="clust1" class="cluster">
<title>cluster_UserProfileModule</title>
<polygon fill="none" stroke="black" stroke-dasharray="1,5" points="98,-70 98,-268 398,-268 398,-70 98,-70"/>
</g>
<g id="clust6" class="cluster">
<title>cluster_UserProfileModule_bootstrap</title>
<polygon fill="none" stroke="black" points="165,-208 165,-260 331,-260 331,-208 165,-208"/>
</g>
<g id="clust2" class="cluster">
<title>cluster_UserProfileModule_declarations</title>
<polygon fill="none" stroke="black" points="228,-78 228,-130 390,-130 390,-78 228,-78"/>
</g>
<g id="clust4" class="cluster">
<title>cluster_UserProfileModule_imports</title>
<polygon fill="none" stroke="black" points="106,-78 106,-130 220,-130 220,-78 106,-78"/>
</g>
<!-- UserProfileComponent -->
<g id="node1" class="node">
<title>UserProfileComponent</title>
<polygon fill="#ffffb3" stroke="black" points="381.86,-122 236.14,-122 236.14,-86 381.86,-86 381.86,-122"/>
<text text-anchor="middle" x="309" y="-99.8" font-family="Times,serif" font-size="14.00">UserProfileComponent</text>
</g>
<!-- UserProfileModule -->
<g id="node2" class="node">
<title>UserProfileModule</title>
<polygon fill="#8dd3c7" stroke="black" points="310.08,-187 307.08,-191 286.08,-191 283.08,-187 185.92,-187 185.92,-151 310.08,-151 310.08,-187"/>
<text text-anchor="middle" x="248" y="-164.8" font-family="Times,serif" font-size="14.00">UserProfileModule</text>
</g>
<!-- UserProfileComponent&#45;&gt;UserProfileModule -->
<g id="edge1" class="edge">
<title>UserProfileComponent&#45;&gt;UserProfileModule</title>
<path fill="none" stroke="black" d="M273.05,-122.11C273.05,-122.11 273.05,-140.99 273.05,-140.99"/>
<polygon fill="black" stroke="black" points="269.55,-140.99 273.05,-150.99 276.55,-140.99 269.55,-140.99"/>
</g>
<!-- UserProfileComponent  -->
<g id="node4" class="node">
<title>UserProfileComponent </title>
<polygon fill="#80b1d3" stroke="black" points="322.86,-252 173.14,-252 173.14,-216 322.86,-216 322.86,-252"/>
<text text-anchor="middle" x="248" y="-229.8" font-family="Times,serif" font-size="14.00">UserProfileComponent </text>
</g>
<!-- UserProfileModule&#45;&gt;UserProfileComponent  -->
<g id="edge3" class="edge">
<title>UserProfileModule&#45;&gt;UserProfileComponent </title>
<path fill="none" stroke="black" stroke-dasharray="1,5" d="M248,-187.11C248,-187.11 248,-205.99 248,-205.99"/>
<polygon fill="black" stroke="black" points="244.5,-205.99 248,-215.99 251.5,-205.99 244.5,-205.99"/>
</g>
<!-- SharedModule -->
<g id="node3" class="node">
<title>SharedModule</title>
<polygon fill="#8dd3c7" stroke="black" points="212.42,-122 209.42,-126 188.42,-126 185.42,-122 113.58,-122 113.58,-86 212.42,-86 212.42,-122"/>
<text text-anchor="middle" x="163" y="-99.8" font-family="Times,serif" font-size="14.00">SharedModule</text>
</g>
<!-- SharedModule&#45;&gt;UserProfileModule -->
<g id="edge2" class="edge">
<title>SharedModule&#45;&gt;UserProfileModule</title>
<path fill="none" stroke="black" d="M199.09,-122.11C199.09,-122.11 199.09,-140.99 199.09,-140.99"/>
<polygon fill="black" stroke="black" points="195.59,-140.99 199.09,-150.99 202.59,-140.99 195.59,-140.99"/>
</g>
</g>
</svg>
