<?xml version="1.0" encoding="UTF-8" standalone="no"?>
<!DOCTYPE svg PUBLIC "-//W3C//DTD SVG 1.1//EN"
 "http://www.w3.org/Graphics/SVG/1.1/DTD/svg11.dtd">
<!-- Generated by graphviz version 3.0.0 (20220226.1711)
 -->
<!-- Title: dependencies Pages: 1 -->
<svg width="324pt" height="247pt"
 viewBox="0.00 0.00 324.00 246.80" xmlns="http://www.w3.org/2000/svg" xmlns:xlink="http://www.w3.org/1999/xlink">
<g id="graph0" class="graph" transform="scale(1 1) rotate(0) translate(4 242.8)">
<title>dependencies</title>
<polygon fill="white" stroke="transparent" points="-4,4 -4,-242.8 320,-242.8 320,4 -4,4"/>
<text text-anchor="middle" x="158" y="-8.2" font-family="sans-serif" font-size="14.00">dependencies</text>
<g id="clust1" class="cluster">
<title>cluster_UserProfileModule</title>
<polygon fill="none" stroke="black" stroke-dasharray="1,5" points="8,-32.8 8,-230.8 308,-230.8 308,-32.8 8,-32.8"/>
</g>
<g id="clust2" class="cluster">
<title>cluster_UserProfileModule_declarations</title>
<polygon fill="none" stroke="black" points="138,-40.8 138,-92.8 300,-92.8 300,-40.8 138,-40.8"/>
</g>
<g id="clust4" class="cluster">
<title>cluster_UserProfileModule_imports</title>
<polygon fill="none" stroke="black" points="16,-40.8 16,-92.8 130,-92.8 130,-40.8 16,-40.8"/>
</g>
<g id="clust6" class="cluster">
<title>cluster_UserProfileModule_bootstrap</title>
<polygon fill="none" stroke="black" points="75,-170.8 75,-222.8 241,-222.8 241,-170.8 75,-170.8"/>
</g>
<!-- UserProfileComponent -->
<g id="node1" class="node">
<title>UserProfileComponent</title>
<polygon fill="#ffffb3" stroke="black" points="291.87,-84.8 146.13,-84.8 146.13,-48.8 291.87,-48.8 291.87,-84.8"/>
<text text-anchor="middle" x="219" y="-62.6" font-family="Times,serif" font-size="14.00">UserProfileComponent</text>
</g>
<!-- UserProfileModule -->
<g id="node2" class="node">
<title>UserProfileModule</title>
<polygon fill="#8dd3c7" stroke="black" points="220.09,-149.8 217.09,-153.8 196.09,-153.8 193.09,-149.8 95.91,-149.8 95.91,-113.8 220.09,-113.8 220.09,-149.8"/>
<text text-anchor="middle" x="158" y="-127.6" font-family="Times,serif" font-size="14.00">UserProfileModule</text>
</g>
<!-- UserProfileComponent&#45;&gt;UserProfileModule -->
<g id="edge1" class="edge">
<title>UserProfileComponent&#45;&gt;UserProfileModule</title>
<path fill="none" stroke="black" d="M183.06,-84.91C183.06,-84.91 183.06,-103.79 183.06,-103.79"/>
<polygon fill="black" stroke="black" points="179.56,-103.79 183.06,-113.79 186.56,-103.79 179.56,-103.79"/>
</g>
<!-- UserProfileComponent  -->
<g id="node4" class="node">
<title>UserProfileComponent </title>
<polygon fill="#80b1d3" stroke="black" points="232.87,-214.8 83.13,-214.8 83.13,-178.8 232.87,-178.8 232.87,-214.8"/>
<text text-anchor="middle" x="158" y="-192.6" font-family="Times,serif" font-size="14.00">UserProfileComponent </text>
</g>
<!-- UserProfileModule&#45;&gt;UserProfileComponent  -->
<g id="edge3" class="edge">
<title>UserProfileModule&#45;&gt;UserProfileComponent </title>
<path fill="none" stroke="black" stroke-dasharray="1,5" d="M158,-149.91C158,-149.91 158,-168.79 158,-168.79"/>
<polygon fill="black" stroke="black" points="154.5,-168.79 158,-178.79 161.5,-168.79 154.5,-168.79"/>
</g>
<!-- SharedModule -->
<g id="node3" class="node">
<title>SharedModule</title>
<polygon fill="#8dd3c7" stroke="black" points="122.43,-84.8 119.43,-88.8 98.43,-88.8 95.43,-84.8 23.57,-84.8 23.57,-48.8 122.43,-48.8 122.43,-84.8"/>
<text text-anchor="middle" x="73" y="-62.6" font-family="Times,serif" font-size="14.00">SharedModule</text>
</g>
<!-- SharedModule&#45;&gt;UserProfileModule -->
<g id="edge2" class="edge">
<title>SharedModule&#45;&gt;UserProfileModule</title>
<path fill="none" stroke="black" d="M109.08,-84.91C109.08,-84.91 109.08,-103.79 109.08,-103.79"/>
<polygon fill="black" stroke="black" points="105.58,-103.79 109.08,-113.79 112.58,-103.79 105.58,-103.79"/>
</g>
</g>
</svg>
